<?xml version="1.0" encoding="UTF-8"?>
<svg width="77px" height="20px" viewBox="0 0 77 20" version="1.1" xmlns="http://www.w3.org/2000/svg" xmlns:xlink="http://www.w3.org/1999/xlink">
    <title>Logo</title>
    <defs>
        <polygon id="path-1" points="0.0876293103 0.0997844828 11.2091869 0.0997844828 11.2091869 9.65517241 0.0876293103 9.65517241"></polygon>
        <polygon id="path-3" points="1.22507368e-15 0.0995258621 11.1222414 0.0995258621 11.1222414 9.65517241 1.22507368e-15 9.65517241"></polygon>
        <polygon id="path-5" points="0.431853448 0.238275862 6.81939655 0.238275862 6.81939655 10.2869828 0.431853448 10.2869828"></polygon>
    </defs>
    <g id="Symbols" stroke="none" stroke-width="1" fill="none" fill-rule="evenodd">
        <g id="Footer" transform="translate(-16.000000, -13.000000)">
            <g id="Logo" transform="translate(16.000000, 13.000000)">
                <g id="Group-7" transform="translate(0.000000, 9.842716)">
                    <g id="Group-3" transform="translate(11.034483, 0.000000)">
                        <mask id="mask-2" fill="white">
                            <use xlink:href="#path-1"></use>
                        </mask>
                        <g id="Clip-2"></g>
                        <path d="M11.0053017,8.89030172 L5.92987069,0.0997844828 L4.05875,1.17952586 L5.87297414,4.32176724 L2.24711207,2.22564655 L0.0876293103,3.47349138 L10.4415086,9.45150862 C11.1734052,9.87306034 11.4268534,9.61961207 11.0053017,8.89030172" id="Fill-1" fill="#2273FA" mask="url(#mask-2)"></path>
                    </g>
                    <g id="Group-6">
                        <mask id="mask-4" fill="white">
                            <use xlink:href="#path-3"></use>
                        </mask>
                        <g id="Clip-5"></g>
                        <path d="M5.33431034,4.32150862 L7.14982759,1.17926724 L5.2787069,0.0995258621 L0.203275862,8.8900431 C-0.216982759,9.62064655 0.0351724138,9.87280172 0.765775862,9.45125 L11.1222414,3.47323276 L8.96275862,2.22538793 L5.33431034,4.32150862 Z" id="Fill-4" fill="#6030FB" mask="url(#mask-4)"></path>
                    </g>
                </g>
                <polygon id="Fill-8" fill="#FFFFFF" points="12.2006897 11.4453448 11.1222414 10.8233621 10.0425 11.4453448 8.96275862 12.0673276 11.1222414 13.3151724 13.280431 12.0673276"></polygon>
                <g id="Group-20" transform="translate(5.172414, 0.101336)">
                    <path d="M1.97715517,10.9210345 L5.94956897,4.03784483 L9.92198276,10.9210345 L11.7918103,9.8412931 L6.71767241,1.04948276 C6.29482759,0.320172414 5.60301724,0.320172414 5.18275862,1.04948276 L0.106034483,9.8412931 L1.97715517,10.9210345 Z" id="Fill-9" fill="#FFFFFF"></path>
                    <path d="M25.0657759,11.4248276 L27.9506897,11.4248276 L26.5153448,8.26836207 L26.4726724,8.26836207 L25.0657759,11.4248276 Z M21.9946552,14.855431 C21.8886207,14.855431 21.8097414,14.817931 21.7567241,14.7403448 C21.705,14.6640517 21.7024138,14.5774138 21.7502586,14.4817241 L26.2140517,4.82224138 C26.2618966,4.7175 26.3433621,4.66318966 26.4584483,4.66318966 L26.6019828,4.66318966 C26.717069,4.66318966 26.7972414,4.7175 26.8450862,4.82224138 L31.2675,14.4817241 C31.3153448,14.5774138 31.3127586,14.6640517 31.2597414,14.7403448 C31.2080172,14.817931 31.1278448,14.855431 31.0231034,14.855431 L29.7739655,14.855431 C29.5916379,14.855431 29.4532759,14.7597414 29.3575862,14.5696552 L28.6541379,13.017931 L24.3623276,13.017931 L23.6588793,14.5696552 C23.5825862,14.7597414 23.4442241,14.855431 23.2425,14.855431 L21.9946552,14.855431 Z" id="Fill-11" fill="#FFFFFF"></path>
                    <path d="M36.1405603,13.4996121 C35.1306466,12.5000431 34.6263362,11.2819397 34.6263362,9.84659483 C34.6263362,8.4099569 35.1306466,7.18797414 36.1405603,6.17935345 C37.1504741,5.16943966 38.3724569,4.66383621 39.8078017,4.66383621 C41.1280603,4.66383621 42.286681,5.1099569 43.2810776,5.99961207 C43.4246121,6.13409483 43.4297845,6.26728448 43.2965948,6.40176724 L42.4198707,7.30564655 C42.3060776,7.42978448 42.185819,7.42978448 42.061681,7.30564655 C41.4203017,6.74056034 40.6832328,6.45866379 39.8517672,6.45866379 C38.9427155,6.45866379 38.1810776,6.78711207 37.5681466,7.44142241 C36.9565086,8.09702586 36.6500431,8.88452586 36.6500431,9.80392241 C36.6500431,10.7129741 36.9590948,11.4914224 37.5759052,12.1431466 C38.1927155,12.7935776 38.9556466,13.1194397 39.8646983,13.1194397 C40.6599569,13.1194397 41.3918534,12.8465948 42.061681,12.3009052 C42.185819,12.185819 42.3060776,12.185819 42.4198707,12.3009052 L43.310819,13.2190086 C43.3677155,13.2771983 43.3935776,13.3418534 43.3896983,13.4142672 C43.3845259,13.4840948 43.3534914,13.5500431 43.2965948,13.6069397 C42.3384052,14.5353879 41.1771983,14.9996121 39.8078017,14.9996121 C38.3724569,14.9996121 37.1504741,14.499181 36.1405603,13.4996121" id="Fill-13" fill="#FFFFFF"></path>
                    <path d="M47.387069,14.5263362 L49.0952586,4.87978448 C49.1146552,4.73625 49.2,4.66383621 49.3538793,4.66383621 L49.5827586,4.66383621 C49.6978448,4.66383621 49.7793103,4.71168103 49.8271552,4.80737069 L52.9849138,11.5832328 L53.0288793,11.5832328 L56.1866379,4.80737069 C56.2344828,4.71168103 56.3159483,4.66383621 56.4310345,4.66383621 L56.6599138,4.66383621 C56.8137931,4.66383621 56.8991379,4.73625 56.9185345,4.87978448 L58.6125,14.5263362 C58.6306034,14.6207328 58.6176724,14.7009052 58.5685345,14.7629741 C58.5206897,14.82375 58.449569,14.8560776 58.3538793,14.8560776 L57.0478448,14.8560776 C56.9043103,14.8560776 56.8137931,14.7836638 56.775,14.6401293 L55.9280172,9.2000431 L55.8853448,9.2000431 L53.3728448,14.8418534 C53.3340517,14.9465948 53.2538793,14.9996121 53.1284483,14.9996121 L52.8711207,14.9996121 C52.7650862,14.9996121 52.6836207,14.9465948 52.6267241,14.8418534 L50.0857759,9.2000431 L50.0431034,9.2000431 L49.2103448,14.6401293 C49.2,14.698319 49.1689655,14.74875 49.1172414,14.7914224 C49.0642241,14.8340948 49.0086207,14.8560776 48.9517241,14.8560776 L47.6599138,14.8560776 C47.4491379,14.8560776 47.3586207,14.7461638 47.387069,14.5263362" id="Fill-15" fill="#FFFFFF"></path>
                    <g id="Group-19" transform="translate(63.017241, 4.568966)">
                        <mask id="mask-6" fill="white">
                            <use xlink:href="#path-5"></use>
                        </mask>
                        <g id="Clip-18"></g>
                        <path d="M0.431853448,10.0141379 L0.431853448,0.51112069 C0.431853448,0.434827586 0.457715517,0.370172414 0.510732759,0.318448276 C0.56375,0.265431034 0.627112069,0.238275862 0.704698276,0.238275862 L6.54693966,0.238275862 C6.62323276,0.238275862 6.68788793,0.265431034 6.73961207,0.318448276 C6.79262931,0.370172414 6.81978448,0.434827586 6.81978448,0.51112069 L6.81978448,1.68913793 C6.81978448,1.76543103 6.79262931,1.83008621 6.73961207,1.88310345 C6.68788793,1.93482759 6.62323276,1.96068966 6.54693966,1.96068966 L2.29780172,1.96068966 L2.29780172,4.31543103 L5.84349138,4.31543103 C5.91978448,4.31543103 5.98443966,4.34387931 6.0374569,4.40077586 C6.08918103,4.45896552 6.11633621,4.52103448 6.11633621,4.58827586 L6.11633621,5.78051724 C6.11633621,5.85551724 6.08918103,5.92146552 6.0374569,5.97318966 C5.98443966,6.0262069 5.91978448,6.05336207 5.84349138,6.05336207 L2.29780172,6.05336207 L2.29780172,8.56456897 L6.54693966,8.56456897 C6.62323276,8.56456897 6.68788793,8.59043103 6.73961207,8.64215517 C6.79262931,8.69517241 6.81978448,8.75982759 6.81978448,8.83741379 L6.81978448,10.0141379 C6.81978448,10.0917241 6.79262931,10.1550862 6.73961207,10.2068103 C6.68788793,10.2598276 6.62323276,10.2869828 6.54693966,10.2869828 L0.704698276,10.2869828 C0.627112069,10.2869828 0.56375,10.2598276 0.510732759,10.2068103 C0.457715517,10.1550862 0.431853448,10.0917241 0.431853448,10.0141379" id="Fill-17" fill="#FFFFFF" mask="url(#mask-6)"></path>
                    </g>
                </g>
            </g>
        </g>
    </g>
</svg>
