<?xml version="1.0" encoding="UTF-8"?>
<svg id="Layer_1" data-name="Layer 1" xmlns="http://www.w3.org/2000/svg" viewBox="0 0 991.54 123.15">
  <defs>
    <style>
      .cls-1 {
        fill: #ff4338;
      }

      .cls-2 {
        fill: #fff;
      }
    </style>
  </defs>
  <g>
    <polygon class="cls-1" points="48.18 13.91 48.18 39.16 33.92 39.16 28.71 48.04 67.44 48.04 48.18 13.91"/>
    <polygon class="cls-1" points="48.18 78.26 48.18 87.16 5.22 87.16 0 96.07 95.08 96.07 85.02 78.26 48.18 78.26"/>
    <polygon class="cls-1" points="70.87 54.22 48.18 54.22 48.18 63.15 19.87 63.15 14.63 72.02 80.99 72.02 70.87 54.22"/>
  </g>
  <g>
    <path class="cls-2" d="M165.46,60.15c-1.31-8.3-6.76-13.86-15.29-13.86s-14.47,5.92-15.77,13.86h31.06ZM133.81,68.21c.12,9.47,6.52,18.36,16.72,18.36,8.17,0,12.56-4.15,16.6-10.78l9,5.09c-5.21,9.59-14.94,15.16-25.72,15.16-16.95,0-27.27-12.8-27.27-29.14s9.13-29.86,27.03-29.86,25.96,13.04,25.96,29.5v1.66h-42.32Z"/>
    <path class="cls-2" d="M228.81,66.43c0-10.78-6.52-19.9-18.02-19.9s-17.54,9.59-17.54,19.9,6.28,20.14,17.54,20.14,18.02-9.23,18.02-20.14M238.89,123.15h-10.67v-37.65h-.24c-4.26,6.28-11.02,10.54-18.85,10.54-17.07,0-26.56-14.1-26.56-29.97s10.08-29.02,26.08-29.02c8.31,0,14.94,4.27,19.33,10.9h.24v-9.24h10.67v84.43h0Z"/>
    <path class="cls-2" d="M261.22,38.71v30.67c0,8.89,2.25,16.71,12.81,16.71s12.8-7.82,12.8-16.71v-30.67h10.67v31.86c0,15.17-7.11,25.47-23.47,25.47s-23.47-10.3-23.47-25.47v-31.86h10.67-.01Z"/>
    <path class="cls-2" d="M357.84,51.38c-1.31-2.73-4.03-4.85-7.12-4.85s-5.81,2.37-5.81,5.45c0,4.85,6.4,6.98,12.93,9.95,6.52,2.96,12.8,6.99,12.8,15.75,0,10.55-8.77,18.37-19.09,18.37-8.06,0-16.24-4.62-19.2-12.44l9.13-4.15c2.25,4.15,4.98,7.1,10.07,7.1,4.51,0,8.42-3.08,8.42-7.81,0-2.96-1.43-4.38-3.92-6.04l-10.43-5.56c-6.17-3.32-10.67-6.4-10.67-13.98,0-9,7.36-16.11,16.36-16.11,6.76,0,12.21,3.67,15.18,9.71l-8.65,4.62h0Z"/>
    <path class="cls-2" d="M387.37,66.83c0,10.42,8.42,19.3,18.96,19.3s18.97-8.89,18.97-19.3-8.42-19.32-18.97-19.32-18.96,8.77-18.96,19.32M435.97,66.83c0,16.69-13.04,29.49-29.64,29.49s-29.64-12.8-29.64-29.49,13.04-29.5,29.64-29.5,29.64,12.8,29.64,29.5"/>
    <path class="cls-2" d="M490.57,38.99v-15.72h-10.67v15.72h-21.35v-13.99c0-5.45-.09-15.09,7.5-15.16,2.67-.02,5.79.46,7.19.86V.98c-1.6-.47-4.86-.98-7.47-.98-13.75,0-17.9,9.71-17.9,21.8v17.19h-4.87v9.95h4.87v45.49h10.67v-45.49h21.35v45.49h10.67v-45.49h10.43v-9.95h-10.43.01Z"/>
    <rect class="cls-2" x="310.57" y="38.71" width="10.67" height="55.55"/>
    <path class="cls-2" d="M322.58,20.75c0,3.65-3.01,6.56-6.67,6.56s-6.67-2.91-6.67-6.56,3.01-6.77,6.67-6.77,6.67,3.01,6.67,6.77"/>
  </g>
  <polygon class="cls-1" points="531.05 98.04 516.15 98.04 554.05 35.05 568.7 35.05 531.05 98.04"/>
  <g>
    <path class="cls-2" d="M587.42,51.29c2.37-4.44,5.66-7.86,9.85-10.27,4.19-2.41,8.98-3.62,14.36-3.62,7.06,0,12.87,1.75,17.45,5.24,4.58,3.49,7.53,8.25,8.86,14.25h-7.86c-.98-4.12-3.09-7.35-6.34-9.69-3.25-2.34-7.28-3.51-12.1-3.51-3.84,0-7.3.87-10.38,2.62-3.08,1.75-5.5,4.35-7.28,7.81-1.78,3.46-2.67,7.7-2.67,12.73s.89,9.29,2.67,12.79c1.78,3.49,4.21,6.11,7.28,7.86,3.07,1.75,6.53,2.62,10.38,2.62,4.82,0,8.86-1.17,12.1-3.51,3.25-2.34,5.36-5.61,6.34-9.8h7.86c-1.33,5.87-4.3,10.58-8.91,14.15-4.61,3.56-10.41,5.35-17.4,5.35-5.38,0-10.17-1.21-14.36-3.62-4.19-2.41-7.48-5.83-9.85-10.27-2.38-4.44-3.56-9.62-3.56-15.56s1.19-11.13,3.56-15.56Z"/>
    <path class="cls-2" d="M659.4,92.68c-4.3-2.41-7.69-5.83-10.17-10.27-2.48-4.44-3.72-9.62-3.72-15.56s1.26-11.13,3.77-15.56c2.52-4.44,5.94-7.86,10.27-10.27,4.33-2.41,9.19-3.62,14.57-3.62s10.25,1.21,14.62,3.62c4.37,2.41,7.79,5.83,10.27,10.27,2.48,4.44,3.72,9.63,3.72,15.56s-1.26,11.04-3.77,15.51c-2.52,4.47-5.97,7.91-10.38,10.32s-9.29,3.62-14.67,3.62-10.22-1.21-14.52-3.62ZM684.39,87.34c3.21-1.71,5.82-4.3,7.81-7.76,1.99-3.46,2.99-7.7,2.99-12.73s-.98-9.28-2.93-12.73c-1.96-3.46-4.54-6.04-7.76-7.76-3.21-1.71-6.71-2.57-10.48-2.57s-7.27.86-10.48,2.57c-3.21,1.71-5.78,4.3-7.7,7.76-1.92,3.46-2.88,7.7-2.88,12.73s.96,9.27,2.88,12.73c1.92,3.46,4.47,6.04,7.65,7.76,3.18,1.71,6.66,2.57,10.43,2.57s7.27-.85,10.48-2.57Z"/>
    <path class="cls-2" d="M757.55,43.53c4.33,4.23,6.5,10.36,6.5,18.39v33.54h-7.23v-32.7c0-6.22-1.56-10.97-4.66-14.25-3.11-3.28-7.35-4.93-12.73-4.93s-9.92,1.75-13.21,5.24c-3.28,3.5-4.93,8.63-4.93,15.41v31.23h-7.34v-57.22h7.34v9.75c1.82-3.49,4.44-6.17,7.86-8.02,3.42-1.85,7.3-2.78,11.63-2.78,6.85,0,12.44,2.11,16.77,6.34Z"/>
    <path class="cls-2" d="M821.59,43.53c4.33,4.23,6.5,10.36,6.5,18.39v33.54h-7.23v-32.7c0-6.22-1.56-10.97-4.66-14.25-3.11-3.28-7.35-4.93-12.73-4.93s-9.92,1.75-13.21,5.24c-3.28,3.5-4.93,8.63-4.93,15.41v31.23h-7.34v-57.22h7.34v9.75c1.82-3.49,4.44-6.17,7.86-8.02,3.42-1.85,7.3-2.78,11.63-2.78,6.85,0,12.44,2.11,16.77,6.34Z"/>
    <path class="cls-2" d="M893.73,69.68h-47.48c.21,4.33,1.26,8.04,3.14,11.11,1.89,3.08,4.37,5.4,7.44,6.97,3.07,1.57,6.43,2.36,10.06,2.36,4.75,0,8.75-1.15,12-3.46,3.25-2.31,5.4-5.41,6.45-9.33h7.76c-1.4,5.59-4.39,10.15-8.96,13.68-4.58,3.53-10.32,5.29-17.24,5.29-5.38,0-10.2-1.21-14.46-3.62-4.26-2.41-7.6-5.83-10.01-10.27-2.41-4.44-3.62-9.62-3.62-15.56s1.19-11.14,3.56-15.62c2.37-4.47,5.69-7.89,9.96-10.27,4.26-2.37,9.12-3.56,14.57-3.56s10.22,1.19,14.31,3.56c4.09,2.38,7.23,5.57,9.43,9.59,2.2,4.02,3.3,8.47,3.3,13.36,0,2.51-.07,4.44-.21,5.76ZM883.93,52.81c-1.78-3-4.21-5.28-7.28-6.81-3.08-1.54-6.43-2.31-10.06-2.31-5.45,0-10.1,1.75-13.94,5.24-3.84,3.49-5.97,8.42-6.39,14.78h40.25c.07-4.26-.79-7.89-2.57-10.9Z"/>
    <path class="cls-2" d="M905.76,51.29c2.37-4.44,5.66-7.86,9.85-10.27,4.19-2.41,8.98-3.62,14.36-3.62,7.06,0,12.87,1.75,17.45,5.24,4.58,3.49,7.53,8.25,8.86,14.25h-7.86c-.98-4.12-3.09-7.35-6.34-9.69-3.25-2.34-7.28-3.51-12.11-3.51-3.84,0-7.3.87-10.38,2.62-3.08,1.75-5.5,4.35-7.28,7.81-1.78,3.46-2.67,7.7-2.67,12.73s.89,9.29,2.67,12.79c1.78,3.49,4.21,6.11,7.28,7.86,3.07,1.75,6.53,2.62,10.38,2.62,4.82,0,8.86-1.17,12.11-3.51,3.25-2.34,5.36-5.61,6.34-9.8h7.86c-1.33,5.87-4.3,10.58-8.91,14.15s-10.41,5.35-17.4,5.35c-5.38,0-10.17-1.21-14.36-3.62-4.19-2.41-7.48-5.83-9.85-10.27-2.38-4.44-3.56-9.62-3.56-15.56s1.19-11.13,3.56-15.56Z"/>
    <path class="cls-2" d="M975.82,44.42v35.53c0,3.49.66,5.9,1.99,7.23,1.33,1.33,3.67,1.99,7.02,1.99h6.71v6.29h-7.86c-5.17,0-9.01-1.21-11.53-3.62-2.52-2.41-3.77-6.38-3.77-11.89v-35.53h-7.97v-6.18h7.97v-14.36h7.44v14.36h15.72v6.18h-15.72Z"/>
  </g>
</svg>