<?xml version="1.0" encoding="UTF-8"?>
<svg id="uuid-cc552d73-f746-40f9-a5ef-b4aa2d89d646" data-name="Layer 1" xmlns="http://www.w3.org/2000/svg" viewBox="0 0 992.03 123.15">
  <g>
    <g>
      <polygon points="48.18 13.91 48.18 39.16 33.92 39.16 28.71 48.04 67.44 48.04 48.18 13.91" style="fill: #ef473e;"/>
      <polygon points="48.18 78.26 48.18 87.16 5.22 87.16 0 96.07 95.08 96.07 85.02 78.26 48.18 78.26" style="fill: #ef473e;"/>
      <polygon points="70.87 54.22 48.18 54.22 48.18 63.15 19.87 63.15 14.63 72.02 80.99 72.02 70.87 54.22" style="fill: #ef473e;"/>
    </g>
    <g>
      <path d="M165.46,60.15c-1.31-8.3-6.76-13.86-15.29-13.86s-14.47,5.92-15.77,13.86h31.06ZM133.81,68.21c.12,9.47,6.52,18.36,16.72,18.36,8.17,0,12.56-4.15,16.6-10.78l9,5.09c-5.21,9.59-14.94,15.16-25.72,15.16-16.95,0-27.27-12.8-27.27-29.14s9.13-29.86,27.03-29.86,25.96,13.04,25.96,29.5v1.66h-42.32Z" style="fill: #fff;"/>
      <path d="M228.81,66.43c0-10.78-6.52-19.9-18.02-19.9s-17.54,9.59-17.54,19.9,6.28,20.14,17.54,20.14,18.02-9.23,18.02-20.14M238.89,123.15h-10.67v-37.65h-.24c-4.26,6.28-11.02,10.54-18.85,10.54-17.07,0-26.56-14.1-26.56-29.97s10.08-29.02,26.08-29.02c8.31,0,14.94,4.27,19.33,10.9h.24v-9.24h10.67v84.43h0Z" style="fill: #fff;"/>
      <path d="M261.22,38.71v30.67c0,8.89,2.25,16.71,12.81,16.71s12.8-7.82,12.8-16.71v-30.67h10.67v31.86c0,15.17-7.11,25.47-23.47,25.47s-23.47-10.3-23.47-25.47v-31.86h10.67-.01Z" style="fill: #fff;"/>
      <path d="M357.84,51.38c-1.31-2.73-4.03-4.85-7.12-4.85s-5.81,2.37-5.81,5.45c0,4.85,6.4,6.98,12.93,9.95,6.52,2.96,12.8,6.99,12.8,15.75,0,10.55-8.77,18.37-19.09,18.37-8.06,0-16.24-4.62-19.2-12.44l9.13-4.15c2.25,4.15,4.98,7.1,10.07,7.1,4.51,0,8.42-3.08,8.42-7.81,0-2.96-1.43-4.38-3.92-6.04l-10.43-5.56c-6.17-3.32-10.67-6.4-10.67-13.98,0-9,7.36-16.11,16.36-16.11,6.76,0,12.21,3.67,15.18,9.71l-8.65,4.62h0Z" style="fill: #fff;"/>
      <path d="M387.37,66.83c0,10.42,8.42,19.3,18.96,19.3s18.97-8.89,18.97-19.3-8.42-19.32-18.97-19.32-18.96,8.77-18.96,19.32M435.97,66.83c0,16.69-13.04,29.49-29.64,29.49s-29.64-12.8-29.64-29.49,13.04-29.5,29.64-29.5,29.64,12.8,29.64,29.5" style="fill: #fff;"/>
      <path d="M490.57,38.99v-15.72h-10.67v15.72h-21.35v-13.99c0-5.45-.09-15.09,7.5-15.16,2.67-.02,5.79.46,7.19.86V.98c-1.6-.47-4.86-.98-7.47-.98-13.75,0-17.9,9.71-17.9,21.8v17.19h-4.87v9.95h4.87v45.49h10.67v-45.49h21.35v45.49h10.67v-45.49h10.43v-9.95h-10.43.01Z" style="fill: #fff;"/>
      <rect x="310.57" y="38.71" width="10.67" height="55.55" style="fill: #fff;"/>
      <path d="M322.58,20.75c0,3.65-3.01,6.56-6.67,6.56s-6.67-2.91-6.67-6.56,3.01-6.77,6.67-6.77,6.67,3.01,6.67,6.77" style="fill: #fff;"/>
    </g>
  </g>
  <polygon points="530.76 98.04 515.86 98.04 553.76 35.05 568.41 35.05 530.76 98.04" style="fill: #ef473e;"/>
  <g>
    <path d="M586.52,51.08c2.38-4.44,5.68-7.88,9.9-10.32,4.23-2.45,9.07-3.67,14.52-3.67,7.06,0,12.87,1.71,17.45,5.13,4.58,3.42,7.6,8.17,9.07,14.25h-10.27c-.98-3.49-2.88-6.25-5.71-8.28-2.83-2.03-6.34-3.04-10.53-3.04-5.45,0-9.85,1.87-13.21,5.61-3.35,3.74-5.03,9.03-5.03,15.88s1.68,12.26,5.03,16.04c3.35,3.77,7.76,5.66,13.21,5.66,4.19,0,7.68-.98,10.48-2.93,2.79-1.96,4.72-4.75,5.76-8.38h10.27c-1.54,5.87-4.61,10.57-9.22,14.1-4.61,3.53-10.38,5.29-17.29,5.29-5.45,0-10.29-1.22-14.52-3.67-4.23-2.45-7.53-5.9-9.9-10.38-2.38-4.47-3.56-9.71-3.56-15.72s1.19-11.13,3.56-15.56Z" style="fill: #fff;"/>
    <path d="M658,92.74c-4.37-2.45-7.79-5.92-10.27-10.43-2.48-4.51-3.72-9.73-3.72-15.67s1.27-11.06,3.83-15.56c2.55-4.51,6.03-7.97,10.43-10.38,4.4-2.41,9.33-3.62,14.78-3.62s10.38,1.21,14.78,3.62c4.4,2.41,7.88,5.85,10.43,10.32,2.55,4.47,3.83,9.68,3.83,15.62s-1.31,11.16-3.93,15.67c-2.62,4.51-6.17,7.98-10.64,10.43-4.47,2.45-9.43,3.67-14.88,3.67s-10.25-1.22-14.62-3.67ZM682.26,85.61c3-1.61,5.43-4.02,7.28-7.23,1.85-3.21,2.78-7.13,2.78-11.74s-.91-8.52-2.72-11.74c-1.82-3.21-4.19-5.61-7.13-7.18-2.93-1.57-6.11-2.36-9.54-2.36s-6.69.79-9.59,2.36c-2.9,1.57-5.22,3.97-6.97,7.18-1.75,3.21-2.62,7.13-2.62,11.74s.86,8.63,2.57,11.84c1.71,3.21,4,5.61,6.87,7.18,2.86,1.57,6.01,2.36,9.43,2.36s6.64-.8,9.64-2.41Z" style="fill: #fff;"/>
    <path d="M757.36,43.32c4.33,4.23,6.5,10.32,6.5,18.29v33.85h-9.43v-32.49c0-5.73-1.43-10.11-4.3-13.15-2.87-3.04-6.78-4.56-11.74-4.56s-9.03,1.57-12,4.72c-2.97,3.14-4.45,7.72-4.45,13.73v31.76h-9.54v-57.43h9.54v8.17c1.89-2.93,4.45-5.2,7.7-6.81,3.25-1.61,6.83-2.41,10.74-2.41,6.99,0,12.64,2.11,16.98,6.34Z" style="fill: #fff;"/>
    <path d="M822.05,43.32c4.33,4.23,6.5,10.32,6.5,18.29v33.85h-9.43v-32.49c0-5.73-1.43-10.11-4.3-13.15-2.87-3.04-6.78-4.56-11.74-4.56s-9.03,1.57-12,4.72c-2.97,3.14-4.45,7.72-4.45,13.73v31.76h-9.54v-57.43h9.54v8.17c1.89-2.93,4.45-5.2,7.7-6.81,3.25-1.61,6.83-2.41,10.74-2.41,6.99,0,12.64,2.11,16.98,6.34Z" style="fill: #fff;"/>
    <path d="M894.1,70.31h-45.9c.35,5.66,2.29,10.08,5.82,13.26,3.53,3.18,7.81,4.77,12.84,4.77,4.12,0,7.56-.96,10.32-2.88,2.76-1.92,4.7-4.49,5.82-7.7h10.27c-1.54,5.52-4.61,10.01-9.22,13.47-4.61,3.46-10.34,5.19-17.19,5.19-5.45,0-10.32-1.22-14.62-3.67-4.3-2.45-7.67-5.92-10.11-10.43-2.45-4.51-3.67-9.73-3.67-15.67s1.19-11.14,3.56-15.62c2.38-4.47,5.71-7.91,10.01-10.32s9.24-3.62,14.83-3.62,10.27,1.19,14.46,3.56c4.19,2.38,7.42,5.64,9.69,9.8,2.27,4.16,3.41,8.86,3.41,14.1,0,1.82-.1,3.74-.31,5.76ZM882.15,53.17c-1.61-2.62-3.79-4.61-6.55-5.97-2.76-1.36-5.82-2.04-9.17-2.04-4.82,0-8.93,1.54-12.31,4.61-3.39,3.08-5.33,7.34-5.82,12.79h36.26c0-3.63-.8-6.76-2.41-9.38Z" style="fill: #fff;"/>
    <path d="M905.05,51.08c2.38-4.44,5.68-7.88,9.9-10.32,4.23-2.45,9.07-3.67,14.52-3.67,7.06,0,12.87,1.71,17.45,5.13,4.58,3.42,7.6,8.17,9.07,14.25h-10.27c-.98-3.49-2.88-6.25-5.71-8.28-2.83-2.03-6.34-3.04-10.53-3.04-5.45,0-9.85,1.87-13.21,5.61-3.35,3.74-5.03,9.03-5.03,15.88s1.68,12.26,5.03,16.04c3.35,3.77,7.76,5.66,13.21,5.66,4.19,0,7.69-.98,10.48-2.93,2.79-1.96,4.72-4.75,5.76-8.38h10.27c-1.54,5.87-4.61,10.57-9.22,14.1-4.61,3.53-10.38,5.29-17.29,5.29-5.45,0-10.29-1.22-14.52-3.67-4.23-2.45-7.53-5.9-9.9-10.38-2.38-4.47-3.56-9.71-3.56-15.72s1.19-11.13,3.56-15.56Z" style="fill: #fff;"/>
    <path d="M977.04,45.89v33.85c0,2.79.59,4.77,1.78,5.92,1.19,1.15,3.25,1.73,6.18,1.73h7.02v8.07h-8.59c-5.31,0-9.29-1.22-11.95-3.67-2.66-2.45-3.98-6.46-3.98-12.05v-33.85h-7.44v-7.86h7.44v-14.46h9.54v14.46h14.99v7.86h-14.99Z" style="fill: #fff;"/>
  </g>
</svg>