<?xml version="1.0" encoding="utf-8"?>
<!-- Generator: Adobe Illustrator 24.0.3, SVG Export Plug-In . SVG Version: 6.00 Build 0)  -->
<svg version="1.1" id="Calque_1" xmlns="http://www.w3.org/2000/svg" x="0px" y="0px"
     viewBox="0 0 526 153.8" style="enable-background:new 0 0 526 153.8;" xml:space="preserve">
<style type="text/css">
	.st0{fill:#FF4338;}
	.st1{fill:#FFFFFF;}
	.st2{display:none;}
	.st3{display:inline;fill:#B1B3B5;}
</style>
<title>Equisoft Connect Logo</title>
<g id="Layer_1">
	<g>
		<polygon class="st0" points="49.3,14.1 49.3,40 34.7,40 29.4,49 69,49 		"/>
		<polygon class="st0" points="49.3,79.9 49.3,89.1 5.3,89.1 0,98.2 97.3,98.2 87,79.9 		"/>
		<polygon class="st0" points="72.6,55.3 49.3,55.3 49.3,64.4 20.4,64.4 14.9,73.5 82.9,73.5 		"/>
		<g>
			<polygon class="st0" points="305.8,153.4 299.2,153.4 315.8,125.8 322.2,125.8 			"/>
		</g>
	</g>
	<g>
		<g>
			<path class="st1" d="M169.4,61.3c-1.3-8.5-7-14.2-15.7-14.2c-8.5,0-14.8,6-16.2,14.2H169.4z M136.9,69.6
				c0.1,9.7,6.7,18.8,17.1,18.8c8.4,0,12.9-4.2,17-11.1l9.2,5.2c-5.3,9.8-15.2,15.6-26.3,15.6c-17.4,0-27.9-13.1-27.9-29.8
				c0-17.5,9.3-30.6,27.6-30.6c18.1,0,26.6,13.3,26.6,30.2v1.7h-43.3V69.6z"/>
			<path class="st1" d="M234.2,67.8c0-11.1-6.7-20.4-18.4-20.4c-11.3,0-17.9,9.8-17.9,20.4c0,10.6,6.4,20.6,17.9,20.6
				C227.6,88.5,234.2,78.9,234.2,67.8 M244.5,125.8h-11V87.3h-0.2c-4.4,6.4-11.3,10.7-19.2,10.7c-17.5,0-27.2-14.4-27.2-30.7
				c0-15.6,10.3-29.7,26.7-29.7c8.5,0,15.2,4.4,19.8,11.2h0.2v-9.4h11V125.8z"/>
			<path class="st1" d="M267.3,39.4v31.4c0,9.1,2.3,17.1,13.1,17.1c10.7,0,13.1-8,13.1-17.1V39.4h11v32.6c0,15.6-7.3,26.1-24.1,26.1
				c-16.8,0-24.1-10.5-24.1-26.1V39.4H267.3z"/>
			<path class="st1" d="M366.2,52.4c-1.3-2.8-4.1-5-7.3-5c-3.1,0-5.9,2.5-5.9,5.6c0,5,6.5,7.2,13.2,10.1c6.7,3.1,13.1,7.2,13.1,16.2
				c0,10.7-9,18.8-19.5,18.8c-8.3,0-16.6-4.7-19.6-12.7l9.3-4.2c2.3,4.2,5.1,7.3,10.3,7.3c4.6,0,8.6-3.2,8.6-8c0-3.1-1.4-4.5-4-6.1
				l-10.6-5.7c-6.3-3.4-11-6.5-11-14.3c0-9.2,7.6-16.5,16.8-16.5c7,0,12.5,3.8,15.6,9.9L366.2,52.4z"/>
			<path class="st1" d="M396.5,68.2c0,10.6,8.6,19.8,19.4,19.8c10.8,0,19.4-9.1,19.4-19.8c0-10.7-8.6-19.8-19.4-19.8
				C405.1,48.5,396.5,57.5,396.5,68.2 M446.2,68.2c0,17.1-13.3,30.2-30.3,30.2c-17,0-30.3-13.1-30.3-30.2S398.9,38,415.9,38
				C432.8,38,446.2,51.1,446.2,68.2"/>
			<path class="st1" d="M502.1,39.8V23.7h-11v16.1h-6.9h-15V25.4c0-5.6-0.1-15.5,7.7-15.6c2.8,0,5.9,0.5,7.4,0.9V0.9
				c-1.6-0.5-5-1-7.7-1c-14.1,0-18.3,9.9-18.3,22.3v17.6h-5V50h5v46.6h11V49.9h15h6.9v46.6h11V49.9h10.6V39.7h-10.6V39.8z"/>
			<rect x="317.9" y="39.4" class="st1" width="11" height="56.9"/>
			<path class="st1" d="M330.2,21c0,3.8-3.1,6.8-6.9,6.8s-6.9-3-6.9-6.8c0-3.9,3.1-7,6.9-7C327.1,14.2,330.2,17.2,330.2,21"/>
		</g>
		<g>
			<g>
				<path class="st1" d="M349.5,130.5c2,1.7,3.4,4,3.9,6.9H349c-0.3-1.8-1.1-3.2-2.5-4.2s-3.1-1.5-5-1.5c-1.4,0-2.8,0.3-4,1
					c-1.2,0.7-2.1,1.7-2.9,3.1c-0.7,1.4-1.1,3.1-1.1,5.1c0,2,0.4,3.8,1.1,5.1c0.7,1.3,1.7,2.5,2.9,3.1c1.1,0.6,2.6,1,4,1
					c2,0,3.7-0.5,5-1.5s2.1-2.5,2.5-4.2h4.4c-0.5,2.9-1.7,5.2-3.9,6.9c-2,1.6-4.7,2.6-7.9,2.6c-2.4,0-4.5-0.5-6.3-1.5
					c-1.8-1-3.3-2.6-4.3-4.4c-1-1.9-1.5-4.2-1.5-6.9c0-2.7,0.5-4.9,1.5-6.9c1-1.9,2.5-3.5,4.3-4.5s4-1.5,6.3-1.5
					C344.8,128,347.5,128.9,349.5,130.5z"/>
				<path class="st1" d="M378.4,129.5c1.9,1,3.4,2.6,4.5,4.5c1.1,1.9,1.6,4.2,1.6,6.9s-0.5,4.9-1.6,6.9c-1.1,1.9-2.6,3.4-4.5,4.4
					c-1.9,1-4.1,1.5-6.4,1.5c-2.4,0-4.5-0.5-6.4-1.5s-3.4-2.6-4.5-4.4c-1.1-1.9-1.6-4.2-1.6-6.9c0-2.7,0.5-4.9,1.6-6.9
					c1.1-1.9,2.6-3.5,4.5-4.5s4.1-1.5,6.4-1.5C374.3,128,376.4,128.5,378.4,129.5z M367.7,132.7c-1.2,0.7-2.3,1.7-3.1,3.1
					c-0.8,1.4-1.1,3.1-1.1,5.1c0,2,0.4,3.7,1.1,5.1c0.8,1.4,1.8,2.5,3.1,3.1c1.2,0.7,2.7,1,4.1,1c1.5,0,2.9-0.3,4.1-1
					c1.2-0.7,2.3-1.7,3.1-3.1s1.1-3.1,1.1-5.1c0-2-0.4-3.8-1.1-5.1c-0.8-1.3-1.8-2.5-3.1-3.1c-1.2-0.7-2.7-1-4.1-1
					S369,132,367.7,132.7z"/>
				<path class="st1" d="M411.8,130.7c1.8,1.8,2.7,4.6,2.7,8.1v14.5h-4.1v-14.1c0-2.5-0.6-4.4-1.9-5.7c-1.3-1.3-3-2-5.2-2
					s-4.1,0.7-5.4,2.3c-1.3,1.4-2,3.6-2,6.4v13.2h-4.1v-25h4.1v5.9c0.6-2,1.7-3.6,3.4-4.7c1.6-1.1,3.5-1.6,5.6-1.6
					C407.7,127.9,410.1,128.9,411.8,130.7z"/>
				<path class="st1" d="M443.1,130.7c1.8,1.8,2.7,4.6,2.7,8.1v14.5h-4.1v-14.1c0-2.5-0.6-4.4-1.9-5.7c-1.3-1.3-3-2-5.2-2
					c-2.3,0-4.1,0.7-5.4,2.3c-1.3,1.4-2,3.6-2,6.4v13.2H423v-25h4.1v5.9c0.6-2,1.7-3.6,3.4-4.7s3.5-1.6,5.6-1.6
					C438.9,127.9,441.3,128.9,443.1,130.7z"/>
				<path class="st1" d="M476.8,141.7h-20c0.1,2.9,0.9,5,2.5,6.4c1.5,1.4,3.4,2.1,5.6,2.1c2,0,3.7-0.5,5-1.5c1.3-1,2.1-2.4,2.5-4.1
					h4.4c-0.3,1.7-1,3.3-2,4.6c-1,1.3-2.5,2.5-4.1,3.2c-1.6,0.7-3.6,1.1-5.6,1.1c-2.4,0-4.5-0.5-6.3-1.5c-1.8-1-3.3-2.6-4.3-4.4
					c-1-1.8-1.5-4.2-1.5-6.9c0-2.7,0.5-4.9,1.5-6.9c1-1.9,2.5-3.5,4.3-4.5s4-1.5,6.3-1.5c2.5,0,4.5,0.5,6.3,1.5
					c1.8,1,3.2,2.5,4.1,4.1c0.9,1.7,1.4,3.7,1.4,5.7C477,140.4,476.9,141.1,476.8,141.7z M471.9,135c-0.7-1.2-1.6-2.1-2.9-2.8
					c-1.2-0.6-2.6-0.9-4-0.9c-2.3,0-4.2,0.7-5.7,2.1c-1.5,1.4-2.4,3.5-2.5,6.2h16C472.9,137.9,472.6,136.3,471.9,135z"/>
				<path class="st1" d="M503.3,130.5c2,1.7,3.4,4,3.9,6.9h-4.4c-0.3-1.8-1.1-3.2-2.5-4.2c-1.3-1-3.1-1.5-5-1.5c-1.4,0-2.8,0.3-4,1
					c-1.2,0.7-2.1,1.7-2.9,3.1c-0.7,1.4-1.1,3.1-1.1,5.1c0,2,0.4,3.8,1.1,5.1c0.7,1.3,1.7,2.5,2.9,3.1c1.1,0.6,2.6,1,4,1
					c2,0,3.7-0.5,5-1.5c1.3-1,2.1-2.5,2.5-4.2h4.4c-0.5,2.9-1.7,5.2-3.9,6.9s-4.7,2.6-7.9,2.6c-2.4,0-4.5-0.5-6.3-1.5
					c-1.8-1-3.3-2.6-4.3-4.4c-1-1.8-1.5-4.2-1.5-6.9c0-2.7,0.5-4.9,1.5-6.9c1-1.9,2.5-3.5,4.3-4.5c1.8-1,4-1.5,6.3-1.5
					C498.6,128,501.2,128.9,503.3,130.5z"/>
				<path class="st1" d="M526,149.7v3.7H523c-2.6,0-4.5-0.6-5.7-1.8c-1.2-1.2-1.8-3.3-1.8-6.1v-13.5h-3.8v-3.6h3.7V122h4.2v6.2h6.4
					v3.6h-6.4v13.6c0,1.6,0.3,2.7,0.9,3.3c0.6,0.6,1.6,0.9,3.1,0.9H526z"/>
			</g>
		</g>
	</g>
</g>
<g id="Zone_Protection" class="st2">
	<path class="st3" d="M-83.2,1706.9v95.1h95.1v-95.1H-83.2z M-36.4,1754.4l-45.8,45.9v-91.7L-36.4,1754.4z M-81.5,1707.9h91.7
		l-45.8,45.8L-81.5,1707.9z M-35.7,1755.1l45.8,45.8h-91.6L-35.7,1755.1z M-34.9,1754.4l45.8-45.8v91.7L-34.9,1754.4z"/>
	<path class="st3" d="M512.9,1706.9v95.1H608v-95.1H512.9z M559.7,1754.4l-45.8,45.8v-91.7L559.7,1754.4z M514.6,1707.9h91.7
		l-45.8,45.8L514.6,1707.9z M560.4,1755.1l45.8,45.8h-91.7L560.4,1755.1z M561.1,1754.4l45.8-45.8v91.7L561.1,1754.4z"/>
	<path class="st3" d="M512.9,1461.8v95.1H608v-95.1H512.9z M559.7,1509.3l-45.8,45.8v-91.6L559.7,1509.3z M514.6,1462.8h91.7
		l-45.8,45.8L514.6,1462.8z M560.4,1510.1l45.8,45.8h-91.7L560.4,1510.1z M561.1,1509.3l45.8-45.8v91.7L561.1,1509.3z"/>
	<path class="st3" d="M-83.2,1461.8v95.1h95.1v-95.1H-83.2z M-36.4,1509.3l-45.8,45.9v-91.7L-36.4,1509.3z M-81.5,1462.8h91.7
		l-45.8,45.8L-81.5,1462.8z M-35.7,1510.1l45.8,45.8h-91.6L-35.7,1510.1z M-34.9,1509.3l45.8-45.8v91.7L-34.9,1509.3z"/>
</g>
</svg>
