<svg viewBox="0 0 130 41" fill="none" xmlns="http://www.w3.org/2000/svg">
    <path fill-rule="evenodd" clip-rule="evenodd" d="M11.9767 3.70575V9.98353H8.43113L7.13635 12.1896H16.7631L11.9767 3.70575Z" fill="#FF4338"/>
    <path fill-rule="evenodd" clip-rule="evenodd" d="M11.9767 19.7014V21.9151H1.29908L7.62939e-05 24.1279H23.6355L21.1334 19.7014H11.9767Z" fill="#FF4338"/>
    <path fill-rule="evenodd" clip-rule="evenodd" d="M17.617 13.7261H11.9765V15.946H4.94012L3.63763 18.1513H20.1325L17.617 13.7261Z" fill="#FF4338"/>
    <path fill-rule="evenodd" clip-rule="evenodd" d="M33.2617 17.2028C33.2913 19.5575 34.8826 21.7658 37.4167 21.7658C39.448 21.7658 40.539 20.7352 41.5424 19.0875L43.7808 20.3536C42.4847 22.7384 40.0677 24.1224 37.3874 24.1224C33.1737 24.1224 30.609 20.9415 30.609 16.8794C30.609 12.6384 32.8784 9.45801 37.329 9.45801C41.7189 9.45801 43.7808 12.6983 43.7808 16.7902V17.2028H33.2617ZM41.1291 15.2009C40.8034 13.138 39.448 11.7558 37.329 11.7558C35.2642 11.7558 33.7327 13.2268 33.4084 15.2009H41.1291Z" fill="white"/>
    <path fill-rule="evenodd" clip-rule="evenodd" d="M59.3807 30.8594H56.7275V21.5018H56.6671C55.6079 23.0636 53.9281 24.1222 51.9824 24.1222C47.7396 24.1222 45.3809 20.6182 45.3809 16.6722C45.3809 12.9044 47.8862 9.45758 51.8633 9.45758C53.9281 9.45758 55.5764 10.5187 56.6671 12.1679H56.7275V9.87169H59.3807V30.8594ZM56.8739 16.7604C56.8739 14.0807 55.2535 11.8145 52.3937 11.8145C49.655 11.8145 48.0341 14.1987 48.0341 16.7604C48.0341 19.353 49.5964 21.7658 52.3937 21.7658C55.2843 21.7658 56.8739 19.4706 56.8739 16.7604Z" fill="white"/>
    <path fill-rule="evenodd" clip-rule="evenodd" d="M64.9309 9.87207V17.4961C64.9309 19.7061 65.4902 21.6499 68.1141 21.6499C70.7359 21.6499 71.2964 19.7061 71.2964 17.4961V9.87207H73.9477V17.7911C73.9477 21.5609 72.1806 24.1224 68.1141 24.1224C64.0473 24.1224 62.2795 21.5609 62.2795 17.7911V9.87207H64.9309Z" fill="white"/>
    <path fill-rule="evenodd" clip-rule="evenodd" d="M88.9479 13.0214C88.623 12.3423 87.9452 11.8146 87.1793 11.8146C86.4411 11.8146 85.7339 12.4025 85.7339 13.1698C85.7339 14.3758 87.326 14.9055 88.9479 15.642C90.5688 16.378 92.129 17.379 92.129 19.5574C92.129 22.1796 89.9491 24.1223 87.3839 24.1223C85.381 24.1223 83.3484 22.9737 82.6117 21.0314L84.8811 20.0006C85.4401 21.0314 86.118 21.7659 87.3839 21.7659C88.5042 21.7659 89.4781 21.0014 89.4781 19.8239C89.4781 19.0874 89.1231 18.7339 88.5042 18.3213L85.9112 16.9383C84.3785 16.1126 83.2582 15.3467 83.2582 13.4631C83.2582 11.2248 85.0874 9.45795 87.326 9.45795C89.0056 9.45795 90.3615 10.3692 91.0982 11.8723L88.9479 13.0214Z" fill="white"/>
    <path fill-rule="evenodd" clip-rule="evenodd" d="M108.369 16.8616C108.369 21.0104 105.128 24.1928 101.002 24.1928C96.8768 24.1928 93.636 21.0104 93.636 16.8616C93.636 12.7098 96.8768 9.52789 101.002 9.52789C105.128 9.52789 108.369 12.7098 108.369 16.8616ZM96.2885 16.8616C96.2885 19.4506 98.3807 21.6602 101.002 21.6602C103.626 21.6602 105.718 19.4506 105.718 16.8616C105.718 14.2397 103.626 12.06 101.002 12.06C98.3807 12.06 96.2885 14.2397 96.2885 16.8616Z" fill="white"/>
    <path fill-rule="evenodd" clip-rule="evenodd" d="M121.939 9.94006V6.03186H119.286V9.94006H117.631H113.979V6.46262C113.979 5.10769 113.956 2.71226 115.843 2.69536C116.506 2.69113 117.283 2.80945 117.631 2.90987V0.493312C117.233 0.375491 116.423 0.248474 115.775 0.248474C112.356 0.248474 111.326 2.6628 111.326 5.66746V9.94006H110.116V12.414H111.326V23.7223H113.979V12.414H117.631H119.286V23.7223H121.939V12.414H124.532V9.94006H121.939Z" fill="white"/>
    <path fill-rule="evenodd" clip-rule="evenodd" d="M77.1989 23.6796H79.8516V9.87079H77.1989V23.6796Z" fill="white"/>
    <path fill-rule="evenodd" clip-rule="evenodd" d="M80.1835 5.40638C80.1835 6.31464 79.4348 7.03747 78.5253 7.03747C77.6158 7.03747 76.8669 6.31464 76.8669 5.40638C76.8669 4.47028 77.6158 3.7226 78.5253 3.7226C79.4348 3.7226 80.1835 4.47028 80.1835 5.40638Z" fill="white"/>
    <path fill-rule="evenodd" clip-rule="evenodd" d="M75.9486 37.5309H74.37L78.3851 30.8599H79.9361L75.9486 37.5309Z" fill="#FF4338"/>
    <path fill-rule="evenodd" clip-rule="evenodd" d="M87.6745 31.9947C88.1888 32.4062 88.5056 32.9572 88.6247 33.6476H87.5514C87.4768 33.2142 87.2735 32.8745 86.9421 32.6284C86.6105 32.3822 86.1987 32.2592 85.7067 32.2592C85.3487 32.2592 85.0226 32.3401 84.7281 32.5016C84.4339 32.6633 84.1973 32.9111 84.0184 33.2454C83.8395 33.5797 83.75 33.9927 83.75 34.485C83.75 34.9773 83.8395 35.3906 84.0184 35.7246C84.1973 36.0589 84.4339 36.307 84.7281 36.4685C85.0226 36.6302 85.3487 36.7109 85.7067 36.7109C86.1987 36.7109 86.6105 36.5861 86.9421 36.3362C87.2735 36.0864 87.4768 35.7452 87.5514 35.3116H88.6247C88.5056 36.0094 88.1888 36.5621 87.6745 36.9699C87.1599 37.3775 86.5115 37.5815 85.7291 37.5815C85.1402 37.5815 84.6184 37.4567 84.1636 37.2069C83.7091 36.957 83.3533 36.599 83.0958 36.1324C82.8388 35.6659 82.7101 35.1167 82.7101 34.485C82.7101 33.8533 82.8388 33.3024 83.0958 32.8321C83.3533 32.3619 83.7091 32.0021 84.1636 31.7523C84.6184 31.5027 85.1402 31.3776 85.7291 31.3776C86.5115 31.3776 87.1599 31.5834 87.6745 31.9947Z" fill="white"/>
    <path fill-rule="evenodd" clip-rule="evenodd" d="M91.4119 32.5016C91.1026 32.6633 90.8528 32.9111 90.6629 33.2454C90.4729 33.5797 90.3777 33.9927 90.3777 34.485C90.3777 34.9699 90.4729 35.3794 90.6629 35.7137C90.8528 36.048 91.1026 36.2959 91.4119 36.4576C91.7209 36.6193 92.0583 36.7 92.4236 36.7C92.7887 36.7 93.1261 36.6193 93.4356 36.4576C93.7447 36.2959 93.9944 36.048 94.1846 35.7137C94.3748 35.3794 94.4697 34.9699 94.4697 34.485C94.4697 33.9927 94.3748 33.5797 94.1846 33.2454C93.9944 32.9111 93.7447 32.6633 93.4356 32.5016C93.1261 32.3401 92.7887 32.2592 92.4236 32.2592C92.0583 32.2592 91.7209 32.3401 91.4119 32.5016ZM94.0057 31.7525C94.4715 32.0021 94.8368 32.3622 95.1016 32.8321C95.3659 33.3024 95.4983 33.8533 95.4983 34.485C95.4983 35.1169 95.3659 35.6659 95.1016 36.1324C94.8368 36.599 94.4715 36.957 94.0057 37.2069C93.5399 37.4567 93.0125 37.5815 92.4236 37.5815C91.8349 37.5815 91.3073 37.4567 90.8415 37.2069C90.3757 36.957 90.0086 36.599 89.7406 36.1324C89.472 35.6659 89.3378 35.1169 89.3378 34.485C89.3378 33.8533 89.472 33.3024 89.7406 32.8321C90.0086 32.3622 90.3757 32.0021 90.8415 31.7525C91.3073 31.5027 91.8349 31.3776 92.4236 31.3776C93.0125 31.3776 93.5399 31.5027 94.0057 31.7525Z" fill="white"/>
    <path fill-rule="evenodd" clip-rule="evenodd" d="M102.255 32.0551C102.695 32.507 102.915 33.159 102.915 34.0111V37.5263H101.897V34.0992C101.897 33.497 101.741 33.0342 101.428 32.7108C101.115 32.3877 100.69 32.226 100.153 32.226C99.5941 32.226 99.1472 32.4043 98.8115 32.7606C98.4761 33.1169 98.3085 33.6364 98.3085 34.3199V37.5263H97.291V31.4767H98.3085V32.9092C98.465 32.4171 98.7427 32.0388 99.1414 31.7743C99.5401 31.5099 100 31.3776 100.522 31.3776C101.238 31.3776 101.815 31.6035 102.255 32.0551Z" fill="white"/>
    <path fill-rule="evenodd" clip-rule="evenodd" d="M110.208 32.0551C110.648 32.507 110.868 33.159 110.868 34.0111V37.5263H109.85V34.0992C109.85 33.497 109.694 33.0342 109.381 32.7108C109.068 32.3877 108.643 32.226 108.106 32.226C107.547 32.226 107.1 32.4043 106.765 32.7606C106.429 33.1169 106.261 33.6364 106.261 34.3199V37.5263H105.244V31.4767H106.261V32.9092C106.418 32.4171 106.696 32.0388 107.094 31.7743C107.493 31.5099 107.953 31.3776 108.475 31.3776C109.191 31.3776 109.768 31.6035 110.208 32.0551Z" fill="white"/>
    <path fill-rule="evenodd" clip-rule="evenodd" d="M116.567 33.0855C116.396 32.7844 116.161 32.5605 115.863 32.4134C115.565 32.2663 115.24 32.193 114.89 32.193C114.331 32.193 113.861 32.3639 113.482 32.7054C113.101 33.0471 112.896 33.5483 112.867 34.2094H116.791C116.813 33.7615 116.739 33.3868 116.567 33.0855ZM117.775 34.6943H112.867C112.889 35.3849 113.088 35.9029 113.465 36.2478C113.841 36.5935 114.301 36.7659 114.845 36.7659C115.337 36.7659 115.749 36.643 116.081 36.3967C116.413 36.1508 116.616 35.8222 116.69 35.4106H117.775C117.7 35.8294 117.535 36.204 117.277 36.5346C117.02 36.8652 116.687 37.1224 116.277 37.3059C115.867 37.4894 115.405 37.5813 114.89 37.5813C114.301 37.5813 113.779 37.4565 113.325 37.2069C112.87 36.957 112.514 36.5987 112.257 36.1324C112 35.6659 111.872 35.1167 111.872 34.4848C111.872 33.8533 112 33.3024 112.257 32.8321C112.514 32.3619 112.87 32.0021 113.325 31.7523C113.779 31.5024 114.301 31.3776 114.89 31.3776C115.487 31.3776 116.006 31.5024 116.45 31.7523C116.893 32.0021 117.233 32.3364 117.467 32.7549C117.702 33.1736 117.819 33.6367 117.819 34.1433C117.819 34.3565 117.804 34.54 117.775 34.6943Z" fill="white"/>
    <path fill-rule="evenodd" clip-rule="evenodd" d="M124.789 31.9947C125.303 32.4062 125.62 32.9572 125.739 33.6476H124.666C124.592 33.2142 124.388 32.8745 124.057 32.6284C123.725 32.3822 123.313 32.2592 122.821 32.2592C122.464 32.2592 122.137 32.3401 121.843 32.5016C121.549 32.6633 121.312 32.9111 121.133 33.2454C120.954 33.5797 120.865 33.9927 120.865 34.485C120.865 34.9773 120.954 35.3906 121.133 35.7246C121.312 36.0589 121.549 36.307 121.843 36.4685C122.137 36.6302 122.464 36.7109 122.821 36.7109C123.313 36.7109 123.725 36.5861 124.057 36.3362C124.388 36.0864 124.592 35.7452 124.666 35.3116H125.739C125.62 36.0094 125.303 36.5621 124.789 36.9699C124.275 37.3775 123.626 37.5815 122.844 37.5815C122.255 37.5815 121.733 37.4567 121.278 37.2069C120.824 36.957 120.468 36.599 120.211 36.1324C119.954 35.6659 119.825 35.1167 119.825 34.485C119.825 33.8533 119.954 33.3024 120.211 32.8321C120.468 32.3619 120.824 32.0021 121.278 31.7523C121.733 31.5027 122.255 31.3776 122.844 31.3776C123.626 31.3776 124.275 31.5834 124.789 31.9947Z" fill="white"/>
    <path fill-rule="evenodd" clip-rule="evenodd" d="M129.997 36.736V37.6175H129.237C128.61 37.6175 128.142 37.4706 127.833 37.1765C127.524 36.883 127.369 36.3905 127.369 35.6999V32.4385H126.453V31.5679H127.369V30.0581H128.398V31.5679H129.986V32.4385H128.398V35.7219C128.398 36.1117 128.471 36.3779 128.616 36.521C128.761 36.6641 129.013 36.736 129.371 36.736H129.997Z" fill="white"/>
</svg>
