<?xml version="1.0" encoding="utf-8"?>
<!-- Generator: Adobe Illustrator 24.0.1, SVG Export Plug-In . SVG Version: 6.00 Build 0)  -->
<svg version="1.1" id="Calque_1" xmlns="http://www.w3.org/2000/svg" xmlns:xlink="http://www.w3.org/1999/xlink" x="0px" y="0px"
	 viewBox="0 0 648.9 90.8" style="enable-background:new 0 0 648.9 90.8;" xml:space="preserve">
<style type="text/css">
	.st0{fill-rule:evenodd;clip-rule:evenodd;fill:#FFFFFF;}
	.st1{filter:url(#Adobe_OpacityMaskFilter);}
	.st2{mask:url(#mask-2_1_);fill-rule:evenodd;clip-rule:evenodd;fill:#FFFFFF;}
	.st3{filter:url(#Adobe_OpacityMaskFilter_1_);}
	.st4{mask:url(#mask-2_2_);fill-rule:evenodd;clip-rule:evenodd;fill:#FFFFFF;}
	.st5{filter:url(#Adobe_OpacityMaskFilter_2_);}
	.st6{mask:url(#mask-2_3_);fill-rule:evenodd;clip-rule:evenodd;fill:#FFFFFF;}
	.st7{filter:url(#Adobe_OpacityMaskFilter_3_);}
	.st8{mask:url(#mask-2_4_);fill-rule:evenodd;clip-rule:evenodd;fill:#FFFFFF;}
	.st9{filter:url(#Adobe_OpacityMaskFilter_4_);}
	.st10{mask:url(#mask-2_5_);fill-rule:evenodd;clip-rule:evenodd;fill:#FFFFFF;}
	.st11{filter:url(#Adobe_OpacityMaskFilter_5_);}
	.st12{mask:url(#mask-2_6_);fill-rule:evenodd;clip-rule:evenodd;fill:#FFFFFF;}
	.st13{filter:url(#Adobe_OpacityMaskFilter_6_);}
	.st14{mask:url(#mask-2_7_);fill-rule:evenodd;clip-rule:evenodd;fill:#FFFFFF;}
	.st15{filter:url(#Adobe_OpacityMaskFilter_7_);}
	.st16{mask:url(#mask-2_8_);fill-rule:evenodd;clip-rule:evenodd;fill:#FFFFFF;}
	.st17{filter:url(#Adobe_OpacityMaskFilter_8_);}
	.st18{mask:url(#mask-2_9_);fill-rule:evenodd;clip-rule:evenodd;fill:#FFFFFF;}
	.st19{filter:url(#Adobe_OpacityMaskFilter_9_);}
	.st20{mask:url(#mask-2_10_);fill-rule:evenodd;clip-rule:evenodd;fill:#FFFFFF;}
	.st21{filter:url(#Adobe_OpacityMaskFilter_10_);}
	.st22{mask:url(#mask-2_11_);fill-rule:evenodd;clip-rule:evenodd;fill:#FFFFFF;}
	.st23{filter:url(#Adobe_OpacityMaskFilter_11_);}
	.st24{mask:url(#mask-2_12_);fill-rule:evenodd;clip-rule:evenodd;fill:#FFFFFF;}
	.st25{filter:url(#Adobe_OpacityMaskFilter_12_);}
	.st26{mask:url(#mask-2_13_);fill-rule:evenodd;clip-rule:evenodd;fill:#FFFFFF;}
	.st27{filter:url(#Adobe_OpacityMaskFilter_13_);}
	.st28{mask:url(#mask-2_14_);fill-rule:evenodd;clip-rule:evenodd;fill:#EF473D;}
	.st29{filter:url(#Adobe_OpacityMaskFilter_14_);}
	.st30{mask:url(#mask-2_15_);fill-rule:evenodd;clip-rule:evenodd;fill:#EF473D;}
	.st31{filter:url(#Adobe_OpacityMaskFilter_15_);}
	.st32{mask:url(#mask-2_16_);fill-rule:evenodd;clip-rule:evenodd;fill:#EF473D;}
</style>
<title>Equisoft Connect Mobile Logo</title>
<g>
	<g id="Logo">
		<polygon id="Fill-1" class="st0" points="129.4,40.1 129.4,51.9 143.6,51.9 143.6,56.7 129.4,56.7 129.4,68.7 145.3,68.7 
			145.3,73.8 123.1,73.8 123.1,35.1 145.3,35.1 145.3,40.1 		"/>
		<g id="Group-23" transform="translate(0.000000, 0.374253)">
			<path id="Fill-2" class="st0" d="M162.4,51c-1.7,1.8-2.6,4.2-2.6,7.4s0.8,5.6,2.5,7.3c1.7,1.7,3.9,2.6,6.6,2.6
				c1.7,0,3.2-0.4,4.6-1.2c1.4-0.8,2.5-1.9,3.3-3.4c0.8-1.5,1.3-3.3,1.3-5.4c0-2-0.4-3.8-1.3-5.3c-0.8-1.5-2-2.6-3.3-3.4
				c-1.4-0.8-2.9-1.2-4.6-1.2C166.3,48.4,164.1,49.2,162.4,51 M174.1,44.6c1.8,1.2,3.2,2.8,4.1,4.9v-6.3h6.3v44.5h-6.3v-21
				c-0.9,2.2-2.3,3.9-4.2,5.1c-1.8,1.2-4,1.9-6.5,1.9c-2.6,0-5-0.6-7.2-1.9c-2.2-1.3-3.8-3.1-5.1-5.4c-1.2-2.3-1.8-5-1.8-8.1
				c0-3.1,0.6-5.8,1.8-8.1c1.2-2.3,2.9-4.1,5.1-5.4c2.2-1.3,4.5-1.9,7.2-1.9C170,42.9,172.2,43.5,174.1,44.6"/>
			<path id="Fill-4" class="st0" d="M224.2,43.2v30.2H218v-6.6c-0.8,2.2-2.1,3.9-4,5.2c-1.9,1.2-4.1,1.8-6.6,1.8
				c-3.5,0-6.3-1.1-8.4-3.4c-2.1-2.3-3.2-5.5-3.2-9.7V43.2h6.3v16.9c0,2.7,0.7,4.8,2.1,6.3c1.4,1.5,3.3,2.2,5.7,2.2
				c2.5,0,4.5-0.8,6-2.4c1.5-1.6,2.2-3.9,2.2-7v-16H224.2z"/>
			<g id="Clip-7">
			</g>
			<defs>
				<filter id="Adobe_OpacityMaskFilter" filterUnits="userSpaceOnUse" x="235.2" y="30.8" width="8" height="42.6">
					<feColorMatrix  type="matrix" values="1 0 0 0 0  0 1 0 0 0  0 0 1 0 0  0 0 0 1 0"/>
				</filter>
			</defs>
			<mask maskUnits="userSpaceOnUse" x="235.2" y="30.8" width="8" height="42.6" id="mask-2_1_">
				<g class="st1">
					<polygon id="path-1_1_" class="st0" points="0.6,87.7 647.5,87.7 647.5,2.7 0.6,2.7 					"/>
				</g>
			</mask>
			<path id="Fill-6" class="st2" d="M236,73.4h6.2V43.2H236V73.4z M236.3,31.8c0.7-0.7,1.7-1,2.9-1c1.2,0,2.2,0.4,2.9,1
				c0.7,0.7,1.1,1.6,1.1,2.6s-0.4,1.9-1.1,2.6c-0.8,0.7-1.7,1-2.9,1c-1.2,0-2.2-0.3-2.9-1c-0.7-0.7-1.1-1.5-1.1-2.6
				S235.5,32.5,236.3,31.8L236.3,31.8z"/>
			<defs>
				<filter id="Adobe_OpacityMaskFilter_1_" filterUnits="userSpaceOnUse" x="252.7" y="42.8" width="23.9" height="30.9">
					<feColorMatrix  type="matrix" values="1 0 0 0 0  0 1 0 0 0  0 0 1 0 0  0 0 0 1 0"/>
				</filter>
			</defs>
			<mask maskUnits="userSpaceOnUse" x="252.7" y="42.8" width="23.9" height="30.9" id="mask-2_2_">
				<g class="st3">
					<polygon id="path-1_2_" class="st0" points="0.6,87.7 647.5,87.7 647.5,2.7 0.6,2.7 					"/>
				</g>
			</mask>
			<path id="Fill-8" class="st4" d="M272.4,45.5c2.1,1.8,3.4,4.2,3.9,7.3h-5.9c-0.3-1.6-1-3-2.1-4c-1.2-1-2.7-1.5-4.6-1.5
				c-1.6,0-2.8,0.4-3.6,1.1c-0.9,0.8-1.3,1.8-1.3,3c0,0.9,0.3,1.7,0.9,2.3c0.6,0.6,1.4,1,2.3,1.4c0.9,0.3,2.2,0.7,4,1.1
				c2.3,0.5,4.1,1,5.5,1.6c1.4,0.5,2.6,1.4,3.6,2.6c1,1.2,1.5,2.8,1.5,4.8c0,2.5-1,4.6-2.9,6.1c-1.9,1.6-4.5,2.4-7.7,2.4
				c-3.8,0-6.8-0.9-9.1-2.6c-2.3-1.8-3.7-4.2-4.2-7.3h6.1c0.2,1.7,0.9,3,2.2,4c1.3,1,3,1.5,5,1.5c1.5,0,2.7-0.4,3.5-1.2
				c0.9-0.8,1.3-1.8,1.3-3c0-1.1-0.3-1.9-1-2.5c-0.7-0.6-1.5-1.1-2.5-1.4c-1-0.4-2.3-0.7-4-1.1c-2.2-0.5-4-1-5.3-1.5
				c-1.4-0.5-2.5-1.3-3.5-2.5c-1-1.2-1.4-2.7-1.4-4.7c0-2.6,1-4.6,2.9-6.2c1.9-1.6,4.6-2.4,8-2.4C267.4,42.8,270.3,43.7,272.4,45.5"
				/>
			<defs>
				<filter id="Adobe_OpacityMaskFilter_2_" filterUnits="userSpaceOnUse" x="285.3" y="42.8" width="30.7" height="30.9">
					<feColorMatrix  type="matrix" values="1 0 0 0 0  0 1 0 0 0  0 0 1 0 0  0 0 0 1 0"/>
				</filter>
			</defs>
			<mask maskUnits="userSpaceOnUse" x="285.3" y="42.8" width="30.7" height="30.9" id="mask-2_3_">
				<g class="st5">
					<polygon id="path-1_3_" class="st0" points="0.6,87.7 647.5,87.7 647.5,2.7 0.6,2.7 					"/>
				</g>
			</mask>
			<path id="Fill-9" class="st6" d="M296.2,49.3c-1.4,0.7-2.4,1.9-3.3,3.4c-0.8,1.5-1.2,3.4-1.2,5.6c0,2.2,0.4,4.1,1.2,5.6
				c0.8,1.5,1.9,2.6,3.3,3.3c1.3,0.7,2.8,1.1,4.4,1.1c1.6,0,3.1-0.4,4.4-1.1c1.4-0.7,2.4-1.8,3.3-3.3c0.8-1.5,1.2-3.4,1.2-5.6
				c0-2.2-0.4-4-1.2-5.6c-0.8-1.5-1.9-2.6-3.3-3.4c-1.3-0.7-2.8-1.1-4.4-1.1C299.1,48.2,297.6,48.6,296.2,49.3 M308.6,44.7
				c2.3,1.2,4.2,3,5.5,5.4c1.3,2.3,2,5.1,2,8.2c0,3.2-0.7,5.9-2,8.3c-1.3,2.3-3.1,4.1-5.5,5.4c-2.3,1.2-5,1.9-7.9,1.9
				c-2.9,0-5.5-0.6-7.9-1.9c-2.3-1.2-4.1-3-5.5-5.4c-1.3-2.4-2-5.1-2-8.2c0-3.1,0.7-5.9,2-8.2c1.3-2.3,3.1-4.1,5.5-5.4
				c2.3-1.2,4.9-1.9,7.9-1.9C303.6,42.8,306.2,43.4,308.6,44.7"/>
			<defs>
				<filter id="Adobe_OpacityMaskFilter_3_" filterUnits="userSpaceOnUse" x="323" y="31.5" width="17" height="41.9">
					<feColorMatrix  type="matrix" values="1 0 0 0 0  0 1 0 0 0  0 0 1 0 0  0 0 0 1 0"/>
				</filter>
			</defs>
			<mask maskUnits="userSpaceOnUse" x="323" y="31.5" width="17" height="41.9" id="mask-2_4_">
				<g class="st7">
					<polygon id="path-1_4_" class="st0" points="0.6,87.7 647.5,87.7 647.5,2.7 0.6,2.7 					"/>
				</g>
			</mask>
			<path id="Fill-10" class="st8" d="M334.8,38.1c-1,0.9-1.5,2.4-1.5,4.6v0.5h6.6v5.4h-6.6v24.8h-6.3V48.6H323v-5.4h4.1v-1
				c0-3.7,1.1-6.4,3.2-8.3c2.1-1.8,5.4-2.7,9.7-2.4V37C337.5,36.9,335.8,37.3,334.8,38.1"/>
			<defs>
				<filter id="Adobe_OpacityMaskFilter_4_" filterUnits="userSpaceOnUse" x="347.4" y="35.7" width="18" height="37.7">
					<feColorMatrix  type="matrix" values="1 0 0 0 0  0 1 0 0 0  0 0 1 0 0  0 0 0 1 0"/>
				</filter>
			</defs>
			<mask maskUnits="userSpaceOnUse" x="347.4" y="35.7" width="18" height="37.7" id="mask-2_5_">
				<g class="st9">
					<polygon id="path-1_5_" class="st0" points="0.6,87.7 647.5,87.7 647.5,2.7 0.6,2.7 					"/>
				</g>
			</mask>
			<path id="Fill-11" class="st10" d="M365.4,68v5.4h-3.8c-3.2,0-5.6-0.8-7.3-2.3c-1.7-1.5-2.5-4.1-2.5-7.7V48.5h-4.3v-5.3h4.3v-7.5
				h6.3v7.5h7.3v5.3h-7.3v14.9c0,1.7,0.3,2.9,1,3.6c0.6,0.7,1.8,1,3.4,1H365.4z"/>
			<defs>
				<filter id="Adobe_OpacityMaskFilter_5_" filterUnits="userSpaceOnUse" x="371.9" y="21.7" width="21" height="61.3">
					<feColorMatrix  type="matrix" values="1 0 0 0 0  0 1 0 0 0  0 0 1 0 0  0 0 0 1 0"/>
				</filter>
			</defs>
			<mask maskUnits="userSpaceOnUse" x="371.9" y="21.7" width="21" height="61.3" id="mask-2_6_">
				<g class="st11">
					<polygon id="path-1_6_" class="st0" points="0.6,87.7 647.5,87.7 647.5,2.7 0.6,2.7 					"/>
				</g>
			</mask>
			<polygon id="Fill-12" class="st12" points="392.9,21.7 378,83 371.9,83 386.8,21.7 			"/>
			<defs>
				<filter id="Adobe_OpacityMaskFilter_6_" filterUnits="userSpaceOnUse" x="397" y="42.8" width="29.4" height="30.9">
					<feColorMatrix  type="matrix" values="1 0 0 0 0  0 1 0 0 0  0 0 1 0 0  0 0 0 1 0"/>
				</filter>
			</defs>
			<mask maskUnits="userSpaceOnUse" x="397" y="42.8" width="29.4" height="30.9" id="mask-2_7_">
				<g class="st13">
					<polygon id="path-1_7_" class="st0" points="0.6,87.7 647.5,87.7 647.5,2.7 0.6,2.7 					"/>
				</g>
			</mask>
			<path id="Fill-13" class="st14" d="M421.7,45.9c2.6,2.1,4.1,4.9,4.8,8.4h-6.6c-0.4-1.9-1.2-3.4-2.6-4.5c-1.4-1.1-3.2-1.6-5.3-1.6
				c-2.4,0-4.4,0.8-6,2.5s-2.4,4.2-2.4,7.5c0,3.3,0.8,5.8,2.4,7.5c1.6,1.7,3.6,2.6,6,2.6c2.1,0,3.9-0.5,5.3-1.6
				c1.4-1.1,2.3-2.6,2.6-4.5h6.6c-0.6,3.5-2.2,6.4-4.8,8.4c-2.6,2.1-5.8,3.1-9.7,3.1c-2.9,0-5.5-0.6-7.7-1.9c-2.2-1.2-4-3-5.3-5.4
				c-1.3-2.3-1.9-5.1-1.9-8.3c0-3.1,0.6-5.9,1.9-8.2c1.3-2.3,3-4.1,5.3-5.4c2.2-1.2,4.8-1.9,7.7-1.9
				C415.9,42.8,419.1,43.9,421.7,45.9"/>
			<defs>
				<filter id="Adobe_OpacityMaskFilter_7_" filterUnits="userSpaceOnUse" x="435.1" y="42.8" width="30.7" height="30.9">
					<feColorMatrix  type="matrix" values="1 0 0 0 0  0 1 0 0 0  0 0 1 0 0  0 0 0 1 0"/>
				</filter>
			</defs>
			<mask maskUnits="userSpaceOnUse" x="435.1" y="42.8" width="30.7" height="30.9" id="mask-2_8_">
				<g class="st15">
					<polygon id="path-1_8_" class="st0" points="0.6,87.7 647.5,87.7 647.5,2.7 0.6,2.7 					"/>
				</g>
			</mask>
			<path id="Fill-14" class="st16" d="M446,49.3c-1.4,0.7-2.4,1.9-3.3,3.4c-0.8,1.5-1.2,3.4-1.2,5.6c0,2.2,0.4,4.1,1.2,5.6
				c0.8,1.5,1.9,2.6,3.3,3.3c1.3,0.7,2.8,1.1,4.4,1.1c1.6,0,3.1-0.4,4.4-1.1c1.4-0.7,2.4-1.8,3.3-3.3c0.8-1.5,1.2-3.4,1.2-5.6
				c0-2.2-0.4-4-1.2-5.6c-0.8-1.5-1.9-2.6-3.3-3.4c-1.3-0.7-2.8-1.1-4.4-1.1C448.8,48.2,447.3,48.6,446,49.3 M458.3,44.7
				c2.3,1.2,4.2,3,5.5,5.4c1.3,2.3,2,5.1,2,8.2c0,3.2-0.7,5.9-2,8.3c-1.3,2.3-3.1,4.1-5.5,5.4c-2.3,1.2-5,1.9-7.9,1.9
				c-2.9,0-5.5-0.6-7.9-1.9c-2.3-1.2-4.1-3-5.5-5.4c-1.3-2.4-2-5.1-2-8.2c0-3.1,0.7-5.9,2-8.2c1.3-2.3,3.1-4.1,5.5-5.4
				c2.3-1.2,4.9-1.9,7.9-1.9C453.3,42.8,456,43.4,458.3,44.7"/>
			<defs>
				<filter id="Adobe_OpacityMaskFilter_8_" filterUnits="userSpaceOnUse" x="476" y="42.7" width="28.5" height="30.7">
					<feColorMatrix  type="matrix" values="1 0 0 0 0  0 1 0 0 0  0 0 1 0 0  0 0 0 1 0"/>
				</filter>
			</defs>
			<mask maskUnits="userSpaceOnUse" x="476" y="42.7" width="28.5" height="30.7" id="mask-2_9_">
				<g class="st17">
					<polygon id="path-1_9_" class="st0" points="0.6,87.7 647.5,87.7 647.5,2.7 0.6,2.7 					"/>
				</g>
			</mask>
			<path id="Fill-15" class="st18" d="M501.3,46.1c2.1,2.3,3.2,5.5,3.2,9.7v17.6h-6.2V56.5c0-2.7-0.7-4.8-2.1-6.3
				c-1.4-1.5-3.3-2.2-5.7-2.2c-2.5,0-4.5,0.8-6,2.4c-1.5,1.6-2.2,3.9-2.2,7v16.1H476V43.2h6.3v6.6c0.8-2.3,2.2-4,4-5.3
				c1.9-1.2,4.1-1.9,6.6-1.9C496.4,42.7,499.2,43.9,501.3,46.1"/>
			<defs>
				<filter id="Adobe_OpacityMaskFilter_9_" filterUnits="userSpaceOnUse" x="516.1" y="42.7" width="28.5" height="30.7">
					<feColorMatrix  type="matrix" values="1 0 0 0 0  0 1 0 0 0  0 0 1 0 0  0 0 0 1 0"/>
				</filter>
			</defs>
			<mask maskUnits="userSpaceOnUse" x="516.1" y="42.7" width="28.5" height="30.7" id="mask-2_10_">
				<g class="st19">
					<polygon id="path-1_10_" class="st0" points="0.6,87.7 647.5,87.7 647.5,2.7 0.6,2.7 					"/>
				</g>
			</mask>
			<path id="Fill-16" class="st20" d="M541.4,46.1c2.1,2.3,3.2,5.5,3.2,9.7v17.6h-6.2V56.5c0-2.7-0.7-4.8-2.1-6.3
				c-1.4-1.5-3.3-2.2-5.7-2.2c-2.5,0-4.5,0.8-6,2.4c-1.5,1.6-2.2,3.9-2.2,7v16.1h-6.3V43.2h6.3v6.6c0.8-2.3,2.2-4,4-5.3
				c1.9-1.2,4.1-1.9,6.6-1.9C536.4,42.7,539.2,43.9,541.4,46.1"/>
			<defs>
				<filter id="Adobe_OpacityMaskFilter_10_" filterUnits="userSpaceOnUse" x="554.6" y="42.8" width="29.6" height="30.9">
					<feColorMatrix  type="matrix" values="1 0 0 0 0  0 1 0 0 0  0 0 1 0 0  0 0 0 1 0"/>
				</filter>
			</defs>
			<mask maskUnits="userSpaceOnUse" x="554.6" y="42.8" width="29.6" height="30.9" id="mask-2_11_">
				<g class="st21">
					<polygon id="path-1_11_" class="st0" points="0.6,87.7 647.5,87.7 647.5,2.7 0.6,2.7 					"/>
				</g>
			</mask>
			<path id="Fill-17" class="st22" d="M576.8,51.7c-0.8-1.3-1.8-2.3-3.1-3c-1.3-0.6-2.7-1-4.2-1c-2.4,0-4.5,0.7-6.1,2.2
				c-1.6,1.5-2.5,3.7-2.7,6.6h17.1C577.9,54.7,577.6,53.1,576.8,51.7 M583.9,59.5h-23.2c0.1,3.1,1,5.4,2.6,6.9
				c1.6,1.5,3.6,2.2,6,2.2c2.1,0,3.8-0.5,5.3-1.6c1.4-1,2.3-2.5,2.7-4.2h6.7c-0.4,2.1-1.2,4-2.5,5.6c-1.3,1.6-2.9,2.9-5,3.9
				c-2.1,0.9-4.3,1.4-6.9,1.4c-2.9,0-5.5-0.6-7.7-1.9c-2.2-1.2-4-3-5.3-5.4c-1.3-2.3-1.9-5.1-1.9-8.3c0-3.1,0.6-5.9,1.9-8.2
				c1.3-2.3,3-4.1,5.3-5.4c2.2-1.2,4.8-1.9,7.7-1.9c3,0,5.5,0.6,7.8,1.8c2.2,1.2,3.9,2.9,5.1,5c1.2,2.1,1.8,4.5,1.8,7.2
				C584.1,57.9,584.1,58.8,583.9,59.5"/>
			<defs>
				<filter id="Adobe_OpacityMaskFilter_11_" filterUnits="userSpaceOnUse" x="592.9" y="42.8" width="29.4" height="30.9">
					<feColorMatrix  type="matrix" values="1 0 0 0 0  0 1 0 0 0  0 0 1 0 0  0 0 0 1 0"/>
				</filter>
			</defs>
			<mask maskUnits="userSpaceOnUse" x="592.9" y="42.8" width="29.4" height="30.9" id="mask-2_12_">
				<g class="st23">
					<polygon id="path-1_12_" class="st0" points="0.6,87.7 647.5,87.7 647.5,2.7 0.6,2.7 					"/>
				</g>
			</mask>
			<path id="Fill-18" class="st24" d="M617.6,45.9c2.6,2.1,4.1,4.9,4.8,8.4h-6.6c-0.4-1.9-1.2-3.4-2.6-4.5c-1.4-1.1-3.2-1.6-5.3-1.6
				c-2.4,0-4.4,0.8-6,2.5s-2.4,4.2-2.4,7.5c0,3.3,0.8,5.8,2.4,7.5c1.6,1.7,3.6,2.6,6,2.6c2.1,0,3.9-0.5,5.3-1.6
				c1.4-1.1,2.3-2.6,2.6-4.5h6.6c-0.6,3.5-2.2,6.4-4.8,8.4c-2.6,2.1-5.8,3.1-9.7,3.1c-2.9,0-5.5-0.6-7.7-1.9c-2.2-1.2-4-3-5.3-5.4
				c-1.3-2.3-1.9-5.1-1.9-8.3c0-3.1,0.6-5.9,1.9-8.2c1.3-2.3,3-4.1,5.3-5.4c2.2-1.2,4.8-1.9,7.7-1.9C611.8,42.8,615,43.9,617.6,45.9
				"/>
			<defs>
				<filter id="Adobe_OpacityMaskFilter_12_" filterUnits="userSpaceOnUse" x="629.5" y="35.7" width="18" height="37.7">
					<feColorMatrix  type="matrix" values="1 0 0 0 0  0 1 0 0 0  0 0 1 0 0  0 0 0 1 0"/>
				</filter>
			</defs>
			<mask maskUnits="userSpaceOnUse" x="629.5" y="35.7" width="18" height="37.7" id="mask-2_13_">
				<g class="st25">
					<polygon id="path-1_13_" class="st0" points="0.6,87.7 647.5,87.7 647.5,2.7 0.6,2.7 					"/>
				</g>
			</mask>
			<path id="Fill-19" class="st26" d="M647.5,68v5.4h-3.8c-3.2,0-5.6-0.8-7.3-2.3c-1.7-1.5-2.5-4.1-2.5-7.7V48.5h-4.3v-5.3h4.3v-7.5
				h6.3v7.5h7.3v5.3h-7.3v14.9c0,1.7,0.3,2.9,1,3.6c0.6,0.7,1.8,1,3.4,1H647.5z"/>
			<defs>
				<filter id="Adobe_OpacityMaskFilter_13_" filterUnits="userSpaceOnUse" x="27.6" y="2.7" width="36.4" height="32.1">
					<feColorMatrix  type="matrix" values="1 0 0 0 0  0 1 0 0 0  0 0 1 0 0  0 0 0 1 0"/>
				</filter>
			</defs>
			<mask maskUnits="userSpaceOnUse" x="27.6" y="2.7" width="36.4" height="32.1" id="mask-2_14_">
				<g class="st27">
					<polygon id="path-1_14_" class="st0" points="0.6,87.7 647.5,87.7 647.5,2.7 0.6,2.7 					"/>
				</g>
			</mask>
			<polygon id="Fill-20" class="st28" points="45.9,2.7 45.9,26.4 32.5,26.4 27.6,34.8 64,34.8 			"/>
			<defs>
				<filter id="Adobe_OpacityMaskFilter_14_" filterUnits="userSpaceOnUse" x="0.6" y="63.2" width="89.4" height="16.7">
					<feColorMatrix  type="matrix" values="1 0 0 0 0  0 1 0 0 0  0 0 1 0 0  0 0 0 1 0"/>
				</filter>
			</defs>
			<mask maskUnits="userSpaceOnUse" x="0.6" y="63.2" width="89.4" height="16.7" id="mask-2_15_">
				<g class="st29">
					<polygon id="path-1_15_" class="st0" points="0.6,87.7 647.5,87.7 647.5,2.7 0.6,2.7 					"/>
				</g>
			</mask>
			<polygon id="Fill-21" class="st30" points="45.9,63.2 45.9,71.5 5.5,71.5 0.6,79.9 90,79.9 80.5,63.2 			"/>
			<defs>
				<filter id="Adobe_OpacityMaskFilter_15_" filterUnits="userSpaceOnUse" x="14.4" y="40.6" width="62.4" height="16.7">
					<feColorMatrix  type="matrix" values="1 0 0 0 0  0 1 0 0 0  0 0 1 0 0  0 0 0 1 0"/>
				</filter>
			</defs>
			<mask maskUnits="userSpaceOnUse" x="14.4" y="40.6" width="62.4" height="16.7" id="mask-2_16_">
				<g class="st31">
					<polygon id="path-1_16_" class="st0" points="0.6,87.7 647.5,87.7 647.5,2.7 0.6,2.7 					"/>
				</g>
			</mask>
			<polygon id="Fill-22" class="st32" points="67.2,40.6 45.9,40.6 45.9,49 19.3,49 14.4,57.3 76.7,57.3 			"/>
		</g>
	</g>
</g>
</svg>
