<?xml version="1.0" encoding="utf-8"?>
<!-- Generator: Adobe Illustrator 24.0.1, SVG Export Plug-In . SVG Version: 6.00 Build 0)  -->
<svg version="1.1" id="Calque_1" xmlns="http://www.w3.org/2000/svg" xmlns:xlink="http://www.w3.org/1999/xlink" x="0px" y="0px"
	 viewBox="0 0 669.1 85.2" style="enable-background:new 0 0 669.1 85.2;" xml:space="preserve">
<style type="text/css">
	.st0{fill-rule:evenodd;clip-rule:evenodd;fill:#FFFFFF;}
	.st1{filter:url(#Adobe_OpacityMaskFilter);}
	.st2{mask:url(#mask-2_1_);fill-rule:evenodd;clip-rule:evenodd;fill:#FFFFFF;}
	.st3{filter:url(#Adobe_OpacityMaskFilter_1_);}
	.st4{mask:url(#mask-2_2_);fill-rule:evenodd;clip-rule:evenodd;fill:#FFFFFF;}
	.st5{filter:url(#Adobe_OpacityMaskFilter_2_);}
	.st6{mask:url(#mask-2_3_);fill-rule:evenodd;clip-rule:evenodd;fill:#FFFFFF;}
	.st7{filter:url(#Adobe_OpacityMaskFilter_3_);}
	.st8{mask:url(#mask-2_4_);fill-rule:evenodd;clip-rule:evenodd;fill:#FFFFFF;}
	.st9{filter:url(#Adobe_OpacityMaskFilter_4_);}
	.st10{mask:url(#mask-2_5_);fill-rule:evenodd;clip-rule:evenodd;fill:#FFFFFF;}
	.st11{filter:url(#Adobe_OpacityMaskFilter_5_);}
	.st12{mask:url(#mask-2_6_);fill-rule:evenodd;clip-rule:evenodd;fill:#FFFFFF;}
	.st13{filter:url(#Adobe_OpacityMaskFilter_6_);}
	.st14{mask:url(#mask-2_7_);fill-rule:evenodd;clip-rule:evenodd;fill:#FFFFFF;}
	.st15{filter:url(#Adobe_OpacityMaskFilter_7_);}
	.st16{mask:url(#mask-2_8_);fill-rule:evenodd;clip-rule:evenodd;fill:#FFFFFF;}
	.st17{filter:url(#Adobe_OpacityMaskFilter_8_);}
	.st18{mask:url(#mask-2_9_);fill-rule:evenodd;clip-rule:evenodd;fill:#FFFFFF;}
	.st19{filter:url(#Adobe_OpacityMaskFilter_9_);}
	.st20{mask:url(#mask-2_10_);fill-rule:evenodd;clip-rule:evenodd;fill:#FFFFFF;}
	.st21{filter:url(#Adobe_OpacityMaskFilter_10_);}
	.st22{mask:url(#mask-2_11_);fill-rule:evenodd;clip-rule:evenodd;fill:#FFFFFF;}
	.st23{filter:url(#Adobe_OpacityMaskFilter_11_);}
	.st24{mask:url(#mask-2_12_);fill-rule:evenodd;clip-rule:evenodd;fill:#FFFFFF;}
	.st25{filter:url(#Adobe_OpacityMaskFilter_12_);}
	.st26{mask:url(#mask-2_13_);fill-rule:evenodd;clip-rule:evenodd;fill:#FFFFFF;}
	.st27{filter:url(#Adobe_OpacityMaskFilter_13_);}
	.st28{mask:url(#mask-2_14_);fill-rule:evenodd;clip-rule:evenodd;fill:#FFFFFF;}
	.st29{filter:url(#Adobe_OpacityMaskFilter_14_);}
	.st30{mask:url(#mask-2_15_);fill-rule:evenodd;clip-rule:evenodd;fill:#FFFFFF;}
	.st31{filter:url(#Adobe_OpacityMaskFilter_15_);}
	.st32{mask:url(#mask-2_16_);fill-rule:evenodd;clip-rule:evenodd;fill:#FFFFFF;}
	.st33{filter:url(#Adobe_OpacityMaskFilter_16_);}
	.st34{mask:url(#mask-2_17_);fill-rule:evenodd;clip-rule:evenodd;fill:#EF473D;}
	.st35{filter:url(#Adobe_OpacityMaskFilter_17_);}
	.st36{mask:url(#mask-2_18_);fill-rule:evenodd;clip-rule:evenodd;fill:#EF473D;}
	.st37{filter:url(#Adobe_OpacityMaskFilter_18_);}
	.st38{mask:url(#mask-2_19_);fill-rule:evenodd;clip-rule:evenodd;fill:#EF473D;}
</style>
<title>Equisoft Illustrate Mobile Logo</title>
<g>
	<g id="Logo">
		<polygon id="Fill-1" class="st0" points="128.2,37.3 128.2,49 142.4,49 142.4,53.8 128.2,53.8 128.2,65.8 144.1,65.8 144.1,70.9 
			122,70.9 122,32.3 144.1,32.3 144.1,37.3 		"/>
		<g id="Group-26" transform="translate(0.000000, 0.374253)">
			<path id="Fill-2" class="st0" d="M161.1,48.2c-1.7,1.8-2.6,4.2-2.6,7.3c0,3.1,0.8,5.6,2.5,7.3c1.7,1.7,3.9,2.6,6.6,2.6
				c1.7,0,3.2-0.4,4.6-1.2c1.4-0.8,2.5-1.9,3.3-3.4c0.8-1.5,1.3-3.3,1.3-5.3c0-2-0.4-3.8-1.3-5.3c-0.8-1.5-1.9-2.6-3.3-3.4
				c-1.4-0.8-2.9-1.2-4.6-1.2C165,45.5,162.8,46.4,161.1,48.2 M172.7,41.8c1.8,1.2,3.2,2.8,4.1,4.9v-6.3h6.2v44.4h-6.2V63.9
				c-0.9,2.2-2.3,3.9-4.1,5.1c-1.8,1.2-4,1.9-6.5,1.9c-2.6,0-5-0.6-7.1-1.9c-2.1-1.3-3.8-3.1-5.1-5.4c-1.2-2.3-1.8-5-1.8-8.1
				c0-3.1,0.6-5.8,1.8-8.1c1.2-2.3,2.9-4.1,5.1-5.4s4.5-1.9,7.1-1.9C168.7,40.1,170.9,40.7,172.7,41.8"/>
			<path id="Fill-4" class="st0" d="M222.7,40.4v30.1h-6.3v-6.6c-0.8,2.2-2.1,3.9-4,5.2c-1.9,1.2-4.1,1.8-6.6,1.8
				c-3.5,0-6.3-1.1-8.4-3.4c-2.1-2.3-3.2-5.5-3.2-9.7V40.4h6.2v16.8c0,2.7,0.7,4.8,2.1,6.3c1.4,1.5,3.3,2.2,5.7,2.2
				c2.5,0,4.4-0.8,5.9-2.4c1.5-1.6,2.2-3.9,2.2-7V40.4H222.7z"/>
			<g id="Clip-7">
			</g>
			<defs>
				<filter id="Adobe_OpacityMaskFilter" filterUnits="userSpaceOnUse" x="233.6" y="28" width="8" height="42.5">
					<feColorMatrix  type="matrix" values="1 0 0 0 0  0 1 0 0 0  0 0 1 0 0  0 0 0 1 0"/>
				</filter>
			</defs>
			<mask maskUnits="userSpaceOnUse" x="233.6" y="28" width="8" height="42.5" id="mask-2_1_">
				<g class="st1">
					<polygon id="path-1_1_" class="st0" points="0,84.8 668.3,84.8 668.3,0 0,0 					"/>
				</g>
			</mask>
			<path id="Fill-6" class="st2" d="M234.5,70.5h6.2V40.4h-6.2V70.5z M234.7,29c0.7-0.7,1.7-1,2.9-1c1.2,0,2.2,0.4,2.9,1
				c0.7,0.7,1.1,1.6,1.1,2.6s-0.4,1.9-1.1,2.6c-0.7,0.6-1.7,1-2.9,1c-1.2,0-2.2-0.3-2.9-1c-0.7-0.7-1.1-1.5-1.1-2.6
				S234,29.7,234.7,29L234.7,29z"/>
			<defs>
				<filter id="Adobe_OpacityMaskFilter_1_" filterUnits="userSpaceOnUse" x="251.1" y="40" width="23.8" height="30.9">
					<feColorMatrix  type="matrix" values="1 0 0 0 0  0 1 0 0 0  0 0 1 0 0  0 0 0 1 0"/>
				</filter>
			</defs>
			<mask maskUnits="userSpaceOnUse" x="251.1" y="40" width="23.8" height="30.9" id="mask-2_2_">
				<g class="st3">
					<polygon id="path-1_2_" class="st0" points="0,84.8 668.3,84.8 668.3,0 0,0 					"/>
				</g>
			</mask>
			<path id="Fill-8" class="st4" d="M270.7,42.7c2.1,1.8,3.4,4.2,3.9,7.2h-5.9c-0.3-1.6-1-3-2.1-4c-1.1-1-2.7-1.5-4.6-1.5
				c-1.6,0-2.8,0.4-3.6,1.1c-0.9,0.8-1.3,1.8-1.3,3c0,0.9,0.3,1.7,0.9,2.3c0.6,0.6,1.4,1,2.3,1.4c0.9,0.3,2.2,0.7,4,1.1
				c2.3,0.5,4.1,1,5.5,1.6c1.4,0.5,2.6,1.4,3.6,2.6c1,1.2,1.5,2.8,1.5,4.8c0,2.5-1,4.5-2.9,6.1c-1.9,1.6-4.5,2.4-7.7,2.4
				c-3.7,0-6.8-0.9-9.1-2.6c-2.3-1.8-3.7-4.2-4.2-7.3h6.1c0.2,1.6,0.9,3,2.2,4c1.3,1,2.9,1.5,5,1.5c1.5,0,2.7-0.4,3.5-1.2
				c0.9-0.8,1.3-1.8,1.3-3c0-1.1-0.3-1.9-1-2.5c-0.7-0.6-1.5-1.1-2.5-1.4c-1-0.4-2.3-0.7-4-1.1c-2.2-0.5-4-1-5.3-1.5
				c-1.4-0.5-2.5-1.3-3.5-2.5c-1-1.1-1.4-2.7-1.4-4.7c0-2.5,1-4.6,2.9-6.2c1.9-1.6,4.6-2.4,7.9-2.4C265.7,40,268.6,40.9,270.7,42.7"
				/>
			<defs>
				<filter id="Adobe_OpacityMaskFilter_2_" filterUnits="userSpaceOnUse" x="283.6" y="40" width="30.5" height="30.9">
					<feColorMatrix  type="matrix" values="1 0 0 0 0  0 1 0 0 0  0 0 1 0 0  0 0 0 1 0"/>
				</filter>
			</defs>
			<mask maskUnits="userSpaceOnUse" x="283.6" y="40" width="30.5" height="30.9" id="mask-2_3_">
				<g class="st5">
					<polygon id="path-1_3_" class="st0" points="0,84.8 668.3,84.8 668.3,0 0,0 					"/>
				</g>
			</mask>
			<path id="Fill-9" class="st6" d="M294.4,46.5c-1.4,0.7-2.4,1.9-3.2,3.4c-0.8,1.5-1.2,3.4-1.2,5.5c0,2.2,0.4,4.1,1.2,5.6
				s1.9,2.6,3.2,3.3c1.3,0.7,2.8,1.1,4.4,1.1c1.6,0,3.1-0.4,4.4-1.1c1.4-0.7,2.4-1.8,3.2-3.3c0.8-1.5,1.2-3.4,1.2-5.6
				c0-2.2-0.4-4-1.2-5.5c-0.8-1.5-1.9-2.6-3.2-3.4c-1.3-0.7-2.8-1.1-4.4-1.1C297.3,45.4,295.8,45.8,294.4,46.5 M306.7,41.9
				c2.3,1.2,4.1,3,5.5,5.4c1.3,2.3,2,5.1,2,8.2c0,3.2-0.6,5.9-2,8.3c-1.3,2.3-3.1,4.1-5.5,5.4c-2.3,1.2-4.9,1.9-7.9,1.9
				c-2.9,0-5.5-0.6-7.8-1.9c-2.3-1.2-4.1-3-5.4-5.4c-1.3-2.4-2-5.1-2-8.2c0-3.1,0.7-5.9,2-8.2c1.3-2.3,3.1-4.1,5.4-5.4
				c2.3-1.2,4.9-1.9,7.8-1.9C301.8,40,304.4,40.6,306.7,41.9"/>
			<defs>
				<filter id="Adobe_OpacityMaskFilter_3_" filterUnits="userSpaceOnUse" x="321.1" y="28.7" width="17" height="41.8">
					<feColorMatrix  type="matrix" values="1 0 0 0 0  0 1 0 0 0  0 0 1 0 0  0 0 0 1 0"/>
				</filter>
			</defs>
			<mask maskUnits="userSpaceOnUse" x="321.1" y="28.7" width="17" height="41.8" id="mask-2_4_">
				<g class="st7">
					<polygon id="path-1_4_" class="st0" points="0,84.8 668.3,84.8 668.3,0 0,0 					"/>
				</g>
			</mask>
			<path id="Fill-10" class="st8" d="M332.9,35.4c-1,0.9-1.5,2.4-1.5,4.6v0.5h6.6v5.4h-6.6v24.7h-6.3V45.8h-4.1v-5.4h4.1v-1
				c0-3.7,1.1-6.4,3.2-8.3c2.1-1.8,5.4-2.6,9.6-2.4v5.5C335.6,34.1,333.9,34.5,332.9,35.4"/>
			<defs>
				<filter id="Adobe_OpacityMaskFilter_4_" filterUnits="userSpaceOnUse" x="345.4" y="32.9" width="17.9" height="37.6">
					<feColorMatrix  type="matrix" values="1 0 0 0 0  0 1 0 0 0  0 0 1 0 0  0 0 0 1 0"/>
				</filter>
			</defs>
			<mask maskUnits="userSpaceOnUse" x="345.4" y="32.9" width="17.9" height="37.6" id="mask-2_5_">
				<g class="st9">
					<polygon id="path-1_5_" class="st0" points="0,84.8 668.3,84.8 668.3,0 0,0 					"/>
				</g>
			</mask>
			<path id="Fill-11" class="st10" d="M363.3,65.1v5.4h-3.8c-3.2,0-5.6-0.8-7.3-2.3c-1.7-1.5-2.5-4.1-2.5-7.7V45.7h-4.3v-5.3h4.3
				v-7.5h6.3v7.5h7.3v5.3H356v14.9c0,1.7,0.3,2.9,1,3.5c0.6,0.7,1.7,1,3.3,1H363.3z"/>
			<defs>
				<filter id="Adobe_OpacityMaskFilter_5_" filterUnits="userSpaceOnUse" x="369.8" y="18.9" width="20.9" height="61.2">
					<feColorMatrix  type="matrix" values="1 0 0 0 0  0 1 0 0 0  0 0 1 0 0  0 0 0 1 0"/>
				</filter>
			</defs>
			<mask maskUnits="userSpaceOnUse" x="369.8" y="18.9" width="20.9" height="61.2" id="mask-2_6_">
				<g class="st11">
					<polygon id="path-1_6_" class="st0" points="0,84.8 668.3,84.8 668.3,0 0,0 					"/>
				</g>
			</mask>
			<polygon id="Fill-12" class="st12" points="390.7,18.9 375.9,80.1 369.8,80.1 384.7,18.9 			"/>
			<defs>
				<filter id="Adobe_OpacityMaskFilter_6_" filterUnits="userSpaceOnUse" x="397.3" y="28" width="8" height="42.5">
					<feColorMatrix  type="matrix" values="1 0 0 0 0  0 1 0 0 0  0 0 1 0 0  0 0 0 1 0"/>
				</filter>
			</defs>
			<mask maskUnits="userSpaceOnUse" x="397.3" y="28" width="8" height="42.5" id="mask-2_7_">
				<g class="st13">
					<polygon id="path-1_7_" class="st0" points="0,84.8 668.3,84.8 668.3,0 0,0 					"/>
				</g>
			</mask>
			<path id="Fill-13" class="st14" d="M398.2,70.5h6.2V40.4h-6.2V70.5z M398.4,29c0.7-0.7,1.7-1,2.9-1c1.2,0,2.2,0.4,2.9,1
				c0.7,0.7,1.1,1.6,1.1,2.6s-0.4,1.9-1.1,2.6c-0.7,0.6-1.7,1-2.9,1c-1.2,0-2.2-0.3-2.9-1c-0.7-0.7-1.1-1.5-1.1-2.6
				S397.6,29.7,398.4,29L398.4,29z"/>
			<defs>
				<filter id="Adobe_OpacityMaskFilter_7_" filterUnits="userSpaceOnUse" x="416.2" y="30.1" width="6.2" height="40.4">
					<feColorMatrix  type="matrix" values="1 0 0 0 0  0 1 0 0 0  0 0 1 0 0  0 0 0 1 0"/>
				</filter>
			</defs>
			<mask maskUnits="userSpaceOnUse" x="416.2" y="30.1" width="6.2" height="40.4" id="mask-2_8_">
				<g class="st15">
					<polygon id="path-1_8_" class="st0" points="0,84.8 668.3,84.8 668.3,0 0,0 					"/>
				</g>
			</mask>
			<polygon id="Fill-14" class="st16" points="416.2,70.5 422.4,70.5 422.4,30.1 416.2,30.1 			"/>
			<defs>
				<filter id="Adobe_OpacityMaskFilter_8_" filterUnits="userSpaceOnUse" x="434.2" y="30.1" width="6.2" height="40.4">
					<feColorMatrix  type="matrix" values="1 0 0 0 0  0 1 0 0 0  0 0 1 0 0  0 0 0 1 0"/>
				</filter>
			</defs>
			<mask maskUnits="userSpaceOnUse" x="434.2" y="30.1" width="6.2" height="40.4" id="mask-2_9_">
				<g class="st17">
					<polygon id="path-1_9_" class="st0" points="0,84.8 668.3,84.8 668.3,0 0,0 					"/>
				</g>
			</mask>
			<polygon id="Fill-15" class="st18" points="434.2,70.5 440.4,70.5 440.4,30.1 434.2,30.1 			"/>
			<defs>
				<filter id="Adobe_OpacityMaskFilter_9_" filterUnits="userSpaceOnUse" x="451.7" y="40.4" width="28.4" height="30.5">
					<feColorMatrix  type="matrix" values="1 0 0 0 0  0 1 0 0 0  0 0 1 0 0  0 0 0 1 0"/>
				</filter>
			</defs>
			<mask maskUnits="userSpaceOnUse" x="451.7" y="40.4" width="28.4" height="30.5" id="mask-2_10_">
				<g class="st19">
					<polygon id="path-1_10_" class="st0" points="0,84.8 668.3,84.8 668.3,0 0,0 					"/>
				</g>
			</mask>
			<path id="Fill-16" class="st20" d="M480.1,40.4v30.1h-6.3v-6.6c-0.8,2.2-2.1,3.9-4,5.2c-1.9,1.2-4.1,1.8-6.6,1.8
				c-3.5,0-6.3-1.1-8.4-3.4c-2.1-2.3-3.2-5.5-3.2-9.7V40.4h6.2v16.8c0,2.7,0.7,4.8,2.1,6.3c1.4,1.5,3.3,2.2,5.7,2.2
				c2.5,0,4.4-0.8,5.9-2.4c1.5-1.6,2.2-3.9,2.2-7V40.4H480.1z"/>
			<defs>
				<filter id="Adobe_OpacityMaskFilter_10_" filterUnits="userSpaceOnUse" x="490.5" y="40" width="23.8" height="30.9">
					<feColorMatrix  type="matrix" values="1 0 0 0 0  0 1 0 0 0  0 0 1 0 0  0 0 0 1 0"/>
				</filter>
			</defs>
			<mask maskUnits="userSpaceOnUse" x="490.5" y="40" width="23.8" height="30.9" id="mask-2_11_">
				<g class="st21">
					<polygon id="path-1_11_" class="st0" points="0,84.8 668.3,84.8 668.3,0 0,0 					"/>
				</g>
			</mask>
			<path id="Fill-17" class="st22" d="M510.1,42.7c2.1,1.8,3.4,4.2,3.9,7.2h-5.9c-0.3-1.6-1-3-2.1-4c-1.1-1-2.7-1.5-4.6-1.5
				c-1.6,0-2.8,0.4-3.6,1.1c-0.9,0.8-1.3,1.8-1.3,3c0,0.9,0.3,1.7,0.9,2.3c0.6,0.6,1.4,1,2.3,1.4c0.9,0.3,2.2,0.7,4,1.1
				c2.3,0.5,4.1,1,5.5,1.6c1.4,0.5,2.6,1.4,3.6,2.6c1,1.2,1.5,2.8,1.5,4.8c0,2.5-1,4.5-2.9,6.1c-1.9,1.6-4.5,2.4-7.7,2.4
				c-3.7,0-6.8-0.9-9.1-2.6c-2.3-1.8-3.7-4.2-4.2-7.3h6.1c0.2,1.6,0.9,3,2.2,4c1.3,1,2.9,1.5,5,1.5c1.5,0,2.7-0.4,3.5-1.2
				c0.9-0.8,1.3-1.8,1.3-3c0-1.1-0.3-1.9-1-2.5c-0.7-0.6-1.5-1.1-2.5-1.4c-1-0.4-2.3-0.7-4-1.1c-2.2-0.5-4-1-5.3-1.5
				c-1.4-0.5-2.5-1.3-3.5-2.5c-1-1.1-1.4-2.7-1.4-4.7c0-2.5,1-4.6,2.9-6.2c1.9-1.6,4.6-2.4,7.9-2.4C505.2,40,508,40.9,510.1,42.7"/>
			<defs>
				<filter id="Adobe_OpacityMaskFilter_11_" filterUnits="userSpaceOnUse" x="521.8" y="32.9" width="17.9" height="37.6">
					<feColorMatrix  type="matrix" values="1 0 0 0 0  0 1 0 0 0  0 0 1 0 0  0 0 0 1 0"/>
				</filter>
			</defs>
			<mask maskUnits="userSpaceOnUse" x="521.8" y="32.9" width="17.9" height="37.6" id="mask-2_12_">
				<g class="st23">
					<polygon id="path-1_12_" class="st0" points="0,84.8 668.3,84.8 668.3,0 0,0 					"/>
				</g>
			</mask>
			<path id="Fill-18" class="st24" d="M539.7,65.1v5.4h-3.8c-3.2,0-5.6-0.8-7.3-2.3c-1.7-1.5-2.5-4.1-2.5-7.7V45.7h-4.3v-5.3h4.3
				v-7.5h6.3v7.5h7.3v5.3h-7.3v14.9c0,1.7,0.3,2.9,1,3.5c0.6,0.7,1.7,1,3.3,1H539.7z"/>
			<defs>
				<filter id="Adobe_OpacityMaskFilter_12_" filterUnits="userSpaceOnUse" x="549.4" y="39.9" width="17.1" height="30.6">
					<feColorMatrix  type="matrix" values="1 0 0 0 0  0 1 0 0 0  0 0 1 0 0  0 0 0 1 0"/>
				</filter>
			</defs>
			<mask maskUnits="userSpaceOnUse" x="549.4" y="39.9" width="17.1" height="30.6" id="mask-2_13_">
				<g class="st25">
					<polygon id="path-1_13_" class="st0" points="0,84.8 668.3,84.8 668.3,0 0,0 					"/>
				</g>
			</mask>
			<path id="Fill-19" class="st26" d="M559.9,41.6c1.9-1.1,4.1-1.7,6.5-1.7v6.8h-1.9c-2.7,0-4.9,0.7-6.6,2c-1.7,1.3-2.5,3.5-2.5,6.6
				v15.2h-6.2V40.4h6.2v5.9C556.6,44.3,558.1,42.8,559.9,41.6"/>
			<defs>
				<filter id="Adobe_OpacityMaskFilter_13_" filterUnits="userSpaceOnUse" x="573.7" y="40" width="30.9" height="30.9">
					<feColorMatrix  type="matrix" values="1 0 0 0 0  0 1 0 0 0  0 0 1 0 0  0 0 0 1 0"/>
				</filter>
			</defs>
			<mask maskUnits="userSpaceOnUse" x="573.7" y="40" width="30.9" height="30.9" id="mask-2_14_">
				<g class="st27">
					<polygon id="path-1_14_" class="st0" points="0,84.8 668.3,84.8 668.3,0 0,0 					"/>
				</g>
			</mask>
			<path id="Fill-20" class="st28" d="M582.6,48.1c-1.7,1.8-2.5,4.2-2.5,7.3c0,3.1,0.8,5.5,2.5,7.3c1.7,1.8,3.9,2.6,6.6,2.6
				c1.7,0,3.3-0.4,4.7-1.2c1.4-0.8,2.5-2,3.3-3.5c0.8-1.5,1.2-3.2,1.2-5.2c0-2-0.4-3.7-1.2-5.2c-0.8-1.5-1.9-2.7-3.3-3.5
				c-1.4-0.8-3-1.2-4.7-1.2C586.4,45.5,584.2,46.4,582.6,48.1 M594.3,42c1.9,1.3,3.3,3.1,4.1,5.3v-7h6.2v30.1h-6.2v-7
				c-0.8,2.2-2.2,4-4.1,5.4c-1.9,1.4-4.3,2-7,2c-2.6,0-5-0.6-7-1.9c-2.1-1.2-3.7-3-4.8-5.4c-1.2-2.3-1.7-5.1-1.7-8.2
				c0-3.1,0.6-5.9,1.7-8.2c1.2-2.3,2.8-4.1,4.8-5.4c2.1-1.2,4.4-1.9,7-1.9C590,40,592.3,40.7,594.3,42"/>
			<defs>
				<filter id="Adobe_OpacityMaskFilter_14_" filterUnits="userSpaceOnUse" x="613.4" y="32.9" width="17.9" height="37.6">
					<feColorMatrix  type="matrix" values="1 0 0 0 0  0 1 0 0 0  0 0 1 0 0  0 0 0 1 0"/>
				</filter>
			</defs>
			<mask maskUnits="userSpaceOnUse" x="613.4" y="32.9" width="17.9" height="37.6" id="mask-2_15_">
				<g class="st29">
					<polygon id="path-1_15_" class="st0" points="0,84.8 668.3,84.8 668.3,0 0,0 					"/>
				</g>
			</mask>
			<path id="Fill-21" class="st30" d="M631.3,65.1v5.4h-3.8c-3.2,0-5.6-0.8-7.3-2.3c-1.7-1.5-2.5-4.1-2.5-7.7V45.7h-4.3v-5.3h4.3
				v-7.5h6.3v7.5h7.3v5.3H624v14.9c0,1.7,0.3,2.9,1,3.5c0.6,0.7,1.7,1,3.3,1H631.3z"/>
			<defs>
				<filter id="Adobe_OpacityMaskFilter_15_" filterUnits="userSpaceOnUse" x="638.8" y="40" width="29.5" height="30.9">
					<feColorMatrix  type="matrix" values="1 0 0 0 0  0 1 0 0 0  0 0 1 0 0  0 0 0 1 0"/>
				</filter>
			</defs>
			<mask maskUnits="userSpaceOnUse" x="638.8" y="40" width="29.5" height="30.9" id="mask-2_16_">
				<g class="st31">
					<polygon id="path-1_16_" class="st0" points="0,84.8 668.3,84.8 668.3,0 0,0 					"/>
				</g>
			</mask>
			<path id="Fill-22" class="st32" d="M661,48.9c-0.7-1.3-1.8-2.3-3.1-2.9c-1.3-0.6-2.7-1-4.2-1c-2.4,0-4.5,0.7-6.1,2.2
				c-1.6,1.5-2.5,3.7-2.7,6.6H662C662.1,51.9,661.7,50.2,661,48.9 M668.1,56.7h-23.1c0.1,3.1,1,5.4,2.6,6.9c1.6,1.5,3.6,2.2,5.9,2.2
				c2.1,0,3.8-0.5,5.3-1.6c1.4-1,2.3-2.5,2.6-4.2h6.7c-0.4,2.1-1.2,4-2.5,5.6c-1.3,1.6-2.9,2.9-5,3.9c-2,0.9-4.3,1.4-6.8,1.4
				c-2.9,0-5.5-0.6-7.7-1.9c-2.2-1.2-4-3-5.3-5.4c-1.3-2.3-1.9-5.1-1.9-8.2c0-3.1,0.6-5.9,1.9-8.2c1.3-2.3,3-4.1,5.3-5.3
				c2.2-1.2,4.8-1.9,7.7-1.9c3,0,5.5,0.6,7.7,1.8c2.2,1.2,3.9,2.9,5.1,5c1.2,2.1,1.8,4.5,1.8,7.1C668.3,55,668.2,55.9,668.1,56.7"/>
			<defs>
				<filter id="Adobe_OpacityMaskFilter_16_" filterUnits="userSpaceOnUse" x="26.9" y="0" width="36.3" height="32">
					<feColorMatrix  type="matrix" values="1 0 0 0 0  0 1 0 0 0  0 0 1 0 0  0 0 0 1 0"/>
				</filter>
			</defs>
			<mask maskUnits="userSpaceOnUse" x="26.9" y="0" width="36.3" height="32" id="mask-2_17_">
				<g class="st33">
					<polygon id="path-1_17_" class="st0" points="0,84.8 668.3,84.8 668.3,0 0,0 					"/>
				</g>
			</mask>
			<polygon id="Fill-23" class="st34" points="45.1,0 45.1,23.7 31.7,23.7 26.9,32 63.1,32 			"/>
			<defs>
				<filter id="Adobe_OpacityMaskFilter_17_" filterUnits="userSpaceOnUse" x="0" y="60.3" width="89" height="16.7">
					<feColorMatrix  type="matrix" values="1 0 0 0 0  0 1 0 0 0  0 0 1 0 0  0 0 0 1 0"/>
				</filter>
			</defs>
			<mask maskUnits="userSpaceOnUse" x="0" y="60.3" width="89" height="16.7" id="mask-2_18_">
				<g class="st35">
					<polygon id="path-1_18_" class="st0" points="0,84.8 668.3,84.8 668.3,0 0,0 					"/>
				</g>
			</mask>
			<polygon id="Fill-24" class="st36" points="45.1,60.3 45.1,68.6 4.9,68.6 0,77 89,77 79.6,60.3 			"/>
			<defs>
				<filter id="Adobe_OpacityMaskFilter_18_" filterUnits="userSpaceOnUse" x="13.7" y="37.8" width="62.1" height="16.7">
					<feColorMatrix  type="matrix" values="1 0 0 0 0  0 1 0 0 0  0 0 1 0 0  0 0 0 1 0"/>
				</filter>
			</defs>
			<mask maskUnits="userSpaceOnUse" x="13.7" y="37.8" width="62.1" height="16.7" id="mask-2_19_">
				<g class="st37">
					<polygon id="path-1_19_" class="st0" points="0,84.8 668.3,84.8 668.3,0 0,0 					"/>
				</g>
			</mask>
			<polygon id="Fill-25" class="st38" points="66.3,37.8 45.1,37.8 45.1,46.1 18.6,46.1 13.7,54.5 75.8,54.5 			"/>
		</g>
	</g>
</g>
</svg>
