<?xml version="1.0" encoding="utf-8"?>
<!-- Generator: Adobe Illustrator 24.0.3, SVG Export Plug-In . SVG Version: 6.00 Build 0)  -->
<svg version="1.1" id="Calque_1" xmlns="http://www.w3.org/2000/svg" x="0px" y="0px"
     viewBox="0 0 524 150.4" style="enable-background:new 0 0 524 150.4;" xml:space="preserve">
<style type="text/css">
	.st0{fill:#FF4338;}
	.st1{fill:#FFFFFF;}
	.st2{display:none;}
	.st3{display:inline;fill:#B1B3B5;}
</style>
<title>Equisoft Illustrate Logo</title>
<g id="Layer_1">
	<g>
		<g>
			<polygon class="st0" points="48.2,13.9 48.2,39.2 33.9,39.2 28.7,48 67.4,48 			"/>
			<polygon class="st0" points="48.2,78.2 48.2,87.2 5.2,87.2 0,96.1 95.1,96.1 85,78.2 			"/>
			<polygon class="st0" points="70.9,54.2 48.2,54.2 48.2,63.1 19.9,63.1 14.6,72 81,72 			"/>
		</g>
		<g>
			<polygon class="st0" points="300.3,150 294,150 310.1,123.1 316.4,123.1 			"/>
		</g>
	</g>
	<g>
		<g>
			<path class="st1" d="M165.5,60.1c-1.3-8.3-6.8-13.9-15.3-13.9c-8.3,0-14.5,5.9-15.8,13.9H165.5z M133.8,68.2
				c0.1,9.5,6.5,18.4,16.7,18.4c8.2,0,12.6-4.1,16.6-10.8l9,5.1c-5.2,9.6-14.9,15.2-25.7,15.2c-17,0-27.3-12.8-27.3-29.1
				c0-17.1,9.1-29.9,27-29.9c17.7,0,26,13,26,29.5v1.7L133.8,68.2L133.8,68.2z"/>
			<path class="st1" d="M228.8,66.4c0-10.8-6.5-19.9-18-19.9c-11,0-17.5,9.6-17.5,19.9c0,10.4,6.3,20.1,17.5,20.1
				C222.4,86.6,228.8,77.3,228.8,66.4 M238.9,123.1h-10.7V85.5H228c-4.3,6.3-11,10.5-18.8,10.5c-17.1,0-26.6-14.1-26.6-30
				c0-15.2,10.1-29,26.1-29c8.3,0,14.9,4.3,19.3,10.9h0.2v-9.2h10.7V123.1z"/>
			<path class="st1" d="M261.2,38.7v30.7c0,8.9,2.2,16.7,12.8,16.7c10.5,0,12.8-7.8,12.8-16.7V38.7h10.7v31.9
				c0,15.2-7.1,25.5-23.5,25.5s-23.5-10.3-23.5-25.5V38.7H261.2z"/>
			<path class="st1" d="M357.8,51.4c-1.3-2.7-4-4.9-7.1-4.9c-3,0-5.8,2.4-5.8,5.5c0,4.9,6.4,7,12.9,9.9c6.5,3,12.8,7,12.8,15.8
				c0,10.5-8.8,18.4-19.1,18.4c-8.1,0-16.2-4.6-19.2-12.4l9.1-4.1c2.2,4.1,5,7.1,10.1,7.1c4.5,0,8.4-3.1,8.4-7.8c0-3-1.4-4.4-3.9-6
				l-10.4-5.6c-6.2-3.3-10.7-6.4-10.7-14c0-9,7.4-16.1,16.4-16.1c6.8,0,12.2,3.7,15.2,9.7L357.8,51.4z"/>
			<path class="st1" d="M387.4,66.8c0,10.4,8.4,19.3,19,19.3c10.6,0,19-8.9,19-19.3c0-10.5-8.4-19.3-19-19.3
				C395.8,47.5,387.4,56.3,387.4,66.8 M436,66.8c0,16.7-13,29.5-29.6,29.5s-29.6-12.8-29.6-29.5s13-29.5,29.6-29.5
				C422.9,37.3,436,50.1,436,66.8"/>
			<path class="st1" d="M490.6,39V23.3h-10.7V39h-6.7h-14.7V25c0-5.5-0.1-15.1,7.5-15.2c2.7,0,5.8,0.5,7.2,0.9V1
				c-1.6-0.5-4.9-1-7.5-1c-13.8,0-17.9,9.7-17.9,21.8V39h-4.9v10h4.9v45.5h10.7V48.9h14.7h6.7v45.5h10.7V48.9H501v-10h-10.4V39z"/>
			<rect x="310.6" y="38.7" class="st1" width="10.7" height="55.6"/>
			<path class="st1" d="M322.6,20.7c0,3.7-3,6.6-6.7,6.6s-6.7-2.9-6.7-6.6c0-3.8,3-6.8,6.7-6.8C319.6,14,322.6,17,322.6,20.7"/>
		</g>
		<g>
			<g>
				<path class="st1" d="M323.8,116.6c0.5-0.5,1.2-0.7,2-0.7s1.5,0.2,2,0.7s0.8,1.1,0.8,1.8s-0.3,1.3-0.8,1.8s-1.2,0.7-2,0.7
					s-1.5-0.2-2-0.7s-0.8-1.1-0.8-1.8S323.3,117,323.8,116.6z M327.8,125.5v24.4h-4v-24.4H327.8z"/>
				<path class="st1" d="M340.2,117v32.9h-4V117H340.2z"/>
				<path class="st1" d="M352.6,117v32.9h-4V117H352.6z"/>
				<path class="st1" d="M382.9,125.5v24.4h-4v-5.7c-0.6,2-1.7,3.5-3.3,4.6c-1.6,1.1-3.4,1.6-5.5,1.6c-2.8,0-5.1-0.9-6.9-2.7
					c-1.8-1.8-2.6-4.4-2.6-7.9v-14.2h4v13.8c0,2.4,0.6,4.3,1.9,5.6c1.2,1.3,2.9,2,5.1,2s4-0.7,5.3-2.2c1.3-1.4,2-3.5,2-6.3v-13
					L382.9,125.5L382.9,125.5z"/>
				<path class="st1" d="M405.5,127.4c1.7,1.4,2.7,3.4,3,5.8h-3.9c-0.2-1.5-0.8-2.6-1.8-3.6s-2.4-1.4-4.1-1.4c-1.5,0-2.6,0.3-3.4,1
					c-0.8,0.7-1.2,1.6-1.2,2.8c0,0.9,0.3,1.6,0.8,2.2c0.5,0.5,1.2,1,2,1.2c0.8,0.3,1.9,0.6,3.4,0.9c1.8,0.4,3.3,0.8,4.4,1.3
					c1.1,0.4,2.1,1.1,2.8,2.1c0.8,1,1.2,2.2,1.2,3.8c0,2-0.8,3.6-2.2,4.9s-3.5,1.9-6,1.9c-2.9,0-5.3-0.7-7.1-2.1
					c-1.8-1.4-2.9-3.3-3.2-5.8h3.9c0.1,1.5,0.8,2.7,1.9,3.6s2.6,1.4,4.5,1.4c1.4,0,2.5-0.4,3.3-1.1c0.8-0.7,1.2-1.6,1.2-2.8
					c0-0.9-0.3-1.7-0.8-2.3c-0.6-0.6-1.3-1-2.1-1.3c-0.8-0.3-2-0.6-3.4-0.9c-1.8-0.4-3.3-0.8-4.3-1.2c-1.1-0.4-2-1.1-2.8-2
					s-1.1-2.1-1.1-3.7c0-2,0.8-3.7,2.3-5c1.5-1.3,3.6-1.9,6.2-1.9C401.6,125.2,403.8,126,405.5,127.4z"/>
				<path class="st1" d="M427.6,146.4v3.6h-3c-2.5,0-4.4-0.6-5.6-1.8c-1.2-1.2-1.8-3.2-1.8-6V129h-3.6v-3.5h3.6v-6.1h4.1v6.1h6.3
					v3.5h-6.3v13.3c0,1.6,0.3,2.6,0.9,3.2c0.6,0.6,1.6,0.9,3,0.9H427.6z"/>
				<path class="st1" d="M441.4,126.5c1.5-0.9,3.4-1.4,5.5-1.4v4.4h-1.2c-2.3,0-4.2,0.6-5.6,1.8c-1.5,1.2-2.2,3.1-2.2,5.8V150h-4
					v-24.4h4v4.9C438.7,128.8,439.8,127.5,441.4,126.5z"/>
				<path class="st1" d="M468.4,127c1.6,1.2,2.8,2.8,3.4,4.8v-6.2h4V150h-4v-6.2c-0.7,2-1.8,3.6-3.4,4.8c-1.6,1.2-3.7,1.8-6,1.8
					c-2.2,0-4.1-0.5-5.8-1.5s-3-2.5-4-4.3c-1-1.9-1.4-4.1-1.4-6.7s0.5-4.8,1.4-6.7c1-1.9,2.3-3.4,4-4.4s3.6-1.5,5.8-1.5
					C464.8,125.2,466.8,125.8,468.4,127z M457.6,131.2c-1.5,1.6-2.2,3.8-2.2,6.6c0,2.8,0.7,5,2.2,6.6s3.5,2.4,6,2.4
					c1.6,0,3-0.4,4.3-1.1c1.3-0.7,2.2-1.8,3-3.1c0.8-1.3,1.1-2.9,1.1-4.7c0-1.8-0.4-3.4-1.1-4.7c-0.7-1.4-1.7-2.4-3-3.1
					s-2.7-1.1-4.3-1.1C461,128.8,459.1,129.6,457.6,131.2z"/>
				<path class="st1" d="M495.8,146.4v3.6h-3c-2.5,0-4.4-0.6-5.6-1.8c-1.2-1.2-1.8-3.2-1.8-6V129h-3.6v-3.5h3.6v-6.1h4.1v6.1h6.3
					v3.5h-6.3v13.3c0,1.6,0.3,2.6,0.9,3.2c0.6,0.6,1.6,0.9,3,0.9H495.8z"/>
				<path class="st1" d="M523.8,138.6h-19.5c0.1,2.8,0.9,4.9,2.4,6.3c1.5,1.4,3.3,2.1,5.5,2.1c2,0,3.6-0.5,4.9-1.5
					c1.3-1,2.1-2.3,2.4-4h4.3c-0.3,1.7-1,3.2-2,4.5c-1,1.3-2.4,2.4-4,3.1c-1.6,0.7-3.5,1.1-5.5,1.1c-2.3,0-4.4-0.5-6.2-1.5
					s-3.2-2.5-4.2-4.3c-1-1.8-1.5-4.1-1.5-6.7c0-2.6,0.5-4.8,1.5-6.7s2.4-3.4,4.2-4.4s3.9-1.5,6.2-1.5c2.4,0,4.4,0.5,6.2,1.5
					s3.1,2.4,4,4c0.9,1.7,1.4,3.6,1.4,5.6C524,137.3,524,138,523.8,138.6z M519,132.1c-0.7-1.2-1.6-2.1-2.8-2.7
					c-1.2-0.6-2.5-0.9-3.9-0.9c-2.2,0-4.1,0.7-5.6,2.1c-1.5,1.4-2.3,3.4-2.4,6.1h15.6C520,134.9,519.7,133.3,519,132.1z"/>
			</g>
		</g>
	</g>
</g>
<g id="Zone_Protection" class="st2">
	<path class="st3" d="M0-920.5v95.1h95.1v-95.1H0z M46.8-872.9L1-827.1v-91.7L46.8-872.9z M1.7-919.5h91.7l-45.8,45.8L1.7-919.5z
		 M47.5-872.2l45.8,45.8H1.7L47.5-872.2z M48.3-872.9l45.8-45.8v91.7L48.3-872.9z"/>
	<path class="st3" d="M596.1-920.5v95.1h95.1v-95.1H596.1z M642.9-872.9l-45.8,45.8v-91.7L642.9-872.9z M597.8-919.5h91.7
		l-45.8,45.8L597.8-919.5z M643.6-872.2l45.8,45.8h-91.7L643.6-872.2z M644.3-872.9l45.8-45.8v91.7L644.3-872.9z"/>
	<path class="st3" d="M596.1-1165.6v95.1h95.1v-95.1H596.1z M642.9-1118l-45.8,45.8v-91.7L642.9-1118z M597.8-1164.6h91.7
		l-45.8,45.8L597.8-1164.6z M643.6-1117.3l45.8,45.8h-91.7L643.6-1117.3z M644.3-1118l45.8-45.8v91.7L644.3-1118z"/>
	<path class="st3" d="M0-1165.6v95.1h95.1v-95.1H0z M46.8-1118L1-1072.2v-91.7L46.8-1118z M1.7-1164.6h91.7l-45.8,45.8L1.7-1164.6z
		 M47.5-1117.3l45.8,45.8H1.7L47.5-1117.3z M48.3-1118l45.8-45.8v91.7L48.3-1118z"/>
</g>
</svg>
