<svg width="158" height="100" viewBox="0 0 158 100" fill="none" xmlns="http://www.w3.org/2000/svg">
<g clip-path="url(#clip0_1223_1050)">
<mask id="mask0_1223_1050" style="mask-type:alpha" maskUnits="userSpaceOnUse" x="38" y="12" width="82" height="88">
<path fill-rule="evenodd" clip-rule="evenodd" d="M119.96 12.9752H38.2001V62.8364L41.9164 62.8364C41.9164 83.3613 58.5552 100 79.0801 100C99.605 100 116.244 83.3613 116.244 62.8364L119.96 62.8364V12.9752Z" fill="#C4C4C4"/>
</mask>
<g mask="url(#mask0_1223_1050)">
<circle cx="79.2" cy="62.7885" r="37.1636" fill="#84C6EA"/>
<mask id="mask1_1223_1050" style="mask-type:alpha" maskUnits="userSpaceOnUse" x="48" y="24" width="63" height="76">
<path d="M79.2 24.3861C88.7783 24.3861 96.5431 32.1508 96.5431 41.7291L96.5433 43.6387C98.3009 43.9337 99.64 45.4623 99.64 47.3036V51.6394C99.64 53.5138 98.2524 55.0641 96.4483 55.319C95.8084 61.4526 91.9713 66.6354 86.6331 69.1715L86.6328 74.8667H87.8716C100.187 74.8667 110.17 84.8499 110.17 97.1649V99.9521H48.2303V97.1649C48.2303 84.8499 58.2136 74.8667 70.5285 74.8667H71.7673L71.7673 69.1716C66.4289 66.6356 62.5916 61.4527 61.9515 55.3189C60.1477 55.0641 58.76 53.5138 58.76 51.6394V47.3036C58.76 45.4622 60.0994 43.9335 61.8571 43.6386L61.857 41.7291C61.857 32.1508 69.6218 24.3861 79.2 24.3861Z" fill="#D08B5B"/>
</mask>
<g mask="url(#mask1_1223_1050)">
<path d="M79.2 24.3861C88.7783 24.3861 96.5431 32.1508 96.5431 41.7291L96.5433 43.6387C98.3009 43.9337 99.64 45.4623 99.64 47.3036V51.6394C99.64 53.5138 98.2524 55.0641 96.4483 55.319C95.8084 61.4526 91.9713 66.6354 86.6331 69.1715L86.6328 74.8667H87.8716C100.187 74.8667 110.17 84.8499 110.17 97.1649V99.9521H48.2303V97.1649C48.2303 84.8499 58.2136 74.8667 70.5285 74.8667H71.7673L71.7673 69.1716C66.4289 66.6356 62.5916 61.4527 61.9515 55.3189C60.1477 55.0641 58.76 53.5138 58.76 51.6394V47.3036C58.76 45.4622 60.0994 43.9335 61.8571 43.6386L61.857 41.7291C61.857 32.1508 69.6218 24.3861 79.2 24.3861Z" fill="#EDB98A"/>
<path fill-rule="evenodd" clip-rule="evenodd" d="M61.8571 53.4976C61.8571 63.0759 69.6218 70.8406 79.2001 70.8406C88.7784 70.8406 96.5431 63.0759 96.5431 53.4976V55.9751C96.5431 65.5534 88.7784 73.3182 79.2001 73.3182C69.6218 73.3182 61.8571 65.5534 61.8571 55.9751V53.4976Z" fill="black" fill-opacity="0.05"/>
</g>
<g clip-path="url(#clip1_1223_1050)">
<mask id="mask2_1223_1050" style="mask-type:alpha" maskUnits="userSpaceOnUse" x="48" y="74" width="63" height="26">
<path d="M87.8716 74.8827C100.187 74.8827 110.17 84.8659 110.17 97.1809V99.9521H48.2303V97.1809C48.2303 84.8659 58.2136 74.8827 70.5285 74.8827L70.8978 74.8828C70.8585 75.1874 70.8382 75.4974 70.8382 75.8118C70.8382 80.0878 74.5819 83.5542 79.2 83.5542C83.8181 83.5542 87.5619 80.0878 87.5619 75.8118C87.5619 75.4974 87.5416 75.1874 87.5023 74.8828L87.8716 74.8827Z" fill="white"/>
</mask>
<g mask="url(#mask2_1223_1050)">
<path d="M87.8716 74.8827C100.187 74.8827 110.17 84.8659 110.17 97.1809V99.9521H48.2303V97.1809C48.2303 84.8659 58.2136 74.8827 70.5285 74.8827L70.8978 74.8828C70.8585 75.1874 70.8382 75.4974 70.8382 75.8118C70.8382 80.0878 74.5819 83.5542 79.2 83.5542C83.8181 83.5542 87.5619 80.0878 87.5619 75.8118C87.5619 75.4974 87.5416 75.1874 87.5023 74.8828L87.8716 74.8827Z" fill="#5F7061"/>
</g>
</g>
<mask id="mask3_1223_1050" style="mask-type:alpha" maskUnits="userSpaceOnUse" x="73" y="58" width="13" height="7">
<path d="M73.3524 59.4215C73.68 62.361 76.1731 64.6467 79.2001 64.6467C82.2365 64.6467 84.7356 62.3469 85.0508 59.3942C85.0762 59.1566 84.8108 58.7624 84.4782 58.7624C79.8656 58.7624 76.3317 58.7624 73.9622 58.7624C73.6276 58.7624 73.3196 59.1274 73.3524 59.4215Z" fill="white"/>
</mask>
<g mask="url(#mask3_1223_1050)">
<path d="M73.3524 59.4215C73.68 62.361 76.1731 64.6467 79.2001 64.6467C82.2365 64.6467 84.7356 62.3469 85.0508 59.3942C85.0762 59.1566 84.8108 58.7624 84.4782 58.7624C79.8656 58.7624 76.3317 58.7624 73.9622 58.7624C73.6276 58.7624 73.3196 59.1274 73.3524 59.4215Z" fill="black" fill-opacity="0.7"/>
<path fill-rule="evenodd" clip-rule="evenodd" d="M76.1031 55.3558H82.6067C83.4619 55.3558 84.1552 56.049 84.1552 56.9042V58.7624C84.1552 59.6176 83.4619 60.3109 82.6067 60.3109H76.1031C75.2478 60.3109 74.5546 59.6176 74.5546 58.7624V56.9042C74.5546 56.049 75.2478 55.3558 76.1031 55.3558Z" fill="white"/>
<path d="M77.6515 68.9824C79.533 68.9824 81.0582 67.4572 81.0582 65.5758C81.0582 63.6943 79.533 62.1691 77.6515 62.1691C75.7701 62.1691 74.2449 63.6943 74.2449 65.5758C74.2449 67.4572 75.7701 68.9824 77.6515 68.9824Z" fill="#FF4F6D"/>
<path d="M80.7486 68.9824C82.63 68.9824 84.1553 67.4572 84.1553 65.5758C84.1553 63.6943 82.63 62.1691 80.7486 62.1691C78.8671 62.1691 77.3419 63.6943 77.3419 65.5758C77.3419 67.4572 78.8671 68.9824 80.7486 68.9824Z" fill="#FF4F6D"/>
</g>
<path fill-rule="evenodd" clip-rule="evenodd" d="M75.4836 53.4976C75.4836 54.8659 77.1475 55.9752 79.2 55.9752C81.2525 55.9752 82.9164 54.8659 82.9164 53.4976" fill="black" fill-opacity="0.16"/>
<path d="M71.148 49.7812C72.1742 49.7812 73.0062 48.9493 73.0062 47.923C73.0062 46.8968 72.1742 46.0648 71.148 46.0648C70.1217 46.0648 69.2898 46.8968 69.2898 47.923C69.2898 48.9493 70.1217 49.7812 71.148 49.7812Z" fill="black" fill-opacity="0.6"/>
<path d="M87.2522 49.7812C88.2785 49.7812 89.1104 48.9493 89.1104 47.923C89.1104 46.8968 88.2785 46.0648 87.2522 46.0648C86.226 46.0648 85.394 46.8968 85.394 47.923C85.394 48.9493 86.226 49.7812 87.2522 49.7812Z" fill="black" fill-opacity="0.6"/>
<path d="M66.6977 43.9461C67.9101 42.2401 71.234 41.2834 74.0972 41.9865C74.4294 42.0681 74.7649 41.8649 74.8465 41.5327C74.928 41.2005 74.7249 40.865 74.3926 40.7835C71.0676 39.9669 67.2186 41.0747 65.6879 43.2285C65.4898 43.5073 65.5552 43.894 65.834 44.0922C66.1128 44.2903 66.4995 44.2249 66.6977 43.9461Z" fill="black" fill-opacity="0.6"/>
<path d="M91.7026 43.9461C90.4901 42.2401 87.1662 41.2834 84.3031 41.9865C83.9708 42.0681 83.6354 41.8649 83.5538 41.5327C83.4722 41.2005 83.6754 40.865 84.0076 40.7835C87.3327 39.9669 91.1817 41.0747 92.7123 43.2285C92.9105 43.5073 92.8451 43.894 92.5663 44.0922C92.2874 44.2903 91.9007 44.2249 91.7026 43.9461Z" fill="black" fill-opacity="0.6"/>
</g>
</g>
<circle cx="60.0745" cy="53.0891" r="0.358596" fill="#C79F11"/>
<circle cx="98.0858" cy="53.0891" r="0.358596" fill="#C79F11"/>
<circle cx="98.6236" cy="52.1926" r="0.179298" fill="#C79F11"/>
<path d="M96.9302 54.0329C96.805 53.8795 96.8279 53.6536 96.9813 53.5284C97.1348 53.4032 97.3607 53.4261 97.4859 53.5795L96.9302 54.0329ZM97.4859 53.5795C97.9768 54.1812 98.0625 54.7968 97.8199 55.201C97.704 55.3942 97.4754 55.5715 97.1863 55.5211C96.8962 55.4705 96.7323 55.2235 96.6643 54.9775L97.3557 54.7866C97.3868 54.8991 97.4068 54.8315 97.3095 54.8145C97.2132 54.7977 97.1864 54.863 97.2049 54.832C97.2313 54.788 97.317 54.5071 96.9302 54.0329L97.4859 53.5795Z" fill="#C79F11"/>
<path d="M61.1649 54.0543C61.3019 53.9113 61.297 53.6843 61.154 53.5473C61.0109 53.4103 60.7839 53.4152 60.6469 53.5582L61.1649 54.0543ZM60.6469 53.5582C60.0502 54.1813 59.9277 54.8458 60.2371 55.285C60.3829 55.492 60.6321 55.6334 60.9094 55.5922C61.1985 55.5493 61.4006 55.3277 61.4914 55.0477L60.8091 54.8266C60.7777 54.9235 60.7528 54.8904 60.804 54.8828C60.8433 54.877 60.8436 54.9006 60.8234 54.872C60.8009 54.84 60.6785 54.5621 61.1649 54.0543L60.6469 53.5582Z" fill="#C79F11"/>
<path fill-rule="evenodd" clip-rule="evenodd" d="M71.6265 72.8119H71.5497V74.9635H86.6107V72.8119H86.5334C84.5616 73.7033 81.9476 74.2463 79.0799 74.2463C76.2123 74.2463 73.5982 73.7033 71.6265 72.8119Z" fill="#5F7061"/>
<rect x="70.1151" y="74.9634" width="17.5712" height="10.3993" rx="0.358596" fill="#5F7061"/>
<path d="M101.064 71.2725C96.9549 77.2888 96.8374 74.1626 99.8528 78.4403C102.868 82.718 93.7267 86.9734 91.2322 84.6256C88.7376 82.2778 87.2702 79.8976 86.3898 74.5008C85.5094 69.1039 86.3901 69.1039 86.3901 69.1039C91.5348 66.6598 95.2082 61.6214 95.7198 55.6794C97.4153 55.4257 98.7157 53.963 98.7157 52.1967V48.3815C98.7157 47.8856 98.6133 47.4137 98.4283 46.9857C94.6258 46.3438 90.3453 44.7918 86.14 42.3639C82.5797 40.3083 79.5361 37.8921 77.1951 35.3959C78.2008 37.7168 79.4186 39.7498 80.8485 41.4951C77.1287 39.8743 74.5958 37.2683 73.25 33.6773C73.1391 33.9478 73.0236 34.2181 72.9035 34.4879C70.016 40.9734 65.1398 45.6468 60.1127 47.4111C60.0243 47.7193 59.9771 48.0449 59.9771 48.3815V52.1967C59.9771 53.963 61.2775 55.4257 62.9732 55.6794C63.4846 61.6216 67.1582 66.66 72.303 69.104L72.303 74.5008L72.1563 77.142C72.1563 87.1202 62.9732 85.7995 56.7488 83.5985C52.3098 81.2734 52.787 71.2725 55.5749 71.2725C55.5749 71.2725 62.9732 69.1039 58.8032 60.414C54.6332 51.724 56.7488 42.3639 56.7488 42.3639C56.7488 30.3699 67.3524 21.3818 79.3464 21.3818L79.7055 21.3847C91.5339 21.5765 101.064 31.2249 101.064 43.099C101.064 43.099 102.664 51.7295 102.868 59.6803C102.991 64.469 102.608 69.0111 101.064 71.2725Z" fill="#2C1B18"/>
<path d="M101.064 71.2725C96.9549 77.2888 96.8374 74.1626 99.8528 78.4403C102.868 82.718 93.7267 86.9734 91.2322 84.6256C88.7376 82.2778 87.2702 79.8976 86.3898 74.5008C85.5094 69.1039 86.3901 69.1039 86.3901 69.1039C91.5348 66.6598 95.2082 61.6214 95.7198 55.6794C97.4153 55.4257 98.7157 53.963 98.7157 52.1967V48.3815C98.7157 47.8856 98.6133 47.4137 98.4283 46.9857C94.6258 46.3438 90.3453 44.7918 86.14 42.3639C82.5797 40.3083 79.5361 37.8921 77.1951 35.3959C78.2008 37.7168 79.4186 39.7498 80.8485 41.4951C77.1287 39.8743 74.5958 37.2683 73.25 33.6773C73.1391 33.9478 73.0236 34.2181 72.9035 34.4879C70.016 40.9734 65.1398 45.6468 60.1127 47.4111C60.0243 47.7193 59.9771 48.0449 59.9771 48.3815V52.1967C59.9771 53.963 61.2775 55.4257 62.9732 55.6794C63.4846 61.6216 67.1582 66.66 72.303 69.104L72.303 74.5008L72.1563 77.142C72.1563 87.1202 62.9732 85.7995 56.7488 83.5985C52.3098 81.2734 52.787 71.2725 55.5749 71.2725C55.5749 71.2725 62.9732 69.1039 58.8032 60.414C54.6332 51.724 56.7488 42.3639 56.7488 42.3639C56.7488 30.3699 67.3524 21.3818 79.3464 21.3818L79.7055 21.3847C91.5339 21.5765 101.064 31.2249 101.064 43.099C101.064 43.099 102.664 51.7295 102.868 59.6803C102.991 64.469 102.608 69.0111 101.064 71.2725Z" fill="url(#paint0_linear_1223_1050)" fill-opacity="0.2"/>
<path fill-rule="evenodd" clip-rule="evenodd" d="M72.9036 34.4879C73.0238 34.2181 73.1392 33.9478 73.2501 33.6772C74.4255 36.8136 76.5064 39.1986 79.4927 40.8321C79.9211 41.4764 80.3731 42.0886 80.8486 42.669C77.1288 41.0482 74.5959 38.4422 73.2501 34.8511C73.1392 35.1217 73.0238 35.392 72.9036 35.6618C69.5414 43.2135 63.4829 48.3083 57.6294 49.2143V48.0404C63.4829 47.1344 69.5414 42.0396 72.9036 34.4879ZM101.064 48.4639C96.6753 48.2091 91.35 46.5457 86.1401 43.5378C83.1249 41.7969 80.4804 39.7975 78.3193 37.7098C77.9193 36.9731 77.5445 36.2018 77.1952 35.3959C79.5362 37.8921 82.5798 40.3083 86.1401 42.3639C91.35 45.3718 96.6753 47.0352 101.064 47.29V48.4639Z" fill="black" fill-opacity="0.16"/>
<defs>
<linearGradient id="paint0_linear_1223_1050" x1="78.1675" y1="21.3818" x2="78.1675" y2="85.2947" gradientUnits="userSpaceOnUse">
<stop/>
<stop offset="1" stop-color="#CF5700"/>
</linearGradient>
<clipPath id="clip0_1223_1050">
<rect width="81.76" height="86.7151" fill="white" transform="translate(38.2001 13.2849)"/>
</clipPath>
<clipPath id="clip1_1223_1050">
<rect width="81.76" height="34.0667" fill="white" transform="translate(38.3201 65.8855)"/>
</clipPath>
</defs>
</svg>
