<?xml version="1.0" encoding="UTF-8"?>
<svg width="20px" height="18px" viewBox="0 0 20 18" version="1.1" xmlns="http://www.w3.org/2000/svg" xmlns:xlink="http://www.w3.org/1999/xlink">
    <!-- Generator: Sketch 49.2 (51160) - http://www.bohemiancoding.com/sketch -->
    <title>address</title>
    <desc>Created with Sketch.</desc>
    <defs></defs>
    <g id="address" stroke="none" stroke-width="1" fill="none" fill-rule="evenodd">
        <path d="M19.799,4.165 L17.424,2.335 C17.289,2.242 17.1,2.159 16.903,2.098 C16.705,2.037 16.5,2 16.336,2 L9.5,2 L10.301,7 L16.336,7 C16.5,7 16.705,6.963 16.902,6.902 C17.099,6.841 17.289,6.757 17.423,6.666 L19.798,4.834 C19.933,4.743 20,4.622 20,4.5 C20,4.378 19.933,4.257 19.799,4.165 L19.799,4.165 Z M8.5,0 L7.5,0 C7.224,0 7,0.224 7,0.5 L7,4 L3.664,4 C3.498,4 3.294,4.037 3.097,4.099 C2.899,4.159 2.71,4.242 2.576,4.335 L0.201,6.165 C0.066,6.256 0,6.378 0,6.5 C0,6.622 0.066,6.742 0.201,6.835 L2.576,8.667 C2.71,8.758 2.899,8.842 3.097,8.902 C3.295,8.962 3.498,9 3.664,9 L7,9 L7,17.5 C7,17.776 7.224,18 7.5,18 L8.5,18 C8.776,18 9,17.776 9,17.5 L9,0.5 C9,0.224 8.776,0 8.5,0 L8.5,0 Z" id="Shape-Copy-2" fill="#000000"></path>
    </g>
</svg>