<?xml version="1.0" encoding="UTF-8"?>
<svg width="18px" height="20px" viewBox="0 0 18 20" version="1.1" xmlns="http://www.w3.org/2000/svg" xmlns:xlink="http://www.w3.org/1999/xlink">
    <!-- Generator: Sketch 49.2 (51160) - http://www.bohemiancoding.com/sketch -->
    <title>alarm</title>
    <desc>Created with Sketch.</desc>
    <defs></defs>
    <g id="alarm" stroke="none" stroke-width="1" fill="none" fill-rule="evenodd">
        <path d="M9,2.5 C4.02942857,2.5 0,6.4175 0,11.25 C0,16.0825 4.02942857,20 9,20 C13.9705714,20 18,16.0825 18,11.25 C18,6.4175 13.9705714,2.5 9,2.5 Z M9,18.28125 C5.00528571,18.28125 1.76785714,15.13375 1.76785714,11.25 C1.76785714,7.36625 5.00528571,4.21875 9,4.21875 C12.9947143,4.21875 16.2321429,7.36625 16.2321429,11.25 C16.2321429,15.13375 12.9947143,18.28125 9,18.28125 Z M17.4934286,5.60875 C17.8161429,5.06 18,4.42625 18,3.75 C18,1.67875 16.2732857,0 14.1428571,0 C12.9008571,0 11.7964286,0.57125 11.0918571,1.45625 C13.7417143,1.9875 16.0187143,3.51125 17.4947143,5.60875 L17.4934286,5.60875 Z M6.90942857,1.45625 C6.20485714,0.57 5.09914286,0 3.85714286,0 C1.72671429,0 0,1.67875 0,3.75 C0,4.42625 0.183857143,5.06125 0.506571429,5.60875 C1.98257143,3.51125 4.25957143,1.98875 6.90942857,1.4575 L6.90942857,1.45625 Z" id="Shape" fill="#000000" fill-rule="nonzero"></path>
        <path d="M9.25,10.8 L9.25,6.5 C9.25,6.22385763 9.02614237,6 8.75,6 L8.5,6 C8.22385763,6 8,6.22385763 8,6.5 L8,12 L12.5,12 C12.7761424,12 13,11.7761424 13,11.5 L13,11.3 C13,11.0238576 12.7761424,10.8 12.5,10.8 L9.25,10.8 Z" id="Shape" fill="#000000" fill-rule="nonzero"></path>
    </g>
</svg>