<?xml version="1.0" encoding="UTF-8"?>
<svg width="12px" height="20px" viewBox="0 0 12 20" version="1.1" xmlns="http://www.w3.org/2000/svg" xmlns:xlink="http://www.w3.org/1999/xlink">
    <!-- Generator: Sketch 49.2 (51160) - http://www.bohemiancoding.com/sketch -->
    <title>arrow-right</title>
    <desc>Created with Sketch.</desc>
    <defs></defs>
    <g id="arrow-right" stroke="none" stroke-width="1" fill="none" fill-rule="evenodd">
        <path d="M16,5.7093359 C16,5.87333975 15.9191919,6.06044273 15.8002245,6.18286814 L6.46015713,15.7944177 C6.33894501,15.919153 6.15937149,16 6,16 C5.84062851,16 5.65881033,15.9168431 5.53984287,15.7944177 L-3.80022447,6.18286814 C-3.92143659,6.05813282 -4,5.87333975 -4,5.7093359 C-4,5.54533205 -3.91919192,5.35822907 -3.80022447,5.23580366 L-2.79910213,4.20558229 C-2.67789001,4.08084697 -2.51851852,4 -2.33894501,4 C-2.17957351,4 -1.99775533,4.08315688 -1.87878788,4.20558229 L5.99775533,12.3110683 L13.8742985,4.20558229 C13.9955107,4.08084697 14.1750842,4 14.3344557,4 C14.4938272,4 14.6756453,4.08315688 14.7946128,4.20558229 L15.7957351,5.23580366 C15.9169473,5.36053898 15.9955107,5.54533205 15.9955107,5.7093359 L16,5.7093359 Z" id="Shape" fill="#000000" fill-rule="nonzero" transform="translate(6.000000, 10.000000) rotate(-90.000000) translate(-6.000000, -10.000000) "></path>
    </g>
</svg>