<?xml version="1.0" encoding="UTF-8"?>
<svg width="20px" height="17px" viewBox="0 0 20 17" version="1.1" xmlns="http://www.w3.org/2000/svg" xmlns:xlink="http://www.w3.org/1999/xlink">
    <!-- Generator: Sketch 49.2 (51160) - http://www.bohemiancoding.com/sketch -->
    <title>arrow-full-right</title>
    <desc>Created with Sketch.</desc>
    <defs></defs>
    <g id="arrow-full-right" stroke="none" stroke-width="1" fill="none" fill-rule="evenodd">
        <path d="M7.56165068,16.5845798 L0.418921091,9.5015416 C-0.139640364,8.94906462 -0.139640364,8.05093538 0.418921091,7.4984584 L7.56165068,0.415420191 C8.12021214,-0.138473397 9.02448171,-0.138473397 9.58161461,0.415420191 C10.1387475,0.969313779 10.1401761,1.86602642 9.58161461,2.4185034 L4.8774129,7.08339236 L18.5714541,7.08339236 C19.3600114,7.08339236 20,7.71803258 20,8.5 C20,9.28196742 19.3600114,9.91660764 18.5714541,9.91660764 L4.8774129,9.91660764 L9.58161461,14.5814966 C9.86018107,14.8577351 10.0001786,15.2203867 10.0001786,15.5830382 C10.0001786,15.9456898 9.86018107,16.3083413 9.58161461,16.5845798 C9.02305316,17.1384734 8.11878359,17.1384734 7.56165068,16.5845798 Z" id="Shape" fill="#000000" fill-rule="nonzero" transform="translate(10.000000, 8.500000) rotate(-180.000000) translate(-10.000000, -8.500000) "></path>
    </g>
</svg>