<?xml version="1.0" encoding="UTF-8"?>
<svg width="17px" height="20px" viewBox="0 0 17 20" version="1.1" xmlns="http://www.w3.org/2000/svg" xmlns:xlink="http://www.w3.org/1999/xlink">
    <!-- Generator: Sketch 49.2 (51160) - http://www.bohemiancoding.com/sketch -->
    <title>arrow-full-down</title>
    <desc>Created with Sketch.</desc>
    <defs></defs>
    <g id="arrow-full-down" stroke="none" stroke-width="1" fill="none" fill-rule="evenodd">
        <path d="M6.06165068,18.0845798 L-1.08107891,11.0015416 C-1.63964036,10.4490646 -1.63964036,9.55093538 -1.08107891,8.9984584 L6.06165068,1.91542019 C6.62021214,1.3615266 7.52448171,1.3615266 8.08161461,1.91542019 C8.63874752,2.46931378 8.64017607,3.36602642 8.08161461,3.9185034 L3.3774129,8.58339236 L17.0714541,8.58339236 C17.8600114,8.58339236 18.5,9.21803258 18.5,10 C18.5,10.7819674 17.8600114,11.4166076 17.0714541,11.4166076 L3.3774129,11.4166076 L8.08161461,16.0814966 C8.36018107,16.3577351 8.50017857,16.7203867 8.50017857,17.0830382 C8.50017857,17.4456898 8.36018107,17.8083413 8.08161461,18.0845798 C7.52305316,18.6384734 6.61878359,18.6384734 6.06165068,18.0845798 Z" id="Shape" fill="#000000" fill-rule="nonzero" transform="translate(8.500000, 10.000000) rotate(-90.000000) translate(-8.500000, -10.000000) "></path>
    </g>
</svg>