<?xml version="1.0" encoding="UTF-8"?>
<svg width="20px" height="20px" viewBox="0 0 20 20" version="1.1" xmlns="http://www.w3.org/2000/svg" xmlns:xlink="http://www.w3.org/1999/xlink">
    <!-- Generator: Sketch 49.2 (51160) - http://www.bohemiancoding.com/sketch -->
    <title>block</title>
    <desc>Created with Sketch.</desc>
    <defs></defs>
    <g id="block" stroke="none" stroke-width="1" fill="none" fill-rule="evenodd">
        <path d="M10.0005208,1.50334871e-15 C4.47685016,1.50334871e-15 0,4.47685016 0,9.99947919 C0,15.5231498 4.47685016,20 10.0005208,20 C15.5221082,20 20,15.5231498 20,9.99947919 C20,4.47580855 15.5221082,0 10.0005208,1.50334871e-15 Z M2.08322483,9.99947919 C2.08322483,5.62783188 5.62679027,2.08322483 9.99947919,2.08322483 C11.9045883,2.08322483 13.6513723,2.75714807 15.0169262,3.87792302 L3.87792302,15.0169262 C2.75714807,13.6503307 2.08322483,11.9045883 2.08322483,9.99947919 Z M9.99947919,17.9146919 C8.0954117,17.9146919 6.34862768,17.2418103 4.98411541,16.1210354 L16.1231186,4.9830738 C17.2428519,6.34966929 17.9167752,8.09437008 17.9167752,9.99947919 C17.9167752,14.3711265 14.3711265,17.9146919 9.99947919,17.9146919 Z" id="Shape" fill="#000000" fill-rule="nonzero"></path>
    </g>
</svg>