<?xml version="1.0" encoding="UTF-8"?>
<svg width="20px" height="19px" viewBox="0 0 20 19" version="1.1" xmlns="http://www.w3.org/2000/svg" xmlns:xlink="http://www.w3.org/1999/xlink">
    <!-- Generator: Sketch 49.2 (51160) - http://www.bohemiancoding.com/sketch -->
    <title>book</title>
    <desc>Created with Sketch.</desc>
    <defs></defs>
    <g id="book" stroke="none" stroke-width="1" fill="none" fill-rule="evenodd">
        <path d="M12.5081138,4.19146021 L12.5081138,5.93865964 C13.0500415,5.71287238 13.6900898,5.5613373 14.4599592,5.5613373 C15.208695,5.5613373 15.8472338,5.63104344 16.4118047,5.73711799 L16.4118047,4.05053259 C15.839686,3.95203479 15.1951091,3.88232866 14.4599592,3.88232866 C13.7248094,3.88232866 13.0802325,4.00658742 12.5081138,4.18994486 L12.5081138,4.19146021 Z M12.5081138,7.82981739 L12.5081138,9.57701683 C13.0500415,9.35122956 13.6900898,9.19969448 14.4599592,9.19969448 C15.208695,9.19969448 15.8472338,9.26940062 16.4118047,9.37547517 L16.4118047,7.68888977 C15.839686,7.59039197 15.1951091,7.52068584 14.4599592,7.52068584 C13.7248094,7.52068584 13.081742,7.64342925 12.5081138,7.82830204 L12.5081138,7.82981739 Z M12.5081138,11.4681746 L12.5081138,13.215374 C13.0500415,12.9895867 13.6900898,12.8380517 14.4599592,12.8380517 C15.208695,12.8380517 15.8472338,12.9077578 16.4118047,13.0138324 L16.4118047,11.327247 C15.839686,11.2287492 15.1951091,11.159043 14.4599592,11.159043 C13.7248094,11.159043 13.0802325,11.2833018 12.5081138,11.4666592 L12.5081138,11.4681746 Z M3.58668579,11.327247 L3.58668579,13.0138324 C4.14974715,12.9092732 4.78828591,12.8380517 5.53702166,12.839567 C6.30689109,12.839567 6.94693939,12.9911021 7.48886708,13.2168894 L7.48886708,11.4696899 C6.91523889,11.2848171 6.27066194,11.1620737 5.53853121,11.1605584 C4.80338139,11.1605584 4.15880444,11.2287492 3.58819534,11.327247 L3.58668579,11.327247 Z M3.58668579,4.04901724 L3.58668579,5.73560264 C4.14974715,5.63104344 4.78828591,5.5613373 5.53702166,5.5613373 C6.30689109,5.5613373 6.94693939,5.71287238 7.48886708,5.93865964 L7.49037663,4.18994486 C6.91674843,4.00658742 6.27217148,3.88232866 5.53853121,3.88232866 C4.80489094,3.88232866 4.15880444,3.95051944 3.58819534,4.04901724 L3.58668579,4.04901724 Z M3.58668579,7.68888977 L3.58668579,9.37547517 C4.14974715,9.27091597 4.78828591,9.19969448 5.53702166,9.20120984 C6.30689109,9.20120984 6.94693939,9.35274491 7.48886708,9.57853218 L7.49037663,7.82981739 C6.91674843,7.6449446 6.27217148,7.52220119 5.54004076,7.52068584 C4.80489094,7.52068584 4.15880444,7.58887662 3.58819534,7.68888977 L3.58668579,7.68888977 Z M14.4599592,0.00151535076 C12.2726243,0.00151535076 10.7932674,1.03953062 9.99924523,1.80781346 C9.20371349,1.03801527 7.72737565,0.00151535076 5.53853121,0.00303070153 C2.33527059,0.00303070153 0,1.54565778 0,1.54565778 L0.00603819156,17.591707 C0.00603819156,18.0857114 0.570609103,18.3842355 0.961582006,18.0857114 C1.80240018,17.4432026 3.25760435,16.7203803 5.53853121,16.7203803 C7.71982791,16.7203803 8.92897577,17.8947772 9.52071854,18.7554964 C9.75620802,19.0979657 10.2588875,19.0722047 10.4958865,18.7312508 C11.0936674,17.8720469 12.2982867,16.718865 14.4614688,16.718865 C16.7454147,16.718865 18.2006189,17.4432026 19.0429466,18.0857114 C19.4354291,18.3842355 19.9939618,18.0872267 19.9954714,17.5947377 L20,1.54262708 C20,1.54262708 17.6647294,0.00151535076 14.4614688,0 L14.4599592,0.00151535076 Z M9.16295569,15.9233058 C8.31308023,15.3353497 7.11298966,14.7989156 5.53853121,14.7974002 C3.95048683,14.7974002 2.74133897,15.094409 1.91410673,15.4050559 L1.91259718,2.6806555 C2.45754397,2.40183096 3.66518228,1.92449547 5.53702166,1.92449547 C7.3001736,1.92449547 8.46403502,2.79582216 9.16144615,3.58835061 L9.16144615,15.9233058 L9.16295569,15.9233058 Z M18.0843837,15.4050559 C17.2571515,15.094409 16.0480036,14.7974002 14.4584497,14.7974002 C12.8839912,14.7974002 11.6839007,15.3353497 10.8340252,15.9233058 L10.8340252,3.58835061 C11.5299268,2.79582216 12.6937882,1.92298012 14.4584497,1.92449547 C16.3302891,1.92449547 17.5379274,2.40183096 18.0828742,2.6806555 L18.0828742,15.4050559 L18.0843837,15.4050559 Z" id="Shape" fill="#000000" fill-rule="nonzero"></path>
    </g>
</svg>