<?xml version="1.0" encoding="UTF-8"?>
<svg width="11px" height="20px" viewBox="0 0 11 20" version="1.1" xmlns="http://www.w3.org/2000/svg" xmlns:xlink="http://www.w3.org/1999/xlink">
    <!-- Generator: Sketch 49.2 (51160) - http://www.bohemiancoding.com/sketch -->
    <title>bulb</title>
    <desc>Created with Sketch.</desc>
    <defs></defs>
    <g id="bulb" stroke="none" stroke-width="1" fill="none" fill-rule="evenodd">
        <path d="M5.58870927,0 C1.92295271,0 0,2.89641026 0,5.53162393 C0,8.48820513 2.74590551,10.3480342 2.74590551,15.1822222 L5.52593012,15.1822222 C5.52593012,15.1822222 8.13808874,15.1945299 8.21724506,15.1945299 C8.29640138,10.3234188 10.9999992,8.40752137 10.9999992,5.50837607 C11.001364,3.03452991 9.25310107,1.97372982e-15 5.58870927,1.97372982e-15 Z M7.87059496,15.8974359 L3.09392037,15.8974359 C2.90558292,15.8974359 2.75272933,16.0505983 2.75272933,16.2393162 C2.75272933,16.4280342 2.90558292,16.5811966 3.09392037,16.5811966 L7.87059496,16.5811966 C8.05756765,16.5811966 8.211786,16.4280342 8.211786,16.2393162 C8.211786,16.0505983 8.05756765,15.8974359 7.87059496,15.8974359 Z M7.87059496,17.2649573 L3.09392037,17.2649573 C2.90558292,17.2649573 2.75272933,17.4181197 2.75272933,17.6068376 C2.75272933,17.7955556 2.90558292,17.9487179 3.09392037,17.9487179 L7.87059496,17.9487179 C8.05756765,17.9487179 8.211786,17.7955556 8.211786,17.6068376 C8.211786,17.4181197 8.05756765,17.2649573 7.87059496,17.2649573 Z M3.43511141,18.6324786 C3.43511141,18.6324786 3.43511141,18.9374359 3.43511141,19.3162393 C3.43511141,19.6950427 3.73945382,20 4.1174935,20 L6.85657518,20 C7.23461486,20 7.53895727,19.6936752 7.53895727,19.3162393 C7.53895727,18.9388034 7.53895727,18.6324786 7.53895727,18.6324786 L3.43511141,18.6324786 Z" id="Shape" fill="#000000" fill-rule="nonzero"></path>
    </g>
</svg>