<?xml version="1.0" encoding="UTF-8"?>
<svg width="19px" height="20px" viewBox="0 0 19 20" version="1.1" xmlns="http://www.w3.org/2000/svg" xmlns:xlink="http://www.w3.org/1999/xlink">
    <!-- Generator: Sketch 49.2 (51160) - http://www.bohemiancoding.com/sketch -->
    <title>calendar</title>
    <desc>Created with Sketch.</desc>
    <defs></defs>
    <g id="calendar" stroke="none" stroke-width="1" fill="none" fill-rule="evenodd">
        <g fill="#000000" fill-rule="nonzero" id="Shape">
            <path d="M6.33333333,7.5 L8.86666667,7.5 L8.86666667,10 L6.33333333,10 L6.33333333,7.5 Z M10.1333333,7.5 L12.6666667,7.5 L12.6666667,10 L10.1333333,10 L10.1333333,7.5 Z M13.9333333,7.5 L16.4666667,7.5 L16.4666667,10 L13.9333333,10 L13.9333333,7.5 Z M2.53333333,15 L5.06666667,15 L5.06666667,17.5 L2.53333333,17.5 L2.53333333,15 Z M6.33333333,15 L8.86666667,15 L8.86666667,17.5 L6.33333333,17.5 L6.33333333,15 Z M10.1333333,15 L12.6666667,15 L12.6666667,17.5 L10.1333333,17.5 L10.1333333,15 Z M6.33333333,11.25 L8.86666667,11.25 L8.86666667,13.75 L6.33333333,13.75 L6.33333333,11.25 Z M10.1333333,11.25 L12.6666667,11.25 L12.6666667,13.75 L10.1333333,13.75 L10.1333333,11.25 Z M13.9333333,11.25 L16.4666667,11.25 L16.4666667,13.75 L13.9333333,13.75 L13.9333333,11.25 Z M2.53333333,11.25 L5.06666667,11.25 L5.06666667,13.75 L2.53333333,13.75 L2.53333333,11.25 Z M16.4666667,0 L16.4666667,1.25 L13.9333333,1.25 L13.9333333,0 L5.06666667,0 L5.06666667,1.25 L2.53333333,1.25 L2.53333333,0 L0,0 L0,20 L19,20 L19,0 L16.4666667,0 Z M17.7333333,18.75 L1.26666667,18.75 L1.26666667,5 L17.7333333,5 L17.7333333,18.75 Z"></path>
        </g>
    </g>
</svg>