<?xml version="1.0" encoding="UTF-8"?>
<svg width="20px" height="16px" viewBox="0 0 20 16" version="1.1" xmlns="http://www.w3.org/2000/svg" xmlns:xlink="http://www.w3.org/1999/xlink">
    <!-- Generator: Sketch 49.2 (51160) - http://www.bohemiancoding.com/sketch -->
    <title>camera</title>
    <desc>Created with Sketch.</desc>
    <defs></defs>
    <g id="camera" stroke="none" stroke-width="1" fill="none" fill-rule="evenodd">
        <g fill="#000000" fill-rule="nonzero" id="Shape">
            <path d="M10,6 C8.343,6 7,7.344 7,9 C7,10.656 8.343,12 10,12 C11.656,12 13,10.656 13,9 C13,7.344 11.656,6 10,6 Z M18,3 L15.6,3 C15.27,3 14.914,2.744 14.811,2.43 L14.19,0.569 C14.085,0.256 13.731,0 13.4,0 L6.6,0 C6.27,0 5.914,0.256 5.811,0.568 L5.189,2.43 C5.085,2.744 4.73,3 4.4,3 L2,3 C0.9,3 0,3.9 0,5 L0,14 C0,15.1 0.9,16 2,16 L18,16 C19.1,16 20,15.1 20,14 L20,5 C20,3.9 19.1,3 18,3 Z M10,14 C7.238,14 5,11.762 5,9 C5,6.238 7.238,4 10,4 C12.761,4 15,6.238 15,9 C15,11.762 12.761,14 10,14 Z M17.5,6.2 C17.113,6.2 16.8,5.886 16.8,5.499 C16.8,5.114 17.113,4.799 17.5,4.799 C17.887,4.799 18.2,5.113 18.2,5.499 C18.2,5.886 17.887,6.2 17.5,6.2 Z"></path>
        </g>
    </g>
</svg>