<?xml version="1.0" encoding="UTF-8"?>
<svg width="20px" height="20px" viewBox="0 0 20 20" version="1.1" xmlns="http://www.w3.org/2000/svg" xmlns:xlink="http://www.w3.org/1999/xlink">
    <!-- Generator: Sketch 49.2 (51160) - http://www.bohemiancoding.com/sketch -->
    <title>coin-dollar</title>
    <desc>Created with Sketch.</desc>
    <defs></defs>
    <g id="coin-dollar" stroke="none" stroke-width="1" fill="none" fill-rule="evenodd">
        <g fill="#000000" fill-rule="nonzero" id="Shape">
            <path d="M10,0 C4.47733333,0 0,4.47733333 0,10 C0,15.5226667 4.47733333,20 10,20 C15.5226667,20 20,15.5226667 20,10 C20,4.47733333 15.5226667,0 10,0 Z M10,18 C5.58266667,18 2,14.4173333 2,10 C2,5.58266667 5.58266667,2 10,2 C14.4173333,2 18,5.58266667 18,10 C18,14.4173333 14.4173333,18 10,18 Z M10.6666667,9.33333333 L10.6666667,6.66666667 L13.3333333,6.66666667 L13.3333333,5.33333333 L10.6666667,5.33333333 L10.6666667,4 L9.33333333,4 L9.33333333,5.33333333 L6.66666667,5.33333333 L6.66666667,10.6666667 L9.33333333,10.6666667 L9.33333333,13.3333333 L6.66666667,13.3333333 L6.66666667,14.6666667 L9.33333333,14.6666667 L9.33333333,16 L10.6666667,16 L10.6666667,14.6666667 L13.3333333,14.6666667 L13.3333333,9.33333333 L10.6666667,9.33333333 Z M9.33333333,9.33333333 L8,9.33333333 L8,6.66666667 L9.33333333,6.66666667 L9.33333333,9.33333333 Z M12,13.3333333 L10.6666667,13.3333333 L10.6666667,10.6666667 L12,10.6666667 L12,13.3333333 Z"></path>
        </g>
    </g>
</svg>