<?xml version="1.0" encoding="UTF-8"?>
<svg width="20px" height="19px" viewBox="0 0 20 19" version="1.1" xmlns="http://www.w3.org/2000/svg" xmlns:xlink="http://www.w3.org/1999/xlink">
    <!-- Generator: Sketch 49.2 (51160) - http://www.bohemiancoding.com/sketch -->
    <title>contact-cal-slave</title>
    <desc>Created with Sketch.</desc>
    <defs>
        <polygon id="path-1" points="0.155639648 9.26489258 8.57503167 0.845500561 17.5853097 0.845500561 17.5853097 9.83564737 0.176983607 9.83564737"></polygon>
        <polygon id="path-3" points="0.861578742 19.1711426 20.0436439 0.00396347881 0.861578742 0.00396347881"></polygon>
    </defs>
    <g id="contact-cal-slave" stroke="none" stroke-width="1" fill="none" fill-rule="evenodd">
        <g id="user-2" transform="translate(4.000000, 10.000000)">
            <mask id="mask-2" fill="white">
                <use xlink:href="#path-1"></use>
            </mask>
            <g id="Mask"></g>
            <g mask="url(#mask-2)" fill="#000000" id="Shape">
                <g transform="translate(-4.000000, -10.000000)">
                    <path d="M5,5.33333333 C5,2.388 7.23875,0 10,0 C12.76125,0 15,2.388 15,5.33333333 C15,8.27866667 12.76125,10.6666667 10,10.6666667 C7.23875,10.6666667 5,8.27866667 5,5.33333333 L5,5.33333333 Z M5,12 C2.23875,12 0,14.388 0,17.3333333 L0,18.0317383 L20,18.0317383 L20,17.3333333 C20,14.388 17.76125,12 15,12 L5,12 Z"></path>
                </g>
            </g>
        </g>
        <g id="user-2" transform="translate(-1.000000, 0.000000)">
            <mask id="mask-4" fill="white">
                <use xlink:href="#path-3"></use>
            </mask>
            <g id="Mask"></g>
            <g mask="url(#mask-4)" fill="#000000" id="Shape">
                <g transform="translate(1.000000, 0.000000)">
                    <path d="M5,5.33333333 C5,2.388 7.23875,0 10,0 C12.76125,0 15,2.388 15,5.33333333 C15,8.27866667 12.76125,10.6666667 10,10.6666667 C7.23875,10.6666667 5,8.27866667 5,5.33333333 L5,5.33333333 Z M5,12 C2.23875,12 0,14.388 0,17.3333333 L0,18.0317383 L20,18.0317383 L20,17.3333333 C20,14.388 17.76125,12 15,12 L5,12 Z"></path>
                </g>
            </g>
        </g>
        <path d="M1.70710678,18.7071068 C1.31658249,19.0976311 0.683417511,19.0976311 0.292893219,18.7071068 C-0.0976310729,18.3165825 -0.0976310729,17.6834175 0.292893219,17.2928932 L17.2928932,0.292893219 C17.6834175,-0.0976310729 18.3165825,-0.0976310729 18.7071068,0.292893219 C19.0976311,0.683417511 19.0976311,1.31658249 18.7071068,1.70710678 L1.70710678,18.7071068 Z" id="Line-Copy" fill="#000000" fill-rule="nonzero"></path>
    </g>
</svg>