<?xml version="1.0" encoding="UTF-8"?>
<svg width="14px" height="20px" viewBox="0 0 14 20" version="1.1" xmlns="http://www.w3.org/2000/svg" xmlns:xlink="http://www.w3.org/1999/xlink">
    <!-- Generator: Sketch 49.2 (51160) - http://www.bohemiancoding.com/sketch -->
    <title>correspondance</title>
    <desc>Created with Sketch.</desc>
    <defs></defs>
    <g id="correspondance" stroke="none" stroke-width="1" fill="none" fill-rule="evenodd">
        <path d="M1.25320649,19.7618798 C1.55947104,18.7606463 2.02324308,17.3506697 2.64452259,15.3107035 C5.35090117,14.8738357 6.47095439,15.6594477 8.18978605,12.5269996 C6.79471977,12.9632423 5.11276486,11.7182629 5.20339416,11.1788969 C5.29339844,10.6389058 9.11670508,11.5676404 11.618699,7.94082549 C8.46479911,8.64956375 7.45475112,7.08771461 7.86164546,6.85209351 C8.80044006,6.30710254 11.5886975,6.62584726 13.0750181,5.14899671 C13.8413045,4.3890093 14.1988215,2.54028991 13.8881818,1.88030084 C13.513164,1.08406402 11.2311805,-0.103416319 9.97299576,0.00720684897 C8.71481099,0.119079997 6.74159224,4.8958759 6.15656445,4.85837653 C5.57153665,4.82087715 5.4546561,2.71966194 6.47532959,0.765319296 C5.39840343,1.25156125 3.42518468,2.7640362 2.80640529,4.05713979 C1.6532255,6.46334995 2.91453542,11.9801336 2.51014121,12.1770053 C2.10512197,12.3732521 0.743807293,9.64392229 0.338163021,8.40706777 C-0.216863348,10.3032864 -0.229988972,12.2032549 1.39196309,14.7269631 C0.780059015,16.3831857 0.445668128,18.2887791 0.395040723,19.2581381 C0.371289594,20.0343752 1.11820008,20.1999975 1.25320649,19.7618798 L1.25320649,19.7618798 Z" id="Shape" fill="#000000"></path>
    </g>
</svg>