<?xml version="1.0" encoding="UTF-8"?>
<svg width="20px" height="20px" viewBox="0 0 20 20" version="1.1" xmlns="http://www.w3.org/2000/svg" xmlns:xlink="http://www.w3.org/1999/xlink">
    <!-- Generator: Sketch 49.2 (51160) - http://www.bohemiancoding.com/sketch -->
    <title>cycle</title>
    <desc>Created with Sketch.</desc>
    <defs></defs>
    <g id="cycle" stroke="none" stroke-width="1" fill="none" fill-rule="evenodd">
        <path d="M4.53124184,15.1512195 C1.772815,12.1853659 1.82159354,7.53658537 4.68733319,4.65 C5.86045724,3.46829268 7.32625259,2.76341463 8.85058218,2.53292683 L8.76643919,0 C6.62628043,0.259756098 4.55685057,1.21463415 2.91667193,2.86707317 C-0.923419197,6.73292683 -0.969758816,12.9756098 2.76667789,16.9292683 L0.64359163,19.0658537 L7.3628365,19.4329268 L7.34454454,12.3182927 L4.53124184,15.1512195 Z M12.6370169,0.567073171 L12.6553089,7.68170732 L15.4686116,4.85 C18.2270384,7.81829268 18.1782599,12.4670732 15.3125202,15.3512195 C14.1406156,16.5329268 12.6736008,17.2378049 11.1492712,17.4682927 L11.2334142,20 C13.373573,19.7402439 15.4430028,18.7853659 17.0844009,17.1341463 C20.9232726,13.2658537 20.9696122,7.02317073 17.2331755,3.07195122 L19.3562618,0.932926829 L12.6370169,0.567073171 Z" id="Shape" fill="#000000" fill-rule="nonzero"></path>
    </g>
</svg>