<?xml version="1.0" encoding="UTF-8"?>
<svg width="16px" height="19px" viewBox="0 0 16 19" version="1.1" xmlns="http://www.w3.org/2000/svg" xmlns:xlink="http://www.w3.org/1999/xlink">
    <!-- Generator: Sketch 49.2 (51160) - http://www.bohemiancoding.com/sketch -->
    <title>database</title>
    <desc>Created with Sketch.</desc>
    <defs></defs>
    <g id="database" stroke="none" stroke-width="1" fill="none" fill-rule="evenodd">
        <g fill="#000000" fill-rule="nonzero" id="Shape">
            <path d="M15.6868571,12.9344444 C14.7234286,14.4488889 11.6468571,15.5577778 8,15.5577778 C4.35314286,15.5577778 1.27657143,14.4488889 0.312,12.9344444 C0.108571429,12.6122222 -8.8817842e-16,12.7844444 -8.8817842e-16,12.9422222 C-8.8817842e-16,13.1022222 -8.8817842e-16,15.1666667 -8.8817842e-16,15.1666667 C-8.8817842e-16,17.3222222 3.58171429,19.5555556 8,19.5555556 C12.4182857,19.5555556 16,17.3222222 16,15.1677778 C16,15.1677778 16,13.1033333 16,12.9433333 C16,12.7833333 15.8902857,12.6122222 15.6868571,12.9344444 Z M15.6994286,7.25 C14.7508571,8.58888889 11.6628571,9.57222222 8,9.57222222 C4.33714286,9.57222222 1.248,8.58888889 0.299428571,7.25 C0.104,6.97444444 -2.66453526e-15,7.12444444 -2.66453526e-15,7.24777778 C-2.66453526e-15,7.37333333 -2.66453526e-15,9.86666667 -2.66453526e-15,9.86666667 C-2.66453526e-15,11.8244444 3.58171429,13.41 8,13.41 C12.4182857,13.41 16,11.8233333 16,9.86666667 C16,9.86666667 16,7.37333333 16,7.24777778 C16,7.12444444 15.8948571,6.97444444 15.6994286,7.25 Z M8,-7.89491929e-16 C3.58171429,-7.89491929e-16 -8.8817842e-16,1.31111111 -8.8817842e-16,2.92555556 L-8.8817842e-16,4.32555556 C-8.8817842e-16,6.03777778 3.58171429,7.42666667 8,7.42666667 C12.4182857,7.42666667 16,6.03777778 16,4.32555556 L16,2.92555556 C16,1.31111111 12.4182857,-1.77635684e-15 8,-7.89491929e-16 Z"></path>
        </g>
    </g>
</svg>