<?xml version="1.0" encoding="UTF-8"?>
<svg width="20px" height="20px" viewBox="0 0 20 20" version="1.1" xmlns="http://www.w3.org/2000/svg" xmlns:xlink="http://www.w3.org/1999/xlink">
    <!-- Generator: Sketch 49.2 (51160) - http://www.bohemiancoding.com/sketch -->
    <title>docs</title>
    <desc>Created with Sketch.</desc>
    <defs></defs>
    <g id="docs" stroke="none" stroke-width="1" fill="none" fill-rule="evenodd">
        <g id="documents" fill="#000000" fill-rule="nonzero">
            <path d="M19.398,7.415 L11.954,5.419 L10.651,0.558 C10.542,0.152 10.106,-0.084 9.678,0.029 L0.602,2.461 C0.174,2.575 -0.084,2.999 0.025,3.405 L3.255,15.456 C3.364,15.862 3.799,16.099 4.226,15.983 L7.839,15.016 L7.347,16.854 C7.238,17.26 7.496,17.684 7.924,17.797 L16.034,19.971 C16.462,20.086 16.896,19.85 17.006,19.442 L19.976,8.358 C20.084,7.952 19.826,7.528 19.398,7.415 Z M1.633,3.631 L9.463,1.535 L12.361,12.353 L4.531,14.449 L1.633,3.631 Z M15.678,18.463 L8.864,16.6 L9.4,14.598 L13.301,13.551 C13.729,13.438 13.989,13.014 13.879,12.608 L12.371,6.981 L18.318,8.612 L15.678,18.463 Z" id="Shape"></path>
        </g>
    </g>
</svg>