<?xml version="1.0" encoding="UTF-8"?>
<svg width="16px" height="20px" viewBox="0 0 16 20" version="1.1" xmlns="http://www.w3.org/2000/svg" xmlns:xlink="http://www.w3.org/1999/xlink">
    <!-- Generator: Sketch 49.2 (51160) - http://www.bohemiancoding.com/sketch -->
    <title>document</title>
    <desc>Created with Sketch.</desc>
    <defs></defs>
    <g id="document" stroke="none" stroke-width="1" fill="none" fill-rule="evenodd">
        <g id="icomoon-ignore"></g>
        <path d="M14.8571429,0 L1.14285714,0 C0.510857143,0 0,0.496666667 0,1.11111111 L0,18.8888889 C0,19.5022222 0.510857143,20 1.14285714,20 L14.8571429,20 C15.4891429,20 16,19.5022222 16,18.8888889 L16,1.11111111 C16,0.497777778 15.4891429,0 14.8571429,0 Z M13.7142857,17.7777778 L2.28571429,17.7777778 L2.28571429,2.22222222 L13.7142857,2.22222222 L13.7142857,17.7777778 Z M11.4285714,4.44444444 L4.57142857,4.44444444 L4.57142857,6.66666667 L11.4285714,6.66666667 L11.4285714,4.44444444 Z M11.4285714,13.3333333 L4.57142857,13.3333333 L4.57142857,15.5555556 L11.4285714,15.5555556 L11.4285714,13.3333333 Z M11.4285714,8.88888889 L4.57142857,8.88888889 L4.57142857,11.1111111 L11.4285714,11.1111111 L11.4285714,8.88888889 Z" id="Shape" fill="#000000" fill-rule="nonzero"></path>
    </g>
</svg>