<?xml version="1.0" encoding="UTF-8"?>
<svg width="20px" height="18px" viewBox="0 0 20 18" version="1.1" xmlns="http://www.w3.org/2000/svg" xmlns:xlink="http://www.w3.org/1999/xlink">
    <!-- Generator: Sketch 49.2 (51160) - http://www.bohemiancoding.com/sketch -->
    <title>download</title>
    <desc>Created with Sketch.</desc>
    <defs></defs>
    <g id="download" stroke="none" stroke-width="1" fill="none" fill-rule="evenodd">
        <path d="M14.9992115,6.0030015 L11.9993166,6.0030015 L11.9993166,0 L7.99945666,0 L7.99945666,6.0030015 L4.99956172,6.0030015 L9.99938663,11.0055028 L14.9992115,6.0030015 Z M19.3370596,12.5382691 C19.127067,12.3141571 17.726116,10.8144072 17.32613,10.4232116 C17.0611393,10.164082 16.6821526,10.0050025 16.2841665,10.0050025 L14.5272281,10.0050025 L17.5911208,13.0005003 L14.0472449,13.0005003 C13.9452484,13.0005003 13.8532517,13.0525263 13.8072533,13.1335668 L12.9912818,15.0075038 L7.0074914,15.0075038 L6.19151998,13.1335668 C6.14552159,13.0525263 6.05252485,13.0005003 5.95152838,13.0005003 L2.40765249,13.0005003 L5.47054523,10.0050025 L3.71460672,10.0050025 C3.31762062,10.0050025 2.93863389,10.164082 2.67264321,10.4232116 C2.27265722,10.8154077 0.871706278,12.3151576 0.661713632,12.5382691 C0.172730757,13.0595298 -0.0962598233,13.4747374 0.0317356943,13.987994 L0.592716049,17.0635318 C0.720711566,17.5777889 1.28369185,18 1.84467221,18 L18.156101,18 C18.7170813,18 19.2800616,17.5777889 19.4080571,17.0635318 L19.9690375,13.987994 C20.0950331,13.4747374 19.8270425,13.0595298 19.3370596,12.5382691 Z" id="Shape" fill="#000000" fill-rule="nonzero"></path>
    </g>
</svg>