<?xml version="1.0" encoding="UTF-8"?>
<svg width="20px" height="19px" viewBox="0 0 20 19" version="1.1" xmlns="http://www.w3.org/2000/svg" xmlns:xlink="http://www.w3.org/1999/xlink">
    <!-- Generator: Sketch 49.2 (51160) - http://www.bohemiancoding.com/sketch -->
    <title>eye-slave</title>
    <desc>Created with Sketch.</desc>
    <defs></defs>
    <g id="eye-slave" stroke="none" stroke-width="1" fill="none" fill-rule="evenodd">
        <g id="Group" fill="#000000" fill-rule="nonzero">
            <path d="M17.1509375,0.274841264 L13.2021875,4.2235584 C12.1871875,3.91606096 11.1134375,3.75106234 10.0009375,3.75106234 C5.6396875,3.75106234 1.8584375,6.2910412 0.0009375,10.0010103 C0.8046875,11.604747 1.9671875,12.9897355 3.3796875,14.0459767 L0.2746875,17.1509508 C-0.0915625,17.5171978 -0.0915625,18.1109428 0.2746875,18.4771898 C0.4571875,18.6596883 0.6971875,18.7521875 0.9371875,18.7521875 C1.1771875,18.7521875 1.4171875,18.6609383 1.5996875,18.4771898 L18.4746875,1.60233022 C18.8409375,1.23608327 18.8409375,0.642338206 18.4746875,0.276091254 C18.1109375,-0.0914056877 17.5171875,-0.0914056877 17.1509375,0.274841264 Z M8.1271875,6.2496875 C8.9521875,6.2496875 9.6521875,6.7821875 9.9034375,7.5234375 L7.5259375,9.9009375 C6.7859375,9.6496875 6.2521875,8.9496875 6.2521875,8.1246875 C6.2521875,7.0896875 7.0921875,6.2496875 8.1271875,6.2496875 Z M2.1534375,9.9996875 C2.9009375,8.8171875 3.8971875,7.8134375 5.0721875,7.0646875 C5.1484375,7.0159375 5.2259375,6.9684375 5.3034375,6.9221875 C5.1084375,7.4559375 5.0021875,8.0321875 5.0021875,8.6334375 C5.0021875,9.7059375 5.3396875,10.6984375 5.9146875,11.5121875 L4.7246875,12.7021875 C3.7009375,11.9821875 2.8259375,11.0634375 2.1534375,9.9996875 Z" id="Shape"></path>
            <path d="M15.27125,9.02125 C15.27125,8.49125 15.18875,7.98 15.035,7.5 L8.75,13.785 C9.23,13.93875 9.74125,14.02125 10.27125,14.02125 C13.0325,14.02125 15.27125,11.7825 15.27125,9.02125 Z" id="Shape"></path>
            <path d="M16.18875,6.25 L14.83375,7.605 C14.85875,7.62 14.88375,7.635 14.9075,7.65125 C16.0825,8.40125 17.07875,9.405 17.82625,10.58625 C17.07875,11.76875 16.0825,12.7725 14.9075,13.52125 C13.43125,14.4625 11.72625,14.96125 9.9775,14.96125 C9.2225,14.96125 8.475,14.86875 7.75125,14.6875 L6.25,16.18875 C7.41625,16.6075 8.67125,16.83625 9.9775,16.83625 C14.33875,16.83625 18.12,14.29625 19.9775,10.58625 C19.09875,8.83 17.7875,7.33625 16.18875,6.25 Z" id="Shape"></path>
        </g>
    </g>
</svg>