<?xml version="1.0" encoding="UTF-8"?>
<svg width="20px" height="13px" viewBox="0 0 20 13" version="1.1" xmlns="http://www.w3.org/2000/svg" xmlns:xlink="http://www.w3.org/1999/xlink">
    <!-- Generator: Sketch 49.2 (51160) - http://www.bohemiancoding.com/sketch -->
    <title>eye</title>
    <desc>Created with Sketch.</desc>
    <defs></defs>
    <g id="eye" stroke="none" stroke-width="1" fill="none" fill-rule="evenodd">
        <g fill="#000000" fill-rule="nonzero" id="Shape">
            <path d="M10,0 C5.63875,0 1.8575,2.6416 0,6.5 C1.8575,10.3584 5.63875,13 10,13 C14.36125,13 18.1425,10.3584 20,6.5 C18.1425,2.6416 14.36125,0 10,0 Z M14.93125,3.4476 C16.10625,4.2276 17.1025,5.2715 17.85,6.5 C17.1025,7.7298 16.10625,8.7737 14.93125,9.5524 C13.455,10.5313 11.75,11.05 10.00125,11.05 C8.2525,11.05 6.5475,10.5326 5.07,9.5524 C3.895,8.7724 2.89875,7.7285 2.15125,6.5 C2.89875,5.2702 3.895,4.2263 5.07,3.4476 C5.14625,3.3969 5.22375,3.3475 5.30125,3.2994 C5.10625,3.8545 5,4.4538 5,5.0791 C5,7.9508 7.23875,10.2791 10,10.2791 C12.76125,10.2791 15,7.9508 15,5.0791 C15,4.4538 14.89375,3.8545 14.69875,3.2994 C14.77625,3.3475 14.85375,3.3969 14.93,3.4476 L14.93125,3.4476 Z M10,4.55 C10,5.6264 9.16,6.5 8.125,6.5 C7.09,6.5 6.25,5.6264 6.25,4.55 C6.25,3.4736 7.09,2.6 8.125,2.6 C9.16,2.6 10,3.4736 10,4.55 Z"></path>
        </g>
    </g>
</svg>