<?xml version="1.0" encoding="UTF-8"?>
<svg width="18px" height="20px" viewBox="0 0 18 20" version="1.1" xmlns="http://www.w3.org/2000/svg" xmlns:xlink="http://www.w3.org/1999/xlink">
    <!-- Generator: Sketch 49.2 (51160) - http://www.bohemiancoding.com/sketch -->
    <title>file-text</title>
    <desc>Created with Sketch.</desc>
    <defs></defs>
    <g id="file-text" stroke="none" stroke-width="1" fill="none" fill-rule="evenodd">
        <g id="file-text2" fill="#000000" fill-rule="nonzero">
            <path d="M17.1527143,4.47375 C16.7065714,3.88125 16.0842857,3.19125 15.4015714,2.52625 C14.7188571,1.86125 14.0065714,1.2575 13.3984286,0.82375 C12.3621429,0.085 11.8594286,0 11.5714286,0 L1.60714286,0 C0.721285714,0 0,0.7 0,1.5625 L0,18.4375 C0,19.29875 0.721285714,20 1.60714286,20 L16.3928571,20 C17.2787143,20 18,19.29875 18,18.4375 L18,6.25 C18,5.97 17.9112857,5.48125 17.1527143,4.47375 Z M14.4912857,3.41 C15.1071429,4.00875 15.5918571,4.55125 15.9492857,5 L12.8571429,5 L12.8571429,1.99375 C13.3187143,2.34125 13.8754286,2.8125 14.4912857,3.41125 L14.4912857,3.41 Z M16.7142857,18.4375 C16.7142857,18.6075 16.5677143,18.75 16.3928571,18.75 L1.60714286,18.75 C1.43357143,18.75 1.28571429,18.6075 1.28571429,18.4375 L1.28571429,1.5625 C1.28571429,1.39375 1.43357143,1.25 1.60714286,1.25 C1.60714286,1.25 11.5714286,1.25 11.5714286,1.25 L11.5714286,5.625 C11.5714286,5.97 11.8594286,6.25 12.2142857,6.25 L16.7142857,6.25 L16.7142857,18.4375 Z" id="Shape"></path>
            <path d="M13.5,16.25 L4.5,16.25 C4.14514286,16.25 3.85714286,15.97 3.85714286,15.625 C3.85714286,15.28 4.14514286,15 4.5,15 L13.5,15 C13.8548571,15 14.1428571,15.28 14.1428571,15.625 C14.1428571,15.97 13.8548571,16.25 13.5,16.25 Z" id="Shape"></path>
            <path d="M13.5,13.75 L4.5,13.75 C4.14514286,13.75 3.85714286,13.47 3.85714286,13.125 C3.85714286,12.78 4.14514286,12.5 4.5,12.5 L13.5,12.5 C13.8548571,12.5 14.1428571,12.78 14.1428571,13.125 C14.1428571,13.47 13.8548571,13.75 13.5,13.75 Z" id="Shape"></path>
            <path d="M13.5,11.25 L4.5,11.25 C4.14514286,11.25 3.85714286,10.97 3.85714286,10.625 C3.85714286,10.28 4.14514286,10 4.5,10 L13.5,10 C13.8548571,10 14.1428571,10.28 14.1428571,10.625 C14.1428571,10.97 13.8548571,11.25 13.5,11.25 Z" id="Shape"></path>
        </g>
    </g>
</svg>