<?xml version="1.0" encoding="UTF-8"?>
<svg width="18px" height="20px" viewBox="0 0 18 20" version="1.1" xmlns="http://www.w3.org/2000/svg" xmlns:xlink="http://www.w3.org/1999/xlink">
    <!-- Generator: Sketch 49.2 (51160) - http://www.bohemiancoding.com/sketch -->
    <title>file-pdf</title>
    <desc>Created with Sketch.</desc>
    <defs></defs>
    <g id="file-pdf" stroke="none" stroke-width="1" fill="none" fill-rule="evenodd">
        <g fill="#000000" fill-rule="nonzero" id="Shape">
            <path d="M15.6291429,11.5125 C15.3552857,11.25 14.7471429,11.11 13.8214286,11.09875 C13.1952857,11.0925 12.4418571,11.145 11.6485714,11.25375 C11.2937143,11.055 10.9272857,10.83875 10.6405714,10.5775 C9.86785714,9.87625 9.22371429,8.9025 8.82128571,7.83125 C8.84828571,7.73125 8.86885714,7.6425 8.89071429,7.55375 C8.89071429,7.55375 9.32528571,5.15 9.21085714,4.3375 C9.19542857,4.22625 9.18514286,4.19375 9.15428571,4.1075 L9.11571429,4.01375 C8.99742857,3.74875 8.766,3.46625 8.40085714,3.4825 L8.18228571,3.475 C7.776,3.475 7.44557143,3.6775 7.35814286,3.9775 C7.09457143,4.92375 7.36585714,6.33875 7.86085714,8.1725 L7.73485714,8.47125 C7.38128571,9.30875 6.939,10.1525 6.54814286,10.89625 L6.49671429,10.99375 C6.08657143,11.77625 5.71242857,12.43875 5.37557143,13.0025 L5.02714286,13.18125 C5.00142857,13.195 4.40357143,13.5025 4.26342857,13.58375 C3.07285714,14.275 2.28342857,15.06 2.15357143,15.68125 C2.11114286,15.88 2.142,16.135 2.35414286,16.2525 L2.69228571,16.4175 C2.83885714,16.48875 2.99314286,16.525 3.15128571,16.525 C3.99985714,16.525 4.98342857,15.4975 6.33857143,13.1975 C7.90457143,12.7025 9.68657143,12.29 11.2487143,12.0625 C12.4392857,12.71375 13.9024286,13.16625 14.8281429,13.16625 C14.9914286,13.16625 15.1341429,13.15125 15.2485714,13.12125 C15.426,13.075 15.5751429,12.9775 15.6664286,12.84375 C15.8451429,12.58125 15.8824286,12.22 15.8335714,11.85 C15.8194286,11.74 15.7281429,11.60375 15.6304286,11.51125 L15.6291429,11.5125 Z M2.96614286,15.9 C3.12042857,15.48875 3.73242857,14.67625 4.63757143,13.955 C4.69414286,13.91 4.83428571,13.7825 4.96285714,13.66375 C4.01657143,15.13125 3.38271429,15.71625 2.96614286,15.9 Z M8.32628571,3.9 C8.59885714,3.9 8.75314286,4.5675 8.76728571,5.19375 C8.78142857,5.82 8.62971429,6.26 8.442,6.58375 C8.28771429,6.1025 8.21314286,5.34375 8.21314286,4.8475 C8.21314286,4.8475 8.20157143,3.9 8.32628571,3.9 Z M6.72685714,12.45125 C6.91585714,12.12125 7.11385714,11.7725 7.31571429,11.40375 C7.80814286,10.5 8.11928571,9.79125 8.34942857,9.21 C8.80971429,10.025 9.38314286,10.71625 10.0568571,11.27125 C10.1417143,11.34125 10.2291429,11.41 10.323,11.47875 C8.95242857,11.7425 7.76828571,12.0625 6.72557143,12.4525 L6.72685714,12.45125 Z M15.3655714,12.37625 C15.282,12.42625 15.0428571,12.45625 14.8898571,12.45625 C14.3935714,12.45625 13.779,12.235 12.9188571,11.8775 C13.2505714,11.85375 13.5527143,11.8425 13.824,11.8425 C14.3215714,11.8425 14.4694286,11.84 14.9554286,11.96125 C15.4414286,12.0825 15.4478571,12.3275 15.3655714,12.37875 L15.3655714,12.37625 Z"></path>
            <path d="M17.1527143,4.47375 C16.7065714,3.88125 16.0842857,3.19125 15.4015714,2.52625 C14.7188571,1.86125 14.0065714,1.2575 13.3984286,0.82375 C12.3621429,0.085 11.8594286,0 11.5714286,0 L1.60714286,0 C0.721285714,0 0,0.7 0,1.5625 L0,18.4375 C0,19.29875 0.72,20 1.60714286,20 L16.3928571,20 C17.2787143,20 18,19.29875 18,18.4375 L18,6.25 C18,5.97 17.9112857,5.48125 17.1527143,4.47375 Z M14.4912857,3.41 C15.1071429,4.00875 15.5918571,4.55125 15.9492857,5 L12.8571429,5 L12.8571429,1.99375 C13.3187143,2.34125 13.8754286,2.8125 14.4912857,3.41125 L14.4912857,3.41 Z M16.7142857,18.4375 C16.7142857,18.6075 16.5677143,18.75 16.3928571,18.75 L1.60714286,18.75 C1.43357143,18.75 1.28571429,18.6075 1.28571429,18.4375 L1.28571429,1.5625 C1.28571429,1.39375 1.43357143,1.25 1.60714286,1.25 C1.60714286,1.25 11.5714286,1.25 11.5714286,1.25 L11.5714286,5.625 C11.5714286,5.97 11.8594286,6.25 12.2142857,6.25 L16.7142857,6.25 L16.7142857,18.4375 Z"></path>
        </g>
    </g>
</svg>