<?xml version="1.0" encoding="UTF-8"?>
<svg width="18px" height="20px" viewBox="0 0 18 20" version="1.1" xmlns="http://www.w3.org/2000/svg" xmlns:xlink="http://www.w3.org/1999/xlink">
    <!-- Generator: Sketch 49.2 (51160) - http://www.bohemiancoding.com/sketch -->
    <title>file-csv</title>
    <desc>Created with Sketch.</desc>
    <defs></defs>
    <g id="file-csv" stroke="none" stroke-width="1" fill="none" fill-rule="evenodd">
        <g id="Shape-+-CSV" fill="#000000">
            <path d="M17.1520714,4.474375 C16.7059286,3.8825 16.0836429,3.19125 15.4009286,2.526875 C14.7182143,1.8625 14.0065714,1.258125 13.3977857,0.824375 C12.3615,0.085625 11.8594286,0 11.5714286,0 L1.60714286,0 C0.721285714,0 0,0.700625 0,1.5625 L0,18.4375 C0,19.29875 0.721285714,20 1.60714286,20 L16.3928571,20 C17.2787143,20 18,19.29875 18,18.4375 L18,6.25 C18,5.97 17.9119286,5.48125 17.1520714,4.474375 L17.1520714,4.474375 Z M14.4919286,3.410625 C15.1084286,4.01 15.5925,4.55125 15.9499286,5 L12.8571429,5 L12.8571429,1.993125 C13.3187143,2.340625 13.8754286,2.81125 14.4919286,3.410625 L14.4919286,3.410625 Z M16.7142857,18.4375 C16.7142857,18.606875 16.5670714,18.75 16.3928571,18.75 L1.60714286,18.75 C1.43292857,18.75 1.28571429,18.606875 1.28571429,18.4375 L1.28571429,1.5625 C1.28571429,1.393125 1.43292857,1.25 1.60714286,1.25 L11.5714286,1.25 L11.5714286,5.625 C11.5714286,5.97 11.8594286,6.25 12.2142857,6.25 L16.7142857,6.25 L16.7142857,18.4375 L16.7142857,18.4375 Z" id="Shape"></path>
            <path d="M4.76761505,13.0962177 C4.44781787,13.0962177 4.15258786,13.0503305 3.88191616,12.9585547 C3.61124446,12.8667789 3.3786244,12.7300538 3.18404901,12.5483751 C2.98947362,12.3666965 2.83872812,12.1400699 2.73180798,11.8684885 C2.62488784,11.596907 2.57142857,11.2831884 2.57142857,10.927323 C2.57142857,10.5958064 2.62247976,10.2951983 2.72458368,10.0254899 C2.8266876,9.75578142 2.97502503,9.52447243 3.16960041,9.33155596 C3.35646985,9.14613139 3.58812667,9.00285092 3.86457785,8.90171025 C4.14102902,8.80056958 4.44300164,8.75 4.77050477,8.75 C4.95159473,8.75 5.11486223,8.75983297 5.26031215,8.77949922 C5.40576207,8.79916546 5.54013266,8.82491848 5.66342795,8.85675906 C5.79250272,8.8923456 5.90953517,8.93214573 6.01452882,8.97616065 C6.11952247,9.02017557 6.21151094,9.06091218 6.29049699,9.09837169 L6.29049699,10.1125828 L6.16334935,10.1125828 C6.10940766,10.0676314 6.04149994,10.0142524 5.95962416,9.9524442 C5.87774837,9.89063602 5.78479667,9.82976523 5.68076627,9.76983001 C5.57480937,9.7098948 5.460185,9.65932522 5.3368897,9.61811976 C5.2135944,9.57691431 5.08163189,9.55631188 4.94099819,9.55631188 C4.78495258,9.55631188 4.63661515,9.58019196 4.49598146,9.62795284 C4.35534776,9.67571371 4.2253117,9.75484573 4.10586939,9.86535128 C3.99220654,9.97211088 3.90021807,10.1135184 3.82990122,10.2895781 C3.75958437,10.4656378 3.72442647,10.6791538 3.72442647,10.9301325 C3.72442647,11.192349 3.76247406,11.4114839 3.83857037,11.5875436 C3.91466669,11.7636033 4.01050808,11.9022014 4.12609742,12.003342 C4.24361325,12.1063557 4.37461254,12.1798689 4.51909921,12.2238838 C4.66358588,12.2678987 4.80614393,12.2899058 4.94677763,12.2899058 C5.08163186,12.2899058 5.21503922,12.2702399 5.34700372,12.2309074 C5.47896821,12.1915749 5.60081682,12.1381959 5.71255318,12.0707688 C5.80695114,12.0164525 5.89460507,11.9583912 5.97551761,11.896583 C6.05643015,11.8347748 6.12289302,11.7813958 6.17490822,11.7364444 L6.29049699,11.7364444 L6.29049699,12.7366082 C6.1826136,12.7834326 6.07954799,12.8274469 5.98129705,12.8686523 C5.88304611,12.9098578 5.77998049,12.9454438 5.67209711,12.9754114 C5.53146341,13.0147439 5.3995009,13.044711 5.2762056,13.0653138 C5.1529103,13.0859165 4.98338182,13.0962177 4.76761505,13.0962177 L4.76761505,13.0962177 Z M10.5499429,11.6999215 C10.5499429,12.1119761 10.3703005,12.4467655 10.0110103,12.7042996 C9.65172006,12.9618337 9.16384404,13.0905988 8.54736756,13.0905988 C8.1909671,13.0905988 7.88032541,13.0601634 7.61543317,12.9992917 C7.35054093,12.93842 7.1025092,12.8611609 6.87133052,12.7675122 L6.87133052,11.7645389 L6.99269872,11.7645389 C7.22195091,11.9424715 7.47865171,12.0791967 7.76280884,12.1747184 C8.04696597,12.2702402 8.32004169,12.3180003 8.58204419,12.3180003 C8.64947131,12.3180003 8.73808847,12.3123815 8.84789834,12.3011436 C8.95770822,12.2899058 9.04728861,12.2711763 9.11664222,12.2449546 C9.20140773,12.2112411 9.27124191,12.1690998 9.32614685,12.1185294 C9.38105178,12.0679591 9.40850384,11.9930412 9.40850384,11.8937735 C9.40850384,11.8019977 9.36852979,11.7228657 9.2885805,11.6563751 C9.20863121,11.5898844 9.09159875,11.5388466 8.93747964,11.5032601 C8.77565456,11.4658006 8.60468123,11.4306828 8.4245545,11.3979058 C8.24442778,11.3651287 8.07538091,11.3234556 7.91740881,11.2728853 C7.55522888,11.1586338 7.29467515,11.0036474 7.13573981,10.8079214 C6.97680447,10.6121955 6.89733799,10.3691806 6.89733799,10.0788694 C6.89733799,9.68929053 7.07698039,9.37135772 7.43627059,9.12506145 C7.79556079,8.87876518 8.2574296,8.7556189 8.82189087,8.7556189 C9.10508476,8.7556189 9.38490309,8.7823084 9.66135426,8.8356882 C9.93780543,8.889068 10.1771681,8.95602586 10.3794494,9.03656381 L10.3794494,10.0002048 L10.260971,10.0002048 C10.0875869,9.86535061 9.87519472,9.75250553 9.62378791,9.66166622 C9.37238109,9.57082692 9.11568029,9.52540794 8.85367778,9.52540794 C8.76120631,9.52540794 8.66921784,9.53149502 8.57770961,9.54366936 C8.48620139,9.5558437 8.39806584,9.57878731 8.31330032,9.61250087 C8.23816725,9.6405955 8.17363084,9.68320505 8.11968914,9.7403308 C8.06574745,9.79745655 8.03877701,9.86254147 8.03877701,9.93558751 C8.03877701,10.0460931 8.08212236,10.1308439 8.16881437,10.1898427 C8.25550637,10.2488414 8.41925548,10.3026886 8.66006661,10.351386 C8.8180387,10.3832266 8.96974744,10.4141302 9.11519736,10.4440978 C9.26064728,10.4740654 9.41717216,10.5152702 9.5847767,10.5677136 C9.91420632,10.6726002 10.1574219,10.8154124 10.3144308,10.9961545 C10.4714396,11.1768967 10.5499429,11.4114833 10.5499429,11.6999215 L10.5499429,11.6999215 Z M15.2110597,8.83147402 L13.6419422,13.0147437 L12.3993631,13.0147437 L10.8302456,8.83147402 L11.9948024,8.83147402 L13.0351012,11.7701578 L14.0754001,8.83147402 L15.2110597,8.83147402 Z" id="CSV"></path>
        </g>
    </g>
</svg>