<?xml version="1.0" encoding="UTF-8"?>
<svg width="18px" height="20px" viewBox="0 0 18 20" version="1.1" xmlns="http://www.w3.org/2000/svg" xmlns:xlink="http://www.w3.org/1999/xlink">
    <!-- Generator: Sketch 49.2 (51160) - http://www.bohemiancoding.com/sketch -->
    <title>file-xml</title>
    <desc>Created with Sketch.</desc>
    <defs></defs>
    <g id="file-xml" stroke="none" stroke-width="1" fill="none" fill-rule="evenodd">
        <g id="Shape-+-embed2" fill="#000000">
            <path d="M17.1520714,4.474375 C16.7059286,3.8825 16.0836429,3.19125 15.4009286,2.526875 C14.7182143,1.8625 14.0065714,1.258125 13.3977857,0.824375 C12.3615,0.085625 11.8594286,0 11.5714286,0 L1.60714286,0 C0.721285714,0 0,0.700625 0,1.5625 L0,18.4375 C0,19.29875 0.721285714,20 1.60714286,20 L16.3928571,20 C17.2787143,20 18,19.29875 18,18.4375 L18,6.25 C18,5.97 17.9119286,5.48125 17.1520714,4.474375 L17.1520714,4.474375 Z M14.4919286,3.410625 C15.1084286,4.01 15.5925,4.55125 15.9499286,5 L12.8571429,5 L12.8571429,1.993125 C13.3187143,2.340625 13.8754286,2.81125 14.4919286,3.410625 L14.4919286,3.410625 Z M16.7142857,18.4375 C16.7142857,18.606875 16.5670714,18.75 16.3928571,18.75 L1.60714286,18.75 C1.43292857,18.75 1.28571429,18.606875 1.28571429,18.4375 L1.28571429,1.5625 C1.28571429,1.393125 1.43292857,1.25 1.60714286,1.25 L11.5714286,1.25 L11.5714286,5.625 C11.5714286,5.97 11.8594286,6.25 12.2142857,6.25 L16.7142857,6.25 L16.7142857,18.4375 L16.7142857,18.4375 Z" id="Shape"></path>
            <g id="embed2" transform="translate(2.571429, 7.500000)">
                <polygon id="Shape" points="8.45864662 5.9375 9.47368421 6.875 12.8571429 3.75 9.47368421 0.625 8.45864662 1.5625 10.8270677 3.75"></polygon>
                <polygon id="Shape" points="4.39849624 1.5625 3.38345865 0.625 0 3.75 3.38345865 6.875 4.39849624 5.9375 2.03007519 3.75"></polygon>
                <polygon id="Shape" points="7.07684211 0.22 7.81139098 0.405 5.78131579 7.2803125 5.04676692 7.0953125 7.07684211 0.22"></polygon>
            </g>
        </g>
    </g>
</svg>