<?xml version="1.0" encoding="UTF-8"?>
<svg width="18px" height="20px" viewBox="0 0 18 20" version="1.1" xmlns="http://www.w3.org/2000/svg" xmlns:xlink="http://www.w3.org/1999/xlink">
    <!-- Generator: Sketch 49.2 (51160) - http://www.bohemiancoding.com/sketch -->
    <title>file-binary</title>
    <desc>Created with Sketch.</desc>
    <defs></defs>
    <g id="file-binary" stroke="none" stroke-width="1" fill="none" fill-rule="evenodd">
        <g id="Shape-+-embed2-+-010" fill="#000000">
            <g id="Shape-+-embed2">
                <path d="M17.1520714,4.474375 C16.7059286,3.8825 16.0836429,3.19125 15.4009286,2.526875 C14.7182143,1.8625 14.0065714,1.258125 13.3977857,0.824375 C12.3615,0.085625 11.8594286,0 11.5714286,0 L1.60714286,0 C0.721285714,0 0,0.700625 0,1.5625 L0,18.4375 C0,19.29875 0.721285714,20 1.60714286,20 L16.3928571,20 C17.2787143,20 18,19.29875 18,18.4375 L18,6.25 C18,5.97 17.9119286,5.48125 17.1520714,4.474375 L17.1520714,4.474375 Z M14.4919286,3.410625 C15.1084286,4.01 15.5925,4.55125 15.9499286,5 L12.8571429,5 L12.8571429,1.993125 C13.3187143,2.340625 13.8754286,2.81125 14.4919286,3.410625 L14.4919286,3.410625 Z M16.7142857,18.4375 C16.7142857,18.606875 16.5670714,18.75 16.3928571,18.75 L1.60714286,18.75 C1.43292857,18.75 1.28571429,18.606875 1.28571429,18.4375 L1.28571429,1.5625 C1.28571429,1.393125 1.43292857,1.25 1.60714286,1.25 L11.5714286,1.25 L11.5714286,5.625 C11.5714286,5.97 11.8594286,6.25 12.2142857,6.25 L16.7142857,6.25 L16.7142857,18.4375 L16.7142857,18.4375 Z" id="Shape"></path>
            </g>
            <path d="M6.95089286,9.38964844 C6.95089286,9.69563955 6.92243332,9.96948121 6.86551339,10.2111816 C6.80859347,10.4528821 6.71986667,10.6510409 6.59933036,10.8056641 C6.47544581,10.9635425 6.31640722,11.0827633 6.12220982,11.1633301 C5.92801242,11.2438969 5.68861749,11.2841797 5.40401786,11.2841797 C5.12444057,11.2841797 4.88588268,11.24349 4.68833705,11.1621094 C4.49079142,11.0807288 4.33091579,10.9602873 4.20870536,10.8007812 C4.08482081,10.6412752 3.99525697,10.4431164 3.94001116,10.2062988 C3.88476535,9.96948124 3.85714286,9.69808096 3.85714286,9.39208984 C3.85714286,9.07633306 3.88560239,8.8020845 3.94252232,8.56933594 C3.99944225,8.33658738 4.08984313,8.13964924 4.21372768,7.97851562 C4.33761223,7.81900962 4.49832491,7.69938191 4.69587054,7.61962891 C4.89341617,7.5398759 5.12946291,7.5 5.40401786,7.5 C5.69029161,7.5 5.93052358,7.54109659 6.12472098,7.62329102 C6.31891838,7.70548544 6.47795697,7.82796143 6.60184152,7.99072266 C6.72405195,8.15022866 6.81277874,8.3467599 6.86802455,8.58032227 C6.92327037,8.81388463 6.95089286,9.08365732 6.95089286,9.38964844 L6.95089286,9.38964844 Z M5.97907366,9.38964844 C5.97907366,8.95019312 5.93471027,8.63728934 5.84598214,8.45092773 C5.75725402,8.26456613 5.60993407,8.17138672 5.40401786,8.17138672 C5.19810165,8.17138672 5.05078169,8.26456613 4.96205357,8.45092773 C4.87332545,8.63728934 4.82896205,8.9518207 4.82896205,9.39453125 C4.82896205,9.82584851 4.87416249,10.1367178 4.96456473,10.3271484 C5.05496697,10.5175791 5.20144988,10.612793 5.40401786,10.612793 C5.60658583,10.612793 5.75306874,10.5175791 5.84347098,10.3271484 C5.93387322,10.1367178 5.97907366,9.82422092 5.97907366,9.38964844 L5.97907366,9.38964844 Z M10.3962054,11.2084961 L7.90011161,11.2084961 L7.90011161,10.5737305 L8.68861607,10.5737305 L8.68861607,8.65234375 L7.90011161,8.65234375 L7.90011161,8.05908203 C8.02064792,8.05908203 8.13616016,8.05216478 8.24665179,8.03833008 C8.35714341,8.02449537 8.44921838,8.00048845 8.52287946,7.96630859 C8.60993347,7.92561829 8.675223,7.87272168 8.71875,7.80761719 C8.762277,7.7425127 8.78738836,7.6611333 8.79408482,7.56347656 L9.62527902,7.56347656 L9.62527902,10.5737305 L10.3962054,10.5737305 L10.3962054,11.2084961 Z M14.2633929,9.38964844 C14.2633929,9.69563955 14.2349333,9.96948121 14.1780134,10.2111816 C14.1210935,10.4528821 14.0323667,10.6510409 13.9118304,10.8056641 C13.7879458,10.9635425 13.6289072,11.0827633 13.4347098,11.1633301 C13.2405124,11.2438969 13.0011175,11.2841797 12.7165179,11.2841797 C12.4369406,11.2841797 12.1983827,11.24349 12.0008371,11.1621094 C11.8032914,11.0807288 11.6434158,10.9602873 11.5212054,10.8007812 C11.3973208,10.6412752 11.307757,10.4431164 11.2525112,10.2062988 C11.1972653,9.96948124 11.1696429,9.69808096 11.1696429,9.39208984 C11.1696429,9.07633306 11.1981024,8.8020845 11.2550223,8.56933594 C11.3119422,8.33658738 11.4023431,8.13964924 11.5262277,7.97851562 C11.6501122,7.81900962 11.8108249,7.69938191 12.0083705,7.61962891 C12.2059162,7.5398759 12.4419629,7.5 12.7165179,7.5 C13.0027916,7.5 13.2430236,7.54109659 13.437221,7.62329102 C13.6314184,7.70548544 13.790457,7.82796143 13.9143415,7.99072266 C14.036552,8.15022866 14.1252787,8.3467599 14.1805246,8.58032227 C14.2357704,8.81388463 14.2633929,9.08365732 14.2633929,9.38964844 L14.2633929,9.38964844 Z M13.2915737,9.38964844 C13.2915737,8.95019312 13.2472103,8.63728934 13.1584821,8.45092773 C13.069754,8.26456613 12.9224341,8.17138672 12.7165179,8.17138672 C12.5106016,8.17138672 12.3632817,8.26456613 12.2745536,8.45092773 C12.1858254,8.63728934 12.1414621,8.9518207 12.1414621,9.39453125 C12.1414621,9.82584851 12.1866625,10.1367178 12.2770647,10.3271484 C12.367467,10.5175791 12.5139499,10.612793 12.7165179,10.612793 C12.9190858,10.612793 13.0655687,10.5175791 13.155971,10.3271484 C13.2463732,10.1367178 13.2915737,9.82422092 13.2915737,9.38964844 L13.2915737,9.38964844 Z M6.73995536,16.4584961 L4.24386161,16.4584961 L4.24386161,15.8237305 L5.03236607,15.8237305 L5.03236607,13.9023438 L4.24386161,13.9023438 L4.24386161,13.309082 C4.36439792,13.309082 4.47991016,13.3021648 4.59040179,13.2883301 C4.70089341,13.2744954 4.79296838,13.2504885 4.86662946,13.2163086 C4.95368347,13.1756183 5.018973,13.1227217 5.0625,13.0576172 C5.106027,12.9925127 5.13113836,12.9111333 5.13783482,12.8134766 L5.96902902,12.8134766 L5.96902902,15.8237305 L6.73995536,15.8237305 L6.73995536,16.4584961 Z M10.3962054,16.4584961 L7.90011161,16.4584961 L7.90011161,15.8237305 L8.68861607,15.8237305 L8.68861607,13.9023438 L7.90011161,13.9023438 L7.90011161,13.309082 C8.02064792,13.309082 8.13616016,13.3021648 8.24665179,13.2883301 C8.35714341,13.2744954 8.44921838,13.2504885 8.52287946,13.2163086 C8.60993347,13.1756183 8.675223,13.1227217 8.71875,13.0576172 C8.762277,12.9925127 8.78738836,12.9111333 8.79408482,12.8134766 L9.62527902,12.8134766 L9.62527902,15.8237305 L10.3962054,15.8237305 L10.3962054,16.4584961 Z M14.2633929,14.6396484 C14.2633929,14.9456396 14.2349333,15.2194812 14.1780134,15.4611816 C14.1210935,15.7028821 14.0323667,15.9010409 13.9118304,16.0556641 C13.7879458,16.2135425 13.6289072,16.3327633 13.4347098,16.4133301 C13.2405124,16.4938969 13.0011175,16.5341797 12.7165179,16.5341797 C12.4369406,16.5341797 12.1983827,16.49349 12.0008371,16.4121094 C11.8032914,16.3307288 11.6434158,16.2102873 11.5212054,16.0507812 C11.3973208,15.8912752 11.307757,15.6931164 11.2525112,15.4562988 C11.1972653,15.2194812 11.1696429,14.948081 11.1696429,14.6420898 C11.1696429,14.3263331 11.1981024,14.0520845 11.2550223,13.8193359 C11.3119422,13.5865874 11.4023431,13.3896492 11.5262277,13.2285156 C11.6501122,13.0690096 11.8108249,12.9493819 12.0083705,12.8696289 C12.2059162,12.7898759 12.4419629,12.75 12.7165179,12.75 C13.0027916,12.75 13.2430236,12.7910966 13.437221,12.873291 C13.6314184,12.9554854 13.790457,13.0779614 13.9143415,13.2407227 C14.036552,13.4002287 14.1252787,13.5967599 14.1805246,13.8303223 C14.2357704,14.0638846 14.2633929,14.3336573 14.2633929,14.6396484 L14.2633929,14.6396484 Z M13.2915737,14.6396484 C13.2915737,14.2001931 13.2472103,13.8872893 13.1584821,13.7009277 C13.069754,13.5145661 12.9224341,13.4213867 12.7165179,13.4213867 C12.5106016,13.4213867 12.3632817,13.5145661 12.2745536,13.7009277 C12.1858254,13.8872893 12.1414621,14.2018207 12.1414621,14.6445312 C12.1414621,15.0758485 12.1866625,15.3867178 12.2770647,15.5771484 C12.367467,15.7675791 12.5139499,15.862793 12.7165179,15.862793 C12.9190858,15.862793 13.0655687,15.7675791 13.155971,15.5771484 C13.2463732,15.3867178 13.2915737,15.0742209 13.2915737,14.6396484 L13.2915737,14.6396484 Z" id="010"></path>
        </g>
    </g>
</svg>