<?xml version="1.0" encoding="UTF-8"?>
<svg width="20px" height="16px" viewBox="0 0 20 16" version="1.1" xmlns="http://www.w3.org/2000/svg" xmlns:xlink="http://www.w3.org/1999/xlink">
    <!-- Generator: Sketch 49.2 (51160) - http://www.bohemiancoding.com/sketch -->
    <title>file-move</title>
    <desc>Created with Sketch.</desc>
    <defs></defs>
    <g id="file-move" stroke="none" stroke-width="1" fill="none" fill-rule="evenodd">
        <path d="M8.75,0 L11.25,2.46153846 L20,2.46153846 L20,16 L0,16 L0,0 L8.75,0 Z M13.6243972,9.04568279 C13.6243972,8.87102466 13.5647175,8.72808558 13.445358,8.61686556 L10.2945159,5.51449794 C10.1718524,5.39372154 10.0250278,5.33333333 9.85404231,5.33333333 C9.68636085,5.33333333 9.54118835,5.39372154 9.41852481,5.51449794 L9.05549031,5.87194729 C8.93282678,5.98621723 8.87149501,6.1291563 8.87149501,6.30076453 C8.87149501,6.47237275 8.93282678,6.61531183 9.05549031,6.72958176 L10.4735551,8.13071004 L7.0662347,8.13071004 C6.89855324,8.13071004 6.76226042,8.19028493 6.65735625,8.30943471 C6.55245208,8.4285845 6.5,8.57233688 6.5,8.74069187 L6.5,9.35067371 C6.5,9.51902869 6.55245208,9.66278108 6.65735625,9.78193087 C6.76226042,9.90108065 6.89855324,9.96065554 7.0662347,9.96065554 L10.4735551,9.96065554 L9.05549031,11.356904 C8.93282678,11.4776804 8.87149501,11.6222461 8.87149501,11.7906011 C8.87149501,11.958956 8.93282678,12.1035217 9.05549031,12.2242981 L9.41852481,12.5817475 C9.54428591,12.6992707 9.68945841,12.7580322 9.85404231,12.7580322 C10.0219303,12.7580322 10.1687548,12.6992707 10.2945159,12.5817475 L13.445358,9.47937988 C13.5647175,9.36185671 13.6243972,9.21729101 13.6243972,9.04568279 Z" id="Shape-Copy-3" fill="#000000"></path>
    </g>
</svg>