<?xml version="1.0" encoding="UTF-8"?>
<svg width="20px" height="20px" viewBox="0 0 20 20" version="1.1" xmlns="http://www.w3.org/2000/svg" xmlns:xlink="http://www.w3.org/1999/xlink">
    <!-- Generator: Sketch 49.2 (51160) - http://www.bohemiancoding.com/sketch -->
    <title>filter-delete</title>
    <desc>Created with Sketch.</desc>
    <defs></defs>
    <g id="filter-delete" stroke="none" stroke-width="1" fill="none" fill-rule="evenodd">
        <path d="M15.3819917,6.23808593 C14.7805999,6.08267631 14.149955,6 13.5,6 C9.35786438,6 6,9.35786438 6,13.5 C6,16.2210699 7.44908523,18.6036879 9.61765361,19.9182518 C9.20677575,19.9769605 8.80159387,20.0055579 8.5,20.0055579 C7.5625,20.0055579 5.6240625,19.7292303 5.625,19.1311035 L5.625,9.61987254 C5.625,9.61987254 0,5.17589542 0,4.37314631 L0,2.62423757 C0,1.32217501 3.89875,1.83186799e-14 8.5,1.83186799e-14 C13.10125,1.63770012e-14 17,1.32217501 17,2.62423757 L17,4.37314631 C17,4.65756614 16.2938734,5.3990825 15.3819917,6.23808593 Z M8.7543761,4.20050496 C12.1209386,4.19963051 15.5087511,3.03485728 15.5087511,2.59850455 C15.5106261,2.16652409 12.1200011,0.998253053 8.7543761,1.00000196 C5.3887511,0.998253053 1.9981261,2.16652409 2.0000011,2.59937901 C2.0000011,3.03485728 5.3878136,4.19963051 8.7543761,4.20050496 Z" id="Shape" fill="#000000" fill-rule="nonzero"></path>
        <circle id="Path" stroke="#000000" stroke-width="1.5" cx="13.5" cy="13.5" r="5.75"></circle>
        <polygon id="Path" fill="#000000" points="17 14.2777778 14.2777778 14.2777778 12.7222222 14.2777778 10 14.2777778 10 12.7222222 12.7222222 12.7222222 14.2777778 12.7222222 17 12.7222222"></polygon>
    </g>
</svg>