<?xml version="1.0" encoding="UTF-8"?>
<svg width="20px" height="20px" viewBox="0 0 20 20" version="1.1" xmlns="http://www.w3.org/2000/svg" xmlns:xlink="http://www.w3.org/1999/xlink">
    <!-- Generator: Sketch 49.2 (51160) - http://www.bohemiancoding.com/sketch -->
    <title>filter-edit</title>
    <desc>Created with Sketch.</desc>
    <defs></defs>
    <g id="filter-edit" stroke="none" stroke-width="1" fill="none" fill-rule="evenodd">
        <path d="M15.3819917,6.23808593 C14.7805999,6.08267631 14.149955,6 13.5,6 C9.35786438,6 6,9.35786438 6,13.5 C6,16.2210699 7.44908523,18.6036879 9.61765361,19.9182518 C9.20677575,19.9769605 8.80159387,20.0055579 8.5,20.0055579 C7.5625,20.0055579 5.6240625,19.7292303 5.625,19.1311035 L5.625,9.61987254 C5.625,9.61987254 0,5.17589542 0,4.37314631 L0,2.62423757 C0,1.32217501 3.89875,1.83186799e-14 8.5,1.83186799e-14 C13.10125,1.63770012e-14 17,1.32217501 17,2.62423757 L17,4.37314631 C17,4.65756614 16.2938734,5.3990825 15.3819917,6.23808593 Z M8.7543761,4.20050496 C12.1209386,4.19963051 15.5087511,3.03485728 15.5087511,2.59850455 C15.5106261,2.16652409 12.1200011,0.998253053 8.7543761,1.00000196 C5.3887511,0.998253053 1.9981261,2.16652409 2.0000011,2.59937901 C2.0000011,3.03485728 5.3878136,4.19963051 8.7543761,4.20050496 Z" id="Shape" fill="#000000" fill-rule="nonzero"></path>
        <circle id="Path" stroke="#000000" stroke-width="1.5" cx="13.5" cy="13.5" r="5.75"></circle>
        <path d="M15.810406,10.1306362 C14.9924347,9.51301858 14.4102671,9.52645478 14.1891471,9.56362829 C14.1269571,9.57392938 14.0747002,9.61110288 14.0379909,9.66350408 L11.0653951,13.9169589 C10.9457657,14.0880466 10.8766657,14.2913811 10.8658688,14.5023296 L10.7380338,17.0211702 C10.7289644,17.202559 10.9030101,17.333786 11.0662588,17.2688443 L13.336194,16.3686185 C13.5275146,16.29248 13.6937865,16.1603573 13.8138477,15.9883739 L16.7851479,11.7362627 C16.8235848,11.6811743 16.8391323,11.6139933 16.8283354,11.5468122 C16.7920579,11.3112308 16.6180122,10.7397441 15.810406,10.1306362 Z M13.343104,15.8652087 L12.4607833,16.2185809 C12.4262333,16.232465 12.3877964,16.2212681 12.3653389,16.1908127 C12.2517558,16.0407751 12.1165789,15.8920811 11.9010733,15.729503 C11.6855676,15.5673728 11.5076351,15.4795896 11.335317,15.4133043 C11.300767,15.3998681 11.2787413,15.3658297 11.2809007,15.3273126 L11.3335895,14.3482611 L11.5706889,14.0101166 C11.5706889,14.0101166 12.1014633,13.934426 12.7941908,14.4570943 C13.4860546,14.9793149 13.5806352,15.5266163 13.5806352,15.5266163 L13.343104,15.8652087 Z" id="Shape" fill="#000000" fill-rule="nonzero" transform="translate(13.784689, 13.417337) rotate(12.000000) translate(-13.784689, -13.417337) "></path>
    </g>
</svg>