<?xml version="1.0" encoding="UTF-8"?>
<svg width="20px" height="14px" viewBox="0 0 20 14" version="1.1" xmlns="http://www.w3.org/2000/svg" xmlns:xlink="http://www.w3.org/1999/xlink">
    <!-- Generator: Sketch 49.2 (51160) - http://www.bohemiancoding.com/sketch -->
    <title>first</title>
    <desc>Created with Sketch.</desc>
    <defs></defs>
    <g id="first" stroke="none" stroke-width="1" fill="none" fill-rule="evenodd">
        <path d="M10.6319145,7.59917266 L18.8174261,13.7834743 C19.4674667,14.2619306 20,13.9107233 20,13.0021654 L20,0.993676806 C20,0.0876638898 19.4674667,-0.263543364 18.8174261,0.212367915 L10.6319145,6.39921454 C10.6319145,6.39921454 10.3143946,6.6473501 10.3143946,6.99601238 C10.3143946,7.34467465 10.6319145,7.59662768 10.6319145,7.59662768 L10.6319145,7.59917266 Z M1.38786552e-16,6.99855736 C1.38786552e-16,6.64989508 0.317519845,6.40175952 0.317519845,6.40175952 L8.50303144,0.214912895 C9.15307207,-0.260998384 9.68560535,0.0902088699 9.68560535,0.996221787 L9.68560535,13.0047104 C9.68560535,13.9132683 9.15307207,14.2644756 8.50303144,13.7860193 L0.318769923,7.60171764 C0.318769923,7.60171764 0,7.3510371 0,7.00110234 L1.38786552e-16,6.99855736 Z" id="Shape" fill="#000000" fill-rule="nonzero"></path>
    </g>
</svg>