<?xml version="1.0" encoding="UTF-8"?>
<svg width="14px" height="20px" viewBox="0 0 14 20" version="1.1" xmlns="http://www.w3.org/2000/svg" xmlns:xlink="http://www.w3.org/1999/xlink">
    <!-- Generator: Sketch 49.2 (51160) - http://www.bohemiancoding.com/sketch -->
    <title>flow-cascade</title>
    <desc>Created with Sketch.</desc>
    <defs></defs>
    <g id="flow-cascade" stroke="none" stroke-width="1" fill="none" fill-rule="evenodd">
        <path d="M11.375,14.893617 C10.3167969,14.893617 9.41035156,15.5066489 8.99472656,16.3829787 L5.359375,16.3829787 C4.45429688,16.3829787 3.71875,15.6675532 3.71875,14.787234 L3.71875,10.6914894 C4.21777344,10.9228723 4.77011719,11.0638298 5.359375,11.0638298 L8.99472656,11.0638298 C9.41035156,11.9401596 10.3154297,12.5531915 11.375,12.5531915 C12.8255859,12.5531915 14,11.4095745 14,10 C14,8.59042553 12.8255859,7.44680851 11.375,7.44680851 C10.3167969,7.44680851 9.41035156,8.05984043 8.99472656,8.93617021 L5.359375,8.93617021 C4.45429688,8.93617021 3.71875,8.22074468 3.71875,7.34042553 L3.71875,4.86835106 C4.62109375,4.46409574 5.25,3.58244681 5.25,2.55319149 C5.25,1.14228723 4.07558594,0 2.625,0 C1.17441406,0 0,1.14228723 0,2.55319149 C0,3.58244681 0.630273437,4.46409574 1.53125,4.86835106 L1.53125,14.787234 C1.53125,16.8430851 3.24570312,18.5106383 5.359375,18.5106383 L8.99472656,18.5106383 C9.41035156,19.3869681 10.3154297,20 11.375,20 C12.8255859,20 14,18.856383 14,17.4468085 C14,16.037234 12.8255859,14.893617 11.375,14.893617 Z M11.375,8.52659574 C12.2103516,8.52659574 12.8884766,9.18484043 12.8884766,10 C12.8884766,10.8125 12.2103516,11.4734043 11.375,11.4734043 C10.5369141,11.4734043 9.86015625,10.8125 9.86015625,10 C9.86152344,9.18484043 10.5382812,8.52659574 11.375,8.52659574 Z M2.625,1.07978723 C3.46035156,1.07978723 4.13847656,1.73803191 4.13847656,2.55319149 C4.13847656,3.36569149 3.46035156,4.02659574 2.625,4.02659574 C1.78964844,4.02659574 1.11152344,3.36569149 1.11152344,2.55319149 C1.11152344,1.73803191 1.78828125,1.07978723 2.625,1.07978723 Z M11.375,18.9202128 C10.5369141,18.9202128 9.86015625,18.2593085 9.86015625,17.4468085 C9.86015625,16.6316489 10.5369141,15.9734043 11.375,15.9734043 C12.2103516,15.9734043 12.8884766,16.6316489 12.8884766,17.4468085 C12.8884766,18.2593085 12.2103516,18.9202128 11.375,18.9202128 Z" id="Shape" fill="#000000" fill-rule="nonzero"></path>
    </g>
</svg>