<?xml version="1.0" encoding="UTF-8"?>
<svg width="20px" height="14px" viewBox="0 0 20 14" version="1.1" xmlns="http://www.w3.org/2000/svg" xmlns:xlink="http://www.w3.org/1999/xlink">
    <!-- Generator: Sketch 49.2 (51160) - http://www.bohemiancoding.com/sketch -->
    <title>last</title>
    <desc>Created with Sketch.</desc>
    <defs></defs>
    <g id="last" stroke="none" stroke-width="1" fill="none" fill-rule="evenodd">
        <path d="M9.36808551,6.40082734 L1.18257391,0.216525687 C0.532533283,-0.261930573 0,0.0892766817 0,0.997834578 L0,13.0063232 C0,13.9123361 0.532533283,14.2635434 1.18257391,13.7876321 L9.36808551,7.60078546 C9.36808551,7.60078546 9.68560535,7.3526499 9.68560535,7.00398762 C9.68560535,6.65532535 9.36808551,6.40337232 9.36808551,6.40337232 L9.36808551,6.40082734 Z M20,7.00144264 C20,7.35010492 19.6824802,7.59824048 19.6824802,7.59824048 L11.4969686,13.7850871 C10.8469279,14.2609984 10.3143946,13.9097911 10.3143946,13.0037782 L10.3143946,0.995289598 C10.3143946,0.0867317016 10.8469279,-0.264475553 11.4969686,0.213980707 L19.6812301,6.39828236 C19.6812301,6.39828236 20,6.6489629 20,6.99889766 L20,7.00144264 Z" id="Shape" fill="#000000" fill-rule="nonzero"></path>
    </g>
</svg>