<svg width="16" height="16" viewBox="0 0 16 16" fill="none" xmlns="http://www.w3.org/2000/svg">
<g clip-path="url(#clip0_4073_70143)">
<path fill-rule="evenodd" clip-rule="evenodd" d="M11.3291 0.87783C10.324 0.869097 9.35573 1.25547 8.63276 1.95375L7.48092 3.09881C7.28509 3.2935 7.28417 3.61008 7.47886 3.80591C7.67355 4.00174 7.99014 4.00267 8.18597 3.80797L9.32997 2.67062C9.86407 2.15603 10.5787 1.87135 11.3204 1.87779C12.0633 1.88425 12.774 2.18223 13.2993 2.70755C13.8246 3.23287 14.1226 3.94351 14.129 4.6864C14.1355 5.42791 13.851 6.14233 13.3367 6.67638L11.3398 8.67324C11.0526 8.96058 10.7069 9.18278 10.3263 9.32478C9.94559 9.46678 9.53884 9.52525 9.1336 9.49622C8.72835 9.4672 8.33408 9.35136 7.97754 9.15657C7.621 8.96177 7.31052 8.69257 7.06716 8.36724C6.90176 8.14611 6.58841 8.10094 6.36729 8.26634C6.14616 8.43175 6.10099 8.74509 6.2664 8.96621C6.59564 9.40638 7.0157 9.77059 7.49808 10.0341C7.98047 10.2977 8.51388 10.4544 9.06216 10.4937C9.61044 10.5329 10.1607 10.4538 10.6758 10.2617C11.1907 10.0696 11.6585 9.76894 12.0471 9.38021L14.0471 7.38033L14.0531 7.37408C14.7514 6.65111 15.1377 5.6828 15.129 4.67771C15.1203 3.67262 14.7171 2.71117 14.0064 2.00044C13.2957 1.28971 12.3342 0.886564 11.3291 0.87783ZM6.93784 5.50638C6.38956 5.46711 5.83925 5.54622 5.32424 5.73833C4.80925 5.93044 4.34154 6.23111 3.95294 6.61983L1.95295 8.61971L1.94691 8.62597C1.24864 9.34894 0.862261 10.3172 0.870995 11.3223C0.879728 12.3274 1.28288 13.2889 1.99361 13.9996C2.70434 14.7103 3.66579 15.1135 4.67087 15.1222C5.67596 15.1309 6.64432 14.7446 7.3673 14.0464L8.51344 12.9002C8.7087 12.7049 8.7087 12.3884 8.51344 12.1931C8.31818 11.9978 8.0016 11.9978 7.80633 12.1931L6.66953 13.3299C6.13548 13.8442 5.42106 14.1287 4.67956 14.1223C3.93667 14.1158 3.22604 13.8178 2.70071 13.2925C2.17539 12.7672 1.87741 12.0565 1.87096 11.3136C1.86451 10.5721 2.14902 9.85773 2.66331 9.32368L4.66017 7.32681C4.94741 7.03947 5.29308 6.81727 5.67374 6.67527C6.05441 6.53327 6.46116 6.4748 6.8664 6.50382C7.27165 6.53284 7.66592 6.64868 8.02246 6.84348C8.379 7.03827 8.68948 7.30747 8.93284 7.63281C9.09824 7.85394 9.41159 7.89911 9.63271 7.7337C9.85384 7.5683 9.89901 7.25496 9.7336 7.03383C9.40436 6.59367 8.9843 6.22946 8.50192 5.96591C8.01953 5.70236 7.48611 5.54564 6.93784 5.50638Z" fill="black"/>
</g>
<defs>
<clipPath id="clip0_4073_70143">
<rect width="16" height="16" fill="white"/>
</clipPath>
</defs>
</svg>
