<?xml version="1.0" encoding="UTF-8"?>
<svg width="20px" height="20px" viewBox="0 0 20 20" version="1.1" xmlns="http://www.w3.org/2000/svg" xmlns:xlink="http://www.w3.org/1999/xlink">
    <!-- Generator: Sketch 49.2 (51160) - http://www.bohemiancoding.com/sketch -->
    <title>link</title>
    <desc>Created with Sketch.</desc>
    <defs></defs>
    <g id="link" stroke="none" stroke-width="1" fill="none" fill-rule="evenodd">
        <g fill="#000000" fill-rule="nonzero" id="Shape">
            <path d="M7.32375,15.8659218 L6.31125,16.8721718 C5.435,17.7409218 4.0075,17.7409218 3.13,16.8721718 C2.71,16.4546718 2.47875,15.8984218 2.47875,15.3071718 C2.47875,14.7159218 2.71125,14.1621718 3.13,13.7421718 L6.855,10.0484218 C7.62625,9.28217183 9.07875,8.15467183 10.1375,9.20467183 C10.62375,9.68717183 11.4075,9.68467183 11.89125,9.19842183 C12.3725,8.71217183 12.37,7.92717183 11.88375,7.44592183 C10.08625,5.66092183 7.42625,5.99092183 5.11,8.28967183 L1.385,11.9846718 C0.49125,12.8709218 0,14.0521718 0,15.3071718 C0,16.5646718 0.4925,17.7434218 1.385,18.6296718 C2.305,19.5421718 3.5125,19.9996718 4.72125,19.9996718 C5.93,19.9996718 7.13875,19.5434218 8.0575,18.6296718 L9.07125,17.6234218 C9.5575,17.1421718 9.56,16.3584218 9.0775,15.8734218 C8.595,15.3884218 7.81,15.3859218 7.32375,15.8659218 Z M18.61375,1.51092183 C16.68,-0.406578175 13.9775,-0.510328175 12.19,1.26467183 L10.92875,2.51717183 C10.4425,2.99967183 10.43875,3.78342183 10.92125,4.26842183 C11.40375,4.75467183 12.1875,4.75717183 12.67375,4.27467183 L13.93625,3.02342183 C14.86125,2.10342183 16.075,2.48467183 16.86875,3.26967183 C17.28875,3.68842183 17.52125,4.24342183 17.52125,4.83467183 C17.52125,5.42592183 17.28875,5.98092183 16.86875,6.39842183 L12.89375,10.3409218 C11.07625,12.1421718 10.22375,11.2984218 9.86,10.9371718 C9.37375,10.4546718 8.59,10.4584218 8.10875,10.9434218 C7.6275,11.4284218 7.62875,12.2146718 8.115,12.6946718 C8.95,13.5221718 9.9025,13.9321718 10.9,13.9321718 C12.12125,13.9321718 13.4125,13.3171718 14.64125,12.0984218 L18.61625,8.15717183 C19.50625,7.26967183 20,6.08967183 20,4.83467183 C20,3.57967183 19.50625,2.39842183 18.61375,1.51092183 Z"></path>
        </g>
    </g>
</svg>