<?xml version="1.0" encoding="UTF-8"?>
<svg width="16px" height="20px" viewBox="0 0 16 20" version="1.1" xmlns="http://www.w3.org/2000/svg" xmlns:xlink="http://www.w3.org/1999/xlink">
    <!-- Generator: Sketch 49.2 (51160) - http://www.bohemiancoding.com/sketch -->
    <title>lock</title>
    <desc>Created with Sketch.</desc>
    <defs></defs>
    <g id="lock" stroke="none" stroke-width="1" fill="none" fill-rule="evenodd">
        <g fill="#000000" fill-rule="nonzero" id="Shape">
            <path d="M14.6285714,7.77777778 L12.5714286,7.77777778 L12.5714286,5.11111111 C12.5714286,1.89222222 11.0457143,0 8,0 C4.95428571,0 3.42857143,1.89222222 3.42857143,5.11111111 L3.42857143,7.77777778 L1.14285714,7.77777778 C0.510857143,7.77777778 0,8.49555556 0,9.11 L0,17.7777778 C0,18.3877778 0.489142857,19.0433333 1.08685714,19.23 L2.45485714,19.66 C3.05371429,19.8455556 4.05714286,20 4.68571429,20 L11.3142857,20 C11.9417143,20 12.9462857,19.8455556 13.544,19.6588889 L14.9108571,19.2288889 C15.5097143,19.0433333 16,18.3877778 16,17.7777778 L16,9.11 C16,8.49555556 15.2594286,7.77777778 14.6285714,7.77777778 Z M10.2857143,7.77777778 L5.71428571,7.77777778 L5.71428571,4.66555556 C5.71428571,3.06 6.62514286,2.22222222 8,2.22222222 C9.37485714,2.22222222 10.2857143,3.06 10.2857143,4.66555556 L10.2857143,7.77777778 Z"></path>
        </g>
    </g>
</svg>