<?xml version="1.0" encoding="UTF-8"?>
<svg width="20px" height="20px" viewBox="0 0 20 20" version="1.1" xmlns="http://www.w3.org/2000/svg" xmlns:xlink="http://www.w3.org/1999/xlink">
    <!-- Generator: Sketch 49.2 (51160) - http://www.bohemiancoding.com/sketch -->
    <title>mass-edit</title>
    <desc>Created with Sketch.</desc>
    <defs></defs>
    <g id="mass-edit" stroke="none" stroke-width="1" fill="none" fill-rule="evenodd">
        <path d="M10.8,0 L1.2,0 C0.5364,0 0,0.478928571 0,1.07142857 L0,13.9285714 C0,14.52 0.5364,15 1.2,15 L7.2,15 L7.2012,12.8571429 L2.4,12.8571429 L2.4,2.14285714 L9.6,2.14285714 L9.6,5.41062575 L12,5.41062575 L12,1.07142857 C12,0.48 11.4636,0 10.8,0 Z" id="Shape-Copy" fill="#000000" fill-rule="nonzero"></path>
        <path d="M17,10.8369316 L16.1765947,9.85742809 C15.7977894,9.40658751 15.2970951,9.07129553 14.7346866,8.88931743 L14.6,8.84580093 L14.6,7.14285714 L7.4,7.14285714 L7.4,17.8571429 L12.375485,17.8571429 L14.1770529,20 L6.2,20 C5.5364,20 5,19.52 5,18.9285714 L5,6.07142857 C5,5.47892857 5.5364,5 6.2,5 L15.8,5 C16.4636,5 17,5.48 17,6.07142857 L17,10.8369316 Z" id="Combined-Shape" fill="#000000" fill-rule="nonzero"></path>
        <path d="M17.68157,10.0418493 C16.4787852,9.13367438 15.6227378,9.15343163 15.2975921,9.20809336 C15.2061449,9.22324058 15.1293039,9.27790231 15.0753246,9.35495559 L10.7042751,15.6094425 C10.5283663,15.8610181 10.4267583,16.1600112 10.410882,16.4702 L10.2229072,20.1740259 C10.2095712,20.4407488 10.4654963,20.6337113 10.7055452,20.5382179 L14.0433683,19.2144821 C14.3246955,19.1025244 14.5691897,18.9082447 14.7457336,18.6553519 L19.114878,12.4028407 C19.1713974,12.321836 19.1942592,12.2230498 19.178383,12.1242635 C19.1250388,11.7778531 18.8691136,10.9375113 17.68157,10.0418493 Z M14.0535291,18.4742438 L12.7561218,18.9938595 C12.7053178,19.0142753 12.6487984,18.9978109 12.6157758,18.9530278 C12.4487576,18.7324052 12.249987,18.5137583 11.933097,18.2746956 C11.616207,18.0362914 11.3545664,17.9072107 11.1011814,17.8097416 C11.0503774,17.7899844 11.0179899,17.7399327 11.0211651,17.6832952 L11.0986412,16.2436502 L11.4472837,15.7464261 C11.4472837,15.7464261 12.2277602,15.6351269 13.2463805,16.403684 C14.2637307,17.1715824 14.4028066,17.9763611 14.4028066,17.9763611 L14.0535291,18.4742438 Z" id="Shape" fill="#000000" fill-rule="nonzero" transform="translate(14.702857, 14.874774) rotate(-254.000000) translate(-14.702857, -14.874774) "></path>
    </g>
</svg>