<?xml version="1.0" encoding="UTF-8"?>
<svg width="16px" height="20px" viewBox="0 0 16 20" version="1.1" xmlns="http://www.w3.org/2000/svg" xmlns:xlink="http://www.w3.org/1999/xlink">
    <!-- Generator: Sketch 49.2 (51160) - http://www.bohemiancoding.com/sketch -->
    <title>merge</title>
    <desc>Created with Sketch.</desc>
    <defs></defs>
    <g id="merge" stroke="none" stroke-width="1" fill="none" fill-rule="evenodd">
        <g id="copy" fill="#000000" fill-rule="nonzero">
            <path d="M9,0 L1,0 C0.447,0 0,0.447 0,1 L0,13 C0,13.552 0.447,14 1,14 L6,14 L6,16 L8,16 L8,14 L6.001,14 L6.001,12 L8,12 L8,10 L6,10 L6,12 L2,12 L2,2 L8,2 L8,6 L10,6 L10,1 C10,0.448 9.553,0 9,0 Z M6,7 L6,8 L8,8 L8,6 L7,6 C6.447,6 6,6.447 6,7 Z M10,20 L12,20 L12,18 L10,18 L10,20 Z M10,8 L12,8 L12,6 L10,6 L10,8 Z M6,19 C6,19.552 6.447,20 7,20 L8,20 L8,18 L6,18 L6,19 Z M15,6 L14,6 L14,8 L16,8 L16,7 C16,6.448 15.553,6 15,6 Z M14,20 L15,20 C15.553,20 16,19.552 16,19 L16,18 L14,18 L14,20 Z M14,12 L16,12 L16,10 L14,10 L14,12 Z M14,16 L16,16 L16,14 L14,14 L14,16 Z" id="Shape"></path>
        </g>
    </g>
</svg>