<?xml version="1.0" encoding="UTF-8"?>
<svg width="20px" height="12px" viewBox="0 0 20 12" version="1.1" xmlns="http://www.w3.org/2000/svg" xmlns:xlink="http://www.w3.org/1999/xlink">
    <!-- Generator: Sketch 49.2 (51160) - http://www.bohemiancoding.com/sketch -->
    <title>message-absence-off</title>
    <desc>Created with Sketch.</desc>
    <defs></defs>
    <g id="message-absence-off" stroke="none" stroke-width="1" fill="none" fill-rule="evenodd">
        <path d="M11.2496579,5.99999885 C11.2496579,5.34966646 11.1176736,4.72943557 10.853705,4.13930617 C10.5897364,3.54917678 10.2331601,3.03815133 9.78397599,2.60622981 C9.33479188,2.1743083 8.80247955,1.83199125 8.18703899,1.57927866 C7.57159843,1.32656607 6.92553168,1.19985976 6.24883874,1.19915973 C5.57214581,1.19845969 4.92607906,1.325166 4.3106385,1.57927866 C3.69519794,1.83339132 3.1628856,2.17570837 2.7137015,2.60622981 C2.26451739,3.03675126 1.90794105,3.54777671 1.64397247,4.13930617 C1.38000389,4.73083564 1.2480196,5.35106653 1.2480196,5.99999885 C1.2480196,6.64893117 1.38000389,7.26916207 1.64397247,7.86069153 C1.90794105,8.45222099 2.26451739,8.96324645 2.7137015,9.39376789 C3.1628856,9.82428933 3.69519794,10.1666064 4.3106385,10.420719 C4.92607906,10.6748317 5.57214581,10.801538 6.24883874,10.800838 C6.92553168,10.8001379 7.57159843,10.6734316 8.18703899,10.420719 C8.80247955,10.1680065 9.33479188,9.8256894 9.78397599,9.39376789 C10.2331601,8.96184638 10.5897364,8.45082092 10.853705,7.86069153 C11.1176736,7.27056214 11.2496579,6.65033124 11.2496579,5.99999885 Z M18.7497928,5.99999885 C18.7497928,5.34966646 18.6178085,4.72943557 18.3538399,4.13930617 C18.0898714,3.54917678 17.733295,3.03815133 17.2841109,2.60622981 C16.8349268,2.1743083 16.3026145,1.83199125 15.6871739,1.57927866 C15.0717334,1.32656607 14.4256666,1.19985976 13.7489737,1.19915973 L9.97976484,1.19915973 C10.7548991,1.76198776 11.3685167,2.46202263 11.8206176,3.29926433 C12.2727184,4.13650603 12.4991335,5.03640086 12.4998627,5.9989488 C12.5005919,6.96149674 12.2741768,7.86139156 11.8206176,8.69863327 C11.3670583,9.53587497 10.7534407,10.2359098 9.97976484,10.7987379 L13.7489737,10.7987379 C14.4263958,10.7987379 15.0724626,10.6720316 15.6871739,10.4186189 C16.3018853,10.1652063 16.8341976,9.82288926 17.2841109,9.39166779 C17.7340242,8.96044631 18.0906006,8.44942085 18.3538399,7.85859142 C18.6170793,7.267762 18.7490636,6.6475311 18.7497928,5.99789875 L18.7497928,5.99999885 Z M19.9999976,5.99999885 C19.9999976,6.81273933 19.8341057,7.58942802 19.502322,8.33006491 C19.1705383,9.0707018 18.726094,9.70808355 18.168989,10.2422101 C17.6118841,10.7763368 16.947952,11.203008 16.1771929,11.5222239 C15.4064339,11.8414398 14.597392,12.0006977 13.7500675,11.9999977 L6.24993254,11.9999977 C5.40333717,11.9999977 4.59429534,11.8407398 3.82280706,11.5222239 C3.05131877,11.203708 2.38738675,10.7770368 1.83101098,10.2422101 C1.27463521,9.70738351 0.830190874,9.07000176 0.497677965,8.33006491 C0.165165056,7.59012805 -0.000726801557,6.81343937 2.39341896e-06,5.99999885 C0.000731588395,5.18655833 0.166623446,4.40986965 0.497677965,3.66993279 C0.828732484,2.92999594 1.27317682,2.29261419 1.83101098,1.75778755 C2.38884514,1.22296091 3.05277716,0.796289662 3.82280706,0.477773797 C4.59283695,0.159257932 5.40187878,-4.66316897e-16 6.24993254,0 L13.7500675,0 C14.5966628,0 15.4057047,0.159257932 16.1771929,0.477773797 C16.9486812,0.796289662 17.6126133,1.22296091 18.168989,1.75778755 C18.7253648,2.29261419 19.1698091,2.92999594 19.502322,3.66993279 C19.8348349,4.40986965 20.0007268,5.18655833 19.9999976,5.99999885 Z" id="Shape" fill="#000000" fill-rule="nonzero"></path>
    </g>
</svg>