<?xml version="1.0" encoding="UTF-8"?>
<svg width="20px" height="12px" viewBox="0 0 20 12" version="1.1" xmlns="http://www.w3.org/2000/svg" xmlns:xlink="http://www.w3.org/1999/xlink">
    <!-- Generator: Sketch 49.2 (51160) - http://www.bohemiancoding.com/sketch -->
    <title>message-absence-on</title>
    <desc>Created with Sketch.</desc>
    <defs></defs>
    <g id="message-absence-on" stroke="none" stroke-width="1" fill="none" fill-rule="evenodd">
        <path d="M2.39341896e-06,6.00000115 C2.39341896e-06,5.18726067 0.165894251,4.41057198 0.497677965,3.66993509 C0.829461679,2.9292982 1.27390602,2.29191645 1.83101098,1.75778985 C2.38811594,1.22366325 3.05204797,0.796991995 3.82280706,0.477776095 C4.59356615,0.158560195 5.40260797,-0.00069773716 6.24993254,2.29770744e-06 L13.7500675,2.29770744e-06 C14.5966628,2.29770744e-06 15.4057047,0.15926023 16.1771929,0.477776095 C16.9486812,0.79629196 17.6126133,1.22296321 18.168989,1.75778985 C18.7253648,2.29261649 19.1698091,2.92999824 19.502322,3.66993509 C19.8348349,4.40987195 20.0007268,5.18656063 19.9999976,6.00000115 C19.9992684,6.81344167 19.8333766,7.59013035 19.502322,8.33006721 C19.1712675,9.07000406 18.7268232,9.70738581 18.168989,10.2422124 C17.6111549,10.7770391 16.9472228,11.2037103 16.1771929,11.5222262 C15.407163,11.8407421 14.5981212,12 13.7500675,12 L6.24993254,12 C5.40333717,12 4.59429534,11.8407421 3.82280706,11.5222262 C3.05131877,11.2037103 2.38738675,10.7770391 1.83101098,10.2422124 C1.27463521,9.70738581 0.830190874,9.07000406 0.497677965,8.33006721 C0.165165056,7.59013035 -0.000726801557,6.81344167 2.39341896e-06,6.00000115 Z M13.7500675,10.7997902 C14.4274896,10.7997902 15.0735563,10.6730839 15.6882677,10.4196713 C16.3029791,10.1662587 16.8352914,9.82394161 17.2852047,9.39272014 C17.735118,8.96149866 18.0916944,8.4504732 18.3549337,7.85964377 C18.6181731,7.26881435 18.7501574,6.64858345 18.7508866,5.9989511 C18.7516158,5.34931874 18.6196315,4.72908785 18.3549337,4.13825842 C18.090236,3.54742899 17.7336596,3.03640354 17.2852047,2.60518206 C16.8367498,2.17396058 16.3044375,1.83164353 15.6882677,1.57823091 C15.072098,1.32481828 14.4260312,1.19811197 13.7500675,1.19811197 C13.0741037,1.19811197 12.428037,1.32481828 11.8118672,1.57823091 C11.1956975,1.83164353 10.6633851,2.17396058 10.2149302,2.60518206 C9.76647531,3.03640354 9.40989897,3.54742899 9.14520119,4.13825842 C8.88050341,4.72908785 8.74851912,5.34931874 8.74924832,5.9989511 C8.74997751,6.64858345 8.8819618,7.26881435 9.14520119,7.85964377 C9.40844058,8.4504732 9.76501692,8.96149866 10.2149302,9.39272014 C10.6648435,9.82394161 11.1971559,10.1662587 11.8118672,10.4196713 C12.4265786,10.6730839 13.0726453,10.7997902 13.7500675,10.7997902 Z" id="Shape" fill="#000000" fill-rule="nonzero"></path>
    </g>
</svg>