<?xml version="1.0" encoding="UTF-8"?>
<svg width="20px" height="19px" viewBox="0 0 20 19" version="1.1" xmlns="http://www.w3.org/2000/svg" xmlns:xlink="http://www.w3.org/1999/xlink">
    <!-- Generator: Sketch 49.2 (51160) - http://www.bohemiancoding.com/sketch -->
    <title>move-calendar</title>
    <desc>Created with Sketch.</desc>
    <defs></defs>
    <g id="move-calendar" stroke="none" stroke-width="1" fill="none" fill-rule="evenodd">
        <g id="Shape-+-Shape" fill="#000000">
            <path d="M8.57142857,7.125 L10.8571429,7.125 L10.8571429,9.5 L8.57142857,9.5 L8.57142857,7.125 Z M12,7.125 L14.2857143,7.125 L14.2857143,9.5 L12,9.5 L12,7.125 Z M15.4285714,7.125 L17.7142857,7.125 L17.7142857,9.5 L15.4285714,9.5 L15.4285714,7.125 Z M8.57142857,14.25 L10.8571429,14.25 L10.8571429,16.625 L8.57142857,16.625 L8.57142857,14.25 Z M12,14.25 L14.2857143,14.25 L14.2857143,16.625 L12,16.625 L12,14.25 Z M12,10.6875 L14.2857143,10.6875 L14.2857143,13.0625 L12,13.0625 L12,10.6875 Z M15.4285714,10.6875 L17.7142857,10.6875 L17.7142857,13.0625 L15.4285714,13.0625 L15.4285714,10.6875 Z M17.7142857,0 L17.7142857,1.1875 L15.4285714,1.1875 L15.4285714,0 L7.42857143,0 L7.42857143,1.1875 L5.14285714,1.1875 L5.14285714,0 L2.85714286,0 L2.85714286,19 L20,19 L20,0 L17.7142857,0 L17.7142857,0 Z M4,17.8125 L4,4.75 L18.8571429,4.75 L18.8571429,17.8125 L4,17.8125 Z" id="Shape"></path>
            <polygon id="Shape" points="5.4927593 7.30769231 5.4927593 9.51615385 0 9.51557692 0 13.8725 5.4927593 13.8725 5.4927593 16.0769231 11.4285714 11.6923077"></polygon>
        </g>
    </g>
</svg>