<?xml version="1.0" encoding="UTF-8"?>
<svg width="20px" height="14px" viewBox="0 0 20 14" version="1.1" xmlns="http://www.w3.org/2000/svg" xmlns:xlink="http://www.w3.org/1999/xlink">
    <!-- Generator: Sketch 49.2 (51160) - http://www.bohemiancoding.com/sketch -->
    <title>note</title>
    <desc>Created with Sketch.</desc>
    <defs></defs>
    <g id="note" stroke="none" stroke-width="1" fill="none" fill-rule="evenodd">
        <path d="M17.7777778,0 C16.5511111,0 15.5555556,0.963846154 15.5555556,2.15384615 C15.5555556,3.34384615 16.5511111,4.30769231 17.7777778,4.30769231 C19.0044444,4.30769231 20,3.34384615 20,2.15384615 C20,0.963846154 19.0044444,0 17.7777778,0 Z M12.7777778,1.07692308 L0.555555556,1.07692308 C0.248888889,1.07692308 0,1.31815385 0,1.61538462 L0,2.69230769 C0,2.98953846 0.248888889,3.23076923 0.555555556,3.23076923 L12.7777778,3.23076923 C13.0844444,3.23076923 13.3333333,2.98953846 13.3333333,2.69230769 L13.3333333,1.61538462 C13.3333333,1.31815385 13.0844444,1.07692308 12.7777778,1.07692308 Z M12.7777778,6.46153846 L0.555555556,6.46153846 C0.248888889,6.46153846 0,6.70276923 0,7 L0,8.07692308 C0,8.37415385 0.248888889,8.61538462 0.555555556,8.61538462 L12.7777778,8.61538462 C13.0844444,8.61538462 13.3333333,8.37415385 13.3333333,8.07692308 L13.3333333,7 C13.3333333,6.70276923 13.0844444,6.46153846 12.7777778,6.46153846 Z M12.7777778,11.8461538 L0.555555556,11.8461538 C0.248888889,11.8461538 0,12.0873846 0,12.3846154 L0,13.4615385 C0,13.7587692 0.248888889,14 0.555555556,14 L12.7777778,14 C13.0844444,14 13.3333333,13.7587692 13.3333333,13.4615385 L13.3333333,12.3846154 C13.3333333,12.0873846 13.0844444,11.8461538 12.7777778,11.8461538 Z" id="Shape" fill="#000000" fill-rule="nonzero"></path>
    </g>
</svg>