<?xml version="1.0" encoding="UTF-8"?>
<svg width="20px" height="20px" viewBox="0 0 20 20" version="1.1" xmlns="http://www.w3.org/2000/svg" xmlns:xlink="http://www.w3.org/1999/xlink">
    <!-- Generator: Sketch 49.2 (51160) - http://www.bohemiancoding.com/sketch -->
    <title>paperclip</title>
    <desc>Created with Sketch.</desc>
    <defs></defs>
    <g id="paperclip" stroke="none" stroke-width="1" fill="none" fill-rule="evenodd">
        <g id="attachment" fill="#000000" fill-rule="nonzero">
            <path d="M5.602,19.8 C4.309,19.8 3.098,19.245 2.224,18.36 C0.529,16.644 0.057,13.649 2.433,11.244 C3.824,9.836 9.399,4.191 12.181,1.374 C13.169,0.374 14.426,-0.013 15.629,0.314 C16.812,0.634 17.78,1.615 18.097,2.812 C18.419,4.032 18.038,5.305 17.051,6.305 L7.728,15.745 C7.196,16.284 6.594,16.603 5.99,16.667 C5.391,16.731 4.82,16.537 4.42,16.132 C3.696,15.396 3.592,14.015 4.798,12.795 L11.346,6.165 C11.615,5.893 12.051,5.893 12.32,6.165 C12.589,6.437 12.589,6.879 12.32,7.151 L5.771,13.782 C5.205,14.354 5.153,14.901 5.394,15.146 C5.5,15.252 5.66,15.301 5.845,15.28 C6.128,15.251 6.451,15.064 6.754,14.759 L16.077,5.32 C16.717,4.672 16.962,3.91 16.767,3.175 C16.575,2.45 15.989,1.857 15.274,1.662 C14.548,1.465 13.794,1.714 13.154,2.362 C10.372,5.18 4.798,10.824 3.406,12.232 C1.59,14.071 2.025,16.188 3.197,17.375 C4.37,18.562 6.459,19.004 8.276,17.163 L18.024,7.293 C18.293,7.021 18.729,7.021 18.998,7.293 C19.267,7.565 19.267,8.007 18.998,8.28 L9.25,18.15 C8.101,19.312 6.814,19.8 5.602,19.8 Z" id="Shape"></path>
        </g>
    </g>
</svg>