<?xml version="1.0" encoding="UTF-8"?>
<svg width="20px" height="16px" viewBox="0 0 20 16" version="1.1" xmlns="http://www.w3.org/2000/svg" xmlns:xlink="http://www.w3.org/1999/xlink">
    <!-- Generator: Sketch 49.2 (51160) - http://www.bohemiancoding.com/sketch -->
    <title>paperplane</title>
    <desc>Created with Sketch.</desc>
    <defs></defs>
    <g id="paperplane" stroke="none" stroke-width="1" fill="none" fill-rule="evenodd">
        <path d="M19.4492465,0.0373978299 C19.075362,0.168205881 0.623512118,6.63617754 0.259409525,6.76374242 C-0.049262524,6.87184824 -0.117735549,7.13670752 0.248540791,7.28156933 C0.684377029,7.45561971 4.37431226,8.92585897 4.37431226,8.92585897 L6.81977744,9.89989247 C6.81977744,9.89989247 18.5993115,1.29683072 18.757995,1.18007643 C18.9188523,1.06332213 19.1036207,1.28277696 18.9873253,1.40817972 C18.8710298,1.53358248 10.4325447,10.6112288 10.4325447,10.6112288 L10.4325447,10.6133909 L9.94127787,11.1571632 L10.592315,11.505264 C10.592315,11.505264 15.6462764,14.2122339 16.0071184,14.4046623 C16.3233985,14.5733074 16.7331498,14.4338509 16.8244472,14.0435888 C16.9320477,13.583058 19.916602,0.788733331 19.9829013,0.503333946 C20.0687643,0.132530958 19.8220441,-0.0934102214 19.4492465,0.0373978299 Z M6.79803997,15.7430124 C6.79803997,16.0089528 6.94911537,16.0835458 7.15779507,15.8954417 C7.43060029,15.6478793 10.2553843,13.1268514 10.2553843,13.1268514 L6.79803997,11.3495916 L6.79803997,15.7430124 Z" id="Shape" fill="#000000" fill-rule="nonzero"></path>
    </g>
</svg>