<?xml version="1.0" encoding="UTF-8"?>
<svg width="20px" height="20px" viewBox="0 0 20 20" version="1.1" xmlns="http://www.w3.org/2000/svg" xmlns:xlink="http://www.w3.org/1999/xlink">
    <!-- Generator: Sketch 49.2 (51160) - http://www.bohemiancoding.com/sketch -->
    <title>recur</title>
    <desc>Created with Sketch.</desc>
    <defs></defs>
    <g id="recur" stroke="none" stroke-width="1" fill="none" fill-rule="evenodd">
        <path d="M14.9707031,18.0071032 C15.5229879,18.0071032 15.9707031,18.4548185 15.9707031,19.0071032 C15.9707031,19.559388 15.5229879,20.0071032 14.9707031,20.0071032 L0.0114746094,20.0071032 L0.0114746094,5.07910156 C0.0114746094,4.52681681 0.45918986,4.07910156 1.01147461,4.07910156 C1.56375936,4.07910156 2.01147461,4.52681681 2.01147461,5.07910156 L2.01147461,18.0071032 L14.9707031,18.0071032 Z" id="Path-2" fill="#000000" fill-rule="nonzero"></path>
        <path d="M4.5,0 L19.5,0 C19.7761424,-5.07265313e-17 20,0.223857625 20,0.5 L20,15.5 C20,15.7761424 19.7761424,16 19.5,16 L4.5,16 C4.22385763,16 4,15.7761424 4,15.5 L4,0.5 C4,0.223857625 4.22385763,5.07265313e-17 4.5,0 Z M6.02856445,5.00872803 L6.02856445,13.9822998 L17.9974976,13.9822998 L17.9974976,5.00872803 L6.02856445,5.00872803 Z" id="Combined-Shape" fill="#000000"></path>
    </g>
</svg>