<?xml version="1.0" encoding="UTF-8"?>
<svg width="19px" height="19px" viewBox="0 0 19 19" version="1.1" xmlns="http://www.w3.org/2000/svg" xmlns:xlink="http://www.w3.org/1999/xlink">
    <!-- Generator: Sketch 49.2 (51160) - http://www.bohemiancoding.com/sketch -->
    <title>recur-slave</title>
    <desc>Created with Sketch.</desc>
    <defs>
        <polygon id="path-1" points="16.9545898 0.753540039 0.563753969 17.1443759 17.3798234 17.1443759 17.3798234 0.397510096"></polygon>
        <polygon id="path-3" points="0.211547852 13.1443759 13.3798234 13.1443759 13.3798234 0.0100097656"></polygon>
    </defs>
    <g id="recur-slave" stroke="none" stroke-width="1" fill="none" fill-rule="evenodd">
        <g id="Group-4">
            <g id="Group-2">
                <g id="Combined-Shape-Copy-2" transform="translate(1.000000, 1.000000)">
                    <mask id="mask-2" fill="white">
                        <use xlink:href="#path-1"></use>
                    </mask>
                    <g id="Mask" transform="translate(8.971789, 8.770943) rotate(-180.000000) translate(-8.971789, -8.770943) "></g>
                    <path d="M1.5,1 L16.5,1 C16.7761424,1 17,1.22385763 17,1.5 L17,16.5 C17,16.7761424 16.7761424,17 16.5,17 L1.5,17 C1.22385763,17 1,16.7761424 1,16.5 L1,1.5 C1,1.22385763 1.22385763,1 1.5,1 Z M3.02856445,6.00872803 L3.02856445,14.9822998 L14.9974976,14.9822998 L14.9974976,6.00872803 L3.02856445,6.00872803 Z" fill="#000000" mask="url(#mask-2)"></path>
                </g>
                <path d="M1.70710678,18.7071068 C1.31658249,19.0976311 0.683417511,19.0976311 0.292893219,18.7071068 C-0.0976310729,18.3165825 -0.0976310729,17.6834175 0.292893219,17.2928932 L17.2928932,0.292893219 C17.6834175,-0.0976310729 18.3165825,-0.0976310729 18.7071068,0.292893219 C19.0976311,0.683417511 19.0976311,1.31658249 18.7071068,1.70710678 L1.70710678,18.7071068 Z" id="Line-Copy" fill="#000000" fill-rule="nonzero"></path>
            </g>
            <g id="Group-3" transform="translate(5.000000, 5.000000)">
                <mask id="mask-4" fill="white">
                    <use xlink:href="#path-3"></use>
                </mask>
                <g id="Mask" transform="translate(6.795686, 6.577193) rotate(-360.000000) translate(-6.795686, -6.577193) "></g>
                <path d="M-2.5,-3 L12.5,-3 C12.7761424,-3 13,-2.77614237 13,-2.5 L13,12.5 C13,12.7761424 12.7761424,13 12.5,13 L-2.5,13 C-2.77614237,13 -3,12.7761424 -3,12.5 L-3,-2.5 C-3,-2.77614237 -2.77614237,-3 -2.5,-3 Z M-0.971435547,2.00872803 L-0.971435547,10.9822998 L10.9974976,10.9822998 L10.9974976,2.00872803 L-0.971435547,2.00872803 Z" id="Mask" fill="#000000" mask="url(#mask-4)"></path>
            </g>
        </g>
    </g>
</svg>
