<?xml version="1.0" encoding="UTF-8"?>
<svg width="18px" height="20px" viewBox="0 0 18 20" version="1.1" xmlns="http://www.w3.org/2000/svg" xmlns:xlink="http://www.w3.org/1999/xlink">
    <!-- Generator: Sketch 49.2 (51160) - http://www.bohemiancoding.com/sketch -->
    <title>save</title>
    <desc>Created with Sketch.</desc>
    <defs></defs>
    <g id="save" stroke="none" stroke-width="1" fill="none" fill-rule="evenodd">
        <path d="M14.8171242,0 L2.250349,0 C1.01349465,0 0,1.12438221 0,2.5 L0,17.5 C0,18.8756178 1.01209865,20 2.250349,20 L15.749651,20 C16.9865054,20 18,18.8756178 18,17.5 L18,3.90856672 L14.8185202,0 L14.8171242,0 Z M13.499302,6.75178473 C13.499302,7.37095003 12.9925547,7.87753981 12.3741275,7.87753981 L5.6244765,7.87753981 C5.00604933,7.87753981 4.499302,7.37095003 4.499302,6.75178473 L4.499302,1.12575508 L13.499302,1.12575508 L13.499302,6.75178473 Z M12.3741275,2.25013729 L10.1237785,2.25013729 L10.1237785,6.75178473 L12.3741275,6.75178473 L12.3741275,2.25013729 Z" id="Shape" fill="#000000" fill-rule="nonzero"></path>
    </g>
</svg>