<?xml version="1.0" encoding="UTF-8"?>
<svg width="19px" height="20px" viewBox="0 0 19 20" version="1.1" xmlns="http://www.w3.org/2000/svg" xmlns:xlink="http://www.w3.org/1999/xlink">
    <!-- Generator: Sketch 49.2 (51160) - http://www.bohemiancoding.com/sketch -->
    <title>save-stay</title>
    <desc>Created with Sketch.</desc>
    <defs></defs>
    <g id="save-stay" stroke="none" stroke-width="1" fill="none" fill-rule="evenodd">
        <path d="M10.7791173,1.12575508 L4.499302,1.12575508 L4.499302,6.75178473 C4.499302,7.37095003 5.00604933,7.87753981 5.6244765,7.87753981 L5.88572572,7.87753981 L4.94910724,9.1698636 C4.55929017,9.70744521 4.3334548,10.346828 4.29821757,11.0106973 L4.00219405,16.6351424 C3.9437079,17.7630837 5.06492679,18.5786909 6.11896324,18.1743648 L11.3740041,16.1647321 C11.9993972,15.92474 12.5412518,15.5089911 12.9328231,14.9681156 L18,7.97570623 L18,17.5 C18,18.8756178 16.9865054,20 15.749651,20 L2.250349,20 C1.01209865,20 0,18.8756178 0,17.5 L0,2.5 C0,1.12438221 1.01349465,0 2.250349,0 L11.5950142,0 L10.7791173,1.12575508 Z" id="Shape-Copy" fill="#000000" fill-rule="nonzero"></path>
        <path d="M16.745787,1.29872214 C14.851787,-0.0802778559 13.503787,-0.0502778559 12.991787,0.0327221441 C12.847787,0.0557221441 12.726787,0.138722144 12.641787,0.255722144 L5.75878703,9.75272214 C5.48178703,10.1347221 5.32178703,10.5887221 5.29678703,11.0597221 L5.00078703,16.6837221 C4.97978703,17.0887221 5.38278703,17.3817221 5.76078703,17.2367221 L11.016787,15.2267221 C11.459787,15.0567221 11.844787,14.7617221 12.122787,14.3777221 L19.002787,4.88372214 C19.091787,4.76072214 19.127787,4.61072214 19.102787,4.46072214 C19.018787,3.93472214 18.615787,2.65872214 16.745787,1.29872214 Z M11.032787,14.1027221 L8.98978703,14.8917221 C8.90978703,14.9227221 8.82078703,14.8977221 8.76878703,14.8297221 C8.50578703,14.4947221 8.19278703,14.1627221 7.69378703,13.7997221 C7.19478703,13.4377221 6.78278703,13.2417221 6.38378703,13.0937221 C6.30378703,13.0637221 6.25278703,12.9877221 6.25778703,12.9017221 L6.37978703,10.7157221 L6.92878703,9.96072214 C6.92878703,9.96072214 8.15778703,9.79172214 9.76178703,10.9587221 C11.363787,12.1247221 11.582787,13.3467221 11.582787,13.3467221 L11.032787,14.1027221 Z" id="Shape" fill="#000000" fill-rule="nonzero"></path>
    </g>
</svg>