<?xml version="1.0" encoding="UTF-8"?>
<svg width="20px" height="20px" viewBox="0 0 20 20" version="1.1" xmlns="http://www.w3.org/2000/svg" xmlns:xlink="http://www.w3.org/1999/xlink">
    <!-- Generator: Sketch 49.2 (51160) - http://www.bohemiancoding.com/sketch -->
    <title>search-delete</title>
    <desc>Created with Sketch.</desc>
    <defs></defs>
    <g id="search-delete" stroke="none" stroke-width="1" fill="none" fill-rule="evenodd">
        <path d="M19.8218806,18.0944345 C20.0593731,18.3331771 20.0593731,18.7181651 19.8218806,18.9581576 L18.9581576,19.8218806 C18.719415,20.0593731 18.3331771,20.0593731 18.0944345,19.8218806 L12.0521234,13.7795694 C11.9858754,13.7133215 11.9421268,13.6370738 11.9133777,13.5533265 C10.6734165,14.4595481 9.15221399,14.9995313 7.49976563,14.9995313 C3.35864504,14.9995313 0,11.6408862 0,7.49976563 C0,3.35864504 3.35864504,0 7.49976563,0 C11.6408862,0 14.9995313,3.35864504 14.9995313,7.49976563 C14.9995313,9.15221399 14.4595481,10.6746664 13.5533265,11.9133777 C13.6358239,11.9433768 13.7133215,11.9858754 13.7795694,12.0521234 L19.8218806,18.0944345 Z M7.50101559,1.74996094 C4.32568595,1.74996094 1.7512109,4.32443599 1.7512109,7.49976563 C1.7512109,10.6750953 4.32568595,13.2495703 7.50101559,13.2495703 C10.6763452,13.2495703 13.2508203,10.6750953 13.2508203,7.49976563 C13.2508203,4.32443599 10.6763452,1.74996094 7.50101559,1.74996094 Z" id="Shape" fill="#000000" fill-rule="nonzero" transform="translate(10.000000, 10.000000) scale(-1, 1) translate(-10.000000, -10.000000) "></path>
        <polygon id="Path-Copy" fill="#000000" points="16 8.27777778 13.2777778 8.27777778 11.7222222 8.27777778 9 8.27777778 9 6.72222222 11.7222222 6.72222222 13.2777778 6.72222222 16 6.72222222"></polygon>
    </g>
</svg>