<?xml version="1.0" encoding="UTF-8"?>
<svg width="20px" height="20px" viewBox="0 0 20 20" version="1.1" xmlns="http://www.w3.org/2000/svg" xmlns:xlink="http://www.w3.org/1999/xlink">
    <!-- Generator: Sketch 49.2 (51160) - http://www.bohemiancoding.com/sketch -->
    <title>social-facebook</title>
    <desc>Created with Sketch.</desc>
    <defs></defs>
    <g id="social-facebook" stroke="none" stroke-width="1" fill="none" fill-rule="evenodd">
        <g id="icomoon-ignore"></g>
        <path d="M16.666875,0 L3.333125,0 C1.4925,0 0,1.4925 0,3.33375 L0,16.66625 C0,18.5075 1.491875,20 3.333125,20 L10,20 L10,11.25 L7.5,11.25 L7.5,8.75 L10,8.75 L10,6.875 C10,5.149375 11.399375,3.75 13.125,3.75 L16.25,3.75 L16.25,6.25 L13.125,6.25 C12.78,6.25 12.5,6.53 12.5,6.875 L12.5,8.75 L15.9375,8.75 L15.3125,11.25 L12.5,11.25 L12.5,20 L16.666875,20 C18.5075,20 20,18.5075 20,16.66625 L20,3.33375 C20,1.4925 18.508125,0 16.666875,0 L16.666875,0 Z" id="Shape" fill="#000000"></path>
    </g>
</svg>