<?xml version="1.0" encoding="UTF-8"?>
<svg width="20px" height="19px" viewBox="0 0 20 19" version="1.1" xmlns="http://www.w3.org/2000/svg" xmlns:xlink="http://www.w3.org/1999/xlink">
    <!-- Generator: Sketch 49.2 (51160) - http://www.bohemiancoding.com/sketch -->
    <title>socil-linkedin</title>
    <desc>Created with Sketch.</desc>
    <defs></defs>
    <g id="socil-linkedin" stroke="none" stroke-width="1" fill="none" fill-rule="evenodd">
        <g id="icomoon-ignore"></g>
        <path d="M7,6 L10.9975,6 L10.9975,8.04894444 L11.0545556,8.04894444 C11.6106667,7.05155556 12.9720556,6 15.0007778,6 C19.22,6 20,8.62672222 20,12.0428333 L20,19 L15.8335,19 L15.8335,12.8322222 C15.8335,11.3610556 15.8031667,9.46883333 13.6661111,9.46883333 C11.4958333,9.46883333 11.1650556,11.0707222 11.1650556,12.7253333 L11.1650556,19 L7,19 L7,6 L7,6 Z" id="Shape" fill="#000000"></path>
        <polygon id="Shape" fill="#000000" points="0 6 4 6 4 19 0 19"></polygon>
        <path d="M4,2 C4,3.10466667 3.10466667,4 2,4 C0.895333333,4 0,3.10466667 0,2 C0,0.895333333 0.895333333,0 2,0 C3.10466667,0 4,0.895333333 4,2 L4,2 Z" id="Shape" fill="#000000"></path>
    </g>
</svg>