<?xml version="1.0" encoding="UTF-8"?>
<svg width="20px" height="16px" viewBox="0 0 20 16" version="1.1" xmlns="http://www.w3.org/2000/svg" xmlns:xlink="http://www.w3.org/1999/xlink">
    <!-- Generator: Sketch 49.2 (51160) - http://www.bohemiancoding.com/sketch -->
    <title>social-twitter</title>
    <desc>Created with Sketch.</desc>
    <defs></defs>
    <g id="social-twitter" stroke="none" stroke-width="1" fill="none" fill-rule="evenodd">
        <g id="icomoon-ignore"></g>
        <path d="M20,1.89378966 C19.264398,2.21495866 18.4731727,2.43214766 17.6431987,2.529975 C18.4900472,2.02976351 19.1406519,1.23853105 19.4475173,0.295327822 C18.654417,0.758008075 17.7763195,1.09455874 16.8419737,1.27544703 C16.0932471,0.490367237 15.0270304,0 13.8470673,0 C11.5808881,0 9.7440705,1.80826764 9.7440705,4.03922323 C9.7440705,4.35608537 9.78031937,4.66433378 9.85031718,4.9596616 C6.44042374,4.79107864 3.41676823,3.18277254 1.39308147,0.73893482 C1.0399675,1.33574313 0.837473829,2.02914824 0.837473829,2.76992886 C0.837473829,4.17150548 1.56182619,5.40757547 2.66304178,6.13235916 C1.99056279,6.11144011 1.35808256,5.92993655 0.804349864,5.62722553 C0.803724884,5.64383772 0.803724884,5.66106518 0.803724884,5.67829264 C0.803724884,7.63545472 2.21805569,9.2677562 4.09487204,9.63876178 C3.7505078,9.73105172 3.38801912,9.78027302 3.01365582,9.78027302 C2.74928908,9.78027302 2.49242211,9.75504711 2.24180494,9.7076716 C2.76366364,11.3122861 4.27924127,12.4800615 6.07481016,12.5126706 C4.67047905,13.5961546 2.90115934,14.2415689 0.978719415,14.2415689 C0.647479766,14.2415689 0.321239961,14.2224957 0,14.1849644 C1.81556826,15.3312055 3.97237586,16 6.28980344,16 C13.8370676,16 17.9638136,9.84487599 17.9638136,4.50682561 C17.9638136,4.33147472 17.9600637,4.15735435 17.951939,3.98446453 C18.7537889,3.41472794 19.4493922,2.7034801 19.999375,1.89378966 L20,1.89378966 Z" id="Shape" fill="#000000"></path>
    </g>
</svg>