<?xml version="1.0" encoding="UTF-8"?>
<svg width="20px" height="20px" viewBox="0 0 20 20" version="1.1" xmlns="http://www.w3.org/2000/svg" xmlns:xlink="http://www.w3.org/1999/xlink">
    <!-- Generator: Sketch 49.2 (51160) - http://www.bohemiancoding.com/sketch -->
    <title>sort-alpha-asc</title>
    <desc>Created with Sketch.</desc>
    <defs></defs>
    <g id="sort-alpha-asc" stroke="none" stroke-width="1" fill="none" fill-rule="evenodd">
        <g fill="#000000" fill-rule="nonzero" id="Shape">
            <polygon points="6.25 15 6.25 0 3.75 0 3.75 15 0.625 15 5 19.375 9.375 15"></polygon>
            <path d="M18.125,20 L13.125,20 C12.895,20 12.6825,19.87375 12.57375,19.67 C12.465,19.46625 12.47625,19.22 12.605,19.0275 L16.9575,12.49875 L13.125,12.49875 C12.78,12.49875 12.5,12.21875 12.5,11.87375 C12.5,11.52875 12.78,11.24875 13.125,11.24875 L18.125,11.24875 C18.355,11.24875 18.5675,11.375 18.67625,11.57875 C18.785,11.7825 18.77375,12.02875 18.645,12.22125 L14.2925,18.75 L18.125,18.75 C18.47,18.75 18.75,19.03 18.75,19.375 C18.75,19.72 18.47,20 18.125,20 Z"></path>
            <path d="M19.93375,7.84625 L16.18375,0.34625 C16.0775,0.13375 15.86125,0 15.625,0 C15.38875,0 15.17125,0.13375 15.06625,0.34625 L11.31625,7.84625 C11.1625,8.155 11.28625,8.53125 11.595,8.685 C11.685,8.73 11.78,8.75125 11.87375,8.75125 C12.10375,8.75125 12.32375,8.625 12.4325,8.405 L13.51,6.25125 L17.7375,6.25125 L18.815,8.405 C18.96875,8.71375 19.345,8.83875 19.65375,8.68375 C19.9625,8.52875 20.0875,8.15375 19.9325,7.845 L19.93375,7.84625 Z M14.13625,5 L15.625,2.0225 L17.11375,5 L14.13625,5 Z"></path>
        </g>
    </g>
</svg>