<?xml version="1.0" encoding="UTF-8"?>
<svg width="20px" height="20px" viewBox="0 0 20 20" version="1.1" xmlns="http://www.w3.org/2000/svg" xmlns:xlink="http://www.w3.org/1999/xlink">
    <!-- Generator: Sketch 49.2 (51160) - http://www.bohemiancoding.com/sketch -->
    <title>sort-alpha-desc</title>
    <desc>Created with Sketch.</desc>
    <defs></defs>
    <g id="sort-alpha-desc" stroke="none" stroke-width="1" fill="none" fill-rule="evenodd">
        <g id="Group" fill="#000000" fill-rule="nonzero">
            <polygon id="Shape" points="6.17647059 14.8235294 6.17647059 0 3.70588235 0 3.70588235 14.8235294 0.617647059 14.8235294 4.94117647 19.1470588 9.26470588 14.8235294"></polygon>
            <path d="M17.9117647,8.64705882 L12.9705882,8.64705882 C12.7432941,8.64705882 12.5332941,8.52229412 12.4258235,8.32094118 C12.3183529,8.11958824 12.3294706,7.87623529 12.4567059,7.68723529 L16.758,1.23529412 L12.9705882,1.23529412 C12.6296471,1.23529412 12.3529412,0.958588235 12.3529412,0.617647059 C12.3529412,0.276705882 12.6296471,0 12.9705882,0 L17.9117647,0 C18.1390588,0 18.3490588,0.126 18.4565294,0.326117647 C18.564,0.526235294 18.5528824,0.770823529 18.4256471,0.959823529 L14.1243529,7.41176471 L17.9117647,7.41176471 C18.2527059,7.41176471 18.5294118,7.68847059 18.5294118,8.02941176 C18.5294118,8.37035294 18.2527059,8.64705882 17.9117647,8.64705882 Z" id="Shape"></path>
            <path d="M19.6992353,18.8715882 L15.9933529,11.4598235 C15.8883529,11.2510588 15.6746471,11.1176471 15.4411765,11.1176471 C15.2077059,11.1176471 14.9927647,11.2498235 14.889,11.4598235 L11.1831176,18.8715882 C11.0311765,19.1767059 11.1534706,19.5472941 11.4585882,19.7004706 C11.5475294,19.7449412 11.6414118,19.7659412 11.7340588,19.7659412 C11.9613529,19.7659412 12.1787647,19.6411765 12.2862353,19.4237647 L13.3510588,17.2953529 L17.5288235,17.2953529 L18.5936471,19.4237647 C18.7455882,19.7288824 19.1174118,19.8524118 19.4225294,19.6992353 C19.7276471,19.5460588 19.8511765,19.1754706 19.698,18.8703529 L19.6992353,18.8715882 Z M13.9699412,16.0588235 L15.4411765,13.1163529 L16.9124118,16.0588235 L13.9699412,16.0588235 Z" id="Shape"></path>
        </g>
    </g>
</svg>