<?xml version="1.0" encoding="UTF-8"?>
<svg width="20px" height="18px" viewBox="0 0 20 18" version="1.1" xmlns="http://www.w3.org/2000/svg" xmlns:xlink="http://www.w3.org/1999/xlink">
    <!-- Generator: Sketch 49.2 (51160) - http://www.bohemiancoding.com/sketch -->
    <title>update</title>
    <desc>Created with Sketch.</desc>
    <defs></defs>
    <g id="update" stroke="none" stroke-width="1" fill="none" fill-rule="evenodd">
        <path d="M20,9.00109756 L17.4651349,9.00109756 L17.4651349,8.77609756 C17.3497195,3.9095122 13.4854395,0 8.73523911,0 C3.91023243,0 0,4.0302439 0,9.00109756 C0,13.9719512 3.91023243,18 8.73523911,18 C10.7635586,18 12.6305103,17.2865854 14.1138124,16.092439 L12.6112744,14.4417073 C11.5255143,15.2626829 10.1854128,15.7510976 8.73523911,15.7510976 C5.11675127,15.7510976 2.18327545,12.7284146 2.18327545,9.00109756 C2.18327545,5.27378049 5.11675127,2.25109756 8.73523911,2.25109756 C12.2799893,2.25109756 15.166444,5.15195122 15.2807908,8.77609756 L15.2807908,9.00109756 L12.4253273,9.00109756 L16.1592306,13.275 L20,9.00109756 Z" id="Shape" fill="#000000" fill-rule="nonzero"></path>
    </g>
</svg>