<?xml version="1.0" encoding="UTF-8"?>
<svg width="20px" height="18px" viewBox="0 0 20 18" version="1.1" xmlns="http://www.w3.org/2000/svg" xmlns:xlink="http://www.w3.org/1999/xlink">
    <!-- Generator: Sketch 49.2 (51160) - http://www.bohemiancoding.com/sketch -->
    <title>upload</title>
    <desc>Created with Sketch.</desc>
    <defs></defs>
    <g id="upload" stroke="none" stroke-width="1" fill="none" fill-rule="evenodd">
        <path d="M7.99973681,11 L11.9997368,11 L11.9997368,5 L14.9997368,5 L9.99973681,0 L4.99973681,5 L7.99973681,5 L7.99973681,11 Z M19.3377368,12.532 C19.1277368,12.308 17.7267368,10.809 17.3267368,10.418 C17.0617368,10.159 16.6827368,10 16.2847368,10 L14.5277368,10 L17.5917368,12.994 L14.0477368,12.994 C13.9457368,12.994 13.8537368,13.046 13.8077368,13.127 L12.9917368,15 L7.00773681,15 L6.19173681,13.127 C6.14573681,13.046 6.05273681,12.994 5.95173681,12.994 L2.40773681,12.994 L5.47073681,10 L3.71473681,10 C3.31773681,10 2.93873681,10.159 2.67273681,10.418 C2.27273681,10.81 0.871736806,12.309 0.661736806,12.532 C0.172736806,13.053 -0.0962631944,13.468 0.0317368056,13.981 L0.592736806,17.055 C0.720736806,17.569 1.28373681,17.991 1.84473681,17.991 L18.1567368,17.991 C18.7177368,17.991 19.2807368,17.569 19.4087368,17.055 L19.9697368,13.981 C20.0957368,13.468 19.8277368,13.053 19.3377368,12.532 Z" id="Shape" fill="#000000" fill-rule="nonzero"></path>
    </g>
</svg>