<?xml version="1.0" encoding="UTF-8"?>
<svg width="20px" height="20px" viewBox="0 0 20 20" version="1.1" xmlns="http://www.w3.org/2000/svg" xmlns:xlink="http://www.w3.org/1999/xlink">
    <!-- Generator: Sketch 49.2 (51160) - http://www.bohemiancoding.com/sketch -->
    <title>users</title>
    <desc>Created with Sketch.</desc>
    <defs></defs>
    <g id="users" stroke="none" stroke-width="1" fill="none" fill-rule="evenodd">
        <path d="M15.989,19.1243797 C15.989,16.8664658 13.802,15.7174027 11.672,14.7945331 C9.549,13.8756847 8.871,13.1016003 8.871,11.4428478 C8.871,10.4486016 9.519,10.7723096 9.803,8.9486872 C9.923,8.19269818 10.495,8.93662354 10.605,7.21051565 C10.605,6.52288734 10.292,6.35198557 10.292,6.35198557 C10.292,6.35198557 10.451,5.33361207 10.513,4.54947453 C10.577,3.72814072 10.115,1.97589491 8.212,1.43805698 C7.88,1.09524814 7.655,0.55137838 8.679,0.00650331919 C6.439,-0.0980483529 5.918,1.08016857 4.725,1.94674108 C3.71,2.70675131 3.436,3.91010085 3.485,4.55047984 C3.55,5.33461738 3.708,6.35299088 3.708,6.35299088 C3.708,6.35299088 3.394,6.52389265 3.394,7.21152095 C3.504,8.93863415 4.078,8.19370349 4.197,8.9496925 C4.481,10.7733149 5.13,10.4496069 5.13,11.4438531 C5.13,13.1026056 4.918,13.6655761 2.794,14.5844244 C0.663,15.5062887 -1.21430643e-16,16.9840864 0.011,19.1243797 C0.014,19.7647587 0,20 0,20 L16,20 C16,20 15.989,19.7647587 15.989,19.1243797 Z M18.528,13.3298044 C17.393,12.8703802 16.923,12.3224892 16.923,11.2528452 C16.923,10.608445 17.341,10.8185536 17.525,9.64134203 C17.602,9.15477463 17.972,9.63329959 18.043,8.52042746 C18.043,8.07708816 17.841,7.96650466 17.841,7.96650466 C17.841,7.96650466 17.944,7.30702488 17.984,6.8013567 C18.034,6.17103076 17.62,4.5424374 15.716,4.5424374 C13.812,4.5424374 13.398,6.17103076 13.447,6.8013567 C13.489,7.30601958 13.591,7.96650466 13.591,7.96650466 C13.591,7.96650466 13.389,8.07608286 13.389,8.52042746 C13.46,9.63329959 13.83,9.15477463 13.907,9.64134203 C14.091,10.8195589 14.509,10.6094503 14.509,11.2528452 C14.509,12.3224892 14.071,12.8231309 12.7,13.4162606 C12.631,13.4454144 12.58,13.4846213 12.517,13.5188016 C14.157,14.2345785 16.743,15.4700977 17.355,17.9893909 L20,17.9893909 C20,17.9893909 20,16.0732805 20,15.659095 C20,14.6537905 19.727,13.8153665 18.528,13.3298044 Z" id="Shape" fill="#000000" fill-rule="nonzero"></path>
    </g>
</svg>