<?xml version="1.0" encoding="UTF-8"?>
<svg width="18px" height="20px" viewBox="0 0 18 20" version="1.1" xmlns="http://www.w3.org/2000/svg" xmlns:xlink="http://www.w3.org/1999/xlink">
    <!-- Generator: Sketch 49.2 (51160) - http://www.bohemiancoding.com/sketch -->
    <title>user</title>
    <desc>Created with Sketch.</desc>
    <defs></defs>
    <g id="user" stroke="none" stroke-width="1" fill="none" fill-rule="evenodd">
        <path d="M6.725,1.95616977 C5.709,2.72020783 5.436,3.92993477 5.486,4.57370759 C5.55,5.3609902 5.708,6.38577142 5.708,6.38577142 C5.708,6.38577142 5.395,6.55757892 5.395,7.24885146 C5.504,8.98410723 6.078,8.23522865 6.196,8.99623482 C6.48,10.8295219 7.129,10.5030877 7.129,11.5036137 C7.129,13.1701465 6.449,13.949344 4.326,14.873062 C2.196,15.8008225 0,16.9681029 0,18.9893676 L0,20 L18,20 L18,18.9893676 C18,16.9681029 15.803,15.8008225 13.672,14.8740726 C11.549,13.9503547 10.871,13.1721677 10.871,11.5046243 C10.871,10.5040983 11.518,10.8305326 11.803,8.99724545 C11.922,8.23623928 12.495,8.98511786 12.606,7.24986209 C12.606,6.55858955 12.292,6.38678205 12.292,6.38678205 C12.292,6.38678205 12.45,5.36200083 12.513,4.57471822 C12.578,3.74903158 12.115,1.98648874 10.213,1.44580042 C9.88,1.10218542 9.655,0.555433308 10.679,0.00665993459 C8.439,-0.0994564637 7.918,1.08500467 6.725,1.95616977 Z" id="Shape" fill="#000000" fill-rule="nonzero"></path>
    </g>
</svg>