<?xml version="1.0" encoding="UTF-8"?>
<svg width="20px" height="14px" viewBox="0 0 20 14" version="1.1" xmlns="http://www.w3.org/2000/svg" xmlns:xlink="http://www.w3.org/1999/xlink">
    <!-- Generator: Sketch 49.2 (51160) - http://www.bohemiancoding.com/sketch -->
    <title>v-card</title>
    <desc>Created with Sketch.</desc>
    <defs></defs>
    <g id="v-card" stroke="none" stroke-width="1" fill="none" fill-rule="evenodd">
        <g fill="#000000" fill-rule="nonzero" id="Shape">
            <path d="M19,0 L1,0 C0.447,0 0,0.447 0,1 L0,13 C0,13.552 0.447,14 1,14 L19,14 C19.553,14 20,13.552 20,13 L20,1 C20,0.448 19.553,0 19,0 Z M13,4 L17,4 L17,5 L13,5 L13,4 Z M11,11.803 C10.871,11.701 10.707,11.602 10.471,11.5 C9.291,10.992 7.51,10.24 7.51,9.324 C7.51,8.773 7.869,8.953 8.028,7.945 C8.094,7.527 8.413,7.938 8.473,6.984 C8.473,6.604 8.299,6.509 8.299,6.509 C8.299,6.509 8.387,5.947 8.422,5.513 C8.458,5.06 8.201,3.713 7.145,3.416 C6.959,3.228 6.834,3.305 7.403,3.004 C6.159,2.945 5.869,3.596 5.207,4.075 C4.643,4.495 4.49,5.16 4.518,5.514 C4.555,5.947 4.643,6.51 4.643,6.51 C4.643,6.51 4.468,6.604 4.468,6.984 C4.529,7.938 4.848,7.527 4.913,7.945 C5.071,8.953 5.432,8.773 5.432,9.324 C5.432,10.24 3.651,10.992 2.471,11.5 C2.268,11.588 2.122,11.673 2,11.76 L2,2 L11,2 L11,11.803 Z M18,8 L13,8 L13,7 L18,7 L18,8 Z"></path>
        </g>
    </g>
</svg>