<?xml version="1.0" encoding="UTF-8"?>
<svg width="20px" height="16px" viewBox="0 0 20 16" version="1.1" xmlns="http://www.w3.org/2000/svg" xmlns:xlink="http://www.w3.org/1999/xlink">
    <!-- Generator: Sketch 49.2 (51160) - http://www.bohemiancoding.com/sketch -->
    <title>vacation</title>
    <desc>Created with Sketch.</desc>
    <defs></defs>
    <g id="vacation" stroke="none" stroke-width="1" fill="none" fill-rule="evenodd">
        <path d="M12.5990317,15.5077049 C12.1886316,14.3978226 10.7188993,10.6722229 10.1095489,9.13094467 C8.96063704,9.8772798 7.6783972,10.5841209 6.45136346,11.0833655 C6.07012887,12.3795784 5.31182619,14.8393451 4.94517434,15.167449 C4.3160331,15.7315042 4.0785427,15.6585922 3.98167162,14.8849151 C3.88480053,14.111238 3.4764837,11.6079267 3.4764837,11.6079267 C3.4764837,11.6079267 1.22449139,10.3734863 0.518269932,10.0200658 C-0.187951524,9.66664519 -0.176493654,9.42157992 0.577642532,9.03372869 C1.0172081,8.80790409 3.62647764,8.94765205 4.99621394,9.03879203 C5.89305269,8.07574629 7.00759098,7.13295388 8.11379627,6.32585877 C6.84822242,5.23622973 3.79105432,2.60430979 2.8702582,1.84582266 C2.06195754,1.17948818 2.95254654,1.03872755 2.95254654,1.03872755 C3.35878012,0.967840903 4.22541176,0.905055587 4.64831134,1.02961355 C7.27737174,1.80227801 11.3584568,3.12380765 12.317793,3.43570889 C12.6854865,3.18355496 13.0854703,2.90912237 13.5281608,2.60430979 C18.4258795,-0.767869289 19.6602046,-0.0215341595 19.8935285,0.305557084 C20.1268524,0.632648328 20.4174656,2.02810261 15.5197469,5.40129436 C15.0770565,5.70610694 14.6781143,5.9815522 14.3114624,6.23471879 C14.2812553,7.22713186 14.1479274,11.4509634 13.9875172,14.144656 C13.9614766,14.5780772 13.605241,15.3578303 13.3989993,15.7082129 C13.3979577,15.7082129 12.9583921,16.4829027 12.5990317,15.5077049 Z" id="Shape" fill="#000000" fill-rule="nonzero"></path>
    </g>
</svg>