<?xml version="1.0" encoding="UTF-8"?>
<svg width="20px" height="19px" viewBox="0 0 20 19" version="1.1" xmlns="http://www.w3.org/2000/svg" xmlns:xlink="http://www.w3.org/1999/xlink">
    <!-- Generator: Sketch 49.2 (51160) - http://www.bohemiancoding.com/sketch -->
    <title>warning-reverse</title>
    <desc>Created with Sketch.</desc>
    <defs></defs>
    <g id="warning-reverse" stroke="none" stroke-width="1" fill="none" fill-rule="evenodd">
        <path d="M19.9093009,17.6896124 L10.629547,0.362022398 C10.5006253,0.138037317 10.2610134,0 10.0005656,0 C9.74011783,0 9.49920365,0.138037317 9.37158424,0.362022398 L0.0931324997,17.6896124 C-0.0331846679,17.9096908 -0.0305801902,18.1805565 0.0983414551,18.3980303 C0.228565339,18.6181087 0.465572808,18.7522393 0.720811621,18.7522393 L19.2790173,18.7522393 C19.5342562,18.7522393 19.7725659,18.6181087 19.9014875,18.3980303 C20.0304092,18.1805565 20.0330136,17.9096908 19.9079987,17.6896124 L19.9093009,17.6896124 Z M11.0423567,16.6686572 L8.95877453,16.6686572 L8.95877453,14.585075 L11.0423567,14.585075 L11.0423567,16.6686572 Z M11.0423567,13.0223884 L8.95877453,13.0223884 L8.95877453,6.25074644 L11.0423567,6.25074644 L11.0423567,13.0223884 Z" id="Shape" fill="#000000" fill-rule="nonzero"></path>
    </g>
</svg>