<?xml version="1.0" encoding="UTF-8"?>
<svg width="20px" height="20px" viewBox="0 0 20 20" version="1.1" xmlns="http://www.w3.org/2000/svg" xmlns:xlink="http://www.w3.org/1999/xlink">
    <!-- Generator: Sketch 49.2 (51160) - http://www.bohemiancoding.com/sketch -->
    <title>website</title>
    <desc>Created with Sketch.</desc>
    <defs></defs>
    <g id="website" stroke="none" stroke-width="1" fill="none" fill-rule="evenodd">
        <g id="icomoon-ignore"></g>
        <g id="earth" fill="#000000">
            <path d="M9.90967742,7.16272919e-17 C4.44516129,7.16272919e-17 0,4.44709677 0,9.91096774 C0,15.3754839 4.44516129,19.8219355 9.90967742,19.8219355 C15.3741935,19.8219355 19.8193548,15.376129 19.8193548,9.91096774 C19.8193548,4.44709677 15.3741935,0 9.90967742,0 L9.90967742,7.16272919e-17 Z M18.3619355,9.91096774 C18.3619355,11.8445161 17.7051613,13.6283871 16.6109677,15.0529032 C16.3012903,14.8103226 15.9729032,14.1567742 16.2825806,13.48 C16.5941935,12.7987097 16.676129,11.2212903 16.6045161,10.6083871 C16.536129,9.99548387 16.2174194,8.51677419 15.3503226,8.50258065 C14.4864516,8.48903226 13.8929032,8.20451613 13.3787097,7.17806452 C12.3122581,5.04451613 15.38,4.63354839 14.3141935,3.4516129 C14.016129,3.12 12.4735484,4.81806452 12.2477419,2.55548387 C12.2322581,2.39354839 12.3870968,2.15096774 12.5935484,1.9 C15.9419355,3.02516129 18.3619355,6.19032258 18.3619355,9.9116129 L18.3619355,9.91096774 Z M8.7483871,1.54322581 C8.54709677,1.93548387 8.01354839,2.09677419 7.6883871,2.39290323 C6.98322581,3.03096774 6.68,2.94322581 6.29870968,3.55612903 C5.91677419,4.16903226 4.68193548,5.0516129 4.68193548,5.49548387 C4.68193548,5.93806452 5.30516129,6.46258065 5.61741935,6.36064516 C5.92903226,6.25741935 6.75096774,6.26387097 7.23419355,6.43290323 C7.71806452,6.60451613 11.2754839,6.77483871 10.1412903,9.78129032 C9.78193548,10.7374194 8.20903226,10.576129 7.78967742,12.1593548 C7.72645161,12.3916129 7.50967742,13.383871 7.49419355,13.7077419 C7.46967742,14.2096774 7.84903226,16.1006452 7.36516129,16.1006452 C6.87870968,16.1006452 5.57225806,14.4090323 5.57225806,14.1019355 C5.57225806,13.7948387 5.23290323,12.72 5.23290323,11.8 C5.23290323,10.88 3.66709677,10.8948387 3.66709677,9.6716129 C3.66709677,8.56709677 4.51677419,8.01806452 4.32580645,7.49032258 C4.13806452,6.96387097 2.64645161,6.94516129 2.02516129,6.88129032 C3.11096774,4.06129032 5.66774194,1.96774194 8.74903226,1.54258065 L8.7483871,1.54322581 Z M7.2516129,17.9316129 C7.75935484,17.6645161 7.81096774,17.3174194 8.2716129,17.2987097 C8.79806452,17.276129 9.22645161,17.0935484 9.81870968,16.9632258 C10.3464516,16.8483871 11.2877419,16.3141935 12.1187097,16.2458065 C12.8174194,16.1877419 14.1987097,16.2819355 14.5703226,16.9567742 C13.2322581,17.8445161 11.6303226,18.3625806 9.90967742,18.3625806 C8.98064516,18.3625806 8.08774194,18.2096774 7.2516129,17.9309677 L7.2516129,17.9316129 Z" id="Shape"></path>
        </g>
    </g>
</svg>