<?xml version="1.0" encoding="utf-8"?>
<!-- Generator: Adobe Illustrator 23.0.6, SVG Export Plug-In . SVG Version: 6.00 Build 0)  -->
<svg version="1.1" id="Layer_1" xmlns="http://www.w3.org/2000/svg" xmlns:xlink="http://www.w3.org/1999/xlink" x="0px" y="0px"
	 viewBox="0 0 665.3 287.5" style="enable-background:new 0 0 665.3 287.5;" xml:space="preserve">
<style type="text/css">
	.st0{fill:#012639;}
	.st1{fill:#FF4338;}
</style>
<g>
	<path class="st0" d="M247.6,142.3c-1.3-8.3-6.8-13.9-15.3-13.9c-8.3,0-14.5,5.9-15.8,13.9H247.6z M216,150.4
		c0.1,9.5,6.5,18.4,16.7,18.4c8.2,0,12.6-4.1,16.6-10.8l9,5.1c-5.2,9.6-14.9,15.2-25.7,15.2c-17,0-27.3-12.8-27.3-29.1
		c0-17.1,9.1-29.9,27-29.9c17.7,0,26,13,26,29.5v1.7H216z"/>
	<path class="st0" d="M311,148.6c0-10.8-6.5-19.9-18-19.9c-11,0-17.5,9.6-17.5,19.9c0,10.4,6.3,20.1,17.5,20.1
		C304.6,168.7,311,159.5,311,148.6 M321.1,205.3h-10.7v-37.6h-0.2c-4.3,6.3-11,10.5-18.8,10.5c-17.1,0-26.6-14.1-26.6-30
		c0-15.2,10.1-29,26.1-29c8.3,0,14.9,4.3,19.3,10.9h0.2v-9.2h10.7V205.3z"/>
	<path class="st0" d="M343.4,120.9v30.7c0,8.9,2.2,16.7,12.8,16.7c10.5,0,12.8-7.8,12.8-16.7v-30.7h10.7v31.9
		c0,15.2-7.1,25.5-23.5,25.5c-16.4,0-23.5-10.3-23.5-25.5v-31.9H343.4z"/>
	<path class="st0" d="M440,133.6c-1.3-2.7-4-4.9-7.1-4.9c-3,0-5.8,2.4-5.8,5.5c0,4.9,6.4,7,12.9,9.9c6.5,3,12.8,7,12.8,15.8
		c0,10.5-8.8,18.4-19.1,18.4c-8.1,0-16.2-4.6-19.2-12.4l9.1-4.1c2.2,4.1,5,7.1,10.1,7.1c4.5,0,8.4-3.1,8.4-7.8c0-3-1.4-4.4-3.9-6
		l-10.4-5.6c-6.2-3.3-10.7-6.4-10.7-14c0-9,7.4-16.1,16.4-16.1c6.8,0,12.2,3.7,15.2,9.7L440,133.6z"/>
	<path class="st0" d="M469.5,149c0,10.4,8.4,19.3,19,19.3c10.6,0,19-8.9,19-19.3c0-10.5-8.4-19.3-19-19.3
		C478,129.7,469.5,138.5,469.5,149 M518.1,149c0,16.7-13,29.5-29.6,29.5c-16.6,0-29.6-12.8-29.6-29.5c0-16.7,13-29.5,29.6-29.5
		C505.1,119.5,518.1,132.3,518.1,149"/>
	<path class="st0" d="M572.7,121.2v-15.7h-10.7v15.7h-6.7h-14.7v-14c0-5.5-0.1-15.1,7.5-15.2c2.7,0,5.8,0.5,7.2,0.9v-9.7
		c-1.6-0.5-4.9-1-7.5-1c-13.8,0-17.9,9.7-17.9,21.8v17.2h-4.9v10h4.9v45.5h10.7v-45.5h14.7h6.7v45.5h10.7v-45.5h10.4v-10H572.7z"/>
	<rect x="392.7" y="120.9" class="st0" width="10.7" height="55.6"/>
	<path class="st0" d="M404.7,102.9c0,3.7-3,6.6-6.7,6.6c-3.7,0-6.7-2.9-6.7-6.6c0-3.8,3-6.8,6.7-6.8
		C401.7,96.2,404.7,99.2,404.7,102.9"/>
	<polygon class="st1" points="130.3,96.1 130.3,121.3 116.1,121.3 110.9,130.2 149.6,130.2 	"/>
	<polygon class="st1" points="130.3,160.4 130.3,169.3 87.4,169.3 82.2,178.2 177.2,178.2 167.2,160.4 	"/>
	<polygon class="st1" points="153,136.4 130.3,136.4 130.3,145.3 102,145.3 96.8,154.2 163.2,154.2 	"/>
</g>
</svg>
