<?xml version="1.0" encoding="utf-8"?>
<!-- Generator: Adobe Illustrator 24.0.1, SVG Export Plug-In . SVG Version: 6.00 Build 0)  -->
<svg version="1.1" id="Calque_1" xmlns="http://www.w3.org/2000/svg" x="0px" y="0px"
     viewBox="0 0 572.3 87.9" style="enable-background:new 0 0 572.3 87.9;" xml:space="preserve">
<style type="text/css">
	.st0{fill-rule:evenodd;clip-rule:evenodd;fill:#FFFFFF;}
	.st1{filter:url(#Adobe_OpacityMaskFilter);}
	.st2{mask:url(#mask-2_1_);fill-rule:evenodd;clip-rule:evenodd;fill:#FFFFFF;}
	.st3{filter:url(#Adobe_OpacityMaskFilter_1_);}
	.st4{mask:url(#mask-2_2_);fill-rule:evenodd;clip-rule:evenodd;fill:#FFFFFF;}
	.st5{filter:url(#Adobe_OpacityMaskFilter_2_);}
	.st6{mask:url(#mask-2_3_);fill-rule:evenodd;clip-rule:evenodd;fill:#FFFFFF;}
	.st7{filter:url(#Adobe_OpacityMaskFilter_3_);}
	.st8{mask:url(#mask-2_4_);fill-rule:evenodd;clip-rule:evenodd;fill:#FFFFFF;}
	.st9{filter:url(#Adobe_OpacityMaskFilter_4_);}
	.st10{mask:url(#mask-2_5_);fill-rule:evenodd;clip-rule:evenodd;fill:#FFFFFF;}
	.st11{filter:url(#Adobe_OpacityMaskFilter_5_);}
	.st12{mask:url(#mask-2_6_);fill-rule:evenodd;clip-rule:evenodd;fill:#FFFFFF;}
	.st13{filter:url(#Adobe_OpacityMaskFilter_6_);}
	.st14{mask:url(#mask-2_7_);fill-rule:evenodd;clip-rule:evenodd;fill:#FFFFFF;}
	.st15{filter:url(#Adobe_OpacityMaskFilter_7_);}
	.st16{mask:url(#mask-2_8_);fill-rule:evenodd;clip-rule:evenodd;fill:#FFFFFF;}
	.st17{filter:url(#Adobe_OpacityMaskFilter_8_);}
	.st18{mask:url(#mask-2_9_);fill-rule:evenodd;clip-rule:evenodd;fill:#FFFFFF;}
	.st19{filter:url(#Adobe_OpacityMaskFilter_9_);}
	.st20{mask:url(#mask-2_10_);fill-rule:evenodd;clip-rule:evenodd;fill:#FFFFFF;}
	.st21{filter:url(#Adobe_OpacityMaskFilter_10_);}
	.st22{mask:url(#mask-2_11_);fill-rule:evenodd;clip-rule:evenodd;fill:#FFFFFF;}
	.st23{filter:url(#Adobe_OpacityMaskFilter_11_);}
	.st24{mask:url(#mask-2_12_);fill-rule:evenodd;clip-rule:evenodd;fill:#EF473D;}
	.st25{filter:url(#Adobe_OpacityMaskFilter_12_);}
	.st26{mask:url(#mask-2_13_);fill-rule:evenodd;clip-rule:evenodd;fill:#EF473D;}
	.st27{filter:url(#Adobe_OpacityMaskFilter_13_);}
	.st28{mask:url(#mask-2_14_);fill-rule:evenodd;clip-rule:evenodd;fill:#EF473D;}
</style>
<title>Equisoft Apply Mobile Logo</title>
<g>
	<g id="Logo">
		<polygon id="Fill-1" class="st0" points="130.9,36.9 130.9,48.6 145.1,48.6 145.1,53.5 130.9,53.5 130.9,65.4 146.8,65.4
			146.8,70.5 124.7,70.5 124.7,31.9 146.8,31.9 146.8,36.9 		"/>
		<g id="Group-21" transform="translate(0.000000, 0.374253)">
			<path id="Fill-2" class="st0" d="M163.9,47.8c-1.7,1.8-2.6,4.2-2.6,7.4s0.8,5.6,2.5,7.3c1.7,1.7,3.9,2.6,6.6,2.6
				c1.7,0,3.2-0.4,4.6-1.2c1.4-0.8,2.5-1.9,3.3-3.4c0.8-1.5,1.3-3.3,1.3-5.4c0-2-0.4-3.8-1.3-5.3c-0.8-1.5-1.9-2.6-3.3-3.4
				c-1.4-0.8-2.9-1.2-4.6-1.2C167.8,45.1,165.6,46,163.9,47.8 M175.6,41.4c1.8,1.2,3.2,2.8,4.1,4.9V40h6.2v44.5h-6.2v-21
				c-0.9,2.2-2.3,3.9-4.2,5.1c-1.8,1.2-4,1.9-6.5,1.9c-2.6,0-5-0.6-7.2-1.9c-2.2-1.3-3.8-3.1-5.1-5.4c-1.2-2.3-1.8-5-1.8-8.1
				c0-3.1,0.6-5.8,1.8-8.1c1.2-2.3,2.9-4.1,5.1-5.4c2.2-1.3,4.5-1.9,7.2-1.9C171.5,39.7,173.7,40.2,175.6,41.4"/>
			<path id="Fill-4" class="st0" d="M225.7,40v30.2h-6.3v-6.6c-0.8,2.2-2.1,3.9-4,5.2c-1.9,1.2-4.1,1.8-6.6,1.8
				c-3.5,0-6.3-1.1-8.4-3.4c-2.1-2.3-3.2-5.5-3.2-9.7V40h6.2v16.9c0,2.7,0.7,4.8,2.1,6.3c1.4,1.5,3.3,2.2,5.7,2.2
				c2.5,0,4.5-0.8,6-2.4c1.5-1.6,2.2-3.9,2.2-7V40H225.7z"/>
			<g id="Clip-7">
			</g>
			<defs>
				<filter id="Adobe_OpacityMaskFilter" filterUnits="userSpaceOnUse" x="236.7" y="27.6" width="8" height="42.6">
					<feColorMatrix  type="matrix" values="1 0 0 0 0  0 1 0 0 0  0 0 1 0 0  0 0 0 1 0"/>
				</filter>
			</defs>
			<mask maskUnits="userSpaceOnUse" x="236.7" y="27.6" width="8" height="42.6" id="mask-2_1_">
				<g class="st1">
					<polygon id="path-1_1_" class="st0" points="2.2,84.5 569.9,84.5 569.9,-0.5 2.2,-0.5 					"/>
				</g>
			</mask>
			<path id="Fill-6" class="st2" d="M237.5,70.2h6.2V40h-6.2V70.2z M237.7,28.6c0.7-0.7,1.7-1,2.9-1c1.2,0,2.2,0.4,2.9,1
				c0.7,0.7,1.1,1.6,1.1,2.6s-0.4,1.9-1.1,2.6c-0.8,0.7-1.7,1-2.9,1c-1.2,0-2.2-0.3-2.9-1c-0.7-0.7-1.1-1.5-1.1-2.6
				S237,29.3,237.7,28.6L237.7,28.6z"/>
			<defs>
				<filter id="Adobe_OpacityMaskFilter_1_" filterUnits="userSpaceOnUse" x="254.2" y="39.6" width="23.9" height="30.9">
					<feColorMatrix  type="matrix" values="1 0 0 0 0  0 1 0 0 0  0 0 1 0 0  0 0 0 1 0"/>
				</filter>
			</defs>
			<mask maskUnits="userSpaceOnUse" x="254.2" y="39.6" width="23.9" height="30.9" id="mask-2_2_">
				<g class="st3">
					<polygon id="path-1_2_" class="st0" points="2.2,84.5 569.9,84.5 569.9,-0.5 2.2,-0.5 					"/>
				</g>
			</mask>
			<path id="Fill-8" class="st4" d="M273.9,42.3c2.1,1.8,3.4,4.2,3.9,7.3h-5.9c-0.3-1.6-1-3-2.1-4c-1.2-1-2.7-1.5-4.6-1.5
				c-1.6,0-2.8,0.4-3.6,1.1c-0.9,0.8-1.3,1.8-1.3,3c0,0.9,0.3,1.7,0.9,2.3c0.6,0.6,1.4,1,2.3,1.4c0.9,0.3,2.2,0.7,4,1.1
				c2.3,0.5,4.1,1,5.5,1.6c1.4,0.5,2.6,1.4,3.6,2.6c1,1.2,1.5,2.8,1.5,4.8c0,2.5-1,4.6-2.9,6.1c-1.9,1.6-4.5,2.4-7.7,2.4
				c-3.8,0-6.8-0.9-9.1-2.6c-2.3-1.8-3.7-4.2-4.2-7.3h6.1c0.2,1.7,0.9,3,2.2,4c1.3,1,3,1.5,5,1.5c1.5,0,2.7-0.4,3.5-1.2
				c0.9-0.8,1.3-1.8,1.3-3c0-1.1-0.3-1.9-1-2.5c-0.7-0.6-1.5-1.1-2.5-1.4c-1-0.4-2.3-0.7-4-1.1c-2.2-0.5-4-1-5.3-1.5
				c-1.4-0.5-2.5-1.3-3.5-2.5c-1-1.2-1.4-2.7-1.4-4.7c0-2.6,1-4.6,2.9-6.2c1.9-1.6,4.6-2.4,8-2.4C268.9,39.6,271.7,40.5,273.9,42.3"
				/>
			<defs>
				<filter id="Adobe_OpacityMaskFilter_2_" filterUnits="userSpaceOnUse" x="286.8" y="39.6" width="30.7" height="30.9">
					<feColorMatrix  type="matrix" values="1 0 0 0 0  0 1 0 0 0  0 0 1 0 0  0 0 0 1 0"/>
				</filter>
			</defs>
			<mask maskUnits="userSpaceOnUse" x="286.8" y="39.6" width="30.7" height="30.9" id="mask-2_3_">
				<g class="st5">
					<polygon id="path-1_3_" class="st0" points="2.2,84.5 569.9,84.5 569.9,-0.5 2.2,-0.5 					"/>
				</g>
			</mask>
			<path id="Fill-9" class="st6" d="M297.7,46.1c-1.4,0.7-2.4,1.9-3.3,3.4c-0.8,1.5-1.2,3.4-1.2,5.6c0,2.2,0.4,4.1,1.2,5.6
				c0.8,1.5,1.9,2.6,3.3,3.3c1.3,0.7,2.8,1.1,4.4,1.1c1.6,0,3.1-0.4,4.4-1.1c1.4-0.7,2.4-1.8,3.3-3.3c0.8-1.5,1.2-3.4,1.2-5.6
				c0-2.2-0.4-4-1.2-5.6c-0.8-1.5-1.9-2.6-3.3-3.4c-1.3-0.7-2.8-1.1-4.4-1.1C300.5,45,299.1,45.4,297.7,46.1 M310,41.5
				c2.3,1.2,4.2,3,5.5,5.4c1.3,2.3,2,5.1,2,8.2c0,3.2-0.6,5.9-2,8.3c-1.3,2.3-3.1,4.1-5.5,5.4c-2.3,1.2-5,1.9-7.9,1.9
				c-2.9,0-5.5-0.6-7.9-1.9c-2.3-1.2-4.1-3-5.5-5.4c-1.3-2.4-2-5.1-2-8.2c0-3.1,0.7-5.9,2-8.2c1.3-2.3,3.1-4.1,5.5-5.4
				c2.3-1.2,4.9-1.9,7.9-1.9C305.1,39.6,307.7,40.2,310,41.5"/>
			<defs>
				<filter id="Adobe_OpacityMaskFilter_3_" filterUnits="userSpaceOnUse" x="324.4" y="28.2" width="17" height="41.9">
					<feColorMatrix  type="matrix" values="1 0 0 0 0  0 1 0 0 0  0 0 1 0 0  0 0 0 1 0"/>
				</filter>
			</defs>
			<mask maskUnits="userSpaceOnUse" x="324.4" y="28.2" width="17" height="41.9" id="mask-2_4_">
				<g class="st7">
					<polygon id="path-1_4_" class="st0" points="2.2,84.5 569.9,84.5 569.9,-0.5 2.2,-0.5 					"/>
				</g>
			</mask>
			<path id="Fill-10" class="st8" d="M336.3,34.9c-1,0.9-1.5,2.4-1.5,4.6V40h6.6v5.4h-6.6v24.8h-6.3V45.4h-4.1V40h4.1v-1
				c0-3.7,1.1-6.4,3.2-8.3c2.1-1.8,5.4-2.7,9.7-2.4v5.5C339,33.6,337.3,34,336.3,34.9"/>
			<defs>
				<filter id="Adobe_OpacityMaskFilter_4_" filterUnits="userSpaceOnUse" x="348.9" y="32.5" width="18" height="37.7">
					<feColorMatrix  type="matrix" values="1 0 0 0 0  0 1 0 0 0  0 0 1 0 0  0 0 0 1 0"/>
				</filter>
			</defs>
			<mask maskUnits="userSpaceOnUse" x="348.9" y="32.5" width="18" height="37.7" id="mask-2_5_">
				<g class="st9">
					<polygon id="path-1_5_" class="st0" points="2.2,84.5 569.9,84.5 569.9,-0.5 2.2,-0.5 					"/>
				</g>
			</mask>
			<path id="Fill-11" class="st10" d="M366.9,64.7v5.4H363c-3.2,0-5.6-0.8-7.3-2.3c-1.7-1.5-2.5-4.1-2.5-7.7V45.3h-4.3V40h4.3v-7.5
				h6.3V40h7.3v5.3h-7.3v14.9c0,1.7,0.3,2.9,1,3.6c0.6,0.7,1.8,1,3.4,1H366.9z"/>
			<defs>
				<filter id="Adobe_OpacityMaskFilter_5_" filterUnits="userSpaceOnUse" x="373.4" y="18.5" width="21" height="61.3">
					<feColorMatrix  type="matrix" values="1 0 0 0 0  0 1 0 0 0  0 0 1 0 0  0 0 0 1 0"/>
				</filter>
			</defs>
			<mask maskUnits="userSpaceOnUse" x="373.4" y="18.5" width="21" height="61.3" id="mask-2_6_">
				<g class="st11">
					<polygon id="path-1_6_" class="st0" points="2.2,84.5 569.9,84.5 569.9,-0.5 2.2,-0.5 					"/>
				</g>
			</mask>
			<polygon id="Fill-12" class="st12" points="394.3,18.5 379.4,79.8 373.4,79.8 388.3,18.5 			"/>
			<defs>
				<filter id="Adobe_OpacityMaskFilter_6_" filterUnits="userSpaceOnUse" x="398.5" y="39.6" width="31" height="30.9">
					<feColorMatrix  type="matrix" values="1 0 0 0 0  0 1 0 0 0  0 0 1 0 0  0 0 0 1 0"/>
				</filter>
			</defs>
			<mask maskUnits="userSpaceOnUse" x="398.5" y="39.6" width="31" height="30.9" id="mask-2_7_">
				<g class="st13">
					<polygon id="path-1_7_" class="st0" points="2.2,84.5 569.9,84.5 569.9,-0.5 2.2,-0.5 					"/>
				</g>
			</mask>
			<path id="Fill-13" class="st14" d="M407.4,47.7c-1.7,1.8-2.5,4.2-2.5,7.3c0,3.1,0.8,5.5,2.5,7.3c1.7,1.8,3.9,2.7,6.6,2.7
				c1.8,0,3.3-0.4,4.7-1.2c1.4-0.8,2.5-2,3.3-3.5c0.8-1.5,1.2-3.3,1.2-5.3c0-2-0.4-3.7-1.2-5.2c-0.8-1.5-1.9-2.7-3.3-3.5
				c-1.4-0.8-3-1.2-4.7-1.2C411.3,45.1,409.1,46,407.4,47.7 M419.1,41.6c1.9,1.3,3.3,3.1,4.1,5.4v-7h6.2v30.2h-6.2v-7
				c-0.8,2.2-2.2,4-4.1,5.4c-1.9,1.4-4.3,2-7,2c-2.6,0-5-0.6-7-1.9c-2.1-1.2-3.7-3-4.8-5.4c-1.2-2.3-1.7-5.1-1.7-8.3
				c0-3.1,0.6-5.9,1.7-8.2c1.2-2.3,2.8-4.1,4.8-5.4c2.1-1.2,4.4-1.9,7-1.9C414.9,39.6,417.2,40.3,419.1,41.6"/>
			<defs>
				<filter id="Adobe_OpacityMaskFilter_7_" filterUnits="userSpaceOnUse" x="441.3" y="39.6" width="30.9" height="44.9">
					<feColorMatrix  type="matrix" values="1 0 0 0 0  0 1 0 0 0  0 0 1 0 0  0 0 0 1 0"/>
				</filter>
			</defs>
			<mask maskUnits="userSpaceOnUse" x="441.3" y="39.6" width="30.9" height="44.9" id="mask-2_8_">
				<g class="st15">
					<polygon id="path-1_8_" class="st0" points="2.2,84.5 569.9,84.5 569.9,-0.5 2.2,-0.5 					"/>
				</g>
			</mask>
			<path id="Fill-14" class="st16" d="M451.9,46.3c-1.4,0.8-2.5,2-3.3,3.5c-0.8,1.5-1.2,3.3-1.2,5.2c0,2,0.4,3.8,1.2,5.3
				c0.8,1.5,1.9,2.7,3.3,3.5c1.4,0.8,3,1.2,4.7,1.2c2.8,0,5-0.9,6.7-2.7c1.7-1.8,2.5-4.2,2.5-7.3c0-3.1-0.8-5.5-2.5-7.3
				c-1.7-1.8-3.9-2.7-6.7-2.7C454.9,45.1,453.3,45.5,451.9,46.3 M465.6,41.5c2.1,1.2,3.7,3,4.8,5.4c1.2,2.3,1.7,5.1,1.7,8.2
				c0,3.2-0.6,5.9-1.7,8.3c-1.2,2.3-2.8,4.1-4.8,5.4c-2.1,1.2-4.4,1.9-7,1.9c-2.7,0-5.1-0.7-7-2c-1.9-1.4-3.3-3.1-4.1-5.4v21.4h-6.2
				V40h6.2v7c0.8-2.2,2.1-4,4.1-5.4c1.9-1.3,4.3-2,7-2C461.2,39.6,463.5,40.2,465.6,41.5"/>
			<defs>
				<filter id="Adobe_OpacityMaskFilter_8_" filterUnits="userSpaceOnUse" x="482.5" y="39.6" width="30.9" height="44.9">
					<feColorMatrix  type="matrix" values="1 0 0 0 0  0 1 0 0 0  0 0 1 0 0  0 0 0 1 0"/>
				</filter>
			</defs>
			<mask maskUnits="userSpaceOnUse" x="482.5" y="39.6" width="30.9" height="44.9" id="mask-2_9_">
				<g class="st17">
					<polygon id="path-1_9_" class="st0" points="2.2,84.5 569.9,84.5 569.9,-0.5 2.2,-0.5 					"/>
				</g>
			</mask>
			<path id="Fill-15" class="st18" d="M493.2,46.3c-1.4,0.8-2.5,2-3.3,3.5c-0.8,1.5-1.2,3.3-1.2,5.2c0,2,0.4,3.8,1.2,5.3
				c0.8,1.5,1.9,2.7,3.3,3.5c1.4,0.8,3,1.2,4.7,1.2c2.8,0,5-0.9,6.7-2.7c1.7-1.8,2.5-4.2,2.5-7.3c0-3.1-0.8-5.5-2.5-7.3
				c-1.7-1.8-3.9-2.7-6.7-2.7C496.1,45.1,494.6,45.5,493.2,46.3 M506.8,41.5c2.1,1.2,3.7,3,4.8,5.4c1.2,2.3,1.7,5.1,1.7,8.2
				c0,3.2-0.6,5.9-1.7,8.3c-1.2,2.3-2.8,4.1-4.8,5.4c-2.1,1.2-4.4,1.9-7,1.9c-2.7,0-5.1-0.7-7-2c-1.9-1.4-3.3-3.1-4.1-5.4v21.4h-6.2
				V40h6.2v7c0.8-2.2,2.1-4,4.1-5.4c1.9-1.3,4.3-2,7-2C502.4,39.6,504.8,40.2,506.8,41.5"/>
			<defs>
				<filter id="Adobe_OpacityMaskFilter_9_" filterUnits="userSpaceOnUse" x="523.8" y="29.6" width="6.2" height="40.5">
					<feColorMatrix  type="matrix" values="1 0 0 0 0  0 1 0 0 0  0 0 1 0 0  0 0 0 1 0"/>
				</filter>
			</defs>
			<mask maskUnits="userSpaceOnUse" x="523.8" y="29.6" width="6.2" height="40.5" id="mask-2_10_">
				<g class="st19">
					<polygon id="path-1_10_" class="st0" points="2.2,84.5 569.9,84.5 569.9,-0.5 2.2,-0.5 					"/>
				</g>
			</mask>
			<polygon id="Fill-16" class="st20" points="523.8,70.2 530,70.2 530,29.6 523.8,29.6 			"/>
			<defs>
				<filter id="Adobe_OpacityMaskFilter_10_" filterUnits="userSpaceOnUse" x="538.5" y="40" width="31.4" height="44.5">
					<feColorMatrix  type="matrix" values="1 0 0 0 0  0 1 0 0 0  0 0 1 0 0  0 0 0 1 0"/>
				</filter>
			</defs>
			<mask maskUnits="userSpaceOnUse" x="538.5" y="40" width="31.4" height="44.5" id="mask-2_11_">
				<g class="st21">
					<polygon id="path-1_11_" class="st0" points="2.2,84.5 569.9,84.5 569.9,-0.5 2.2,-0.5 					"/>
				</g>
			</mask>
			<polygon id="Fill-17" class="st22" points="545.5,40 554.5,62.2 562.9,40 569.9,40 551.6,84.5 544.7,84.5 551.2,69.5 538.5,40
							"/>
			<defs>
				<filter id="Adobe_OpacityMaskFilter_11_" filterUnits="userSpaceOnUse" x="29.1" y="-0.5" width="36.4" height="32.1">
					<feColorMatrix  type="matrix" values="1 0 0 0 0  0 1 0 0 0  0 0 1 0 0  0 0 0 1 0"/>
				</filter>
			</defs>
			<mask maskUnits="userSpaceOnUse" x="29.1" y="-0.5" width="36.4" height="32.1" id="mask-2_12_">
				<g class="st23">
					<polygon id="path-1_12_" class="st0" points="2.2,84.5 569.9,84.5 569.9,-0.5 2.2,-0.5 					"/>
				</g>
			</mask>
			<polygon id="Fill-18" class="st24" points="47.4,-0.5 47.4,23.2 34,23.2 29.1,31.5 65.5,31.5 			"/>
			<defs>
				<filter id="Adobe_OpacityMaskFilter_12_" filterUnits="userSpaceOnUse" x="2.2" y="59.9" width="89.3" height="16.7">
					<feColorMatrix  type="matrix" values="1 0 0 0 0  0 1 0 0 0  0 0 1 0 0  0 0 0 1 0"/>
				</filter>
			</defs>
			<mask maskUnits="userSpaceOnUse" x="2.2" y="59.9" width="89.3" height="16.7" id="mask-2_13_">
				<g class="st25">
					<polygon id="path-1_13_" class="st0" points="2.2,84.5 569.9,84.5 569.9,-0.5 2.2,-0.5 					"/>
				</g>
			</mask>
			<polygon id="Fill-19" class="st26" points="47.4,59.9 47.4,68.3 7.1,68.3 2.2,76.7 91.5,76.7 82.1,59.9 			"/>
			<defs>
				<filter id="Adobe_OpacityMaskFilter_13_" filterUnits="userSpaceOnUse" x="15.9" y="37.3" width="62.3" height="16.7">
					<feColorMatrix  type="matrix" values="1 0 0 0 0  0 1 0 0 0  0 0 1 0 0  0 0 0 1 0"/>
				</filter>
			</defs>
			<mask maskUnits="userSpaceOnUse" x="15.9" y="37.3" width="62.3" height="16.7" id="mask-2_14_">
				<g class="st27">
					<polygon id="path-1_14_" class="st0" points="2.2,84.5 569.9,84.5 569.9,-0.5 2.2,-0.5 					"/>
				</g>
			</mask>
			<polygon id="Fill-20" class="st28" points="68.8,37.3 47.4,37.3 47.4,45.7 20.8,45.7 15.9,54.1 78.3,54.1 			"/>
		</g>
	</g>
</g>
</svg>
