<svg width="157" height="100" viewBox="0 0 157 100" fill="none" xmlns="http://www.w3.org/2000/svg">
<g clip-path="url(#clip0_1223_1069)">
<mask id="mask0_1223_1069" style="mask-type:alpha" maskUnits="userSpaceOnUse" x="37" y="13" width="83" height="87">
<path fill-rule="evenodd" clip-rule="evenodd" d="M119.258 13.0228H37.5424V62.8567L41.2567 62.8567C41.2567 83.3704 57.8863 100 78.4 100C98.9136 100 115.543 83.3704 115.543 62.8567L119.258 62.8567V13.0228Z" fill="#C4C4C4"/>
</mask>
<g mask="url(#mask0_1223_1069)">
<circle cx="78.5424" cy="62.8324" r="37.1433" fill="#84C6EA"/>
<mask id="mask1_1223_1069" style="mask-type:alpha" maskUnits="userSpaceOnUse" x="47" y="24" width="63" height="76">
<path d="M78.5423 24.451C88.1154 24.451 95.8759 32.2115 95.8759 41.7846L95.8761 43.6931C97.6327 43.988 98.9711 45.5157 98.9711 47.3561V51.6895C98.9711 53.5628 97.5842 55.1123 95.7811 55.3671C95.1416 61.4973 91.3066 66.6773 85.9713 69.2119L85.971 74.904H87.2091C99.5173 74.904 109.495 84.8818 109.495 97.19V99.9757H47.5896V97.19C47.5896 84.8818 57.5674 74.904 69.8756 74.904H71.1137L71.1137 69.2121C65.7782 66.6775 61.943 61.4974 61.3032 55.3669C59.5004 55.1123 58.1135 53.5628 58.1135 51.6895V47.3561C58.1135 45.5156 59.4521 43.9878 61.2089 43.6931L61.2088 41.7846C61.2088 32.2115 68.9693 24.451 78.5423 24.451Z" fill="#D08B5B"/>
</mask>
<g mask="url(#mask1_1223_1069)">
<path d="M78.5423 24.451C88.1154 24.451 95.8759 32.2115 95.8759 41.7846L95.8761 43.6931C97.6327 43.988 98.9711 45.5157 98.9711 47.3561V51.6895C98.9711 53.5628 97.5842 55.1123 95.7811 55.3671C95.1416 61.4973 91.3066 66.6773 85.9713 69.2119L85.971 74.904H87.2091C99.5173 74.904 109.495 84.8818 109.495 97.19V99.9757H47.5896V97.19C47.5896 84.8818 57.5674 74.904 69.8756 74.904H71.1137L71.1137 69.2121C65.7782 66.6775 61.943 61.4974 61.3032 55.3669C59.5004 55.1123 58.1135 53.5628 58.1135 51.6895V47.3561C58.1135 45.5156 59.4521 43.9878 61.2089 43.6931L61.2088 41.7846C61.2088 32.2115 68.9693 24.451 78.5423 24.451Z" fill="#EDB98A"/>
<path fill-rule="evenodd" clip-rule="evenodd" d="M61.2087 53.5466C61.2087 63.1197 68.9692 70.8801 78.5423 70.8801C88.1153 70.8801 95.8758 63.1197 95.8758 53.5466V56.0228C95.8758 65.5959 88.1153 73.3564 78.5423 73.3564C68.9692 73.3564 61.2087 65.5959 61.2087 56.0228V53.5466Z" fill="black" fill-opacity="0.1"/>
</g>
<mask id="mask2_1223_1069" style="mask-type:alpha" maskUnits="userSpaceOnUse" x="47" y="74" width="63" height="26">
<path d="M68.3279 75.2532C68.3279 78.9251 72.9704 81.9018 78.6971 81.9018C84.4238 81.9018 89.0663 78.9251 89.0663 75.2532C89.0663 75.144 89.0621 75.0354 89.054 74.9274C100.499 75.8652 109.495 85.4511 109.495 97.138V99.9078H47.5896V97.138C47.5896 85.3452 56.7493 75.6917 68.3423 74.904C68.3326 75.0202 68.3279 75.1363 68.3279 75.2532Z" fill="#E6E6E6"/>
</mask>
<g mask="url(#mask2_1223_1069)">
<path d="M68.3279 75.2532C68.3279 78.9251 72.9704 81.9018 78.6971 81.9018C84.4238 81.9018 89.0663 78.9251 89.0663 75.2532C89.0663 75.144 89.0621 75.0354 89.054 74.9274C100.499 75.8652 109.495 85.4511 109.495 97.138V99.9078H47.5896V97.138C47.5896 85.3452 56.7493 75.6917 68.3423 74.904C68.3326 75.0202 68.3279 75.1363 68.3279 75.2532Z" fill="#E6E6E6"/>
<path opacity="0.6" d="M78.3877 84.116C85.1632 84.116 90.6558 80.3863 90.6558 75.7854C90.6558 71.1846 85.1632 67.4548 78.3877 67.4548C71.6121 67.4548 66.1195 71.1846 66.1195 75.7854C66.1195 80.3863 71.6121 84.116 78.3877 84.116Z" fill="black" fill-opacity="0.16"/>
</g>
<mask id="mask3_1223_1069" style="mask-type:alpha" maskUnits="userSpaceOnUse" x="72" y="58" width="13" height="7">
<path d="M72.6978 59.4673C73.0253 62.4052 75.5171 64.6896 78.5424 64.6896C81.577 64.6896 84.0749 62.3911 84.3899 59.44C84.4152 59.2025 84.15 58.8086 83.8176 58.8086C79.2075 58.8086 75.6755 58.8086 73.3073 58.8086C72.9729 58.8086 72.6651 59.1733 72.6978 59.4673Z" fill="white"/>
</mask>
<g mask="url(#mask3_1223_1069)">
<path d="M72.6978 59.4673C73.0253 62.4052 75.5171 64.6896 78.5424 64.6896C81.577 64.6896 84.0749 62.3911 84.3899 59.44C84.4152 59.2025 84.15 58.8086 83.8176 58.8086C79.2075 58.8086 75.6755 58.8086 73.3073 58.8086C72.9729 58.8086 72.6651 59.1733 72.6978 59.4673Z" fill="black" fill-opacity="0.7"/>
<path fill-rule="evenodd" clip-rule="evenodd" d="M75.4471 55.4038H81.9471C82.8019 55.4038 83.4948 56.0967 83.4948 56.9514V58.8086C83.4948 59.6633 82.8019 60.3562 81.9471 60.3562H75.4471C74.5923 60.3562 73.8994 59.6633 73.8994 58.8086V56.9514C73.8994 56.0967 74.5923 55.4038 75.4471 55.4038Z" fill="white"/>
<path d="M76.9948 69.023C78.8752 69.023 80.3996 67.4986 80.3996 65.6182C80.3996 63.7378 78.8752 62.2134 76.9948 62.2134C75.1143 62.2134 73.59 63.7378 73.59 65.6182C73.59 67.4986 75.1143 69.023 76.9948 69.023Z" fill="#FF4F6D"/>
<path d="M80.09 69.023C81.9704 69.023 83.4948 67.4986 83.4948 65.6182C83.4948 63.7378 81.9704 62.2134 80.09 62.2134C78.2096 62.2134 76.6852 63.7378 76.6852 65.6182C76.6852 67.4986 78.2096 69.023 80.09 69.023Z" fill="#FF4F6D"/>
</g>
<path fill-rule="evenodd" clip-rule="evenodd" d="M74.828 53.5466C74.828 54.9142 76.491 56.0228 78.5423 56.0228C80.5937 56.0228 82.2567 54.9142 82.2567 53.5466" fill="black" fill-opacity="0.16"/>
<path d="M72.5751 55.238C74.7779 54.8373 77.8602 55.2943 78.5756 56.3609L78.5417 56.3135L78.5456 56.3081C79.3257 55.2793 82.3422 54.844 84.5082 55.238C87.4963 55.7816 88.7627 59.046 88.3793 59.6378C88.1437 60.0014 87.6257 59.8865 87.0836 59.7603L86.9418 59.7274C86.7288 59.6787 86.5156 59.6344 86.3176 59.6226C84.7697 59.5305 81.9311 60.8237 79.1757 59.3314C78.9245 59.1954 78.709 58.9969 78.5416 58.7588C78.3744 58.9969 78.1589 59.1954 77.9077 59.3314C75.1523 60.8237 72.3136 59.5305 70.7659 59.6226C70.5678 59.6344 70.3546 59.6787 70.1416 59.7274L69.9998 59.7603C69.4577 59.8865 68.9397 60.0014 68.7042 59.6378C68.3208 59.046 69.5871 55.7816 72.5751 55.238Z" fill="#2C1B18"/>
<path fill-rule="evenodd" clip-rule="evenodd" d="M66.2108 48.1136C66.7824 46.9377 68.0693 46.118 69.5653 46.118C71.056 46.118 72.3391 46.932 72.9137 48.1011C73.0844 48.4484 72.8415 48.7327 72.5965 48.5221C71.8378 47.8698 70.7604 47.4625 69.5653 47.4625C68.4076 47.4625 67.3603 47.8447 66.6062 48.4616C66.3305 48.6871 66.0437 48.4575 66.2108 48.1136Z" fill="black" fill-opacity="0.6"/>
<path fill-rule="evenodd" clip-rule="evenodd" d="M84.1635 48.1136C84.735 46.9377 86.0219 46.118 87.5179 46.118C89.0087 46.118 90.2918 46.932 90.8663 48.1011C91.037 48.4484 90.7941 48.7327 90.5492 48.5221C89.7905 47.8698 88.7131 47.4625 87.5179 47.4625C86.3602 47.4625 85.3129 47.8447 84.5588 48.4616C84.2831 48.6871 83.9963 48.4575 84.1635 48.1136Z" fill="black" fill-opacity="0.6"/>
<path d="M66.0468 44.0003C67.2586 42.2953 70.5807 41.3391 73.4423 42.0418C73.7743 42.1234 74.1096 41.9203 74.1911 41.5883C74.2726 41.2563 74.0696 40.921 73.7375 40.8395C70.4143 40.0234 66.5674 41.1305 65.0376 43.2831C64.8395 43.5618 64.9049 43.9483 65.1836 44.1463C65.4623 44.3444 65.8487 44.279 66.0468 44.0003Z" fill="black" fill-opacity="0.6"/>
<path d="M91.038 44.0003C89.8263 42.2953 86.5042 41.3391 83.6426 42.0418C83.3105 42.1234 82.9753 41.9203 82.8937 41.5883C82.8122 41.2563 83.0153 40.921 83.3473 40.8395C86.6706 40.0234 90.5175 41.1305 92.0472 43.2831C92.2453 43.5618 92.1799 43.9483 91.9013 44.1463C91.6226 44.3444 91.2361 44.279 91.038 44.0003Z" fill="black" fill-opacity="0.6"/>
<path d="M62.5441 60.2297C64.1949 64.1766 67.2636 67.383 71.1134 69.2119L71.1139 71.9976C70.383 72.2427 69.5956 72.4474 68.7222 72.6041C65.9325 73.1048 58.0977 71.512 54.6558 68.8955C54.3932 68.6958 54.5263 68.302 54.8633 68.279C58.4981 68.0303 60.3455 64.4731 61.8297 61.6534C62.0501 61.2348 62.2627 60.8125 62.4688 60.3873L62.5441 60.2297ZM91.5815 64.9668C91.8028 65.6603 92.1227 66.3085 92.643 66.7591C93.1447 67.1937 94.0398 67.087 94.6683 67.1048C95.1859 67.1196 95.704 67.1213 96.2209 67.0989C96.4806 67.0876 96.5964 67.4127 96.3863 67.5625C96.346 67.5912 96.3058 67.6185 96.2654 67.6437C95.9402 67.8464 95.603 68.0334 95.2596 68.2046C94.4784 68.594 93.6539 68.8992 92.7891 69.051C92.1959 69.155 91.608 69.1745 91.039 69.1055C91.1893 69.3284 91.3629 69.5313 91.5647 69.7064C92.1001 70.1708 93.0554 70.0568 93.7262 70.0758C94.2785 70.0916 94.8315 70.0934 95.3831 70.0695C95.6603 70.0574 95.7838 70.4049 95.5596 70.565C95.5167 70.5957 95.4737 70.6249 95.4307 70.6518C95.0835 70.8684 94.7237 71.0682 94.3572 71.2513C93.5235 71.6674 92.6436 71.9936 91.7206 72.1558C90.0183 72.4547 88.3562 72.1008 87.0175 71.0081C86.6406 70.7005 86.2888 70.3499 85.9708 69.9676L85.9711 69.2121C88.0977 68.2018 89.9859 66.7713 91.5285 65.0279L91.5815 64.9668ZM68.7742 21.2319C74.9528 19.6223 79.3631 22.4312 79.7378 22.6734C80.1827 22.9608 80.3533 22.8404 80.8587 22.7193C82.823 22.2487 84.9623 22.0355 86.9578 22.4324C88.9203 22.8228 90.8016 23.8396 92.3928 25.0256C95.3416 27.2236 97.8905 30.7771 98.0135 34.5663C98.0678 36.2709 97.8225 38.0415 97.4807 39.7094C97.1728 41.2114 96.1451 42.3948 95.8256 43.8674C95.1155 41.4553 93.2656 39.9588 91.2789 38.5837L91.0133 38.401C90.969 38.3707 90.9245 38.3404 90.8801 38.3101L90.6131 38.1288L90.2121 37.8574C90.0785 37.7669 89.9451 37.6764 89.8122 37.5855L89.5472 37.4033C88.6223 36.7634 87.7308 36.1 86.9746 35.3324C87.5925 36.5065 88.5373 37.483 89.1575 38.6376C86.2952 36.884 83.5219 34.3416 82.3379 31.1176C82.1189 32.7885 81.4971 34.3335 80.4472 35.657C79.5151 36.8322 78.1005 38.0933 76.6415 38.5483C77.393 36.8437 78.0352 35.0762 78.6249 33.3094C78.3319 33.6896 77.7207 34.6495 77.101 35.6493L76.9394 35.9106C76.2936 36.9569 75.6677 37.9956 75.4134 38.4134C74.9008 39.2557 74.3259 40.0594 73.7088 40.8288C73.4199 41.1888 73.1118 41.5368 72.8016 41.8784C72.6209 42.0774 72.4367 42.2731 72.2484 42.4649C72.2142 42.4998 72.0639 42.6638 71.9655 42.7637L71.9333 42.796C71.8643 42.8636 71.844 42.8723 71.9661 42.7143C71.2801 43.5818 70.2707 44.2554 69.3938 44.9147C68.5109 45.5785 67.549 46.1431 66.5489 46.6099C64.333 47.6444 62.057 48.0211 59.6404 47.5889L59.7067 47.6L59.7629 47.6039C60.1404 47.6125 60.7569 47.3486 61.1142 47.2404L61.1744 47.223C61.7344 47.0706 62.2497 46.8772 62.757 46.5966C63.7703 46.036 64.7225 45.3677 65.5973 44.6099C64.7594 44.9666 64.079 45.6418 63.225 46.0162C62.5173 46.3265 61.8177 46.4884 61.0485 46.5628C59.358 46.7265 57.3356 46.3399 55.8729 45.4523C54.1729 44.421 53.2288 42.6509 52.781 40.7671C52.2608 38.5797 52.584 36.1118 53.8109 34.2441C53.8525 34.9074 55.1839 35.1927 56.2612 35.0264C59.2504 34.565 61.0287 23.2496 68.7742 21.2319Z" fill="#2C1B18"/>
<path fill-rule="evenodd" clip-rule="evenodd" d="M62.2345 60.2296C63.8853 64.1766 66.954 67.383 70.8039 69.212L70.8044 71.9976C70.0735 72.2427 69.2861 72.4474 68.4126 72.6041C65.623 73.1048 57.7881 71.512 54.3462 68.8955C54.0836 68.6958 54.2168 68.302 54.5538 68.279C58.1885 68.0303 60.0359 64.4731 61.5202 61.6534C61.7405 61.2348 61.9531 60.8125 62.1593 60.3873L62.2345 60.2296ZM91.2719 64.9668C91.4932 65.6603 91.8131 66.3085 92.3334 66.7591C92.8351 67.1937 93.7303 67.087 94.3588 67.1048C94.8763 67.1196 95.3944 67.1213 95.9113 67.0989C96.1711 67.0876 96.2868 67.4127 96.0767 67.5625C96.0365 67.5913 95.9962 67.6185 95.9559 67.6437C95.6306 67.8464 95.2935 68.0334 94.95 68.2047C94.1689 68.594 93.3444 68.8992 92.4795 69.051C91.8865 69.155 91.2987 69.1745 90.7297 69.1055C90.8797 69.3284 91.0533 69.5313 91.2551 69.7064C91.7906 70.1708 92.7459 70.0568 93.4166 70.0758C93.969 70.0916 94.5219 70.0934 95.0736 70.0695C95.3508 70.0575 95.4743 70.4049 95.25 70.565C95.2071 70.5957 95.1642 70.6249 95.1211 70.6518C94.774 70.8684 94.4142 71.0682 94.0476 71.2513C93.214 71.6674 92.334 71.9936 91.411 72.1558C89.7087 72.4548 88.0466 72.1009 86.7079 71.0081C86.3313 70.7006 85.9796 70.3503 85.6617 69.9682L85.6617 69.212C87.7882 68.2017 89.6764 66.7713 91.2189 65.0279L91.2719 64.9668Z" fill="black" fill-opacity="0.16"/>
<g opacity="0.5" clip-path="url(#clip1_1223_1069)">
<g filter="url(#filter0_d_1223_1069)">
<path d="M69.4021 41.7846C76.1228 41.7846 76.6852 44.9192 76.6852 48.1299C76.6852 51.8655 73.5037 54.4752 68.947 54.4752H68.0934C63.7825 54.4752 61.2089 52.103 61.2089 48.1299C61.2089 44.9192 61.7713 41.7846 68.492 41.7846H69.4021ZM69.4468 43.6417H68.4473C63.047 43.6417 62.507 45.3569 62.453 47.6541L62.45 47.8081C62.4481 47.9372 62.4474 48.0679 62.4471 48.2002L62.447 48.3597C62.447 48.3863 62.447 48.4131 62.447 48.4399C62.447 50.6284 63.4115 53.2371 68.0095 53.2371H68.947C72.7743 53.2371 75.4471 51.2645 75.4471 48.4399L75.447 48.2002C75.4467 48.0679 75.446 47.9372 75.444 47.8081L75.4411 47.6541C75.3871 45.3569 74.8471 43.6417 69.4468 43.6417Z" fill="#E6E6E6"/>
<path d="M88.5927 41.7846C95.3135 41.7846 95.8759 44.9192 95.8759 48.1299C95.8759 51.8655 92.6944 54.4752 88.1377 54.4752H87.2841C82.9732 54.4752 80.3995 52.103 80.3995 48.1299C80.3995 44.9192 80.9619 41.7846 87.6827 41.7846H88.5927ZM88.6375 43.6417H87.6379C82.2377 43.6417 81.6976 45.3569 81.6436 47.6541L81.6407 47.8081C81.6388 47.9372 81.6381 48.0679 81.6378 48.2002L81.6376 48.4399C81.6376 50.6284 82.6032 53.2371 87.2001 53.2371H88.1377C91.965 53.2371 94.6378 51.2645 94.6378 48.4399L94.6378 48.3597L94.6376 48.2002C94.6374 48.0679 94.6366 47.9372 94.6347 47.8081L94.6318 47.6541C94.5778 45.3569 94.0378 43.6417 88.6375 43.6417Z" fill="#E6E6E6"/>
<path d="M59.3376 43.571C59.5516 43.362 61.8928 41.7846 68.4827 41.7846C74.0082 41.7846 75.1779 42.358 76.9484 43.2245L77.078 43.2884C77.2011 43.3319 77.8305 43.5457 78.5668 43.5693C79.2377 43.5405 79.8114 43.3587 79.9791 43.3004C81.9999 42.3176 83.978 41.7846 88.602 41.7846C95.192 41.7846 97.5331 43.362 97.7471 43.571C98.2529 43.571 98.6616 43.9703 98.6616 44.4643V45.3575C98.6616 45.8515 98.2529 46.2507 97.7471 46.2507C97.7471 46.2507 95.6109 46.2507 95.6109 47.144C95.6109 48.0372 95.0036 45.8515 95.0036 45.3575V44.4875C93.8883 44.0607 91.8918 43.266 88.602 43.266C84.9367 43.266 83.1113 43.916 81.5455 44.5614L81.563 44.6036L81.5622 45.2184L80.8759 46.8743L80.0283 46.5392C79.9525 46.5092 79.7892 46.4555 79.5627 46.3996C78.9312 46.2439 78.282 46.1965 77.7079 46.3143C77.4973 46.3575 77.3019 46.4224 77.1225 46.5101L76.3046 46.9097L75.4863 45.312L75.5226 44.6018L75.5476 44.5415C74.1972 43.9122 72.9521 43.266 68.4827 43.266C65.1931 43.266 63.1967 44.0604 62.0811 44.4872V45.3575C62.0811 45.8515 61.1666 48.0372 61.1666 47.144C61.1666 46.2507 59.3376 46.2507 59.3376 46.2507C58.8328 46.2507 58.4231 45.8515 58.4231 45.3575V44.4643C58.4231 43.9703 58.8328 43.571 59.3376 43.571Z" fill="#E6E6E6"/>
</g>
</g>
</g>
</g>
<defs>
<filter id="filter0_d_1223_1069" x="57.185" y="41.1655" width="42.7147" height="15.1668" filterUnits="userSpaceOnUse" color-interpolation-filters="sRGB">
<feFlood flood-opacity="0" result="BackgroundImageFix"/>
<feColorMatrix in="SourceAlpha" type="matrix" values="0 0 0 0 0 0 0 0 0 0 0 0 0 0 0 0 0 0 127 0" result="hardAlpha"/>
<feOffset dy="0.619055"/>
<feGaussianBlur stdDeviation="0.619055"/>
<feColorMatrix type="matrix" values="0 0 0 0 0 0 0 0 0 0 0 0 0 0 0 0 0 0 0.2 0"/>
<feBlend mode="normal" in2="BackgroundImageFix" result="effect1_dropShadow_1223_1069"/>
<feBlend mode="normal" in="SourceGraphic" in2="effect1_dropShadow_1223_1069" result="shape"/>
</filter>
<clipPath id="clip0_1223_1069">
<rect width="81.7152" height="86.6676" fill="white" transform="translate(37.5424 13.3324)"/>
</clipPath>
<clipPath id="clip1_1223_1069">
<rect width="43.9529" height="16.7145" fill="white" transform="translate(56.5659 39.6179)"/>
</clipPath>
</defs>
</svg>
