<svg viewBox="0 0 131 16" fill="none" xmlns="http://www.w3.org/2000/svg">
<g clip-path="url(#clip0_87_9032)">
<path d="M6.25969 1.80493V5.08149H4.40699L3.73009 6.2338H8.762L6.25969 1.80493Z" fill="#EF473E"/>
<path d="M6.25968 10.1553V11.3102H0.678197L0 12.4664H12.3531L11.046 10.1553H6.25968Z" fill="#EF473E"/>
<path d="M9.20762 7.03564H6.25967V8.19444H2.58155L1.90076 9.34545H10.5224L9.20762 7.03564Z" fill="#EF473E"/>
<path d="M21.497 7.80526C21.3268 6.72821 20.6188 6.00672 19.5105 6.00672C18.4023 6.00672 17.6305 6.77493 17.4616 7.80526H21.497ZM17.385 8.85116C17.4006 10.08 18.2321 11.2336 19.5573 11.2336C20.6188 11.2336 21.1891 10.6951 21.714 9.83477L22.8833 10.4953C22.2064 11.7397 20.9423 12.4625 19.5417 12.4625C17.3395 12.4625 15.9987 10.8015 15.9987 8.68117C15.9987 6.56081 17.1849 4.8064 19.5105 4.8064C21.8361 4.8064 22.8833 6.49853 22.8833 8.63445V8.84986H17.385V8.85116Z" fill="#012638"/>
<path d="M29.7276 8.62035C29.7276 7.22148 28.8805 6.03803 27.3864 6.03803C25.8923 6.03803 25.1076 7.28247 25.1076 8.62035C25.1076 9.95822 25.9235 11.2338 27.3864 11.2338C28.8494 11.2338 29.7276 10.0361 29.7276 8.62035ZM31.0373 15.9806H29.651V11.095H29.6198C29.0663 11.9099 28.1881 12.4627 27.1708 12.4627C24.953 12.4627 23.72 10.633 23.72 8.57363C23.72 6.51427 25.0296 4.80786 27.1084 4.80786C28.1881 4.80786 29.0494 5.36196 29.6198 6.2223H29.651V5.02327H31.0373V15.9793V15.9806Z" fill="#012638"/>
<path d="M33.9384 5.02319V9.00307C33.9384 10.1567 34.2308 11.1714 35.6027 11.1714C36.9747 11.1714 37.2658 10.1567 37.2658 9.00307V5.02319H38.652V9.15749C38.652 11.126 37.7283 12.4626 35.6027 12.4626C33.4772 12.4626 32.5535 11.126 32.5535 9.15749V5.02319H33.9397H33.9384Z" fill="#012638"/>
<path d="M46.4916 6.66731C46.3214 6.31305 45.968 6.03795 45.5665 6.03795C45.1651 6.03795 44.8117 6.34549 44.8117 6.74517C44.8117 7.37453 45.6432 7.65093 46.4916 8.03633C47.3387 8.42043 48.1546 8.94338 48.1546 10.0801C48.1546 11.4491 47.0152 12.4639 45.6744 12.4639C44.6272 12.4639 43.5644 11.8644 43.1799 10.8496L44.3661 10.3111C44.6584 10.8496 45.0131 11.2324 45.6744 11.2324C46.2603 11.2324 46.7683 10.8328 46.7683 10.219C46.7683 9.83487 46.5825 9.6506 46.259 9.43519L44.9039 8.7137C44.1023 8.28288 43.5177 7.8832 43.5177 6.89959C43.5177 5.73171 44.4739 4.80908 45.6432 4.80908C46.5215 4.80908 47.2295 5.28532 47.6154 6.0691L46.4916 6.66861V6.66731Z" fill="#012638"/>
<path d="M50.3282 8.67229C50.3282 10.0244 51.4222 11.1768 52.7915 11.1768C54.1609 11.1768 55.2562 10.0231 55.2562 8.67229C55.2562 7.32144 54.1622 6.16524 52.7915 6.16524C51.4209 6.16524 50.3282 7.30328 50.3282 8.67229ZM56.6425 8.67229C56.6425 10.8381 54.9483 12.4991 52.7915 12.4991C50.6348 12.4991 48.9406 10.8381 48.9406 8.67229C48.9406 6.50652 50.6348 4.84424 52.7915 4.84424C54.9483 4.84424 56.6425 6.50523 56.6425 8.67229Z" fill="#012638"/>
<path d="M63.7362 5.05952V3.01962H62.35V5.05952H59.5761V3.24412C59.5761 2.5369 59.5644 1.28597 60.5505 1.27688C60.8974 1.27429 61.3028 1.33658 61.4847 1.38848V0.127169C61.2768 0.0661799 60.8532 0 60.5141 0C58.7277 0 58.1885 1.26001 58.1885 2.82887V5.05952H57.5558V6.35068H58.1885V12.2537H59.5748V6.35068H62.3487V12.2537H63.7349V6.35068H65.09V5.05952H63.7349H63.7362Z" fill="#012638"/>
<path d="M41.7364 5.02319H40.3501V12.2316H41.7364V5.02319Z" fill="#012638"/>
<path d="M41.9105 2.69272C41.9105 3.16636 41.5194 3.54397 41.0439 3.54397C40.5684 3.54397 40.1773 3.16636 40.1773 2.69272C40.1773 2.21907 40.5684 1.81421 41.0439 1.81421C41.5194 1.81421 41.9105 2.2048 41.9105 2.69272Z" fill="#012638"/>
<path d="M68.9579 12.7222H67.022L71.9461 4.54834H73.8494L68.9579 12.7222Z" fill="#EF473E"/>
<path d="M130.703 8.26443C130.703 8.49977 130.689 8.74868 130.662 9.01117H124.715C124.76 9.74432 125.009 10.3191 125.462 10.7354C125.924 11.1427 126.48 11.3464 127.132 11.3464C127.666 11.3464 128.109 11.2242 128.462 10.9798C128.824 10.7264 129.078 10.3915 129.223 9.97513H130.553C130.354 10.6902 129.956 11.274 129.358 11.7266C128.761 12.1701 128.019 12.3918 127.132 12.3918C126.426 12.3918 125.792 12.2334 125.231 11.9166C124.679 11.5998 124.245 11.1518 123.928 10.5725C123.611 9.98418 123.453 9.30533 123.453 8.53597C123.453 7.76661 123.606 7.09229 123.914 6.51301C124.222 5.93373 124.652 5.49021 125.204 5.18247C125.765 4.86567 126.408 4.70728 127.132 4.70728C127.838 4.70728 128.462 4.86115 129.005 5.16889C129.549 5.47664 129.965 5.90205 130.255 6.44512C130.553 6.97915 130.703 7.58559 130.703 8.26443ZM129.426 8.00647C129.426 7.5358 129.322 7.13302 129.114 6.79812C128.906 6.45418 128.621 6.19621 128.259 6.02424C127.906 5.84321 127.512 5.7527 127.078 5.7527C126.453 5.7527 125.919 5.95183 125.475 6.35009C125.041 6.74834 124.792 7.30047 124.729 8.00647H129.426Z" fill="#012638"/>
<path d="M114.549 8.52236C114.549 7.76205 114.703 7.09678 115.011 6.52655C115.318 5.94726 115.739 5.49922 116.273 5.18243C116.816 4.86563 117.423 4.70724 118.093 4.70724C118.672 4.70724 119.21 4.843 119.708 5.11454C120.206 5.37703 120.586 5.72551 120.849 6.15997V2.22266H122.098V12.2696H120.849V10.8712C120.604 11.3147 120.242 11.6813 119.763 11.9709C119.283 12.2515 118.722 12.3918 118.079 12.3918C117.418 12.3918 116.816 12.2289 116.273 11.903C115.739 11.5772 115.318 11.1201 115.011 10.5317C114.703 9.94341 114.549 9.27361 114.549 8.52236ZM120.849 8.53593C120.849 7.97475 120.736 7.48598 120.509 7.06962C120.283 6.65326 119.975 6.33647 119.586 6.11924C119.206 5.89296 118.785 5.77981 118.323 5.77981C117.862 5.77981 117.441 5.88843 117.061 6.10566C116.681 6.32289 116.377 6.63969 116.151 7.05605C115.925 7.47241 115.812 7.96118 115.812 8.52236C115.812 9.09259 115.925 9.59041 116.151 10.0158C116.377 10.4322 116.681 10.7535 117.061 10.9798C117.441 11.197 117.862 11.3056 118.323 11.3056C118.785 11.3056 119.206 11.197 119.586 10.9798C119.975 10.7535 120.283 10.4322 120.509 10.0158C120.736 9.59041 120.849 9.09711 120.849 8.53593Z" fill="#012638"/>
<path d="M112.579 3.62104C112.344 3.62104 112.145 3.53958 111.982 3.37666C111.819 3.21373 111.737 3.0146 111.737 2.77927C111.737 2.54394 111.819 2.34481 111.982 2.18189C112.145 2.01896 112.344 1.9375 112.579 1.9375C112.805 1.9375 112.995 2.01896 113.149 2.18189C113.312 2.34481 113.394 2.54394 113.394 2.77927C113.394 3.0146 113.312 3.21373 113.149 3.37666C112.995 3.53958 112.805 3.62104 112.579 3.62104ZM113.176 4.82939V12.2696H111.941V4.82939H113.176Z" fill="#012638"/>
<path d="M110.126 4.82935V12.2695H108.891V11.1698C108.656 11.5499 108.325 11.8486 107.9 12.0659C107.483 12.274 107.022 12.3781 106.515 12.3781C105.936 12.3781 105.415 12.2605 104.954 12.0251C104.492 11.7807 104.125 11.4187 103.854 10.939C103.591 10.4592 103.46 9.87544 103.46 9.18754V4.82935H104.682V9.02462C104.682 9.75777 104.868 10.3235 105.239 10.7217C105.61 11.1109 106.117 11.3055 106.759 11.3055C107.42 11.3055 107.941 11.1019 108.321 10.6946C108.701 10.2873 108.891 9.69441 108.891 8.916V4.82935H110.126Z" fill="#012638"/>
<path d="M97.6929 4.70728C98.3356 4.70728 98.8968 4.84757 99.3765 5.12816C99.8652 5.40875 100.227 5.76175 100.463 6.18716V4.82947H101.712V12.4326C101.712 13.1114 101.567 13.7133 101.277 14.2383C100.988 14.7723 100.571 15.1887 100.028 15.4874C99.4941 15.7861 98.8696 15.9354 98.1545 15.9354C97.177 15.9354 96.3624 15.7046 95.7107 15.243C95.059 14.7814 94.6743 14.1523 94.5567 13.3558H95.7786C95.9144 13.8084 96.1949 14.1704 96.6204 14.4419C97.0458 14.7225 97.5572 14.8628 98.1545 14.8628C98.8334 14.8628 99.3855 14.6501 99.8109 14.2247C100.245 13.7993 100.463 13.2019 100.463 12.4326V10.8712C100.218 11.3057 99.8562 11.6677 99.3765 11.9574C98.8968 12.247 98.3356 12.3918 97.6929 12.3918C97.0322 12.3918 96.4303 12.2289 95.8872 11.9031C95.3532 11.5772 94.9323 11.1201 94.6245 10.5318C94.3168 9.94345 94.1629 9.27365 94.1629 8.5224C94.1629 7.76209 94.3168 7.09682 94.6245 6.52659C94.9323 5.9473 95.3532 5.49926 95.8872 5.18247C96.4303 4.86567 97.0322 4.70728 97.6929 4.70728ZM100.463 8.53597C100.463 7.97479 100.349 7.48602 100.123 7.06966C99.8969 6.6533 99.5892 6.33651 99.2 6.11928C98.8198 5.893 98.3989 5.77985 97.9373 5.77985C97.4757 5.77985 97.0548 5.88847 96.6747 6.1057C96.2945 6.32293 95.9913 6.63973 95.765 7.05609C95.5387 7.47245 95.4256 7.96122 95.4256 8.5224C95.4256 9.09263 95.5387 9.59045 95.765 10.0159C95.9913 10.4322 96.2945 10.7535 96.6747 10.9798C97.0548 11.1971 97.4757 11.3057 97.9373 11.3057C98.3989 11.3057 98.8198 11.1971 99.2 10.9798C99.5892 10.7535 99.8969 10.4322 100.123 10.0159C100.349 9.59045 100.463 9.09715 100.463 8.53597Z" fill="#012638"/>
<path d="M93.2653 8.26443C93.2653 8.49977 93.2517 8.74868 93.2245 9.01117H87.2778C87.3231 9.74432 87.572 10.3191 88.0246 10.7354C88.4862 11.1427 89.0428 11.3464 89.6945 11.3464C90.2285 11.3464 90.6721 11.2242 91.0251 10.9798C91.3871 10.7264 91.6405 10.3915 91.7854 9.97513H93.1159C92.9168 10.6902 92.5185 11.274 91.9211 11.7266C91.3238 12.1701 90.5815 12.3918 89.6945 12.3918C88.9885 12.3918 88.3549 12.2334 87.7937 11.9166C87.2416 11.5998 86.8072 11.1518 86.4904 10.5725C86.1736 9.98418 86.0152 9.30533 86.0152 8.53597C86.0152 7.76661 86.169 7.09229 86.4768 6.51301C86.7845 5.93373 87.2145 5.49021 87.7666 5.18247C88.3278 4.86567 88.9704 4.70728 89.6945 4.70728C90.4005 4.70728 91.0251 4.86115 91.5681 5.16889C92.1112 5.47664 92.5276 5.90205 92.8172 6.44512C93.1159 6.97915 93.2653 7.58559 93.2653 8.26443ZM91.989 8.00647C91.989 7.5358 91.8849 7.13302 91.6768 6.79812C91.4686 6.45418 91.1835 6.19621 90.8214 6.02424C90.4684 5.84321 90.0747 5.7527 89.6402 5.7527C89.0157 5.7527 88.4816 5.95183 88.0381 6.35009C87.6037 6.74834 87.3548 7.30047 87.2914 8.00647H91.989Z" fill="#012638"/>
<path d="M85.3078 5.84762H83.7464V12.2695H82.5109V5.84762H81.547V4.82935H82.5109V4.29985C82.5109 3.46713 82.7236 2.86069 83.1491 2.48054C83.5835 2.09133 84.2759 1.89673 85.2263 1.89673V2.92858C84.6833 2.92858 84.2986 3.03719 84.0723 3.25442C83.8551 3.4626 83.7464 3.81108 83.7464 4.29985V4.82935H85.3078V5.84762Z" fill="#012638"/>
<path d="M79.8486 3.62104C79.6133 3.62104 79.4141 3.53958 79.2512 3.37666C79.0883 3.21373 79.0068 3.0146 79.0068 2.77927C79.0068 2.54394 79.0883 2.34481 79.2512 2.18189C79.4141 2.01896 79.6133 1.9375 79.8486 1.9375C80.0749 1.9375 80.265 2.01896 80.4188 2.18189C80.5818 2.34481 80.6632 2.54394 80.6632 2.77927C80.6632 3.0146 80.5818 3.21373 80.4188 3.37666C80.265 3.53958 80.0749 3.62104 79.8486 3.62104ZM80.446 4.82939V12.2696H79.2105V4.82939H80.446Z" fill="#012638"/>
<path d="M77.3763 2.22266V12.2696H76.1408V2.22266H77.3763Z" fill="#012638"/>
</g>
<defs>
<clipPath id="clip0_87_9032">
<rect width="130.702" height="16" fill="white"/>
</clipPath>
</defs>
</svg>
