<svg width="158" height="100" viewBox="0 0 158 100" fill="none" xmlns="http://www.w3.org/2000/svg">
<g clip-path="url(#clip0_1223_1045)">
<mask id="mask0_1223_1045" style="mask-type:alpha" maskUnits="userSpaceOnUse" x="38" y="13" width="82" height="87">
<path fill-rule="evenodd" clip-rule="evenodd" d="M119.586 13.8573H38.6544V63.2131H42.3331C42.3331 83.5299 58.8032 100 79.12 100C99.4369 100 115.907 83.5299 115.907 63.2131H119.586V13.8573Z" fill="#C4C4C4"/>
</mask>
<g mask="url(#mask0_1223_1045)">
<circle cx="78.6545" cy="63.6016" r="36.7869" fill="#84C6EA"/>
<mask id="mask1_1223_1045" style="mask-type:alpha" maskUnits="userSpaceOnUse" x="47" y="25" width="63" height="76">
<path d="M78.6544 25.5884C88.1356 25.5884 95.8216 33.2745 95.8216 42.7557L95.8219 44.6459C97.5616 44.9379 98.8872 46.451 98.8872 48.2737V52.5655C98.8872 54.4209 97.5136 55.9555 95.7278 56.2078C95.0945 62.2792 91.2962 67.4095 86.0121 69.9199L86.0118 75.5573H87.238C99.4281 75.5573 109.31 85.4394 109.31 97.6295V100.388H47.9987V97.6295C47.9987 85.4394 57.8807 75.5573 70.0708 75.5573H71.297L71.297 69.92C66.0128 67.4097 62.2144 62.2793 61.5807 56.2077C59.7952 55.9555 58.4216 54.4209 58.4216 52.5655V48.2737C58.4216 46.4509 59.7474 44.9377 61.4873 44.6459L61.4872 42.7557C61.4872 33.2745 69.1732 25.5884 78.6544 25.5884Z" fill="#D08B5B"/>
</mask>
<g mask="url(#mask1_1223_1045)">
<path d="M78.6544 25.5884C88.1356 25.5884 95.8216 33.2745 95.8216 42.7557L95.8219 44.6459C97.5616 44.9379 98.8872 46.451 98.8872 48.2737V52.5655C98.8872 54.4209 97.5136 55.9555 95.7278 56.2078C95.0945 62.2792 91.2962 67.4095 86.0121 69.9199L86.0118 75.5573H87.238C99.4281 75.5573 109.31 85.4394 109.31 97.6295V100.388H47.9987V97.6295C47.9987 85.4394 57.8807 75.5573 70.0708 75.5573H71.297L71.297 69.92C66.0128 67.4097 62.2144 62.2793 61.5807 56.2077C59.7952 55.9555 58.4216 54.4209 58.4216 52.5655V48.2737C58.4216 46.4509 59.7474 44.9377 61.4873 44.6459L61.4872 42.7557C61.4872 33.2745 69.1732 25.5884 78.6544 25.5884Z" fill="#EDB98A"/>
<path fill-rule="evenodd" clip-rule="evenodd" d="M61.4872 54.4049C61.4872 63.8861 69.1732 71.5721 78.6544 71.5721C88.1356 71.5721 95.8216 63.8861 95.8216 54.4049V56.8573C95.8216 66.3385 88.1356 74.0245 78.6544 74.0245C69.1732 74.0245 61.4872 66.3385 61.4872 56.8573V54.4049Z" fill="black" fill-opacity="0.1"/>
</g>
<g clip-path="url(#clip1_1223_1045)">
<mask id="mask2_1223_1045" style="mask-type:alpha" maskUnits="userSpaceOnUse" x="47" y="70" width="63" height="31">
<path d="M86.0122 70.6742C91.5609 71.2951 95.8216 73.0018 95.8216 77.4203L95.82 77.2877C103.747 80.6362 109.31 88.4831 109.31 97.6293V100.389H47.9987V97.6293C47.9987 88.483 53.5619 80.636 61.4891 77.2876C61.5733 72.9674 65.8041 71.2888 71.297 70.6741L71.297 76.477C71.297 80.5404 74.591 83.8344 78.6544 83.8344C82.7178 83.8344 86.0118 80.5404 86.0118 76.477L86.0122 70.6742Z" fill="white"/>
</mask>
<g mask="url(#mask2_1223_1045)">
<path d="M86.0122 70.6742C91.5609 71.2951 95.8216 73.0018 95.8216 77.4203L95.82 77.2877C103.747 80.6362 109.31 88.4831 109.31 97.6293V100.389H47.9987V97.6293C47.9987 88.483 53.5619 80.636 61.4891 77.2876C61.5733 72.9674 65.8041 71.2888 71.297 70.6741L71.297 76.477C71.297 80.5404 74.591 83.8344 78.6544 83.8344C82.7178 83.8344 86.0118 80.5404 86.0118 76.477L86.0122 70.6742Z" fill="#262E33"/>
<path fill-rule="evenodd" clip-rule="evenodd" d="M69.4576 85.5937L69.4577 100.389H67.3118L67.3115 84.4934C67.9871 84.895 68.7055 85.2631 69.4576 85.5937ZM89.9975 84.4933L89.9971 96.8631C89.9971 97.4557 89.5167 97.936 88.9241 97.936C88.3315 97.936 87.8512 97.4557 87.8512 96.8631L87.8516 85.5936C88.6036 85.263 89.3219 84.8949 89.9975 84.4933Z" fill="#3C4F5C"/>
<path fill-rule="evenodd" clip-rule="evenodd" d="M91.2358 70.568C95.8496 71.4407 99.0405 73.1794 99.0405 76.5713C99.0405 82.6143 88.9125 87.5131 78.6544 87.5131C68.3963 87.5131 58.2683 82.6143 58.2683 76.5713C58.2683 73.1794 61.4592 71.4407 66.0729 70.568C63.2881 71.595 61.4872 73.3214 61.4872 76.194C61.4872 82.4454 70.016 87.5131 78.6544 87.5131C87.2928 87.5131 95.8216 82.4454 95.8216 76.194C95.8216 73.3809 94.0945 71.667 91.4076 70.6327L91.2358 70.568Z" fill="black" fill-opacity="0.16"/>
</g>
</g>
<path d="M81.4134 61.1491H75.8954C75.3875 61.1491 74.9757 61.5609 74.9757 62.0688C74.9757 62.5767 75.3875 62.9885 75.8954 62.9885H81.4134C81.9213 62.9885 82.3331 62.5767 82.3331 62.0688C82.3331 61.5609 81.9213 61.1491 81.4134 61.1491Z" fill="black" fill-opacity="0.7"/>
<path fill-rule="evenodd" clip-rule="evenodd" d="M74.9757 54.4049C74.9757 55.7593 76.6227 56.8573 78.6544 56.8573C80.6861 56.8573 82.3331 55.7593 82.3331 54.4049" fill="black" fill-opacity="0.16"/>
<path d="M83.9973 66.7188C83.2267 67.4221 82.4059 67.7384 81.3684 67.5172C81.1899 67.4792 80.462 66.1259 78.6544 66.1259C76.8468 66.1259 76.119 67.4792 75.9404 67.5172C74.9029 67.7384 74.0821 67.4221 73.3115 66.7188C71.863 65.3967 70.6584 63.5734 71.3822 61.5842C71.7595 60.5473 72.373 59.409 73.4891 59.0786C74.681 58.7259 76.3543 59.078 77.5554 58.8371C77.9445 58.759 78.3695 58.6203 78.6544 58.3901C78.9392 58.6203 79.3644 58.759 79.7533 58.8371C80.9545 59.078 82.6278 58.7259 83.8197 59.0786C84.9358 59.409 85.5493 60.5473 85.9267 61.5842C86.6505 63.5734 85.4459 65.3967 83.9973 66.7188ZM95.8465 44.595C94.8011 47.1702 95.2048 50.3761 95.0113 53.0793C94.8542 55.2764 94.3922 58.5697 92.4412 59.9886C91.4435 60.7143 89.6275 61.9339 88.3238 61.5937C87.4265 61.3595 87.3307 58.7856 86.1514 57.822C84.8137 56.7293 83.1434 56.2491 81.4592 56.3232C80.7325 56.3552 79.2627 56.3477 78.6544 56.9065C78.0462 56.3477 76.5765 56.3552 75.8498 56.3232C74.1655 56.2491 72.4951 56.7293 71.1575 57.822C69.9782 58.7856 69.8825 61.3595 68.9851 61.5937C67.6815 61.9339 65.8654 60.7143 64.8676 59.9886C62.9165 58.5697 62.4548 55.2764 62.2974 53.0793C62.104 50.3761 62.5078 47.1702 61.4623 44.595C60.9537 44.595 61.2892 49.5394 61.2892 49.5394V55.7798C61.2989 60.4665 64.2263 67.4812 70.7171 70.1598C72.3045 70.8148 75.9001 71.8786 78.6544 71.8786C81.4087 71.8786 85.0044 70.9161 86.5918 70.261C93.0825 67.5825 96.01 60.4665 96.0198 55.7798V49.5394C96.0198 49.5394 96.3551 44.595 95.8465 44.595Z" fill="#2C1B18" fill-opacity="0.08"/>
<path d="M70.684 50.7262C71.6998 50.7262 72.5233 49.9027 72.5233 48.8868C72.5233 47.871 71.6998 47.0475 70.684 47.0475C69.6681 47.0475 68.8446 47.871 68.8446 48.8868C68.8446 49.9027 69.6681 50.7262 70.684 50.7262Z" fill="black" fill-opacity="0.6"/>
<path d="M86.6249 50.7262C87.6407 50.7262 88.4642 49.9027 88.4642 48.8868C88.4642 47.871 87.6407 47.0475 86.6249 47.0475C85.609 47.0475 84.7855 47.871 84.7855 48.8868C84.7855 49.9027 85.609 50.7262 86.6249 50.7262Z" fill="black" fill-opacity="0.6"/>
<path d="M66.2669 44.0315C67.6451 42.0921 70.5623 41.1166 73.5494 42.0799C73.8717 42.1839 74.2172 42.0068 74.3211 41.6846C74.425 41.3623 74.248 41.0168 73.9258 40.9129C70.4284 39.7851 66.9549 40.9466 65.2673 43.3212C65.0712 43.5972 65.1359 43.98 65.4119 44.1761C65.6879 44.3723 66.0707 44.3076 66.2669 44.0315Z" fill="black" fill-opacity="0.6"/>
<path d="M91.0325 46.1762C89.8323 44.4874 86.5421 43.5405 83.7079 44.2364C83.3791 44.3172 83.0471 44.1161 82.9663 43.7872C82.8855 43.4584 83.0867 43.1264 83.4155 43.0456C86.7069 42.2373 90.5169 43.3339 92.032 45.4658C92.2281 45.7418 92.1634 46.1246 91.8874 46.3208C91.6114 46.5169 91.2286 46.4522 91.0325 46.1762Z" fill="black" fill-opacity="0.6"/>
<path d="M60.8741 44.595C60.9804 45.0513 61.3869 44.9698 61.4872 44.595C61.3453 44.1185 62.4976 35.7809 65.4725 33.5589C66.5816 32.7874 72.5258 32.0972 78.4437 32.1014C84.2977 32.1056 90.1261 32.7958 91.2233 33.5589C94.1981 35.7809 95.3504 44.1185 95.2085 44.595C95.3089 44.9698 95.7153 45.0513 95.8217 44.595C96.0421 41.438 95.8217 25.0594 78.3479 25.2819C60.8741 25.5043 60.6536 41.438 60.8741 44.595Z" fill="#2C1B18" fill-opacity="0.72"/>
</g>
</g>
<path d="M64.525 32.4815H92.5789C98.6604 29.6762 99.8023 24.6976 95.4997 20.374C94.4286 19.2977 92.5789 23.505 86.8941 23.7648C81.2093 24.0246 81.755 22.0858 75.7056 22.8117C69.6561 23.5376 70.3245 27.423 66.377 28.3552C63.7453 28.9767 63.128 30.3522 64.525 32.4815Z" fill="#2C1B18"/>
<defs>
<clipPath id="clip0_1223_1045">
<rect width="80.9312" height="85.8361" fill="white" transform="translate(38.6544 14.1639)"/>
</clipPath>
<clipPath id="clip1_1223_1045">
<rect width="80.9312" height="33.7213" fill="white" transform="translate(38.1888 66.6672)"/>
</clipPath>
</defs>
</svg>
