<?xml version="1.0" encoding="utf-8"?>
<!-- Generator: Adobe Illustrator 24.0.1, SVG Export Plug-In . SVG Version: 6.00 Build 0)  -->
<svg version="1.1" id="Calque_1" xmlns="http://www.w3.org/2000/svg" xmlns:xlink="http://www.w3.org/1999/xlink" x="0px" y="0px"
	 viewBox="0 0 648.4 85.3" style="enable-background:new 0 0 648.4 85.3;" xml:space="preserve">
<style type="text/css">
	.st0{fill-rule:evenodd;clip-rule:evenodd;fill:#FFFFFF;}
	.st1{filter:url(#Adobe_OpacityMaskFilter);}
	.st2{mask:url(#mask-2_1_);fill-rule:evenodd;clip-rule:evenodd;fill:#FFFFFF;}
	.st3{filter:url(#Adobe_OpacityMaskFilter_1_);}
	.st4{mask:url(#mask-2_2_);fill-rule:evenodd;clip-rule:evenodd;fill:#FFFFFF;}
	.st5{filter:url(#Adobe_OpacityMaskFilter_2_);}
	.st6{mask:url(#mask-2_3_);fill-rule:evenodd;clip-rule:evenodd;fill:#FFFFFF;}
	.st7{filter:url(#Adobe_OpacityMaskFilter_3_);}
	.st8{mask:url(#mask-2_4_);fill-rule:evenodd;clip-rule:evenodd;fill:#FFFFFF;}
	.st9{filter:url(#Adobe_OpacityMaskFilter_4_);}
	.st10{mask:url(#mask-2_5_);fill-rule:evenodd;clip-rule:evenodd;fill:#FFFFFF;}
	.st11{filter:url(#Adobe_OpacityMaskFilter_5_);}
	.st12{mask:url(#mask-2_6_);fill-rule:evenodd;clip-rule:evenodd;fill:#FFFFFF;}
	.st13{filter:url(#Adobe_OpacityMaskFilter_6_);}
	.st14{mask:url(#mask-2_7_);fill-rule:evenodd;clip-rule:evenodd;fill:#FFFFFF;}
	.st15{filter:url(#Adobe_OpacityMaskFilter_7_);}
	.st16{mask:url(#mask-2_8_);fill-rule:evenodd;clip-rule:evenodd;fill:#FFFFFF;}
	.st17{filter:url(#Adobe_OpacityMaskFilter_8_);}
	.st18{mask:url(#mask-2_9_);fill-rule:evenodd;clip-rule:evenodd;fill:#FFFFFF;}
	.st19{filter:url(#Adobe_OpacityMaskFilter_9_);}
	.st20{mask:url(#mask-2_10_);fill-rule:evenodd;clip-rule:evenodd;fill:#FFFFFF;}
	.st21{filter:url(#Adobe_OpacityMaskFilter_10_);}
	.st22{mask:url(#mask-2_11_);fill-rule:evenodd;clip-rule:evenodd;fill:#FFFFFF;}
	.st23{filter:url(#Adobe_OpacityMaskFilter_11_);}
	.st24{mask:url(#mask-2_12_);fill-rule:evenodd;clip-rule:evenodd;fill:#FFFFFF;}
	.st25{filter:url(#Adobe_OpacityMaskFilter_12_);}
	.st26{mask:url(#mask-2_13_);fill-rule:evenodd;clip-rule:evenodd;fill:#EF473D;}
	.st27{filter:url(#Adobe_OpacityMaskFilter_13_);}
	.st28{mask:url(#mask-2_14_);fill-rule:evenodd;clip-rule:evenodd;fill:#EF473D;}
	.st29{filter:url(#Adobe_OpacityMaskFilter_14_);}
	.st30{mask:url(#mask-2_15_);fill-rule:evenodd;clip-rule:evenodd;fill:#EF473D;}
</style>
<title>Equisoft Manage Mobile Logo</title>
<g>
	<g id="Logo">
		<polygon id="Fill-1" class="st0" points="128.5,37.3 128.5,48.9 142.7,48.9 142.7,53.7 128.5,53.7 128.5,65.6 144.3,65.6 
			144.3,70.6 122.3,70.6 122.3,32.3 144.3,32.3 144.3,37.3 		"/>
		<g id="Group-22" transform="translate(0.000000, 0.486569)">
			<path id="Fill-2" class="st0" d="M161.3,47.9c-1.7,1.8-2.6,4.2-2.6,7.3c0,3.1,0.8,5.5,2.5,7.2c1.7,1.7,3.9,2.6,6.6,2.6
				c1.7,0,3.2-0.4,4.6-1.2c1.4-0.8,2.5-1.9,3.3-3.4c0.8-1.5,1.3-3.3,1.3-5.3c0-2-0.4-3.8-1.3-5.3c-0.8-1.5-1.9-2.6-3.3-3.4
				c-1.4-0.8-2.9-1.2-4.6-1.2C165.2,45.3,163,46.2,161.3,47.9 M172.9,41.6c1.8,1.2,3.2,2.8,4.1,4.8v-6.2h6.2v44.2h-6.2V63.6
				c-0.9,2.2-2.3,3.9-4.1,5.1c-1.8,1.2-4,1.9-6.5,1.9c-2.6,0-5-0.6-7.1-1.9c-2.1-1.3-3.8-3-5-5.4c-1.2-2.3-1.8-5-1.8-8
				c0-3,0.6-5.7,1.8-8c1.2-2.3,2.9-4.1,5-5.4c2.1-1.3,4.5-1.9,7.1-1.9C168.9,39.9,171.1,40.5,172.9,41.6"/>
			<path id="Fill-4" class="st0" d="M222.7,40.2v29.9h-6.2v-6.5c-0.8,2.2-2.1,3.9-4,5.1c-1.9,1.2-4.1,1.8-6.6,1.8
				c-3.5,0-6.3-1.1-8.4-3.4c-2.1-2.2-3.2-5.5-3.2-9.6V40.2h6.2v16.7c0,2.7,0.7,4.8,2.1,6.3c1.4,1.5,3.3,2.2,5.6,2.2
				c2.5,0,4.4-0.8,5.9-2.4c1.5-1.6,2.2-3.9,2.2-7V40.2H222.7z"/>
			<g id="Clip-7">
			</g>
			<defs>
				<filter id="Adobe_OpacityMaskFilter" filterUnits="userSpaceOnUse" x="233.5" y="27.9" width="8" height="42.3">
					<feColorMatrix  type="matrix" values="1 0 0 0 0  0 1 0 0 0  0 0 1 0 0  0 0 0 1 0"/>
				</filter>
			</defs>
			<mask maskUnits="userSpaceOnUse" x="233.5" y="27.9" width="8" height="42.3" id="mask-2_1_">
				<g class="st1">
					<polygon id="path-1_1_" class="st0" points="0.8,84.8 646.9,84.8 646.9,0 0.8,0 					"/>
				</g>
			</mask>
			<path id="Fill-6" class="st2" d="M234.4,70.1h6.2V40.2h-6.2V70.1z M234.6,28.9c0.7-0.7,1.7-1,2.9-1c1.2,0,2.2,0.3,2.9,1
				c0.7,0.7,1.1,1.6,1.1,2.6c0,1.1-0.4,1.9-1.1,2.6c-0.7,0.7-1.7,1-2.9,1c-1.2,0-2.2-0.3-2.9-1c-0.7-0.7-1.1-1.5-1.1-2.6
				C233.5,30.5,233.9,29.6,234.6,28.9L234.6,28.9z"/>
			<defs>
				<filter id="Adobe_OpacityMaskFilter_1_" filterUnits="userSpaceOnUse" x="250.9" y="39.8" width="23.7" height="30.7">
					<feColorMatrix  type="matrix" values="1 0 0 0 0  0 1 0 0 0  0 0 1 0 0  0 0 0 1 0"/>
				</filter>
			</defs>
			<mask maskUnits="userSpaceOnUse" x="250.9" y="39.8" width="23.7" height="30.7" id="mask-2_2_">
				<g class="st3">
					<polygon id="path-1_2_" class="st0" points="0.8,84.8 646.9,84.8 646.9,0 0.8,0 					"/>
				</g>
			</mask>
			<path id="Fill-8" class="st4" d="M270.4,42.5c2.1,1.8,3.4,4.2,3.9,7.2h-5.9c-0.3-1.6-0.9-2.9-2.1-3.9s-2.7-1.5-4.5-1.5
				c-1.6,0-2.8,0.4-3.6,1.1c-0.8,0.7-1.3,1.8-1.3,3c0,0.9,0.3,1.7,0.9,2.3c0.6,0.6,1.4,1,2.3,1.4c0.9,0.3,2.2,0.7,3.9,1.1
				c2.2,0.5,4.1,1,5.5,1.6c1.4,0.5,2.6,1.4,3.6,2.6c1,1.2,1.5,2.8,1.5,4.8c0,2.5-0.9,4.5-2.9,6.1c-1.9,1.6-4.5,2.3-7.7,2.3
				c-3.7,0-6.7-0.9-9-2.6c-2.3-1.7-3.7-4.2-4.2-7.3h6c0.2,1.6,0.9,3,2.2,4c1.3,1,2.9,1.5,5,1.5c1.5,0,2.7-0.4,3.5-1.2
				c0.9-0.8,1.3-1.8,1.3-3c0-1.1-0.3-1.9-1-2.5c-0.7-0.6-1.5-1.1-2.5-1.4c-1-0.4-2.3-0.7-4-1.1c-2.2-0.5-3.9-1-5.3-1.5
				c-1.4-0.5-2.5-1.3-3.5-2.5s-1.4-2.7-1.4-4.6c0-2.5,0.9-4.6,2.8-6.2c1.9-1.6,4.5-2.4,7.9-2.4C265.5,39.8,268.3,40.7,270.4,42.5"/>
			<defs>
				<filter id="Adobe_OpacityMaskFilter_2_" filterUnits="userSpaceOnUse" x="283.3" y="39.8" width="30.4" height="30.7">
					<feColorMatrix  type="matrix" values="1 0 0 0 0  0 1 0 0 0  0 0 1 0 0  0 0 0 1 0"/>
				</filter>
			</defs>
			<mask maskUnits="userSpaceOnUse" x="283.3" y="39.8" width="30.4" height="30.7" id="mask-2_3_">
				<g class="st5">
					<polygon id="path-1_3_" class="st0" points="0.8,84.8 646.9,84.8 646.9,0 0.8,0 					"/>
				</g>
			</mask>
			<path id="Fill-9" class="st6" d="M294.1,46.3c-1.3,0.7-2.4,1.8-3.2,3.3c-0.8,1.5-1.2,3.3-1.2,5.5c0,2.2,0.4,4.1,1.2,5.5
				c0.8,1.5,1.9,2.6,3.2,3.3c1.3,0.7,2.8,1.1,4.4,1.1c1.6,0,3.1-0.4,4.4-1.1c1.3-0.7,2.4-1.8,3.2-3.3c0.8-1.5,1.2-3.3,1.2-5.5
				c0-2.2-0.4-4-1.2-5.5c-0.8-1.5-1.9-2.6-3.2-3.3c-1.3-0.7-2.8-1.1-4.4-1.1C296.9,45.2,295.4,45.6,294.1,46.3 M306.3,41.7
				c2.3,1.2,4.1,3,5.4,5.3c1.3,2.3,1.9,5,1.9,8.1c0,3.2-0.6,5.9-1.9,8.2c-1.3,2.3-3.1,4.1-5.4,5.3c-2.3,1.2-4.9,1.8-7.8,1.8
				c-2.9,0-5.5-0.6-7.8-1.8c-2.3-1.2-4.1-3-5.4-5.4c-1.3-2.3-2-5.1-2-8.2c0-3.1,0.7-5.8,2-8.1c1.3-2.3,3.1-4.1,5.4-5.3
				c2.3-1.2,4.9-1.9,7.8-1.9C301.4,39.8,304,40.4,306.3,41.7"/>
			<defs>
				<filter id="Adobe_OpacityMaskFilter_3_" filterUnits="userSpaceOnUse" x="320.6" y="28.5" width="16.9" height="41.6">
					<feColorMatrix  type="matrix" values="1 0 0 0 0  0 1 0 0 0  0 0 1 0 0  0 0 0 1 0"/>
				</filter>
			</defs>
			<mask maskUnits="userSpaceOnUse" x="320.6" y="28.5" width="16.9" height="41.6" id="mask-2_4_">
				<g class="st7">
					<polygon id="path-1_4_" class="st0" points="0.8,84.8 646.9,84.8 646.9,0 0.8,0 					"/>
				</g>
			</mask>
			<path id="Fill-10" class="st8" d="M332.4,35.2c-1,0.9-1.5,2.4-1.5,4.5v0.5h6.6v5.3h-6.6v24.6h-6.2V45.5h-4.1v-5.3h4.1v-1
				c0-3.7,1.1-6.4,3.2-8.2c2.1-1.8,5.3-2.6,9.6-2.4V34C335.1,33.9,333.4,34.3,332.4,35.2"/>
			<defs>
				<filter id="Adobe_OpacityMaskFilter_4_" filterUnits="userSpaceOnUse" x="344.9" y="32.8" width="17.8" height="37.4">
					<feColorMatrix  type="matrix" values="1 0 0 0 0  0 1 0 0 0  0 0 1 0 0  0 0 0 1 0"/>
				</filter>
			</defs>
			<mask maskUnits="userSpaceOnUse" x="344.9" y="32.8" width="17.8" height="37.4" id="mask-2_5_">
				<g class="st9">
					<polygon id="path-1_5_" class="st0" points="0.8,84.8 646.9,84.8 646.9,0 0.8,0 					"/>
				</g>
			</mask>
			<path id="Fill-11" class="st10" d="M362.7,64.8v5.4h-3.8c-3.2,0-5.6-0.8-7.3-2.3c-1.6-1.5-2.5-4.1-2.5-7.7V45.5h-4.3v-5.3h4.3
				v-7.4h6.2v7.4h7.2v5.3h-7.2v14.8c0,1.7,0.3,2.9,1,3.5c0.6,0.7,1.7,1,3.3,1H362.7z"/>
			<defs>
				<filter id="Adobe_OpacityMaskFilter_5_" filterUnits="userSpaceOnUse" x="369.2" y="18.8" width="20.8" height="60.9">
					<feColorMatrix  type="matrix" values="1 0 0 0 0  0 1 0 0 0  0 0 1 0 0  0 0 0 1 0"/>
				</filter>
			</defs>
			<mask maskUnits="userSpaceOnUse" x="369.2" y="18.8" width="20.8" height="60.9" id="mask-2_6_">
				<g class="st11">
					<polygon id="path-1_6_" class="st0" points="0.8,84.8 646.9,84.8 646.9,0 0.8,0 					"/>
				</g>
			</mask>
			<polygon id="Fill-12" class="st12" points="390,18.8 375.2,79.7 369.2,79.7 384,18.8 			"/>
			<defs>
				<filter id="Adobe_OpacityMaskFilter_6_" filterUnits="userSpaceOnUse" x="396" y="39.7" width="49.1" height="30.4">
					<feColorMatrix  type="matrix" values="1 0 0 0 0  0 1 0 0 0  0 0 1 0 0  0 0 0 1 0"/>
				</filter>
			</defs>
			<mask maskUnits="userSpaceOnUse" x="396" y="39.7" width="49.1" height="30.4" id="mask-2_7_">
				<g class="st13">
					<polygon id="path-1_7_" class="st0" points="0.8,84.8 646.9,84.8 646.9,0 0.8,0 					"/>
				</g>
			</mask>
			<path id="Fill-13" class="st14" d="M441.9,43.1c2.1,2.2,3.2,5.4,3.2,9.6v17.4h-6.2V53.3c0-2.6-0.6-4.6-2-6.1
				c-1.3-1.4-3.1-2.1-5.4-2.1c-2.4,0-4.3,0.8-5.8,2.3c-1.4,1.5-2.1,3.8-2.1,6.8v15.9h-6.2V53.3c0-2.6-0.7-4.6-2-6.1
				c-1.3-1.4-3.1-2.1-5.4-2.1c-2.4,0-4.4,0.8-5.8,2.3s-2.1,3.8-2.1,6.8v15.9H396V40.2h6.2v6.2c0.8-2.2,2-3.8,3.8-5
				c1.8-1.2,3.9-1.7,6.2-1.7c2.5,0,4.7,0.6,6.5,1.8c1.8,1.2,3.2,3,4,5.3c0.9-2.2,2.3-4,4.2-5.3c1.9-1.3,4.1-1.9,6.5-1.9
				C437,39.7,439.8,40.8,441.9,43.1"/>
			<defs>
				<filter id="Adobe_OpacityMaskFilter_7_" filterUnits="userSpaceOnUse" x="455.1" y="39.8" width="30.8" height="30.7">
					<feColorMatrix  type="matrix" values="1 0 0 0 0  0 1 0 0 0  0 0 1 0 0  0 0 0 1 0"/>
				</filter>
			</defs>
			<mask maskUnits="userSpaceOnUse" x="455.1" y="39.8" width="30.8" height="30.7" id="mask-2_8_">
				<g class="st15">
					<polygon id="path-1_8_" class="st0" points="0.8,84.8 646.9,84.8 646.9,0 0.8,0 					"/>
				</g>
			</mask>
			<path id="Fill-14" class="st16" d="M463.9,47.9c-1.6,1.8-2.5,4.2-2.5,7.3c0,3.1,0.8,5.5,2.5,7.3c1.6,1.8,3.8,2.6,6.6,2.6
				c1.7,0,3.3-0.4,4.7-1.2c1.4-0.8,2.5-2,3.3-3.4c0.8-1.5,1.2-3.2,1.2-5.2c0-2-0.4-3.7-1.2-5.2c-0.8-1.5-1.9-2.7-3.3-3.5
				c-1.4-0.8-2.9-1.2-4.7-1.2C467.7,45.3,465.5,46.1,463.9,47.9 M475.5,41.8c1.9,1.3,3.3,3.1,4.1,5.3v-6.9h6.2v29.9h-6.2v-7
				c-0.8,2.2-2.2,4-4.1,5.3c-1.9,1.3-4.2,2-7,2c-2.6,0-4.9-0.6-7-1.9c-2-1.2-3.6-3-4.8-5.3c-1.2-2.3-1.7-5.1-1.7-8.2
				c0-3.1,0.6-5.8,1.7-8.2c1.2-2.3,2.8-4.1,4.8-5.3c2-1.2,4.4-1.8,7-1.8C471.3,39.8,473.6,40.5,475.5,41.8"/>
			<defs>
				<filter id="Adobe_OpacityMaskFilter_8_" filterUnits="userSpaceOnUse" x="497.5" y="39.7" width="28.3" height="30.4">
					<feColorMatrix  type="matrix" values="1 0 0 0 0  0 1 0 0 0  0 0 1 0 0  0 0 0 1 0"/>
				</filter>
			</defs>
			<mask maskUnits="userSpaceOnUse" x="497.5" y="39.7" width="28.3" height="30.4" id="mask-2_9_">
				<g class="st17">
					<polygon id="path-1_9_" class="st0" points="0.8,84.8 646.9,84.8 646.9,0 0.8,0 					"/>
				</g>
			</mask>
			<path id="Fill-15" class="st18" d="M522.6,43.1c2.1,2.2,3.2,5.4,3.2,9.6v17.4h-6.2V53.3c0-2.7-0.7-4.8-2.1-6.2
				c-1.4-1.5-3.3-2.2-5.6-2.2c-2.5,0-4.4,0.8-5.9,2.4c-1.5,1.6-2.2,3.9-2.2,6.9v15.9h-6.2V40.2h6.2v6.6c0.8-2.2,2.1-4,4-5.2
				c1.9-1.2,4.1-1.8,6.5-1.8C517.7,39.7,520.5,40.8,522.6,43.1"/>
			<defs>
				<filter id="Adobe_OpacityMaskFilter_9_" filterUnits="userSpaceOnUse" x="535.7" y="39.8" width="30.8" height="30.7">
					<feColorMatrix  type="matrix" values="1 0 0 0 0  0 1 0 0 0  0 0 1 0 0  0 0 0 1 0"/>
				</filter>
			</defs>
			<mask maskUnits="userSpaceOnUse" x="535.7" y="39.8" width="30.8" height="30.7" id="mask-2_10_">
				<g class="st19">
					<polygon id="path-1_10_" class="st0" points="0.8,84.8 646.9,84.8 646.9,0 0.8,0 					"/>
				</g>
			</mask>
			<path id="Fill-16" class="st20" d="M544.5,47.9c-1.6,1.8-2.5,4.2-2.5,7.3c0,3.1,0.8,5.5,2.5,7.3c1.6,1.8,3.8,2.6,6.6,2.6
				c1.7,0,3.3-0.4,4.7-1.2c1.4-0.8,2.5-2,3.3-3.4c0.8-1.5,1.2-3.2,1.2-5.2c0-2-0.4-3.7-1.2-5.2c-0.8-1.5-1.9-2.7-3.3-3.5
				c-1.4-0.8-2.9-1.2-4.7-1.2C548.4,45.3,546.2,46.1,544.5,47.9 M556.2,41.8c1.9,1.3,3.3,3.1,4.1,5.3v-6.9h6.2v29.9h-6.2v-7
				c-0.8,2.2-2.2,4-4.1,5.3c-1.9,1.3-4.2,2-7,2c-2.6,0-4.9-0.6-7-1.9c-2-1.2-3.6-3-4.8-5.3c-1.2-2.3-1.7-5.1-1.7-8.2
				c0-3.1,0.6-5.8,1.7-8.2c1.2-2.3,2.8-4.1,4.8-5.3c2-1.2,4.4-1.8,7-1.8C551.9,39.8,554.3,40.5,556.2,41.8"/>
			<defs>
				<filter id="Adobe_OpacityMaskFilter_10_" filterUnits="userSpaceOnUse" x="576.7" y="39.8" width="30.8" height="45">
					<feColorMatrix  type="matrix" values="1 0 0 0 0  0 1 0 0 0  0 0 1 0 0  0 0 0 1 0"/>
				</filter>
			</defs>
			<mask maskUnits="userSpaceOnUse" x="576.7" y="39.8" width="30.8" height="45" id="mask-2_11_">
				<g class="st21">
					<polygon id="path-1_11_" class="st0" points="0.8,84.8 646.9,84.8 646.9,0 0.8,0 					"/>
				</g>
			</mask>
			<path id="Fill-17" class="st22" d="M585.5,47.9c-1.6,1.8-2.5,4.2-2.5,7.3c0,3.1,0.8,5.5,2.5,7.3c1.6,1.8,3.8,2.6,6.6,2.6
				c1.7,0,3.3-0.4,4.7-1.2c1.4-0.8,2.5-2,3.3-3.4c0.8-1.5,1.2-3.2,1.2-5.2c0-2-0.4-3.7-1.2-5.2c-0.8-1.5-1.9-2.7-3.3-3.5
				c-1.4-0.8-2.9-1.2-4.7-1.2C589.4,45.3,587.2,46.1,585.5,47.9 M597.2,41.8c1.9,1.3,3.3,3.1,4.1,5.3v-6.9h6.2v30.3
				c0,2.8-0.6,5.3-1.7,7.4c-1.1,2.2-2.8,3.9-4.9,5.1c-2.1,1.2-4.7,1.8-7.6,1.8c-4.2,0-7.6-1-10.2-3c-2.6-2-4.2-4.7-4.9-8.1h6.1
				c0.5,1.8,1.5,3.2,2.9,4.2c1.4,1,3.3,1.5,5.5,1.5c2.5,0,4.5-0.8,6.1-2.3c1.6-1.5,2.4-3.7,2.4-6.6v-7.3c-0.8,2.2-2.2,4-4.1,5.3
				c-1.9,1.3-4.2,2-7,2c-2.6,0-4.9-0.6-7-1.9c-2-1.2-3.6-3-4.8-5.3c-1.2-2.3-1.7-5.1-1.7-8.2c0-3.1,0.6-5.8,1.7-8.2
				c1.2-2.3,2.8-4.1,4.8-5.3c2-1.2,4.4-1.8,7-1.8C592.9,39.8,595.3,40.5,597.2,41.8"/>
			<defs>
				<filter id="Adobe_OpacityMaskFilter_11_" filterUnits="userSpaceOnUse" x="617.6" y="39.8" width="29.3" height="30.7">
					<feColorMatrix  type="matrix" values="1 0 0 0 0  0 1 0 0 0  0 0 1 0 0  0 0 0 1 0"/>
				</filter>
			</defs>
			<mask maskUnits="userSpaceOnUse" x="617.6" y="39.8" width="29.3" height="30.7" id="mask-2_12_">
				<g class="st23">
					<polygon id="path-1_12_" class="st0" points="0.8,84.8 646.9,84.8 646.9,0 0.8,0 					"/>
				</g>
			</mask>
			<path id="Fill-18" class="st24" d="M639.7,48.6c-0.7-1.3-1.8-2.3-3.1-2.9c-1.3-0.6-2.7-0.9-4.2-0.9c-2.4,0-4.5,0.7-6.1,2.2
				c-1.6,1.5-2.5,3.7-2.7,6.6h17C640.8,51.6,640.4,50,639.7,48.6 M646.7,56.4h-23c0.1,3.1,1,5.4,2.6,6.8c1.6,1.5,3.6,2.2,5.9,2.2
				c2.1,0,3.8-0.5,5.2-1.6c1.4-1,2.3-2.4,2.6-4.2h6.6c-0.4,2.1-1.2,4-2.5,5.6c-1.3,1.6-2.9,2.9-4.9,3.8c-2,0.9-4.3,1.4-6.8,1.4
				c-2.9,0-5.5-0.6-7.7-1.9c-2.2-1.2-4-3-5.2-5.3c-1.3-2.3-1.9-5-1.9-8.2c0-3.1,0.6-5.8,1.9-8.2c1.3-2.3,3-4.1,5.2-5.3
				c2.2-1.2,4.8-1.9,7.7-1.9c2.9,0,5.5,0.6,7.7,1.8c2.2,1.2,3.9,2.9,5,5c1.2,2.1,1.8,4.5,1.8,7.1C646.9,54.7,646.9,55.6,646.7,56.4"
				/>
			<defs>
				<filter id="Adobe_OpacityMaskFilter_12_" filterUnits="userSpaceOnUse" x="27.5" y="0" width="36.1" height="31.8">
					<feColorMatrix  type="matrix" values="1 0 0 0 0  0 1 0 0 0  0 0 1 0 0  0 0 0 1 0"/>
				</filter>
			</defs>
			<mask maskUnits="userSpaceOnUse" x="27.5" y="0" width="36.1" height="31.8" id="mask-2_13_">
				<g class="st25">
					<polygon id="path-1_13_" class="st0" points="0.8,84.8 646.9,84.8 646.9,0 0.8,0 					"/>
				</g>
			</mask>
			<polygon id="Fill-19" class="st26" points="45.7,0 45.7,23.5 32.4,23.5 27.5,31.8 63.7,31.8 			"/>
			<defs>
				<filter id="Adobe_OpacityMaskFilter_13_" filterUnits="userSpaceOnUse" x="0.8" y="60" width="88.7" height="16.6">
					<feColorMatrix  type="matrix" values="1 0 0 0 0  0 1 0 0 0  0 0 1 0 0  0 0 0 1 0"/>
				</filter>
			</defs>
			<mask maskUnits="userSpaceOnUse" x="0.8" y="60" width="88.7" height="16.6" id="mask-2_14_">
				<g class="st27">
					<polygon id="path-1_14_" class="st0" points="0.8,84.8 646.9,84.8 646.9,0 0.8,0 					"/>
				</g>
			</mask>
			<polygon id="Fill-20" class="st28" points="45.7,60 45.7,68.3 5.7,68.3 0.8,76.6 89.4,76.6 80.1,60 			"/>
			<defs>
				<filter id="Adobe_OpacityMaskFilter_14_" filterUnits="userSpaceOnUse" x="14.4" y="37.6" width="61.9" height="16.6">
					<feColorMatrix  type="matrix" values="1 0 0 0 0  0 1 0 0 0  0 0 1 0 0  0 0 0 1 0"/>
				</filter>
			</defs>
			<mask maskUnits="userSpaceOnUse" x="14.4" y="37.6" width="61.9" height="16.6" id="mask-2_15_">
				<g class="st29">
					<polygon id="path-1_15_" class="st0" points="0.8,84.8 646.9,84.8 646.9,0 0.8,0 					"/>
				</g>
			</mask>
			<polygon id="Fill-21" class="st30" points="66.9,37.6 45.7,37.6 45.7,45.9 19.3,45.9 14.4,54.2 76.3,54.2 			"/>
		</g>
	</g>
</g>
</svg>
