<?xml version="1.0" encoding="utf-8"?>
<!-- Generator: Adobe Illustrator 24.0.1, SVG Export Plug-In . SVG Version: 6.00 Build 0)  -->
<svg version="1.1" id="Calque_1" xmlns="http://www.w3.org/2000/svg" x="0px" y="0px"
     viewBox="0 0 635 86.1" style="enable-background:new 0 0 635 86.1;" xml:space="preserve">
<style type="text/css">
	.st0{fill-rule:evenodd;clip-rule:evenodd;fill:#FFFFFF;}
	.st1{filter:url(#Adobe_OpacityMaskFilter);}
	.st2{mask:url(#mask-2_1_);fill-rule:evenodd;clip-rule:evenodd;fill:#FFFFFF;}
	.st3{filter:url(#Adobe_OpacityMaskFilter_1_);}
	.st4{mask:url(#mask-2_2_);fill-rule:evenodd;clip-rule:evenodd;fill:#FFFFFF;}
	.st5{filter:url(#Adobe_OpacityMaskFilter_2_);}
	.st6{mask:url(#mask-2_3_);fill-rule:evenodd;clip-rule:evenodd;fill:#FFFFFF;}
	.st7{filter:url(#Adobe_OpacityMaskFilter_3_);}
	.st8{mask:url(#mask-2_4_);fill-rule:evenodd;clip-rule:evenodd;fill:#FFFFFF;}
	.st9{filter:url(#Adobe_OpacityMaskFilter_4_);}
	.st10{mask:url(#mask-2_5_);fill-rule:evenodd;clip-rule:evenodd;fill:#FFFFFF;}
	.st11{filter:url(#Adobe_OpacityMaskFilter_5_);}
	.st12{mask:url(#mask-2_6_);fill-rule:evenodd;clip-rule:evenodd;fill:#FFFFFF;}
	.st13{filter:url(#Adobe_OpacityMaskFilter_6_);}
	.st14{mask:url(#mask-2_7_);fill-rule:evenodd;clip-rule:evenodd;fill:#FFFFFF;}
	.st15{filter:url(#Adobe_OpacityMaskFilter_7_);}
	.st16{mask:url(#mask-2_8_);fill-rule:evenodd;clip-rule:evenodd;fill:#FFFFFF;}
	.st17{filter:url(#Adobe_OpacityMaskFilter_8_);}
	.st18{mask:url(#mask-2_9_);fill-rule:evenodd;clip-rule:evenodd;fill:#FFFFFF;}
	.st19{filter:url(#Adobe_OpacityMaskFilter_9_);}
	.st20{mask:url(#mask-2_10_);fill-rule:evenodd;clip-rule:evenodd;fill:#FFFFFF;}
	.st21{filter:url(#Adobe_OpacityMaskFilter_10_);}
	.st22{mask:url(#mask-2_11_);fill-rule:evenodd;clip-rule:evenodd;fill:#FFFFFF;}
	.st23{filter:url(#Adobe_OpacityMaskFilter_11_);}
	.st24{mask:url(#mask-2_12_);fill-rule:evenodd;clip-rule:evenodd;fill:#FFFFFF;}
	.st25{filter:url(#Adobe_OpacityMaskFilter_12_);}
	.st26{mask:url(#mask-2_13_);fill-rule:evenodd;clip-rule:evenodd;fill:#FFFFFF;}
	.st27{filter:url(#Adobe_OpacityMaskFilter_13_);}
	.st28{mask:url(#mask-2_14_);fill-rule:evenodd;clip-rule:evenodd;fill:#EF473D;}
	.st29{filter:url(#Adobe_OpacityMaskFilter_14_);}
	.st30{mask:url(#mask-2_15_);fill-rule:evenodd;clip-rule:evenodd;fill:#EF473D;}
	.st31{filter:url(#Adobe_OpacityMaskFilter_15_);}
	.st32{mask:url(#mask-2_16_);fill-rule:evenodd;clip-rule:evenodd;fill:#EF473D;}
</style>
<title>Equisoft Analyze Mobile Logo</title>
<g>
	<g id="Logo">
		<polygon id="Fill-1" class="st0" points="128.9,37.8 128.9,49.5 143.2,49.5 143.2,54.3 128.9,54.3 128.9,66.3 144.8,66.3
			144.8,71.4 122.6,71.4 122.6,32.7 144.8,32.7 144.8,37.8 		"/>
		<g id="Group-23" transform="translate(0.000000, 0.374253)">
			<path id="Fill-2" class="st0" d="M162,48.7c-1.7,1.8-2.6,4.2-2.6,7.4c0,3.1,0.8,5.6,2.6,7.3c1.7,1.7,3.9,2.6,6.6,2.6
				c1.7,0,3.2-0.4,4.6-1.2c1.4-0.8,2.5-1.9,3.3-3.4c0.8-1.5,1.3-3.3,1.3-5.4c0-2-0.4-3.8-1.3-5.3c-0.8-1.5-2-2.6-3.3-3.4
				s-2.9-1.2-4.6-1.2C165.9,46,163.7,46.9,162,48.7 M173.7,42.3c1.8,1.2,3.2,2.8,4.1,4.9v-6.3h6.3v44.5h-6.3v-21
				c-0.9,2.2-2.3,3.9-4.2,5.1c-1.8,1.2-4,1.9-6.5,1.9c-2.6,0-5-0.6-7.2-1.9c-2.2-1.3-3.9-3.1-5.1-5.4c-1.2-2.3-1.8-5-1.8-8.1
				c0-3.1,0.6-5.8,1.8-8.1c1.2-2.3,2.9-4.1,5.1-5.4c2.2-1.3,4.6-1.9,7.2-1.9C169.7,40.5,171.9,41.1,173.7,42.3"/>
			<path id="Fill-4" class="st0" d="M224,40.9V71h-6.3v-6.6c-0.8,2.2-2.1,3.9-4,5.2c-1.9,1.2-4.1,1.8-6.6,1.8
				c-3.5,0-6.3-1.1-8.5-3.4c-2.1-2.3-3.2-5.5-3.2-9.7V40.9h6.3v16.9c0,2.7,0.7,4.8,2.1,6.3c1.4,1.5,3.3,2.2,5.7,2.2
				c2.5,0,4.5-0.8,6-2.4c1.5-1.6,2.3-3.9,2.3-7v-16H224z"/>
			<g id="Clip-7">
			</g>
			<defs>
				<filter id="Adobe_OpacityMaskFilter" filterUnits="userSpaceOnUse" x="235" y="28.4" width="8.1" height="42.6">
					<feColorMatrix  type="matrix" values="1 0 0 0 0  0 1 0 0 0  0 0 1 0 0  0 0 0 1 0"/>
				</filter>
			</defs>
			<mask maskUnits="userSpaceOnUse" x="235" y="28.4" width="8.1" height="42.6" id="mask-2_1_">
				<g class="st1">
					<polygon id="path-1_1_" class="st0" points="-0.2,85.4 634.2,85.4 634.2,0.3 -0.2,0.3 					"/>
				</g>
			</mask>
			<path id="Fill-6" class="st2" d="M235.8,71h6.3V40.9h-6.3V71z M236.1,29.5c0.7-0.7,1.7-1,2.9-1c1.2,0,2.2,0.4,2.9,1
				c0.7,0.7,1.1,1.6,1.1,2.6c0,1.1-0.4,1.9-1.1,2.6c-0.8,0.7-1.7,1-2.9,1c-1.2,0-2.2-0.3-2.9-1c-0.7-0.7-1.1-1.5-1.1-2.6
				C235,31,235.3,30.2,236.1,29.5L236.1,29.5z"/>
			<defs>
				<filter id="Adobe_OpacityMaskFilter_1_" filterUnits="userSpaceOnUse" x="252.5" y="40.5" width="24" height="30.9">
					<feColorMatrix  type="matrix" values="1 0 0 0 0  0 1 0 0 0  0 0 1 0 0  0 0 0 1 0"/>
				</filter>
			</defs>
			<mask maskUnits="userSpaceOnUse" x="252.5" y="40.5" width="24" height="30.9" id="mask-2_2_">
				<g class="st3">
					<polygon id="path-1_2_" class="st0" points="-0.2,85.4 634.2,85.4 634.2,0.3 -0.2,0.3 					"/>
				</g>
			</mask>
			<path id="Fill-8" class="st4" d="M272.3,43.2c2.1,1.8,3.5,4.2,3.9,7.3h-5.9c-0.3-1.6-1-3-2.1-4c-1.2-1-2.7-1.5-4.6-1.5
				c-1.6,0-2.8,0.4-3.6,1.1c-0.9,0.8-1.3,1.8-1.3,3c0,0.9,0.3,1.7,0.9,2.3c0.6,0.6,1.4,1,2.3,1.4c0.9,0.3,2.3,0.7,4,1.1
				c2.3,0.5,4.1,1,5.5,1.6c1.4,0.5,2.6,1.4,3.6,2.6c1,1.2,1.5,2.8,1.5,4.8c0,2.5-1,4.6-2.9,6.1c-1.9,1.6-4.5,2.4-7.8,2.4
				c-3.8,0-6.8-0.9-9.1-2.6c-2.3-1.8-3.7-4.2-4.2-7.3h6.1c0.2,1.7,0.9,3,2.2,4c1.3,1,3,1.5,5,1.5c1.5,0,2.7-0.4,3.5-1.2
				c0.9-0.8,1.3-1.8,1.3-3c0-1.1-0.3-1.9-1-2.5c-0.7-0.6-1.5-1.1-2.5-1.4c-1-0.4-2.3-0.7-4.1-1.1c-2.2-0.5-4-1-5.4-1.5
				c-1.4-0.5-2.5-1.3-3.5-2.5c-1-1.2-1.5-2.7-1.5-4.7c0-2.6,1-4.6,2.9-6.2c1.9-1.6,4.6-2.4,8-2.4C267.3,40.5,270.1,41.4,272.3,43.2"
				/>
			<defs>
				<filter id="Adobe_OpacityMaskFilter_2_" filterUnits="userSpaceOnUse" x="285.2" y="40.5" width="30.7" height="30.9">
					<feColorMatrix  type="matrix" values="1 0 0 0 0  0 1 0 0 0  0 0 1 0 0  0 0 0 1 0"/>
				</filter>
			</defs>
			<mask maskUnits="userSpaceOnUse" x="285.2" y="40.5" width="30.7" height="30.9" id="mask-2_3_">
				<g class="st5">
					<polygon id="path-1_3_" class="st0" points="-0.2,85.4 634.2,85.4 634.2,0.3 -0.2,0.3 					"/>
				</g>
			</mask>
			<path id="Fill-9" class="st6" d="M296.2,47c-1.4,0.7-2.4,1.9-3.3,3.4s-1.2,3.4-1.2,5.6c0,2.2,0.4,4.1,1.2,5.6s1.9,2.6,3.3,3.3
				c1.4,0.7,2.8,1.1,4.5,1.1c1.6,0,3.1-0.4,4.4-1.1c1.4-0.7,2.4-1.8,3.3-3.3c0.8-1.5,1.2-3.4,1.2-5.6c0-2.2-0.4-4-1.2-5.6
				c-0.8-1.5-1.9-2.6-3.3-3.4c-1.4-0.7-2.8-1.1-4.4-1.1C299,45.9,297.5,46.3,296.2,47 M308.5,42.3c2.3,1.2,4.2,3,5.5,5.4
				c1.3,2.3,2,5.1,2,8.2c0,3.2-0.7,5.9-2,8.3c-1.3,2.3-3.2,4.1-5.5,5.4c-2.3,1.2-5,1.9-7.9,1.9c-2.9,0-5.6-0.6-7.9-1.9
				c-2.3-1.2-4.2-3-5.5-5.4c-1.3-2.4-2-5.1-2-8.2c0-3.1,0.7-5.9,2-8.2c1.3-2.3,3.2-4.1,5.5-5.4c2.3-1.2,5-1.9,7.9-1.9
				C303.6,40.5,306.2,41.1,308.5,42.3"/>
			<defs>
				<filter id="Adobe_OpacityMaskFilter_3_" filterUnits="userSpaceOnUse" x="323" y="29.1" width="17.1" height="41.9">
					<feColorMatrix  type="matrix" values="1 0 0 0 0  0 1 0 0 0  0 0 1 0 0  0 0 0 1 0"/>
				</filter>
			</defs>
			<mask maskUnits="userSpaceOnUse" x="323" y="29.1" width="17.1" height="41.9" id="mask-2_4_">
				<g class="st7">
					<polygon id="path-1_4_" class="st0" points="-0.2,85.4 634.2,85.4 634.2,0.3 -0.2,0.3 					"/>
				</g>
			</mask>
			<path id="Fill-10" class="st8" d="M334.9,35.8c-1,0.9-1.5,2.4-1.5,4.6v0.5h6.6v5.4h-6.6V71h-6.3V46.2H323v-5.4h4.1v-1
				c0-3.7,1.1-6.4,3.2-8.3c2.2-1.8,5.4-2.7,9.7-2.4v5.5C337.6,34.5,335.9,34.9,334.9,35.8"/>
			<defs>
				<filter id="Adobe_OpacityMaskFilter_4_" filterUnits="userSpaceOnUse" x="347.5" y="33.4" width="18" height="37.7">
					<feColorMatrix  type="matrix" values="1 0 0 0 0  0 1 0 0 0  0 0 1 0 0  0 0 0 1 0"/>
				</filter>
			</defs>
			<mask maskUnits="userSpaceOnUse" x="347.5" y="33.4" width="18" height="37.7" id="mask-2_5_">
				<g class="st9">
					<polygon id="path-1_5_" class="st0" points="-0.2,85.4 634.2,85.4 634.2,0.3 -0.2,0.3 					"/>
				</g>
			</mask>
			<path id="Fill-11" class="st10" d="M365.5,65.6V71h-3.8c-3.2,0-5.7-0.8-7.3-2.3c-1.7-1.5-2.5-4.1-2.5-7.7V46.2h-4.3v-5.3h4.3
				v-7.5h6.3v7.5h7.3v5.3h-7.3v14.9c0,1.7,0.3,2.9,1,3.6c0.6,0.7,1.8,1,3.4,1H365.5z"/>
			<defs>
				<filter id="Adobe_OpacityMaskFilter_5_" filterUnits="userSpaceOnUse" x="372.1" y="19.3" width="21" height="61.3">
					<feColorMatrix  type="matrix" values="1 0 0 0 0  0 1 0 0 0  0 0 1 0 0  0 0 0 1 0"/>
				</filter>
			</defs>
			<mask maskUnits="userSpaceOnUse" x="372.1" y="19.3" width="21" height="61.3" id="mask-2_6_">
				<g class="st11">
					<polygon id="path-1_6_" class="st0" points="-0.2,85.4 634.2,85.4 634.2,0.3 -0.2,0.3 					"/>
				</g>
			</mask>
			<polygon id="Fill-12" class="st12" points="393.1,19.3 378.2,80.7 372.1,80.7 387,19.3 			"/>
			<defs>
				<filter id="Adobe_OpacityMaskFilter_6_" filterUnits="userSpaceOnUse" x="397.2" y="40.5" width="31.1" height="30.9">
					<feColorMatrix  type="matrix" values="1 0 0 0 0  0 1 0 0 0  0 0 1 0 0  0 0 0 1 0"/>
				</filter>
			</defs>
			<mask maskUnits="userSpaceOnUse" x="397.2" y="40.5" width="31.1" height="30.9" id="mask-2_7_">
				<g class="st13">
					<polygon id="path-1_7_" class="st0" points="-0.2,85.4 634.2,85.4 634.2,0.3 -0.2,0.3 					"/>
				</g>
			</mask>
			<path id="Fill-13" class="st14" d="M406.2,48.6c-1.7,1.8-2.5,4.2-2.5,7.3c0,3.1,0.8,5.5,2.5,7.3s3.9,2.7,6.7,2.7
				c1.8,0,3.3-0.4,4.7-1.2c1.4-0.8,2.5-2,3.3-3.5c0.8-1.5,1.2-3.3,1.2-5.3c0-2-0.4-3.7-1.2-5.2c-0.8-1.5-1.9-2.7-3.3-3.5
				c-1.4-0.8-3-1.2-4.7-1.2C410.1,46,407.8,46.8,406.2,48.6 M417.9,42.5c1.9,1.3,3.3,3.1,4.1,5.4v-7h6.3V71h-6.3v-7
				c-0.8,2.2-2.2,4-4.1,5.4c-1.9,1.4-4.3,2-7,2c-2.6,0-5-0.6-7.1-1.9c-2.1-1.2-3.7-3-4.9-5.4c-1.2-2.3-1.8-5.1-1.8-8.3
				c0-3.1,0.6-5.9,1.8-8.2c1.2-2.3,2.8-4.1,4.9-5.4c2.1-1.2,4.4-1.9,7.1-1.9C413.7,40.5,416,41.2,417.9,42.5"/>
			<defs>
				<filter id="Adobe_OpacityMaskFilter_7_" filterUnits="userSpaceOnUse" x="440.1" y="40.4" width="28.6" height="30.7">
					<feColorMatrix  type="matrix" values="1 0 0 0 0  0 1 0 0 0  0 0 1 0 0  0 0 0 1 0"/>
				</filter>
			</defs>
			<mask maskUnits="userSpaceOnUse" x="440.1" y="40.4" width="28.6" height="30.7" id="mask-2_8_">
				<g class="st15">
					<polygon id="path-1_8_" class="st0" points="-0.2,85.4 634.2,85.4 634.2,0.3 -0.2,0.3 					"/>
				</g>
			</mask>
			<path id="Fill-14" class="st16" d="M465.5,43.8c2.1,2.3,3.2,5.5,3.2,9.7V71h-6.3V54.1c0-2.7-0.7-4.8-2.1-6.3
				c-1.4-1.5-3.3-2.2-5.7-2.2c-2.5,0-4.5,0.8-6,2.4c-1.5,1.6-2.2,3.9-2.2,7V71h-6.3V40.9h6.3v6.6c0.8-2.3,2.2-4,4.1-5.3
				c1.9-1.2,4.1-1.9,6.6-1.9C460.6,40.4,463.4,41.5,465.5,43.8"/>
			<defs>
				<filter id="Adobe_OpacityMaskFilter_8_" filterUnits="userSpaceOnUse" x="478.8" y="40.5" width="31.1" height="30.9">
					<feColorMatrix  type="matrix" values="1 0 0 0 0  0 1 0 0 0  0 0 1 0 0  0 0 0 1 0"/>
				</filter>
			</defs>
			<mask maskUnits="userSpaceOnUse" x="478.8" y="40.5" width="31.1" height="30.9" id="mask-2_9_">
				<g class="st17">
					<polygon id="path-1_9_" class="st0" points="-0.2,85.4 634.2,85.4 634.2,0.3 -0.2,0.3 					"/>
				</g>
			</mask>
			<path id="Fill-15" class="st18" d="M487.7,48.6c-1.7,1.8-2.5,4.2-2.5,7.3c0,3.1,0.8,5.5,2.5,7.3c1.7,1.8,3.9,2.7,6.7,2.7
				c1.8,0,3.3-0.4,4.7-1.2c1.4-0.8,2.5-2,3.3-3.5c0.8-1.5,1.2-3.3,1.2-5.3c0-2-0.4-3.7-1.2-5.2c-0.8-1.5-1.9-2.7-3.3-3.5
				c-1.4-0.8-3-1.2-4.7-1.2C491.6,46,489.3,46.8,487.7,48.6 M499.5,42.5c1.9,1.3,3.3,3.1,4.1,5.4v-7h6.3V71h-6.3v-7
				c-0.8,2.2-2.2,4-4.1,5.4c-1.9,1.4-4.3,2-7,2c-2.6,0-5-0.6-7.1-1.9c-2.1-1.2-3.7-3-4.9-5.4s-1.8-5.1-1.8-8.3
				c0-3.1,0.6-5.9,1.8-8.2c1.2-2.3,2.8-4.1,4.9-5.4c2.1-1.2,4.4-1.9,7.1-1.9C495.2,40.5,497.5,41.2,499.5,42.5"/>
			<defs>
				<filter id="Adobe_OpacityMaskFilter_9_" filterUnits="userSpaceOnUse" x="521.6" y="30.5" width="6.3" height="40.5">
					<feColorMatrix  type="matrix" values="1 0 0 0 0  0 1 0 0 0  0 0 1 0 0  0 0 0 1 0"/>
				</filter>
			</defs>
			<mask maskUnits="userSpaceOnUse" x="521.6" y="30.5" width="6.3" height="40.5" id="mask-2_10_">
				<g class="st19">
					<polygon id="path-1_10_" class="st0" points="-0.2,85.4 634.2,85.4 634.2,0.3 -0.2,0.3 					"/>
				</g>
			</mask>
			<polygon id="Fill-16" class="st20" points="521.6,71 527.9,71 527.9,30.5 521.6,30.5 			"/>
			<defs>
				<filter id="Adobe_OpacityMaskFilter_10_" filterUnits="userSpaceOnUse" x="536.4" y="40.9" width="31.5" height="44.5">
					<feColorMatrix  type="matrix" values="1 0 0 0 0  0 1 0 0 0  0 0 1 0 0  0 0 0 1 0"/>
				</filter>
			</defs>
			<mask maskUnits="userSpaceOnUse" x="536.4" y="40.9" width="31.5" height="44.5" id="mask-2_11_">
				<g class="st21">
					<polygon id="path-1_11_" class="st0" points="-0.2,85.4 634.2,85.4 634.2,0.3 -0.2,0.3 					"/>
				</g>
			</mask>
			<polygon id="Fill-17" class="st22" points="543.4,40.9 552.5,63.1 560.9,40.9 567.9,40.9 549.6,85.4 542.6,85.4 549.1,70.3
				536.4,40.9 			"/>
			<defs>
				<filter id="Adobe_OpacityMaskFilter_11_" filterUnits="userSpaceOnUse" x="574.9" y="40.9" width="22.5" height="30.2">
					<feColorMatrix  type="matrix" values="1 0 0 0 0  0 1 0 0 0  0 0 1 0 0  0 0 0 1 0"/>
				</filter>
			</defs>
			<mask maskUnits="userSpaceOnUse" x="574.9" y="40.9" width="22.5" height="30.2" id="mask-2_12_">
				<g class="st23">
					<polygon id="path-1_12_" class="st0" points="-0.2,85.4 634.2,85.4 634.2,0.3 -0.2,0.3 					"/>
				</g>
			</mask>
			<polygon id="Fill-18" class="st24" points="581.8,65.8 597.4,65.8 597.4,71 574.9,71 574.9,66.1 589.6,46.1 575.3,46.1
				575.3,40.9 596.8,40.9 596.8,45.8 			"/>
			<defs>
				<filter id="Adobe_OpacityMaskFilter_12_" filterUnits="userSpaceOnUse" x="604.5" y="40.5" width="29.6" height="30.9">
					<feColorMatrix  type="matrix" values="1 0 0 0 0  0 1 0 0 0  0 0 1 0 0  0 0 0 1 0"/>
				</filter>
			</defs>
			<mask maskUnits="userSpaceOnUse" x="604.5" y="40.5" width="29.6" height="30.9" id="mask-2_13_">
				<g class="st25">
					<polygon id="path-1_13_" class="st0" points="-0.2,85.4 634.2,85.4 634.2,0.3 -0.2,0.3 					"/>
				</g>
			</mask>
			<path id="Fill-19" class="st26" d="M626.8,49.4c-0.8-1.3-1.8-2.3-3.1-3c-1.3-0.6-2.7-1-4.3-1c-2.4,0-4.5,0.7-6.1,2.2
				c-1.6,1.5-2.5,3.7-2.7,6.6h17.2C627.9,52.4,627.6,50.7,626.8,49.4 M634,57.2h-23.3c0.1,3.1,1,5.4,2.6,6.9c1.6,1.5,3.6,2.2,6,2.2
				c2.1,0,3.9-0.5,5.3-1.6c1.4-1,2.3-2.5,2.7-4.2h6.7c-0.4,2.1-1.2,4-2.5,5.6c-1.3,1.6-2.9,2.9-5,3.9c-2.1,0.9-4.3,1.4-6.9,1.4
				c-2.9,0-5.5-0.6-7.8-1.9c-2.3-1.2-4-3-5.3-5.4c-1.3-2.3-1.9-5.1-1.9-8.3c0-3.1,0.6-5.9,1.9-8.2c1.3-2.3,3-4.1,5.3-5.4
				c2.3-1.2,4.8-1.9,7.8-1.9c3,0,5.6,0.6,7.8,1.8c2.2,1.2,3.9,2.9,5.1,5c1.2,2.1,1.8,4.5,1.8,7.2C634.2,55.5,634.1,56.4,634,57.2"/>
			<defs>
				<filter id="Adobe_OpacityMaskFilter_13_" filterUnits="userSpaceOnUse" x="26.9" y="0.3" width="36.5" height="32.1">
					<feColorMatrix  type="matrix" values="1 0 0 0 0  0 1 0 0 0  0 0 1 0 0  0 0 0 1 0"/>
				</filter>
			</defs>
			<mask maskUnits="userSpaceOnUse" x="26.9" y="0.3" width="36.5" height="32.1" id="mask-2_14_">
				<g class="st27">
					<polygon id="path-1_14_" class="st0" points="-0.2,85.4 634.2,85.4 634.2,0.3 -0.2,0.3 					"/>
				</g>
			</mask>
			<polygon id="Fill-20" class="st28" points="45.2,0.3 45.2,24.1 31.8,24.1 26.9,32.4 63.3,32.4 			"/>
			<defs>
				<filter id="Adobe_OpacityMaskFilter_14_" filterUnits="userSpaceOnUse" x="-0.2" y="60.8" width="89.6" height="16.7">
					<feColorMatrix  type="matrix" values="1 0 0 0 0  0 1 0 0 0  0 0 1 0 0  0 0 0 1 0"/>
				</filter>
			</defs>
			<mask maskUnits="userSpaceOnUse" x="-0.2" y="60.8" width="89.6" height="16.7" id="mask-2_15_">
				<g class="st29">
					<polygon id="path-1_15_" class="st0" points="-0.2,85.4 634.2,85.4 634.2,0.3 -0.2,0.3 					"/>
				</g>
			</mask>
			<polygon id="Fill-21" class="st30" points="45.2,60.8 45.2,69.2 4.7,69.2 -0.2,77.6 89.4,77.6 79.9,60.8 			"/>
			<defs>
				<filter id="Adobe_OpacityMaskFilter_15_" filterUnits="userSpaceOnUse" x="13.6" y="38.2" width="62.5" height="16.7">
					<feColorMatrix  type="matrix" values="1 0 0 0 0  0 1 0 0 0  0 0 1 0 0  0 0 0 1 0"/>
				</filter>
			</defs>
			<mask maskUnits="userSpaceOnUse" x="13.6" y="38.2" width="62.5" height="16.7" id="mask-2_16_">
				<g class="st31">
					<polygon id="path-1_16_" class="st0" points="-0.2,85.4 634.2,85.4 634.2,0.3 -0.2,0.3 					"/>
				</g>
			</mask>
			<polygon id="Fill-22" class="st32" points="66.6,38.2 45.2,38.2 45.2,46.6 18.5,46.6 13.6,55 76.1,55 			"/>
		</g>
	</g>
</g>
</svg>
