<?xml version="1.0" encoding="utf-8"?>
<!-- Generator: Adobe Illustrator 24.0.3, SVG Export Plug-In . SVG Version: 6.00 Build 0)  -->
<svg version="1.1" xmlns="http://www.w3.org/2000/svg" x="0px" y="0px"
     viewBox="0 0 527.6 161.6" style="enable-background:new 0 0 527.6 161.6;" xml:space="preserve">
<style type="text/css">
	.st0{fill:#EF473D;}
	.st1{fill:#FFFFFF;}
	.st2{display:none;}
	.st3{display:inline;fill:#B1B3B5;}
</style>
<title>Equisoft Analyze Logo</title>
<g id="Layer_1">
	<g>
		<g>
			<polygon class="st0" points="48.2,13.9 48.2,39.2 33.9,39.2 28.7,48 67.4,48 			"/>
			<polygon class="st0" points="48.2,78.3 48.2,87.2 5.2,87.2 0,96.1 95.1,96.1 85,78.3 			"/>
			<polygon class="st0" points="70.9,54.2 48.2,54.2 48.2,63.2 19.9,63.2 14.6,72 81,72 			"/>
		</g>
		<g>
			<polygon class="st0" points="319.2,150 312.8,150 329,123.2 335.2,123.2 			"/>
		</g>
	</g>
	<g>
		<g>
			<path class="st1" d="M165.5,60.2c-1.3-8.3-6.8-13.9-15.3-13.9c-8.3,0-14.5,5.9-15.8,13.9H165.5z M133.8,68.2
				c0.1,9.5,6.5,18.4,16.7,18.4c8.2,0,12.6-4.1,16.6-10.8l9,5.1c-5.2,9.6-14.9,15.2-25.7,15.2c-17,0-27.3-12.8-27.3-29.1
				c0-17.1,9.1-29.9,27-29.9c17.7,0,26,13,26,29.5v1.7H133.8z"/>
			<path class="st1" d="M228.8,66.4c0-10.8-6.5-19.9-18-19.9c-11,0-17.5,9.6-17.5,19.9c0,10.4,6.3,20.1,17.5,20.1
				C222.4,86.6,228.8,77.3,228.8,66.4 M238.9,123.1h-10.7V85.5H228c-4.3,6.3-11,10.5-18.8,10.5c-17.1,0-26.6-14.1-26.6-30
				c0-15.2,10.1-29,26.1-29c8.3,0,14.9,4.3,19.3,10.9h0.2v-9.2h10.7V123.1z"/>
			<path class="st1" d="M261.2,38.7v30.7c0,8.9,2.2,16.7,12.8,16.7c10.5,0,12.8-7.8,12.8-16.7V38.7h10.7v31.9
				c0,15.2-7.1,25.5-23.5,25.5c-16.4,0-23.5-10.3-23.5-25.5V38.7H261.2z"/>
			<path class="st1" d="M357.8,51.4c-1.3-2.7-4-4.9-7.1-4.9c-3,0-5.8,2.4-5.8,5.5c0,4.9,6.4,7,12.9,9.9c6.5,3,12.8,7,12.8,15.8
				c0,10.5-8.8,18.4-19.1,18.4c-8.1,0-16.2-4.6-19.2-12.4l9.1-4.1c2.2,4.1,5,7.1,10.1,7.1c4.5,0,8.4-3.1,8.4-7.8c0-3-1.4-4.4-3.9-6
				l-10.4-5.6c-6.2-3.3-10.7-6.4-10.7-14c0-9,7.4-16.1,16.4-16.1c6.8,0,12.2,3.7,15.2,9.7L357.8,51.4z"/>
			<path class="st1" d="M387.4,66.8c0,10.4,8.4,19.3,19,19.3c10.6,0,19-8.9,19-19.3c0-10.5-8.4-19.3-19-19.3
				C395.8,47.5,387.4,56.3,387.4,66.8 M436,66.8c0,16.7-13,29.5-29.6,29.5c-16.6,0-29.6-12.8-29.6-29.5c0-16.7,13-29.5,29.6-29.5
				C422.9,37.3,436,50.1,436,66.8"/>
			<path class="st1" d="M490.6,39V23.3h-10.7V39h-6.7h-14.7V25c0-5.5-0.1-15.1,7.5-15.2c2.7,0,5.8,0.5,7.2,0.9V1
				c-1.6-0.5-4.9-1-7.5-1c-13.8,0-17.9,9.7-17.9,21.8V39H443v10h4.9v45.5h10.7V48.9h14.7h6.7v45.5h10.7V48.9H501V39H490.6z"/>
			<rect x="310.6" y="38.7" class="st1" width="10.7" height="55.6"/>
			<path class="st1" d="M322.6,20.8c0,3.7-3,6.6-6.7,6.6c-3.7,0-6.7-2.9-6.7-6.6c0-3.8,3-6.8,6.7-6.8C319.6,14,322.6,17,322.6,20.8"
				/>
		</g>
		<g>
			<g>
				<path class="st1" d="M365.6,127c1.6,1.2,2.8,2.8,3.4,4.8v-6.2h4V150h-4v-6.2c-0.7,2-1.8,3.6-3.4,4.8c-1.6,1.2-3.7,1.8-6,1.8
					c-2.2,0-4.1-0.5-5.8-1.5c-1.7-1-3-2.5-4-4.3s-1.4-4.1-1.4-6.7c0-2.6,0.5-4.8,1.4-6.7c1-1.9,2.3-3.4,4-4.4c1.7-1,3.6-1.5,5.8-1.5
					C361.9,125.2,364,125.8,365.6,127z M354.7,131.2c-1.5,1.6-2.2,3.8-2.2,6.6c0,2.8,0.7,5,2.2,6.6s3.5,2.4,6,2.4
					c1.6,0,3-0.4,4.3-1.1c1.3-0.7,2.2-1.8,3-3.1s1.1-2.9,1.1-4.7c0-1.8-0.4-3.4-1.1-4.7c-0.7-1.4-1.7-2.4-3-3.1s-2.7-1.1-4.3-1.1
					C358.2,128.9,356.2,129.6,354.7,131.2z"/>
				<path class="st1" d="M401.2,127.9c1.8,1.8,2.6,4.5,2.6,7.9V150h-4v-13.8c0-2.4-0.6-4.3-1.9-5.6s-2.9-2-5.1-2
					c-2.2,0-4,0.7-5.3,2.2c-1.3,1.4-2,3.5-2,6.3V150h-4v-24.4h4v5.8c0.6-2,1.7-3.5,3.3-4.6c1.6-1.1,3.4-1.6,5.5-1.6
					C397.1,125.2,399.4,126.1,401.2,127.9z"/>
				<path class="st1" d="M428,127c1.6,1.2,2.8,2.8,3.4,4.8v-6.2h4V150h-4v-6.2c-0.7,2-1.8,3.6-3.4,4.8c-1.6,1.2-3.7,1.8-6,1.8
					c-2.2,0-4.1-0.5-5.8-1.5c-1.7-1-3-2.5-4-4.3s-1.4-4.1-1.4-6.7c0-2.6,0.5-4.8,1.4-6.7c1-1.9,2.3-3.4,4-4.4c1.7-1,3.6-1.5,5.8-1.5
					C424.3,125.2,426.3,125.8,428,127z M417.1,131.2c-1.5,1.6-2.2,3.8-2.2,6.6c0,2.8,0.7,5,2.2,6.6s3.5,2.4,6,2.4
					c1.6,0,3-0.4,4.3-1.1c1.3-0.7,2.2-1.8,3-3.1s1.1-2.9,1.1-4.7c0-1.8-0.4-3.4-1.1-4.7c-0.7-1.4-1.7-2.4-3-3.1s-2.7-1.1-4.3-1.1
					C420.6,128.9,418.6,129.6,417.1,131.2z"/>
				<path class="st1" d="M447.8,117.1V150h-4v-32.9H447.8z"/>
				<path class="st1" d="M458,125.6l7.9,19.2l7.3-19.2h4.5l-14.5,36h-4.6l5.1-12l-10.3-24H458z"/>
				<path class="st1" d="M486.7,146.6h13.1v3.4h-17.5v-3.2l12.5-17.8h-12.1v-3.4h16.7v3.3L486.7,146.6z"/>
				<path class="st1" d="M527.4,138.6h-19.5c0.1,2.8,0.9,4.9,2.4,6.3c1.5,1.4,3.3,2.1,5.5,2.1c2,0,3.6-0.5,4.9-1.5
					c1.3-1,2.1-2.3,2.4-4h4.3c-0.3,1.7-1,3.2-2,4.5s-2.4,2.4-4,3.1c-1.6,0.7-3.5,1.1-5.5,1.1c-2.3,0-4.4-0.5-6.2-1.5
					s-3.2-2.5-4.2-4.3s-1.5-4.1-1.5-6.7c0-2.6,0.5-4.8,1.5-6.7c1-1.9,2.4-3.4,4.2-4.4s3.9-1.5,6.2-1.5c2.4,0,4.4,0.5,6.2,1.5
					c1.8,1,3.1,2.4,4,4c0.9,1.7,1.4,3.6,1.4,5.6C527.6,137.3,527.5,138,527.4,138.6z M522.6,132.1c-0.7-1.2-1.6-2.1-2.8-2.7
					s-2.5-0.9-3.9-0.9c-2.2,0-4.1,0.7-5.6,2.1c-1.5,1.4-2.3,3.4-2.4,6.1h15.6C523.6,134.9,523.3,133.4,522.6,132.1z"/>
			</g>
		</g>
	</g>
</g>
<g id="Zone_Protection" class="st2">
	<path class="st3" d="M0,294.6v95.1h95.1v-95.1H0z M46.8,342.1L1,387.9v-91.7L46.8,342.1z M1.7,295.6h91.7l-45.8,45.8L1.7,295.6z
		 M47.5,342.8l45.8,45.8H1.7L47.5,342.8z M48.3,342.1l45.8-45.8v91.7L48.3,342.1z"/>
	<path class="st3" d="M811.6,294.6v95.1h95.1v-95.1H811.6z M858.4,342.1l-45.8,45.8v-91.7L858.4,342.1z M813.3,295.6h91.7
		l-45.8,45.8L813.3,295.6z M859.1,342.8l45.8,45.8h-91.7L859.1,342.8z M859.8,342.1l45.8-45.8v91.7L859.8,342.1z"/>
	<path class="st3" d="M811.6,0v95.1h95.1V0H811.6z M858.4,47.5l-45.8,45.8V1.7L858.4,47.5z M813.3,1h91.7l-45.8,45.8L813.3,1z
		 M859.1,48.3l45.8,45.8h-91.7L859.1,48.3z M859.8,47.5l45.8-45.8v91.7L859.8,47.5z"/>
	<path class="st3" d="M0,0v95.1h95.1V0H0z M46.8,47.5L1,93.4V1.7L46.8,47.5z M1.7,1h91.7L47.5,46.8L1.7,1z M47.5,48.3l45.8,45.8H1.7
		L47.5,48.3z M48.3,47.5L94.1,1.7v91.7L48.3,47.5z"/>
</g>
</svg>
