<?xml version="1.0" encoding="utf-8"?>
<!-- Generator: Adobe Illustrator 24.0.3, SVG Export Plug-In . SVG Version: 6.00 Build 0)  -->
<svg version="1.1" id="Calque_1" xmlns="http://www.w3.org/2000/svg" x="0px" y="0px"
     viewBox="0 0 524.6 150.9" style="enable-background:new 0 0 524.6 150.9;" xml:space="preserve">
<style type="text/css">
	.st0{fill:#FF4338;}
	.st1{fill:#FFFFFF;}
	.st2{display:none;}
	.st3{display:inline;fill:#B1B3B5;}
</style>
<title>Equisoft Centralize Logo</title>
<g id="Layer_1">
	<g>
		<g>
			<polygon class="st0" points="48.8,14.4 48.8,39.7 34.5,39.7 29.3,48.5 68,48.5 			"/>
			<polygon class="st0" points="48.8,78.8 48.8,87.8 5.8,87.8 0.6,96.6 95.7,96.6 85.6,78.8 			"/>
			<polygon class="st0" points="71.5,54.7 48.8,54.7 48.8,63.6 20.5,63.6 15.2,72.5 81.6,72.5 			"/>
		</g>
		<g>
			<polygon class="st0" points="276.1,150.6 269.8,150.6 285.9,123.6 292.2,123.6 			"/>
		</g>
	</g>
	<g>
		<g>
			<path class="st1" d="M166.1,60.6c-1.3-8.3-6.8-13.9-15.3-13.9c-8.3,0-14.5,5.9-15.8,13.9C135,60.7,166.1,60.7,166.1,60.6z
				 M134.4,68.8c0.1,9.5,6.5,18.4,16.7,18.4c8.2,0,12.6-4.1,16.6-10.8l9,5.1c-5.2,9.6-14.9,15.2-25.7,15.2
				c-17,0-27.3-12.8-27.3-29.1c0-17.1,9.1-29.9,27-29.9c17.7,0,26,13,26,29.5v1.7L134.4,68.8L134.4,68.8z"/>
			<path class="st1" d="M229.4,66.9c0-10.8-6.5-19.9-18-19.9c-11,0-17.5,9.6-17.5,19.9c0,10.4,6.3,20.1,17.5,20.1
				C223,87.1,229.4,77.8,229.4,66.9 M239.5,123.6h-10.7V86h-0.2c-4.3,6.3-11,10.5-18.8,10.5c-17.1,0-26.6-14.1-26.6-30
				c0-15.2,10.1-29,26.1-29c8.3,0,14.9,4.3,19.3,10.9h0.2v-9.2h10.7V123.6z"/>
			<path class="st1" d="M261.8,39.2v30.7c0,8.9,2.2,16.7,12.8,16.7c10.5,0,12.8-7.8,12.8-16.7V39.2h10.7v31.9
				c0,15.2-7.1,25.5-23.5,25.5s-23.5-10.3-23.5-25.5V39.2H261.8z"/>
			<path class="st1" d="M358.4,51.9c-1.3-2.7-4-4.9-7.1-4.9c-3,0-5.8,2.4-5.8,5.5c0,4.9,6.4,7,12.9,9.9c6.5,3,12.8,7,12.8,15.8
				c0,10.5-8.8,18.4-19.1,18.4c-8.1,0-16.2-4.6-19.2-12.4l9.1-4.1c2.2,4.1,5,7.1,10.1,7.1c4.5,0,8.4-3.1,8.4-7.8c0-3-1.4-4.4-3.9-6
				l-10.4-5.6c-6.2-3.3-10.7-6.4-10.7-14c0-9,7.4-16.1,16.4-16.1c6.8,0,12.2,3.7,15.2,9.7L358.4,51.9z"/>
			<path class="st1" d="M388,67.3c0,10.4,8.4,19.3,19,19.3s19-8.9,19-19.3c0-10.5-8.4-19.3-19-19.3C396.4,48,388,56.8,388,67.3
				 M436.6,67.3c0,16.7-13,29.5-29.6,29.5S377.4,84,377.4,67.3s13-29.5,29.6-29.5C423.5,37.8,436.6,50.6,436.6,67.3"/>
			<path class="st1" d="M491.2,39.5V23.8h-10.7v15.7h-6.7h-14.7v-14c0-5.5-0.1-15.1,7.5-15.2c2.7,0,5.8,0.5,7.2,0.9V1.5
				c-1.6-0.5-4.9-1-7.5-1c-13.8,0-17.9,9.7-17.9,21.8v17.2h-4.9v10h4.9V95h10.7V49.4h14.7h6.7v45.5h10.7V49.4h10.4v-10L491.2,39.5
				L491.2,39.5z"/>
			<rect x="311.2" y="39.2" class="st1" width="10.7" height="55.6"/>
			<path class="st1" d="M323.2,21.2c0,3.7-3,6.6-6.7,6.6s-6.7-2.9-6.7-6.6c0-3.8,3-6.8,6.7-6.8C320.2,14.5,323.2,17.5,323.2,21.2"/>
		</g>
		<g>
			<g>
				<path class="st1" d="M318.2,128.2c2,1.7,3.3,3.9,3.8,6.7h-4.3c-0.3-1.8-1.1-3.1-2.4-4.1s-3-1.5-4.9-1.5c-1.4,0-2.7,0.3-3.9,1
					c-1.2,0.7-2.1,1.7-2.8,3c-0.7,1.4-1.1,3-1.1,5s0.4,3.7,1.1,5s1.7,2.4,2.8,3s2.5,1,3.9,1c2,0,3.6-0.5,4.9-1.5s2.1-2.4,2.4-4.1
					h4.3c-0.5,2.8-1.7,5.1-3.8,6.7c-2,1.6-4.6,2.5-7.7,2.5c-2.3,0-4.4-0.5-6.2-1.5s-3.2-2.5-4.2-4.3c-1-1.9-1.5-4.1-1.5-6.7
					c0-2.6,0.5-4.8,1.5-6.7s2.4-3.4,4.2-4.4c1.8-1,3.9-1.5,6.2-1.5C313.6,125.8,316.1,126.6,318.2,128.2z"/>
				<path class="st1" d="M351.2,139.1h-19.5c0.1,2.8,0.9,4.9,2.4,6.3c1.5,1.4,3.3,2.1,5.5,2.1c2,0,3.6-0.5,4.9-1.5s2.1-2.3,2.4-4
					h4.3c-0.3,1.7-1,3.2-2,4.5s-2.4,2.4-4,3.1s-3.5,1.1-5.5,1.1c-2.3,0-4.4-0.5-6.2-1.5s-3.2-2.5-4.2-4.3c-1-1.9-1.5-4.1-1.5-6.7
					c0-2.6,0.5-4.8,1.5-6.7s2.4-3.4,4.2-4.4c1.8-1,3.9-1.5,6.2-1.5c2.4,0,4.4,0.5,6.2,1.5c1.8,1,3.1,2.4,4,4
					c0.9,1.7,1.4,3.6,1.4,5.6C351.4,137.8,351.4,138.6,351.2,139.1z M346.4,132.6c-0.7-1.2-1.6-2.1-2.8-2.7s-2.5-0.9-3.9-0.9
					c-2.2,0-4.1,0.7-5.6,2.1c-1.5,1.4-2.3,3.4-2.4,6.1h15.6C347.4,135.4,347.1,133.8,346.4,132.6z"/>
				<path class="st1" d="M378.3,128.4c1.8,1.8,2.6,4.5,2.6,7.9v14.2h-4v-13.8c0-2.4-0.6-4.3-1.9-5.6s-2.9-2-5.1-2s-4,0.7-5.3,2.2
					c-1.3,1.4-2,3.5-2,6.3v12.9h-4v-24.4h4v5.8c0.6-2,1.7-3.5,3.3-4.6c1.6-1.1,3.4-1.6,5.5-1.6C374.3,125.6,376.6,126.6,378.3,128.4
					z"/>
				<path class="st1" d="M400.2,146.9v3.6h-3c-2.5,0-4.4-0.6-5.6-1.8s-1.8-3.2-1.8-6v-13.2h-3.6V126h3.6v-6.1h4.1v6.1h6.3v3.5h-6.3
					v13.3c0,1.6,0.3,2.6,0.9,3.2c0.6,0.6,1.6,0.9,3,0.9H400.2z"/>
				<path class="st1" d="M414,127c1.5-0.9,3.4-1.4,5.5-1.4v4.4h-1.2c-2.3,0-4.2,0.6-5.6,1.8c-1.5,1.2-2.2,3.1-2.2,5.8v12.9h-4v-24.4
					h4v4.9C411.3,129.3,412.4,128,414,127z"/>
				<path class="st1" d="M441,127.5c1.6,1.2,2.8,2.8,3.4,4.8v-6.2h4v24.4h-4v-6.2c-0.7,2-1.8,3.6-3.4,4.8s-3.7,1.8-6,1.8
					c-2.2,0-4.1-0.5-5.8-1.5s-3-2.5-4-4.3c-1-1.9-1.4-4.1-1.4-6.7c0-2.6,0.5-4.8,1.4-6.7c1-1.9,2.3-3.4,4-4.4c1.7-1,3.6-1.5,5.8-1.5
					C437.4,125.8,439.4,126.3,441,127.5z M430.2,131.8c-1.5,1.6-2.2,3.8-2.2,6.6s0.7,5,2.2,6.6s3.5,2.4,6,2.4c1.6,0,3-0.4,4.3-1.1
					c1.3-0.7,2.2-1.8,3-3.1s1.1-2.9,1.1-4.7s-0.4-3.4-1.1-4.7c-0.7-1.4-1.7-2.4-3-3.1s-2.7-1.1-4.3-1.1
					C433.6,129.3,431.7,130.1,430.2,131.8z"/>
				<path class="st1" d="M460.9,117.5v32.9h-4v-32.9C456.9,117.5,460.9,117.5,460.9,117.5z"/>
				<path class="st1" d="M469.3,117.1c0.5-0.5,1.2-0.7,2-0.7s1.5,0.2,2,0.7s0.8,1.1,0.8,1.8s-0.3,1.3-0.8,1.8s-1.2,0.7-2,0.7
					s-1.5-0.2-2-0.7s-0.8-1.1-0.8-1.8S468.8,117.5,469.3,117.1z M473.3,126v24.4h-4V126H473.3z"/>
				<path class="st1" d="M483.7,147.1h13.1v3.4h-17.5v-3.2l12.5-17.8h-12.1V126h16.7v3.3L483.7,147.1z"/>
				<path class="st1" d="M524.4,139.1h-19.5c0.1,2.8,0.9,4.9,2.4,6.3c1.5,1.4,3.3,2.1,5.5,2.1c2,0,3.6-0.5,4.9-1.5
					c1.3-1,2.1-2.3,2.4-4h4.3c-0.3,1.7-1,3.2-2,4.5s-2.4,2.4-4,3.1c-1.6,0.7-3.5,1.1-5.5,1.1c-2.3,0-4.4-0.5-6.2-1.5
					s-3.2-2.5-4.2-4.3s-1.5-4.1-1.5-6.7c0-2.6,0.5-4.8,1.5-6.7s2.4-3.4,4.2-4.4c1.8-1,3.9-1.5,6.2-1.5c2.4,0,4.4,0.5,6.2,1.5
					c1.8,1,3.1,2.4,4,4c0.9,1.7,1.4,3.6,1.4,5.6C524.6,137.8,524.6,138.6,524.4,139.1z M519.6,132.6c-0.7-1.2-1.6-2.1-2.8-2.7
					s-2.5-0.9-3.9-0.9c-2.2,0-4.1,0.7-5.6,2.1c-1.5,1.4-2.3,3.4-2.4,6.1h15.6C520.6,135.4,520.3,133.8,519.6,132.6z"/>
			</g>
		</g>
	</g>
</g>
<g id="Zone_Protection" class="st2">
	<path class="st3" d="M0.1,1405.9v95.1h95.1v-95.1H0.1z M46.9,1453.5l-45.8,45.8v-91.7L46.9,1453.5z M1.8,1406.9h91.7l-45.8,45.8
		L1.8,1406.9z M47.6,1454.2l45.8,45.8H1.8L47.6,1454.2z M48.4,1453.5l45.8-45.8v91.7L48.4,1453.5z"/>
	<path class="st3" d="M596.2,1405.9v95.1h95.1v-95.1H596.2z M643,1453.5l-45.8,45.8v-91.7L643,1453.5z M597.9,1406.9h91.7
		l-45.8,45.8L597.9,1406.9z M643.7,1454.2l45.8,45.8h-91.7L643.7,1454.2z M644.4,1453.5l45.8-45.8v91.7L644.4,1453.5z"/>
	<path class="st3" d="M596.2,1160.8v95.1h95.1v-95.1H596.2z M643,1208.4l-45.8,45.8v-91.7L643,1208.4z M597.9,1161.8h91.7
		l-45.8,45.8L597.9,1161.8z M643.7,1209.1l45.8,45.8h-91.7L643.7,1209.1z M644.4,1208.4l45.8-45.8v91.7L644.4,1208.4z"/>
	<path class="st3" d="M0.1,1160.8v95.1h95.1v-95.1H0.1z M46.9,1208.4l-45.8,45.8v-91.7L46.9,1208.4z M1.8,1161.8h91.7l-45.8,45.8
		L1.8,1161.8z M47.6,1209.1l45.8,45.8H1.8L47.6,1209.1z M48.4,1208.4l45.8-45.8v91.7L48.4,1208.4z"/>
</g>
</svg>
