<?xml version="1.0" encoding="utf-8"?>
<!-- Generator: Adobe Illustrator 24.0.1, SVG Export Plug-In . SVG Version: 6.00 Build 0)  -->
<svg version="1.1" id="Calque_1" xmlns="http://www.w3.org/2000/svg" xmlns:xlink="http://www.w3.org/1999/xlink" x="0px" y="0px"
	 viewBox="0 0 698.6 90.9" style="enable-background:new 0 0 698.6 90.9;" xml:space="preserve">
<style type="text/css">
	.st0{fill-rule:evenodd;clip-rule:evenodd;fill:#FFFFFF;}
	.st1{filter:url(#Adobe_OpacityMaskFilter);}
	.st2{mask:url(#mask-2_1_);fill-rule:evenodd;clip-rule:evenodd;fill:#FFFFFF;}
	.st3{filter:url(#Adobe_OpacityMaskFilter_1_);}
	.st4{mask:url(#mask-2_2_);fill-rule:evenodd;clip-rule:evenodd;fill:#FFFFFF;}
	.st5{filter:url(#Adobe_OpacityMaskFilter_2_);}
	.st6{mask:url(#mask-2_3_);fill-rule:evenodd;clip-rule:evenodd;fill:#FFFFFF;}
	.st7{filter:url(#Adobe_OpacityMaskFilter_3_);}
	.st8{mask:url(#mask-2_4_);fill-rule:evenodd;clip-rule:evenodd;fill:#FFFFFF;}
	.st9{filter:url(#Adobe_OpacityMaskFilter_4_);}
	.st10{mask:url(#mask-2_5_);fill-rule:evenodd;clip-rule:evenodd;fill:#FFFFFF;}
	.st11{filter:url(#Adobe_OpacityMaskFilter_5_);}
	.st12{mask:url(#mask-2_6_);fill-rule:evenodd;clip-rule:evenodd;fill:#FFFFFF;}
	.st13{filter:url(#Adobe_OpacityMaskFilter_6_);}
	.st14{mask:url(#mask-2_7_);fill-rule:evenodd;clip-rule:evenodd;fill:#FFFFFF;}
	.st15{filter:url(#Adobe_OpacityMaskFilter_7_);}
	.st16{mask:url(#mask-2_8_);fill-rule:evenodd;clip-rule:evenodd;fill:#FFFFFF;}
	.st17{filter:url(#Adobe_OpacityMaskFilter_8_);}
	.st18{mask:url(#mask-2_9_);fill-rule:evenodd;clip-rule:evenodd;fill:#FFFFFF;}
	.st19{filter:url(#Adobe_OpacityMaskFilter_9_);}
	.st20{mask:url(#mask-2_10_);fill-rule:evenodd;clip-rule:evenodd;fill:#FFFFFF;}
	.st21{filter:url(#Adobe_OpacityMaskFilter_10_);}
	.st22{mask:url(#mask-2_11_);fill-rule:evenodd;clip-rule:evenodd;fill:#FFFFFF;}
	.st23{filter:url(#Adobe_OpacityMaskFilter_11_);}
	.st24{mask:url(#mask-2_12_);fill-rule:evenodd;clip-rule:evenodd;fill:#FFFFFF;}
	.st25{filter:url(#Adobe_OpacityMaskFilter_12_);}
	.st26{mask:url(#mask-2_13_);fill-rule:evenodd;clip-rule:evenodd;fill:#FFFFFF;}
	.st27{filter:url(#Adobe_OpacityMaskFilter_13_);}
	.st28{mask:url(#mask-2_14_);fill-rule:evenodd;clip-rule:evenodd;fill:#FFFFFF;}
	.st29{filter:url(#Adobe_OpacityMaskFilter_14_);}
	.st30{mask:url(#mask-2_15_);fill-rule:evenodd;clip-rule:evenodd;fill:#FFFFFF;}
	.st31{filter:url(#Adobe_OpacityMaskFilter_15_);}
	.st32{mask:url(#mask-2_16_);fill-rule:evenodd;clip-rule:evenodd;fill:#FFFFFF;}
	.st33{filter:url(#Adobe_OpacityMaskFilter_16_);}
	.st34{mask:url(#mask-2_17_);fill-rule:evenodd;clip-rule:evenodd;fill:#EF473D;}
	.st35{filter:url(#Adobe_OpacityMaskFilter_17_);}
	.st36{mask:url(#mask-2_18_);fill-rule:evenodd;clip-rule:evenodd;fill:#EF473D;}
	.st37{filter:url(#Adobe_OpacityMaskFilter_18_);}
	.st38{mask:url(#mask-2_19_);fill-rule:evenodd;clip-rule:evenodd;fill:#EF473D;}
</style>
<title>Mobile/Centralize/Reverse</title>
<desc>Created with Sketch.</desc>
<g>
	<g id="Logo">
		<polygon id="Fill-1" class="st0" points="128.6,40.2 128.6,51.9 142.8,51.9 142.8,56.7 128.6,56.7 128.6,68.7 144.5,68.7 
			144.5,73.8 122.4,73.8 122.4,35.1 144.5,35.1 144.5,40.2 		"/>
		<g id="Group-26" transform="translate(0.000000, 0.374253)">
			<path id="Fill-2" class="st0" d="M161.6,51.1c-1.7,1.8-2.6,4.2-2.6,7.4s0.8,5.6,2.5,7.3c1.7,1.7,3.9,2.6,6.6,2.6
				c1.7,0,3.2-0.4,4.6-1.2c1.4-0.8,2.5-1.9,3.3-3.4c0.8-1.5,1.3-3.3,1.3-5.4c0-2-0.4-3.8-1.3-5.3c-0.8-1.5-1.9-2.6-3.3-3.4
				c-1.4-0.8-2.9-1.2-4.6-1.2C165.5,48.4,163.3,49.3,161.6,51.1 M173.2,44.7c1.8,1.2,3.2,2.8,4.1,4.9v-6.3h6.2v44.5h-6.2v-21
				c-0.9,2.2-2.3,3.9-4.2,5.1c-1.8,1.2-4,1.9-6.5,1.9c-2.6,0-5-0.6-7.2-1.9c-2.2-1.3-3.8-3.1-5.1-5.4c-1.2-2.3-1.8-5-1.8-8.1
				c0-3.1,0.6-5.8,1.8-8.1c1.2-2.3,2.9-4.1,5.1-5.4c2.2-1.3,4.5-1.9,7.2-1.9C169.2,42.9,171.4,43.5,173.2,44.7"/>
			<path id="Fill-4" class="st0" d="M223.4,43.2v30.2h-6.3v-6.6c-0.8,2.2-2.1,3.9-4,5.2c-1.9,1.2-4.1,1.8-6.6,1.8
				c-3.5,0-6.3-1.1-8.4-3.4c-2.1-2.3-3.2-5.5-3.2-9.7V43.2h6.2v16.9c0,2.7,0.7,4.8,2.1,6.3c1.4,1.5,3.3,2.2,5.7,2.2
				c2.5,0,4.5-0.8,6-2.4c1.5-1.6,2.2-3.9,2.2-7v-16H223.4z"/>
			<g id="Clip-7">
			</g>
			<defs>
				<filter id="Adobe_OpacityMaskFilter" filterUnits="userSpaceOnUse" x="234.3" y="30.8" width="8" height="42.6">
					<feColorMatrix  type="matrix" values="1 0 0 0 0  0 1 0 0 0  0 0 1 0 0  0 0 0 1 0"/>
				</filter>
			</defs>
			<mask maskUnits="userSpaceOnUse" x="234.3" y="30.8" width="8" height="42.6" id="mask-2_1_">
				<g class="st1">
					<polygon id="path-1_1_" class="st0" points="0,87.8 697.8,87.8 697.8,2.7 0,2.7 					"/>
				</g>
			</mask>
			<path id="Fill-6" class="st2" d="M235.2,73.4h6.2V43.2h-6.2V73.4z M235.4,31.9c0.7-0.7,1.7-1,2.9-1c1.2,0,2.2,0.4,2.9,1
				c0.7,0.7,1.1,1.6,1.1,2.6s-0.4,1.9-1.1,2.6c-0.8,0.7-1.7,1-2.9,1c-1.2,0-2.2-0.3-2.9-1c-0.7-0.7-1.1-1.5-1.1-2.6
				S234.7,32.5,235.4,31.9L235.4,31.9z"/>
			<defs>
				<filter id="Adobe_OpacityMaskFilter_1_" filterUnits="userSpaceOnUse" x="251.8" y="42.9" width="23.9" height="30.9">
					<feColorMatrix  type="matrix" values="1 0 0 0 0  0 1 0 0 0  0 0 1 0 0  0 0 0 1 0"/>
				</filter>
			</defs>
			<mask maskUnits="userSpaceOnUse" x="251.8" y="42.9" width="23.9" height="30.9" id="mask-2_2_">
				<g class="st3">
					<polygon id="path-1_2_" class="st0" points="0,87.8 697.8,87.8 697.8,2.7 0,2.7 					"/>
				</g>
			</mask>
			<path id="Fill-8" class="st4" d="M271.5,45.6c2.1,1.8,3.4,4.2,3.9,7.3h-5.9c-0.3-1.6-1-3-2.1-4c-1.2-1-2.7-1.5-4.6-1.5
				c-1.6,0-2.8,0.4-3.6,1.1c-0.9,0.8-1.3,1.8-1.3,3c0,0.9,0.3,1.7,0.9,2.3c0.6,0.6,1.4,1,2.3,1.4c0.9,0.3,2.2,0.7,4,1.1
				c2.3,0.5,4.1,1,5.5,1.6c1.4,0.5,2.6,1.4,3.6,2.6c1,1.2,1.5,2.8,1.5,4.8c0,2.5-1,4.6-2.9,6.1c-1.9,1.6-4.5,2.4-7.7,2.4
				c-3.8,0-6.8-0.9-9.1-2.6c-2.3-1.8-3.7-4.2-4.2-7.3h6.1c0.2,1.7,0.9,3,2.2,4c1.3,1,3,1.5,5,1.5c1.5,0,2.7-0.4,3.5-1.2
				c0.9-0.8,1.3-1.8,1.3-3c0-1.1-0.3-1.9-1-2.5c-0.7-0.6-1.5-1.1-2.5-1.4c-1-0.4-2.3-0.7-4-1.1c-2.2-0.5-4-1-5.3-1.5
				c-1.4-0.5-2.5-1.3-3.5-2.5c-1-1.2-1.4-2.7-1.4-4.7c0-2.6,1-4.6,2.9-6.2c1.9-1.6,4.6-2.4,8-2.4C266.5,42.9,269.4,43.8,271.5,45.6"
				/>
			<defs>
				<filter id="Adobe_OpacityMaskFilter_2_" filterUnits="userSpaceOnUse" x="284.4" y="42.9" width="30.6" height="30.9">
					<feColorMatrix  type="matrix" values="1 0 0 0 0  0 1 0 0 0  0 0 1 0 0  0 0 0 1 0"/>
				</filter>
			</defs>
			<mask maskUnits="userSpaceOnUse" x="284.4" y="42.9" width="30.6" height="30.9" id="mask-2_3_">
				<g class="st5">
					<polygon id="path-1_3_" class="st0" points="0,87.8 697.8,87.8 697.8,2.7 0,2.7 					"/>
				</g>
			</mask>
			<path id="Fill-9" class="st6" d="M295.3,49.4c-1.4,0.7-2.4,1.9-3.3,3.4c-0.8,1.5-1.2,3.4-1.2,5.6c0,2.2,0.4,4.1,1.2,5.6
				c0.8,1.5,1.9,2.6,3.3,3.3c1.3,0.7,2.8,1.1,4.4,1.1c1.6,0,3.1-0.4,4.4-1.1c1.4-0.7,2.4-1.8,3.3-3.3c0.8-1.5,1.2-3.4,1.2-5.6
				c0-2.2-0.4-4-1.2-5.6c-0.8-1.5-1.9-2.6-3.3-3.4c-1.3-0.7-2.8-1.1-4.4-1.1C298.1,48.3,296.6,48.6,295.3,49.4 M307.6,44.7
				c2.3,1.2,4.2,3,5.5,5.4c1.3,2.3,2,5.1,2,8.2c0,3.2-0.6,5.9-2,8.3c-1.3,2.3-3.1,4.1-5.5,5.4c-2.3,1.2-5,1.9-7.9,1.9
				c-2.9,0-5.5-0.6-7.9-1.9c-2.3-1.2-4.1-3-5.5-5.4c-1.3-2.4-2-5.1-2-8.2c0-3.1,0.7-5.9,2-8.2c1.3-2.3,3.1-4.1,5.5-5.4
				c2.3-1.2,4.9-1.9,7.9-1.9C302.6,42.9,305.3,43.5,307.6,44.7"/>
			<defs>
				<filter id="Adobe_OpacityMaskFilter_3_" filterUnits="userSpaceOnUse" x="322" y="31.5" width="17" height="41.9">
					<feColorMatrix  type="matrix" values="1 0 0 0 0  0 1 0 0 0  0 0 1 0 0  0 0 0 1 0"/>
				</filter>
			</defs>
			<mask maskUnits="userSpaceOnUse" x="322" y="31.5" width="17" height="41.9" id="mask-2_4_">
				<g class="st7">
					<polygon id="path-1_4_" class="st0" points="0,87.8 697.8,87.8 697.8,2.7 0,2.7 					"/>
				</g>
			</mask>
			<path id="Fill-10" class="st8" d="M333.9,38.2c-1,0.9-1.5,2.4-1.5,4.6v0.5h6.6v5.4h-6.6v24.8h-6.3V48.6H322v-5.4h4.1v-1
				c0-3.7,1.1-6.4,3.2-8.3c2.1-1.8,5.4-2.7,9.7-2.4V37C336.6,36.9,334.8,37.3,333.9,38.2"/>
			<defs>
				<filter id="Adobe_OpacityMaskFilter_4_" filterUnits="userSpaceOnUse" x="346.4" y="35.7" width="18" height="37.7">
					<feColorMatrix  type="matrix" values="1 0 0 0 0  0 1 0 0 0  0 0 1 0 0  0 0 0 1 0"/>
				</filter>
			</defs>
			<mask maskUnits="userSpaceOnUse" x="346.4" y="35.7" width="18" height="37.7" id="mask-2_5_">
				<g class="st9">
					<polygon id="path-1_5_" class="st0" points="0,87.8 697.8,87.8 697.8,2.7 0,2.7 					"/>
				</g>
			</mask>
			<path id="Fill-11" class="st10" d="M364.4,68v5.4h-3.8c-3.2,0-5.6-0.8-7.3-2.3c-1.7-1.5-2.5-4.1-2.5-7.7V48.6h-4.3v-5.3h4.3v-7.5
				h6.3v7.5h7.3v5.3h-7.3v14.9c0,1.7,0.3,2.9,1,3.6c0.6,0.7,1.8,1,3.4,1H364.4z"/>
			<defs>
				<filter id="Adobe_OpacityMaskFilter_5_" filterUnits="userSpaceOnUse" x="370.9" y="21.7" width="21" height="61.3">
					<feColorMatrix  type="matrix" values="1 0 0 0 0  0 1 0 0 0  0 0 1 0 0  0 0 0 1 0"/>
				</filter>
			</defs>
			<mask maskUnits="userSpaceOnUse" x="370.9" y="21.7" width="21" height="61.3" id="mask-2_6_">
				<g class="st11">
					<polygon id="path-1_6_" class="st0" points="0,87.8 697.8,87.8 697.8,2.7 0,2.7 					"/>
				</g>
			</mask>
			<polygon id="Fill-12" class="st12" points="391.9,21.7 377,83.1 370.9,83.1 385.8,21.7 			"/>
			<defs>
				<filter id="Adobe_OpacityMaskFilter_6_" filterUnits="userSpaceOnUse" x="396" y="42.9" width="29.4" height="30.9">
					<feColorMatrix  type="matrix" values="1 0 0 0 0  0 1 0 0 0  0 0 1 0 0  0 0 0 1 0"/>
				</filter>
			</defs>
			<mask maskUnits="userSpaceOnUse" x="396" y="42.9" width="29.4" height="30.9" id="mask-2_7_">
				<g class="st13">
					<polygon id="path-1_7_" class="st0" points="0,87.8 697.8,87.8 697.8,2.7 0,2.7 					"/>
				</g>
			</mask>
			<path id="Fill-13" class="st14" d="M420.6,46c2.6,2.1,4.1,4.9,4.8,8.4h-6.6c-0.4-1.9-1.2-3.4-2.6-4.5c-1.4-1.1-3.2-1.6-5.3-1.6
				c-2.4,0-4.4,0.8-6,2.5c-1.6,1.7-2.4,4.2-2.4,7.5c0,3.3,0.8,5.8,2.4,7.5c1.6,1.7,3.6,2.6,6,2.6c2.1,0,3.9-0.5,5.3-1.6
				c1.4-1.1,2.3-2.6,2.6-4.5h6.6c-0.6,3.5-2.2,6.4-4.8,8.4c-2.6,2.1-5.8,3.1-9.7,3.1c-2.9,0-5.5-0.6-7.7-1.9c-2.2-1.2-4-3-5.3-5.4
				c-1.3-2.3-1.9-5.1-1.9-8.3c0-3.1,0.6-5.9,1.9-8.2c1.3-2.3,3-4.1,5.3-5.4c2.2-1.2,4.8-1.9,7.7-1.9C414.8,42.9,418.1,43.9,420.6,46
				"/>
			<defs>
				<filter id="Adobe_OpacityMaskFilter_7_" filterUnits="userSpaceOnUse" x="434" y="42.9" width="29.5" height="30.9">
					<feColorMatrix  type="matrix" values="1 0 0 0 0  0 1 0 0 0  0 0 1 0 0  0 0 0 1 0"/>
				</filter>
			</defs>
			<mask maskUnits="userSpaceOnUse" x="434" y="42.9" width="29.5" height="30.9" id="mask-2_8_">
				<g class="st15">
					<polygon id="path-1_8_" class="st0" points="0,87.8 697.8,87.8 697.8,2.7 0,2.7 					"/>
				</g>
			</mask>
			<path id="Fill-14" class="st16" d="M456.2,51.8c-0.8-1.3-1.8-2.3-3.1-3c-1.3-0.6-2.7-1-4.2-1c-2.4,0-4.5,0.7-6.1,2.2
				c-1.6,1.5-2.5,3.7-2.7,6.6h17.1C457.3,54.8,457,53.1,456.2,51.8 M463.3,59.6h-23.2c0.1,3.1,1,5.4,2.6,6.9c1.6,1.5,3.6,2.2,6,2.2
				c2.1,0,3.8-0.5,5.3-1.6c1.4-1,2.3-2.5,2.7-4.2h6.7c-0.4,2.1-1.2,4-2.5,5.6c-1.3,1.6-2.9,2.9-5,3.9c-2.1,0.9-4.3,1.4-6.8,1.4
				c-2.9,0-5.5-0.6-7.7-1.9c-2.2-1.2-4-3-5.3-5.4c-1.3-2.3-1.9-5.1-1.9-8.3c0-3.1,0.6-5.9,1.9-8.2c1.3-2.3,3-4.1,5.3-5.4
				c2.2-1.2,4.8-1.9,7.7-1.9c3,0,5.5,0.6,7.7,1.8c2.2,1.2,3.9,2.9,5.1,5c1.2,2.1,1.8,4.5,1.8,7.2C463.5,57.9,463.5,58.8,463.3,59.6"
				/>
			<defs>
				<filter id="Adobe_OpacityMaskFilter_8_" filterUnits="userSpaceOnUse" x="473.8" y="42.8" width="28.5" height="30.7">
					<feColorMatrix  type="matrix" values="1 0 0 0 0  0 1 0 0 0  0 0 1 0 0  0 0 0 1 0"/>
				</filter>
			</defs>
			<mask maskUnits="userSpaceOnUse" x="473.8" y="42.8" width="28.5" height="30.7" id="mask-2_9_">
				<g class="st17">
					<polygon id="path-1_9_" class="st0" points="0,87.8 697.8,87.8 697.8,2.7 0,2.7 					"/>
				</g>
			</mask>
			<path id="Fill-15" class="st18" d="M499.1,46.2c2.1,2.3,3.2,5.5,3.2,9.7v17.6h-6.2V56.5c0-2.7-0.7-4.8-2.1-6.3
				c-1.4-1.5-3.3-2.2-5.7-2.2c-2.5,0-4.5,0.8-6,2.4c-1.5,1.6-2.2,3.9-2.2,7v16.1h-6.2V43.2h6.2v6.6c0.8-2.3,2.2-4,4-5.3
				c1.9-1.2,4.1-1.9,6.6-1.9C494.2,42.8,497,43.9,499.1,46.2"/>
			<defs>
				<filter id="Adobe_OpacityMaskFilter_9_" filterUnits="userSpaceOnUse" x="510.5" y="35.7" width="18" height="37.7">
					<feColorMatrix  type="matrix" values="1 0 0 0 0  0 1 0 0 0  0 0 1 0 0  0 0 0 1 0"/>
				</filter>
			</defs>
			<mask maskUnits="userSpaceOnUse" x="510.5" y="35.7" width="18" height="37.7" id="mask-2_10_">
				<g class="st19">
					<polygon id="path-1_10_" class="st0" points="0,87.8 697.8,87.8 697.8,2.7 0,2.7 					"/>
				</g>
			</mask>
			<path id="Fill-16" class="st20" d="M528.4,68v5.4h-3.8c-3.2,0-5.6-0.8-7.3-2.3c-1.7-1.5-2.5-4.1-2.5-7.7V48.6h-4.3v-5.3h4.3v-7.5
				h6.3v7.5h7.3v5.3h-7.3v14.9c0,1.7,0.3,2.9,1,3.6c0.6,0.7,1.8,1,3.4,1H528.4z"/>
			<defs>
				<filter id="Adobe_OpacityMaskFilter_10_" filterUnits="userSpaceOnUse" x="538.1" y="42.8" width="17.2" height="30.7">
					<feColorMatrix  type="matrix" values="1 0 0 0 0  0 1 0 0 0  0 0 1 0 0  0 0 0 1 0"/>
				</filter>
			</defs>
			<mask maskUnits="userSpaceOnUse" x="538.1" y="42.8" width="17.2" height="30.7" id="mask-2_11_">
				<g class="st21">
					<polygon id="path-1_11_" class="st0" points="0,87.8 697.8,87.8 697.8,2.7 0,2.7 					"/>
				</g>
			</mask>
			<path id="Fill-17" class="st22" d="M548.7,44.5c1.9-1.2,4.1-1.7,6.6-1.7v6.8h-1.9c-2.7,0-4.9,0.7-6.6,2c-1.7,1.3-2.5,3.5-2.5,6.6
				v15.3h-6.2V43.2h6.2v5.9C545.3,47.2,546.8,45.6,548.7,44.5"/>
			<defs>
				<filter id="Adobe_OpacityMaskFilter_11_" filterUnits="userSpaceOnUse" x="562.5" y="42.9" width="31" height="30.9">
					<feColorMatrix  type="matrix" values="1 0 0 0 0  0 1 0 0 0  0 0 1 0 0  0 0 0 1 0"/>
				</filter>
			</defs>
			<mask maskUnits="userSpaceOnUse" x="562.5" y="42.9" width="31" height="30.9" id="mask-2_12_">
				<g class="st23">
					<polygon id="path-1_12_" class="st0" points="0,87.8 697.8,87.8 697.8,2.7 0,2.7 					"/>
				</g>
			</mask>
			<path id="Fill-18" class="st24" d="M571.4,51c-1.7,1.8-2.5,4.2-2.5,7.3c0,3.1,0.8,5.5,2.5,7.3c1.7,1.8,3.9,2.7,6.6,2.7
				c1.8,0,3.3-0.4,4.7-1.2c1.4-0.8,2.5-2,3.3-3.5c0.8-1.5,1.2-3.3,1.2-5.3c0-2-0.4-3.7-1.2-5.2c-0.8-1.5-1.9-2.7-3.3-3.5
				c-1.4-0.8-3-1.2-4.7-1.2C575.3,48.3,573.1,49.2,571.4,51 M583.1,44.9c1.9,1.3,3.3,3.1,4.1,5.4v-7h6.2v30.2h-6.2v-7
				c-0.8,2.2-2.2,4-4.1,5.4c-1.9,1.4-4.3,2-7,2c-2.6,0-5-0.6-7-1.9c-2.1-1.2-3.7-3-4.8-5.4c-1.2-2.3-1.7-5.1-1.7-8.3
				c0-3.1,0.6-5.9,1.7-8.2c1.2-2.3,2.8-4.1,4.8-5.4c2.1-1.2,4.4-1.9,7-1.9C578.9,42.9,581.2,43.5,583.1,44.9"/>
			<defs>
				<filter id="Adobe_OpacityMaskFilter_12_" filterUnits="userSpaceOnUse" x="605.2" y="32.9" width="6.2" height="40.5">
					<feColorMatrix  type="matrix" values="1 0 0 0 0  0 1 0 0 0  0 0 1 0 0  0 0 0 1 0"/>
				</filter>
			</defs>
			<mask maskUnits="userSpaceOnUse" x="605.2" y="32.9" width="6.2" height="40.5" id="mask-2_13_">
				<g class="st25">
					<polygon id="path-1_13_" class="st0" points="0,87.8 697.8,87.8 697.8,2.7 0,2.7 					"/>
				</g>
			</mask>
			<polygon id="Fill-19" class="st26" points="605.2,73.4 611.5,73.4 611.5,32.9 605.2,32.9 			"/>
			<defs>
				<filter id="Adobe_OpacityMaskFilter_13_" filterUnits="userSpaceOnUse" x="622.4" y="30.8" width="8" height="42.6">
					<feColorMatrix  type="matrix" values="1 0 0 0 0  0 1 0 0 0  0 0 1 0 0  0 0 0 1 0"/>
				</filter>
			</defs>
			<mask maskUnits="userSpaceOnUse" x="622.4" y="30.8" width="8" height="42.6" id="mask-2_14_">
				<g class="st27">
					<polygon id="path-1_14_" class="st0" points="0,87.8 697.8,87.8 697.8,2.7 0,2.7 					"/>
				</g>
			</mask>
			<path id="Fill-20" class="st28" d="M623.3,73.4h6.2V43.2h-6.2V73.4z M623.5,31.9c0.7-0.7,1.7-1,2.9-1c1.2,0,2.2,0.4,2.9,1
				c0.8,0.7,1.1,1.6,1.1,2.6s-0.4,1.9-1.1,2.6c-0.7,0.7-1.7,1-2.9,1c-1.2,0-2.2-0.3-2.9-1c-0.7-0.7-1.1-1.5-1.1-2.6
				S622.8,32.5,623.5,31.9L623.5,31.9z"/>
			<defs>
				<filter id="Adobe_OpacityMaskFilter_14_" filterUnits="userSpaceOnUse" x="638.8" y="43.2" width="22.4" height="30.2">
					<feColorMatrix  type="matrix" values="1 0 0 0 0  0 1 0 0 0  0 0 1 0 0  0 0 0 1 0"/>
				</filter>
			</defs>
			<mask maskUnits="userSpaceOnUse" x="638.8" y="43.2" width="22.4" height="30.2" id="mask-2_15_">
				<g class="st29">
					<polygon id="path-1_15_" class="st0" points="0,87.8 697.8,87.8 697.8,2.7 0,2.7 					"/>
				</g>
			</mask>
			<polygon id="Fill-21" class="st30" points="645.6,68.2 661.1,68.2 661.1,73.4 638.8,73.4 638.8,68.4 653.4,48.5 639.1,48.5 
				639.1,43.2 660.6,43.2 660.6,48.2 			"/>
			<defs>
				<filter id="Adobe_OpacityMaskFilter_15_" filterUnits="userSpaceOnUse" x="668.3" y="42.9" width="29.5" height="30.9">
					<feColorMatrix  type="matrix" values="1 0 0 0 0  0 1 0 0 0  0 0 1 0 0  0 0 0 1 0"/>
				</filter>
			</defs>
			<mask maskUnits="userSpaceOnUse" x="668.3" y="42.9" width="29.5" height="30.9" id="mask-2_16_">
				<g class="st31">
					<polygon id="path-1_16_" class="st0" points="0,87.8 697.8,87.8 697.8,2.7 0,2.7 					"/>
				</g>
			</mask>
			<path id="Fill-22" class="st32" d="M690.5,51.8c-0.8-1.3-1.8-2.3-3.1-3c-1.3-0.6-2.7-1-4.2-1c-2.4,0-4.5,0.7-6.1,2.2
				c-1.6,1.5-2.5,3.7-2.7,6.6h17.1C691.6,54.8,691.3,53.1,690.5,51.8 M697.6,59.6h-23.2c0.1,3.1,1,5.4,2.6,6.9
				c1.6,1.5,3.6,2.2,6,2.2c2.1,0,3.8-0.5,5.3-1.6c1.4-1,2.3-2.5,2.7-4.2h6.7c-0.4,2.1-1.2,4-2.5,5.6c-1.3,1.6-2.9,2.9-5,3.9
				c-2.1,0.9-4.3,1.4-6.8,1.4c-2.9,0-5.5-0.6-7.7-1.9c-2.2-1.2-4-3-5.3-5.4c-1.3-2.3-1.9-5.1-1.9-8.3c0-3.1,0.6-5.9,1.9-8.2
				c1.3-2.3,3-4.1,5.3-5.4c2.2-1.2,4.8-1.9,7.7-1.9c3,0,5.5,0.6,7.7,1.8c2.2,1.2,3.9,2.9,5.1,5c1.2,2.1,1.8,4.5,1.8,7.2
				C697.8,57.9,697.7,58.8,697.6,59.6"/>
			<defs>
				<filter id="Adobe_OpacityMaskFilter_16_" filterUnits="userSpaceOnUse" x="26.9" y="2.7" width="36.4" height="32.1">
					<feColorMatrix  type="matrix" values="1 0 0 0 0  0 1 0 0 0  0 0 1 0 0  0 0 0 1 0"/>
				</filter>
			</defs>
			<mask maskUnits="userSpaceOnUse" x="26.9" y="2.7" width="36.4" height="32.1" id="mask-2_17_">
				<g class="st33">
					<polygon id="path-1_17_" class="st0" points="0,87.8 697.8,87.8 697.8,2.7 0,2.7 					"/>
				</g>
			</mask>
			<polygon id="Fill-23" class="st34" points="45.2,2.7 45.2,26.5 31.8,26.5 26.9,34.8 63.3,34.8 			"/>
			<defs>
				<filter id="Adobe_OpacityMaskFilter_17_" filterUnits="userSpaceOnUse" x="0" y="63.2" width="89.3" height="16.7">
					<feColorMatrix  type="matrix" values="1 0 0 0 0  0 1 0 0 0  0 0 1 0 0  0 0 0 1 0"/>
				</filter>
			</defs>
			<mask maskUnits="userSpaceOnUse" x="0" y="63.2" width="89.3" height="16.7" id="mask-2_18_">
				<g class="st35">
					<polygon id="path-1_18_" class="st0" points="0,87.8 697.8,87.8 697.8,2.7 0,2.7 					"/>
				</g>
			</mask>
			<polygon id="Fill-24" class="st36" points="45.2,63.2 45.2,71.6 4.9,71.6 0,79.9 89.3,79.9 79.8,63.2 			"/>
			<defs>
				<filter id="Adobe_OpacityMaskFilter_18_" filterUnits="userSpaceOnUse" x="13.7" y="40.6" width="62.3" height="16.7">
					<feColorMatrix  type="matrix" values="1 0 0 0 0  0 1 0 0 0  0 0 1 0 0  0 0 0 1 0"/>
				</filter>
			</defs>
			<mask maskUnits="userSpaceOnUse" x="13.7" y="40.6" width="62.3" height="16.7" id="mask-2_19_">
				<g class="st37">
					<polygon id="path-1_19_" class="st0" points="0,87.8 697.8,87.8 697.8,2.7 0,2.7 					"/>
				</g>
			</mask>
			<polygon id="Fill-25" class="st38" points="66.5,40.6 45.2,40.6 45.2,49 18.6,49 13.7,57.3 76,57.3 			"/>
		</g>
	</g>
</g>
</svg>
