<svg width="157" height="100" viewBox="0 0 157 100" fill="none" xmlns="http://www.w3.org/2000/svg">
<g clip-path="url(#clip0_1223_1019)">
<mask id="mask0_1223_1019" style="mask-type:alpha" maskUnits="userSpaceOnUse" x="39" y="16" width="80" height="85">
<path fill-rule="evenodd" clip-rule="evenodd" d="M118.008 16.2036H39V64.3865L42.5912 64.3865C42.5912 84.2206 58.6698 100.299 78.5039 100.299C98.338 100.299 114.417 84.2206 114.417 64.3865L118.008 64.3865V16.2036Z" fill="#C4C4C4"/>
</mask>
<g mask="url(#mask0_1223_1019)">
<circle cx="78.5039" cy="64.1188" r="35.9127" fill="#84C6EA"/>
<mask id="mask1_1223_1019" style="mask-type:alpha" maskUnits="userSpaceOnUse" x="48" y="27" width="61" height="74">
<path d="M78.5038 27.0089C87.7597 27.0089 95.2631 34.5123 95.2631 43.7682L95.2633 45.6135C96.9617 45.8986 98.2558 47.3757 98.2558 49.1551V53.3449C98.2558 55.1563 96.9149 56.6544 95.1715 56.9007C94.5532 62.8278 90.8452 67.8362 85.6867 70.2869L85.6864 75.7904H86.8835C98.7839 75.7904 108.431 85.4376 108.431 97.338V100.031H48.5765V97.338C48.5765 85.4376 58.2237 75.7904 70.1242 75.7904H71.3213L71.3213 70.2871C66.1626 67.8364 62.4545 62.8279 61.8359 56.9006C60.0928 56.6544 58.7518 55.1563 58.7518 53.3449V49.1551C58.7518 47.3756 60.0461 45.8984 61.7446 45.6135L61.7445 43.7682C61.7445 34.5123 69.2479 27.0089 78.5038 27.0089Z" fill="#D08B5B"/>
</mask>
<g mask="url(#mask1_1223_1019)">
<path d="M78.5038 27.0089C87.7597 27.0089 95.2631 34.5123 95.2631 43.7682L95.2633 45.6135C96.9617 45.8986 98.2558 47.3757 98.2558 49.1551V53.3449C98.2558 55.1563 96.9149 56.6544 95.1715 56.9007C94.5532 62.8278 90.8452 67.8362 85.6867 70.2869L85.6864 75.7904H86.8835C98.7839 75.7904 108.431 85.4376 108.431 97.338V100.031H48.5765V97.338C48.5765 85.4376 58.2237 75.7904 70.1242 75.7904H71.3213L71.3213 70.2871C66.1626 67.8364 62.4545 62.8279 61.8359 56.9006C60.0928 56.6544 58.7518 55.1563 58.7518 53.3449V49.1551C58.7518 47.3756 60.0461 45.8984 61.7446 45.6135L61.7445 43.7682C61.7445 34.5123 69.2479 27.0089 78.5038 27.0089Z" fill="#EDB98A"/>
<path fill-rule="evenodd" clip-rule="evenodd" d="M61.7446 55.1406C61.7446 64.3965 69.248 71.8999 78.5039 71.8999C87.7598 71.8999 95.2632 64.3965 95.2632 55.1406V57.5348C95.2632 66.7906 87.7598 74.294 78.5039 74.294C69.248 74.294 61.7446 66.7906 61.7446 57.5348V55.1406Z" fill="black" fill-opacity="0.1"/>
</g>
<g clip-path="url(#clip1_1223_1019)">
<mask id="mask2_1223_1019" style="mask-type:alpha" maskUnits="userSpaceOnUse" x="48" y="75" width="61" height="26">
<path d="M86.8837 75.8059C98.7841 75.8059 108.431 85.4531 108.431 97.3535V100.031H48.5768V97.3535C48.5768 85.4531 58.224 75.8059 70.1244 75.8059L70.4813 75.806C70.4433 76.1003 70.4237 76.3999 70.4237 76.7037C70.4237 80.8358 74.0414 84.1855 78.5041 84.1855C82.9667 84.1855 86.5844 80.8358 86.5844 76.7037C86.5844 76.3999 86.5649 76.1003 86.5269 75.806L86.8837 75.8059Z" fill="white"/>
</mask>
<g mask="url(#mask2_1223_1019)">
<path d="M86.8837 75.8059C98.7841 75.8059 108.431 85.4531 108.431 97.3535V100.031H48.5768V97.3535C48.5768 85.4531 58.224 75.8059 70.1244 75.8059L70.4813 75.806C70.4433 76.1003 70.4237 76.3999 70.4237 76.7037C70.4237 80.8358 74.0414 84.1855 78.5041 84.1855C82.9667 84.1855 86.5844 80.8358 86.5844 76.7037C86.5844 76.3999 86.5649 76.1003 86.5269 75.806L86.8837 75.8059Z" fill="#E6E6E6"/>
<path fill-rule="evenodd" clip-rule="evenodd" d="M74.3375 82.3731L74.3124 82.3925L74.3141 82.3914L74.6134 83.3344L73.2428 83.235L71.4138 84.6763C69.3739 83.3222 68.0788 81.3796 68.0308 79.2155L68.0294 79.0908C68.0294 76.9097 69.2961 74.9447 71.3213 73.5673L71.3214 78.1477C71.3214 79.8906 72.5118 81.4326 74.3375 82.3731ZM85.6868 73.7793C87.5366 75.1427 88.6792 77.0192 88.6792 79.0908C88.6792 81.2472 87.4411 83.1923 85.4558 84.5672L83.7652 83.235L82.3945 83.3344L82.6938 82.3914L82.6956 82.3925L82.6708 82.3729C84.4963 81.4325 85.6865 79.8905 85.6865 78.1477L85.6868 73.7793Z" fill="white"/>
</g>
</g>
<mask id="mask3_1223_1019" style="mask-type:alpha" maskUnits="userSpaceOnUse" x="72" y="60" width="13" height="6">
<path d="M72.8529 60.8651C73.1695 63.7057 75.5787 65.9144 78.5038 65.9144C81.438 65.9144 83.853 63.692 84.1576 60.8387C84.1821 60.6091 83.9257 60.2282 83.6043 60.2282C79.1469 60.2282 75.7319 60.2282 73.4422 60.2282C73.1189 60.2282 72.8212 60.5809 72.8529 60.8651Z" fill="white"/>
</mask>
<g mask="url(#mask3_1223_1019)">
<path d="M72.8529 60.8651C73.1695 63.7057 75.5787 65.9144 78.5038 65.9144C81.438 65.9144 83.853 63.692 84.1576 60.8387C84.1821 60.6091 83.9257 60.2282 83.6043 60.2282C79.1469 60.2282 75.7319 60.2282 73.4422 60.2282C73.1189 60.2282 72.8212 60.5809 72.8529 60.8651Z" fill="black" fill-opacity="0.7"/>
<path fill-rule="evenodd" clip-rule="evenodd" d="M75.5111 56.9362H81.7959C82.6223 56.9362 83.2922 57.6062 83.2922 58.4326V60.2282C83.2922 61.0546 82.6223 61.7246 81.7959 61.7246H75.5111C74.6847 61.7246 74.0148 61.0546 74.0148 60.2282V58.4326C74.0148 57.6062 74.6847 56.9362 75.5111 56.9362Z" fill="white"/>
<path d="M77.0075 70.1042C78.8256 70.1042 80.2995 68.6303 80.2995 66.8122C80.2995 64.9941 78.8256 63.5202 77.0075 63.5202C75.1893 63.5202 73.7155 64.9941 73.7155 66.8122C73.7155 68.6303 75.1893 70.1042 77.0075 70.1042Z" fill="#CA7070"/>
<path d="M80.0003 70.1042C81.8184 70.1042 83.2923 68.6303 83.2923 66.8122C83.2923 64.9941 81.8184 63.5202 80.0003 63.5202C78.1821 63.5202 76.7083 64.9941 76.7083 66.8122C76.7083 68.6303 78.1821 70.1042 80.0003 70.1042Z" fill="#CA7070"/>
</g>
<path fill-rule="evenodd" clip-rule="evenodd" d="M74.9126 55.1406C74.9126 56.4628 76.5205 57.5347 78.5039 57.5347C80.4873 57.5347 82.0951 56.4628 82.0951 55.1406" fill="black" fill-opacity="0.16"/>
<path fill-rule="evenodd" clip-rule="evenodd" d="M66.5809 49.8875C67.1335 48.7506 68.3778 47.958 69.8242 47.958C71.2656 47.958 72.5062 48.7451 73.0617 49.8755C73.2267 50.2113 72.9919 50.4861 72.755 50.2825C72.0215 49.6518 70.9798 49.258 69.8242 49.258C68.7048 49.258 67.6923 49.6276 66.9632 50.224C66.6966 50.4421 66.4193 50.22 66.5809 49.8875Z" fill="black" fill-opacity="0.6"/>
<path fill-rule="evenodd" clip-rule="evenodd" d="M83.9388 49.8875C84.4914 48.7506 85.7357 47.958 87.1821 47.958C88.6235 47.958 89.8641 48.7451 90.4196 49.8755C90.5846 50.2113 90.3498 50.4861 90.1129 50.2825C89.3794 49.6518 88.3377 49.258 87.1821 49.258C86.0628 49.258 85.0502 49.6276 84.3211 50.224C84.0545 50.4421 83.7772 50.22 83.9388 49.8875Z" fill="black" fill-opacity="0.6"/>
<path d="M66.4223 45.9106C67.5939 44.262 70.8059 43.3375 73.5728 44.0169C73.8938 44.0958 74.2179 43.8994 74.2968 43.5784C74.3756 43.2574 74.1793 42.9332 73.8582 42.8544C70.6451 42.0653 66.9256 43.1358 65.4465 45.2171C65.255 45.4866 65.3182 45.8602 65.5877 46.0517C65.8571 46.2432 66.2308 46.18 66.4223 45.9106Z" fill="#916430"/>
<path d="M90.5855 45.9106C89.4139 44.262 86.2019 43.3375 83.4351 44.0169C83.114 44.0958 82.7899 43.8994 82.711 43.5784C82.6322 43.2574 82.8285 42.9332 83.1496 42.8544C86.3627 42.0653 90.0822 43.1358 91.5613 45.2171C91.7528 45.4866 91.6896 45.8602 91.4201 46.0517C91.1507 46.2432 90.777 46.18 90.5855 45.9106Z" fill="#916430"/>
<path d="M100.459 40.843C99.0271 29.9946 89.7432 21.622 78.5039 21.622C67.7046 21.622 58.7108 29.3517 56.657 39.5784C55.9927 42.8861 56.3579 46.7309 56.3579 46.8628L56.3577 70.7027C56.3577 72.025 57.4296 73.0969 58.7519 73.0969H71.3213V70.287C66.0748 67.7947 62.3287 62.6567 61.807 56.5972C61.807 56.5972 62.0439 49.6266 62.737 46.8628C63.43 44.099 64.9894 40.9802 68.4546 38.5546C71.9199 36.1289 74.6921 34.995 78.5039 34.0892C82.3157 33.1834 88.0334 33.1834 88.0334 33.1834C88.0334 33.1834 91.8452 36.9952 93.2313 39.5784C94.6174 42.1616 95.2007 44.2722 95.2007 46.0049C97.3896 46.5247 98.2559 48.7014 98.2559 49.1551V53.0457C98.2559 54.8469 96.9298 56.3384 95.2007 56.5972C94.679 62.6567 90.9329 67.7947 85.6864 70.287V73.0969H91.0733C96.3624 73.0969 100.65 68.8093 100.65 63.5202V47.322C100.65 47.3029 100.647 47.2783 100.642 47.2469C100.599 43.5758 100.538 41.4411 100.459 40.843Z" fill="#B58143"/>
<path d="M96.9024 47.9406C96.7275 48.0184 96.6487 48.2231 96.7265 48.398C96.8042 48.5729 97.009 48.6517 97.1839 48.574L96.9024 47.9406ZM97.1839 48.574C97.6257 48.3776 97.9205 48.1098 98.063 47.7931C98.2071 47.4728 98.1749 47.147 98.0461 46.8895C97.9216 46.6405 97.6964 46.4355 97.4248 46.3631C97.1293 46.2843 96.8096 46.374 96.5927 46.6633L97.1471 47.0791C97.19 47.0218 97.2169 47.0249 97.2462 47.0327C97.2995 47.0469 97.3775 47.1019 97.4262 47.1994C97.4708 47.2885 97.4818 47.3957 97.431 47.5087C97.3786 47.6251 97.2402 47.7905 96.9024 47.9406L97.1839 48.574Z" fill="#E6E6E6"/>
<path d="M97.5954 48.6493C97.4205 48.727 97.3417 48.9318 97.4195 49.1067C97.4972 49.2816 97.702 49.3604 97.8769 49.2826L97.5954 48.6493ZM97.8769 49.2826C98.3187 49.0863 98.6135 48.8185 98.756 48.5018C98.9001 48.1815 98.8679 47.8557 98.7391 47.5982C98.6146 47.3492 98.3894 47.1442 98.1178 47.0718C97.8223 46.993 97.5026 47.0827 97.2856 47.372L97.8401 47.7878C97.883 47.7305 97.9099 47.7336 97.9392 47.7414C97.9925 47.7556 98.0705 47.8106 98.1192 47.9081C98.1638 47.9971 98.1748 48.1044 98.124 48.2174C98.0716 48.3338 97.9332 48.4992 97.5954 48.6493L97.8769 49.2826Z" fill="#E6E6E6"/>
<path d="M95.7533 55.5802C95.6323 55.4319 95.6544 55.2136 95.8027 55.0926C95.951 54.9716 96.1693 54.9937 96.2903 55.142L95.7533 55.5802ZM96.2903 55.142C96.7647 55.7234 96.8475 56.3183 96.6131 56.7089C96.5011 56.8956 96.2802 57.0669 96.0008 57.0182C95.7205 56.9693 95.5621 56.7306 95.4964 56.4929L96.1645 56.3084C96.1945 56.4172 96.2139 56.3518 96.1199 56.3354C96.0268 56.3192 96.0009 56.3823 96.0188 56.3523C96.0443 56.3098 96.1271 56.0383 95.7533 55.5802L96.2903 55.142Z" fill="#E6E6E6"/>
<circle cx="72.9596" cy="66.7965" r="0.346526" fill="#A27954"/>
</g>
</g>
<defs>
<clipPath id="clip0_1223_1019">
<rect width="79.008" height="83.7964" fill="white" transform="translate(39 16.2036)"/>
</clipPath>
<clipPath id="clip1_1223_1019">
<rect width="79.008" height="32.92" fill="white" transform="translate(39 67.1115)"/>
</clipPath>
</defs>
</svg>
