<?xml version="1.0" encoding="UTF-8"?>
<svg width="18" height="18" viewBox="0 0 18 18" fill="none" xmlns="http://www.w3.org/2000/svg">
<rect x="1" y="1" width="16" height="16" rx="8" fill="#CD2C23"/>
<rect x="1" y="1" width="16" height="16" rx="8" stroke="white"/>
<path fill-rule="evenodd" clip-rule="evenodd" d="M9.99768 5.48926C9.99768 4.93697 9.54997 4.48926 8.99768 4.48926C8.4454 4.48926 7.99768 4.93697 7.99768 5.48926V8.49926C7.99768 9.05154 8.4454 9.49926 8.99768 9.49926C9.54997 9.49926 9.99768 9.05154 9.99768 8.49926V5.48926ZM8.99768 11.5107C8.4454 11.5107 7.99768 11.9585 7.99768 12.5107C7.99768 13.063 8.4454 13.5107 8.99768 13.5107H9.00229C9.55457 13.5107 10.0023 13.063 10.0023 12.5107C10.0023 11.9585 9.55457 11.5107 9.00229 11.5107H8.99768Z" fill="white"/>
</svg>
