<?xml version="1.0" encoding="UTF-8"?>
<svg viewBox="0 0 14 14" version="1.1" xmlns="http://www.w3.org/2000/svg" xmlns:xlink="http://www.w3.org/1999/xlink">
    <title>Icon/Alert-filled</title>
    <g id="Assets" stroke="none" stroke-width="1" fill="none" fill-rule="evenodd">
        <g transform="translate(-103.000000, -183.000000)" id="Group">
            <g transform="translate(102.000000, 182.000000)">
                <path d="M10.6911484,1.5 L14.5,5.30993486 L14.5,10.6900651 L10.6911484,14.5 L5.30989322,14.5 L1.5,10.6901068 L1.5,5.30989322 L5.30989322,1.5 L10.6911484,1.5 Z" id="Path" stroke="#7B1A15" fill="#CD2C23"></path>
                <path d="M8.0004,8.6665 C7.6324,8.6665 7.3334,8.3685 7.3334,7.9995 L7.3334,5.3335 C7.3334,4.9655 7.6324,4.6665 8.0004,4.6665 C8.3684,4.6665 8.6674,4.9655 8.6674,5.3335 L8.6674,7.9995 C8.6674,8.3685 8.3684,8.6665 8.0004,8.6665" id="Fill-4" fill="#FFFFFF"></path>
                <path d="M8.0072,11.334 C7.6392,11.334 7.3372,11.035 7.3372,10.667 C7.3372,10.299 7.6322,10 8.0002,10 L8.0072,10 C8.3752,10 8.6742,10.299 8.6742,10.667 C8.6742,11.035 8.3752,11.334 8.0072,11.334" id="Fill-6" fill="#FFFFFF"></path>
            </g>
        </g>
    </g>
</svg>
