<?xml version="1.0" encoding="UTF-8"?>
<svg width="16px" height="16px" viewBox="0 0 16 16" version="1.1" xmlns="http://www.w3.org/2000/svg" xmlns:xlink="http://www.w3.org/1999/xlink">
    <title>Icon/Bento</title>
    <defs>
        <path d="M4.67,11.34 L4.67,14.01 L2,14.01 L2,11.34 L4.67,11.34 Z M9.34,11.34 L9.34,14.01 L6.67,14.01 L6.67,11.34 L9.34,11.34 Z M14.01,11.34 L14.01,14.01 L11.34,14.01 L11.34,11.34 L14.01,11.34 Z M4.67,6.67 L4.67,9.34 L2,9.34 L2,6.67 L4.67,6.67 Z M14.01,6.67 L14.01,9.34 L11.34,9.34 L11.34,6.67 L14.01,6.67 Z M9.34,6.67 L9.34,9.34 L6.67,9.34 L6.67,6.67 L9.34,6.67 Z M4.67,2 L4.67,4.67 L2,4.67 L2,2 L4.67,2 Z M9.34,2 L9.34,4.67 L6.67,4.67 L6.67,2 L9.34,2 Z M14.01,2 L14.01,4.67 L11.34,4.67 L11.34,2 L14.01,2 Z" id="path-1"></path>
    </defs>
    <g id="Icon/Bento" stroke="none" stroke-width="1" fill="none" fill-rule="evenodd">
        <mask id="mask-2" fill="white">
            <use xlink:href="#path-1"></use>
        </mask>
        <use id="Combined-Shape" fill="currentColor" xlink:href="#path-1"></use>
    </g>
</svg>
