<svg width="16" height="16" viewBox="0 0 16 16" fill="none" xmlns="http://www.w3.org/2000/svg">
<path fill-rule="evenodd" clip-rule="evenodd" d="M11.1666 1.3335C11.1666 1.05735 10.9428 0.833496 10.6666 0.833496C10.3905 0.833496 10.1666 1.05735 10.1666 1.3335V2.16675H5.83337V1.3335C5.83337 1.05735 5.60952 0.833496 5.33337 0.833496C5.05723 0.833496 4.83337 1.05735 4.83337 1.3335V2.16675H3.33333C2.32081 2.16675 1.5 2.98756 1.5 4.00008V6.66675V13.3334C1.5 14.3459 2.32081 15.1667 3.33333 15.1667H12.6667C13.6792 15.1667 14.5 14.3459 14.5 13.3334V6.66675V4.00008C14.5 2.98756 13.6792 2.16675 12.6667 2.16675H11.1666V1.3335ZM13.5 6.16675V4.00008C13.5 3.53984 13.1269 3.16675 12.6667 3.16675H11.1666V4.00016C11.1666 4.27631 10.9428 4.50016 10.6666 4.50016C10.3905 4.50016 10.1666 4.27631 10.1666 4.00016V3.16675H5.83337V4.00016C5.83337 4.27631 5.60952 4.50016 5.33337 4.50016C5.05723 4.50016 4.83337 4.27631 4.83337 4.00016V3.16675H3.33333C2.8731 3.16675 2.5 3.53984 2.5 4.00008V6.16675H13.5ZM2.5 7.16675H13.5V13.3334C13.5 13.7937 13.1269 14.1667 12.6667 14.1667H3.33333C2.8731 14.1667 2.5 13.7937 2.5 13.3334V7.16675Z" fill="#60666E"/>
<path d="M8 8.76758L8 12.2627" stroke="#60666E" stroke-linecap="round"/>
<path d="M10.01 10.5151H5.98999" stroke="#60666E" stroke-linecap="round"/>
</svg>
