<?xml version="1.0" encoding="UTF-8"?>
<svg width="98px" height="153px" viewBox="0 0 98 153" version="1.1" xmlns="http://www.w3.org/2000/svg" xmlns:xlink="http://www.w3.org/1999/xlink">
    <!-- Generator: Sketch 54.1 (76490) - https://sketchapp.com -->
    <title>Checkmark</title>
    <desc>Created with Sketch.</desc>
    <g id="Page-1" stroke="none" stroke-width="1" fill="none" fill-rule="evenodd">
        <g id="4---Activité-créée" transform="translate(-590.000000, -210.000000)" fill="#D9DDE2">
            <g id="Checkmark" transform="translate(590.000000, 210.000000)">
                <g id="Group-3">
                    <g id="Icon-Checkmark" fill-rule="nonzero">
                        <path d="M74.4354289,41.8933496 C74.4354289,40.9691194 74.1400439,40.2103265 73.5492738,39.6169707 L69.0632859,35.1612569 C68.4393885,34.5346288 67.6995456,34.2213148 66.8437572,34.2213148 C65.9879687,34.2213148 65.2481258,34.5346288 64.6242284,35.1612569 L44.5104392,55.3131721 L33.3686256,44.1225929 C32.7447282,43.4959648 32.0048853,43.1826508 31.1490969,43.1826508 C30.2933084,43.1826508 29.5534655,43.4959648 28.9295681,44.1225929 L24.4435802,48.5783066 C23.8528101,49.1716624 23.5574251,49.9304554 23.5574251,50.8546856 C23.5574251,51.7456435 23.8528101,52.4887246 24.4435802,53.0839288 L42.2881498,71.0066008 C42.9120472,71.6332288 43.6518901,71.9465429 44.5076785,71.9465429 C45.3947539,71.9465429 46.1502403,71.6332288 46.7741376,71.0066008 L73.540992,44.1225929 C74.1317621,43.5292371 74.4271471,42.786156 74.4271471,41.8933496 L74.4354289,41.8933496 Z M98,49 C98,57.8896019 95.8097565,66.0884255 91.4292694,73.5964708 C87.0487823,81.1045161 81.1045161,87.0487823 73.5964708,91.4292694 C66.0884255,95.8097565 57.8896019,98 49,98 C40.1103981,98 31.9115745,95.8097565 24.4035292,91.4292694 C16.8954839,87.0487823 10.9512177,81.1045161 6.57073064,73.5964708 C2.19024355,66.0884255 3.17345359e-15,57.8896019 0,49 C-3.17345359e-15,40.1103981 2.19024355,31.9115745 6.57073064,24.4035292 C10.9512177,16.8954839 16.8954839,10.9512177 24.4035292,6.57073064 C31.9115745,2.19024355 40.1103981,3.17345359e-15 49,0 C57.8896019,-3.17345359e-15 66.0884255,2.19024355 73.5964708,6.57073064 C81.1045161,10.9512177 87.0487823,16.8954839 91.4292694,24.4035292 C95.8097565,31.9115745 98,40.1103981 98,49 Z" id="Shape"></path>
                    </g>
                    <ellipse id="Oval" cx="49" cy="141.740134" rx="49" ry="10.7401336"></ellipse>
                </g>
            </g>
        </g>
    </g>
</svg>