<?xml version="1.0" encoding="UTF-8"?>
<svg width="12px" height="16px" viewBox="0 0 12 16" version="1.1" xmlns="http://www.w3.org/2000/svg" xmlns:xlink="http://www.w3.org/1999/xlink">
    <title>2C197564-66F4-4D98-92D2-1CF4AD27F602@1x</title>
    <defs>
        <path d="M8.671,0.659985021 C8.73761389,0.659515962 8.80655354,0.670777897 8.87115961,0.691620485 C8.87495727,0.693338512 8.87903828,0.694694261 8.88310552,0.69608916 C8.91111533,0.705240902 8.93804808,0.716578472 8.96401157,0.729559573 C8.97160406,0.733699167 8.97908936,0.737603309 8.98650164,0.741650288 C9.00588553,0.751975558 9.0248292,0.763640738 9.0431139,0.776193471 C9.05650675,0.785490777 9.06923584,0.794881526 9.08164212,0.804740311 C9.09468229,0.815129608 9.10735215,0.82603583 9.119594,0.837395979 C9.12554458,0.842804409 9.13182716,0.848843123 9.138,0.855015962 L13.805,5.52201596 L13.8172948,5.53463793 C13.8329961,5.55118694 13.8478564,5.56854023 13.861807,5.58662966 L13.805,5.52201596 C13.8328409,5.54985687 13.8579534,5.57988051 13.8801718,5.61168911 C13.8925786,5.62937888 13.9039011,5.64734457 13.9143621,5.66586039 C13.9210142,5.67784962 13.9274115,5.69006896 13.9334204,5.7024699 C13.9405506,5.71684653 13.9470833,5.73164221 13.9530812,5.74670846 C13.9593552,5.76296185 13.9650607,5.77912825 13.9701378,5.79550752 C13.9766096,5.81573246 13.9820697,5.83692309 13.9864852,5.85849419 C13.9953815,5.90261438 14,5.94755126 14,5.99301596 L14,13.326016 C14,14.430016 13.103,15.327016 12,15.327016 L4,15.327016 C2.897,15.327016 2,14.430016 2,13.326016 L2,2.66001596 C2,1.55701596 2.897,0.660015962 4,0.660015962 L8.671,0.659985021 Z M8,1.99298502 L4,1.99301596 C3.632,1.99301596 3.333,2.29201596 3.333,2.66001596 L3.333,13.326016 C3.333,13.694016 3.632,13.993016 4,13.993016 L12,13.993016 C12.367,13.993016 12.666,13.694016 12.666,13.326016 L12.666,6.65898502 L8.666,6.65951596 C8.298,6.65951596 8,6.36151596 8,5.99251596 L8,1.99298502 Z M9.5,12 C9.77614237,12 10,12.2238576 10,12.5 C10,12.7761424 9.77614237,13 9.5,13 L4.5,13 C4.22385763,13 4,12.7761424 4,12.5 C4,12.2238576 4.22385763,12 4.5,12 L9.5,12 Z M7.5,10 C7.77614237,10 8,10.2238576 8,10.5 C8,10.7761424 7.77614237,11 7.5,11 L4.5,11 C4.22385763,11 4,10.7761424 4,10.5 C4,10.2238576 4.22385763,10 4.5,10 L7.5,10 Z M9.333,2.93598502 L9.333,5.32651596 L11.723,5.32598502 L9.333,2.93598502 Z" id="path-1"></path>
    </defs>
    <g id="Navigation" stroke="none" stroke-width="1" fill="none" fill-rule="evenodd">
        <g id="Update-couleur" transform="translate(-127.000000, -105.000000)">
            <g id="Icon-contracts" transform="translate(125.000000, 105.000000)">
                <mask id="mask-2" fill="white">
                    <use xlink:href="#path-1"></use>
                </mask>
                <use id="Combined-Shape" fill="#000000" xlink:href="#path-1"></use>
                <g id="Group" mask="url(#mask-2)" fill="#60666E">
                    <g id="Fill">
                        <rect id="Gray-65" x="0" y="0" width="16" height="16"></rect>
                    </g>
                </g>
            </g>
        </g>
    </g>
</svg>
