<svg xmlns="http://www.w3.org/2000/svg" width="16" height="16" viewBox="0 0 16 16" fill="none">
<path fill-rule="evenodd" clip-rule="evenodd" d="M4.81986 3.68654C4.6246 3.88181 4.6246 4.19839 4.81986 4.39365C5.01512 4.58891 5.33171 4.58891 5.52697 4.39365L7.5102 2.41042L7.51028 10.5002C7.51029 10.7763 7.73415 11.0002 8.01029 11.0002C8.28643 11.0002 8.51029 10.7763 8.51028 10.5002L8.5102 2.42713L10.4767 4.39365C10.672 4.58891 10.9886 4.58891 11.1838 4.39365C11.3791 4.19839 11.3791 3.88181 11.1838 3.68654L8.3554 0.858117C8.16013 0.662854 7.84355 0.662854 7.64829 0.858117L4.81986 3.68654ZM3.33333 7.00011C2.8731 7.00011 2.5 7.37321 2.5 7.83344V12.6666C2.5 13.1269 2.8731 13.4999 3.33333 13.4999H12.6667C13.1269 13.4999 13.5 13.1269 13.5 12.6666V7.83344C13.5 7.37321 13.1269 7.00011 12.6667 7.00011H11.5C11.2239 7.00011 11 6.77625 11 6.50011C11 6.22397 11.2239 6.00011 11.5 6.00011H12.6667C13.6792 6.00011 14.5 6.82092 14.5 7.83344V12.6666C14.5 13.6791 13.6792 14.4999 12.6667 14.4999H3.33333C2.32081 14.4999 1.5 13.6791 1.5 12.6666V7.83344C1.5 6.82092 2.32081 6.00011 3.33333 6.00011H4.5C4.77614 6.00011 5 6.22397 5 6.50011C5 6.77625 4.77614 7.00011 4.5 7.00011H3.33333Z" fill="currentColor"/>
</svg>