<?xml version="1.0" encoding="UTF-8"?>
<svg width="16px" height="16px" viewBox="0 0 16 16" version="1.1" xmlns="http://www.w3.org/2000/svg" xmlns:xlink="http://www.w3.org/1999/xlink">
    <title>Icon/Files</title>
    <defs>
        <path d="M9.58648276,1.00041379 L9.615,1.002 L9.67531834,1.0072331 C9.78304104,1.0248034 9.88019194,1.07351365 9.9573145,1.14378234 C9.96379109,1.14960331 9.97009985,1.15561709 9.97627586,1.1617931 L13.8326335,5.01824003 C13.8553251,5.04025577 13.8761296,5.0642025 13.8947798,5.08981532 L13.8386207,5.02413793 C13.8908621,5.07637931 13.9314954,5.13790712 13.958922,5.20488437 C13.9635768,5.21585433 13.9678968,5.22746229 13.971829,5.23924745 L13.9931476,5.32707421 C13.9976828,5.35560276 14,5.38463448 14,5.41393103 L14,11.4826207 C14,12.3962759 13.2576552,13.1386207 12.3448276,13.1386207 L11.931,13.138 L11.9310345,13.5300608 C11.9310345,14.4428884 11.1886897,15.1852332 10.2758621,15.1852332 L3.65517241,15.1852332 C2.74234483,15.1852332 2,14.4428884 2,13.5300608 L2,5.0817849 C2,4.16895732 2.74234483,3.42661249 3.65517241,3.42661249 L4.068,3.426 L4.06896552,2.65558621 C4.06896552,1.74275862 4.81131034,1.00041379 5.72413793,1.00041379 L9.58648276,1.00041379 Z M4.068,4.529 L3.65517241,4.5297849 C3.35062069,4.5297849 3.10317241,4.77723318 3.10317241,5.0817849 L3.10317241,13.5300608 C3.10317241,13.8337849 3.35062069,14.0812332 3.65517241,14.0812332 L10.2758621,14.0812332 C10.5795862,14.0812332 10.8270345,13.8337849 10.8270345,13.5300608 L10.827,13.138 L5.72413793,13.1386207 C4.81131034,13.1386207 4.06896552,12.3962759 4.06896552,11.4826207 L4.068,4.529 Z M9.034,2.103 L5.72413793,2.10358621 C5.41958621,2.10358621 5.17213793,2.35103448 5.17213793,2.65558621 L5.17213793,11.4826207 C5.17213793,11.7871724 5.41958621,12.0346207 5.72413793,12.0346207 L12.3448276,12.0346207 C12.6485517,12.0346207 12.896,11.7871724 12.896,11.4826207 L12.896,5.965 L9.58565517,5.96551724 C9.28110345,5.96551724 9.03448276,5.71889655 9.03448276,5.41351724 L9.034,2.103 Z M10.137,2.883 L10.1376552,4.86234483 L12.116,4.862 L10.137,2.883 Z" id="path-1"></path>
    </defs>
    <g id="Icon/Files" stroke="none" stroke-width="1" fill="none" fill-rule="evenodd">
        <mask id="mask-2" fill="none">
            <use xlink:href="#path-1"></use>
        </mask>
        <use id="Combined-Shape" fill="currentColor" xlink:href="#path-1"></use>
        <g id="Group" mask="url(#mask-2)" fill="currentColor">
            <g id="Fill">
                <rect id="Gray-65" x="0" y="0" width="16" height="16"></rect>
            </g>
        </g>
    </g>
</svg>
