<svg width="16" height="16" viewBox="0 0 16 16" fill="none" xmlns="http://www.w3.org/2000/svg">
<path fill-rule="evenodd" clip-rule="evenodd" d="M5.83895 1.85997C9.21983 0.70903 12.9798 2.43043 14.1401 5.83883C15.2935 9.22687 13.5629 12.9097 10.1702 14.1368L10.1612 14.14L10.1612 14.1399C6.77317 15.2933 3.09038 13.5627 1.86323 10.17C1.7693 9.91035 1.90367 9.6237 2.16335 9.52977C2.42303 9.43584 2.70968 9.57021 2.8036 9.82989C3.84258 12.7023 6.95707 14.1717 9.83445 13.1948C12.7055 12.1537 14.1729 9.03824 13.1934 6.16109C12.2214 3.30586 9.05376 1.82737 6.17043 2.80349C5.37127 3.11214 4.69421 3.54233 4.07346 4.09994L1.9127 6.16675H4.66675C4.94289 6.16675 5.16675 6.39061 5.16675 6.66675C5.16675 6.94289 4.94289 7.16675 4.66675 7.16675H0.666748C0.390606 7.16675 0.166748 6.94289 0.166748 6.66675V6.66661V2.66675C0.166748 2.39061 0.390606 2.16675 0.666748 2.16675C0.94289 2.16675 1.16675 2.39061 1.16675 2.66675V5.49646L3.3878 3.37197L3.39893 3.36164C4.10764 2.72381 4.89278 2.22347 5.82059 1.86662C5.82667 1.86428 5.83279 1.86206 5.83895 1.85997ZM8.5 4.66675C8.5 4.39061 8.27614 4.16675 8 4.16675C7.72386 4.16675 7.5 4.39061 7.5 4.66675V8.00008C7.5 8.19154 7.60933 8.36619 7.78155 8.44984L10.1149 9.58317C10.3633 9.70382 10.6624 9.60026 10.7831 9.35187C10.9037 9.10347 10.8002 8.80431 10.5518 8.68366L8.5 7.68708V4.66675Z" fill="black"/>
</svg>
