<?xml version="1.0" encoding="UTF-8"?>
<svg width="16px" height="16px" viewBox="0 0 16 16" version="1.1" xmlns="http://www.w3.org/2000/svg" xmlns:xlink="http://www.w3.org/1999/xlink">
    <title>F139ECCB-8FC5-4DBF-B801-EED66AD11ABD@1x</title>
    <defs>
        <path d="M2.04733636,3.69528369 C3.73451934,1.37253736 6.65019869,0.220191399 9.51920921,0.830018411 C13.486302,1.67325002 16.0196095,5.56847166 15.1775097,9.53023945 C14.33541,13.4920072 10.4367891,16.0200803 6.4696963,15.1768487 C3.27135555,14.4970204 0.932648756,11.7988268 0.673603914,8.59210438 C0.643952819,8.22505275 0.917822255,7.90365369 1.28530842,7.87423948 C1.65279458,7.84482528 1.97473794,8.11853449 2.00438904,8.48558612 C2.21626037,11.1083465 4.13010247,13.3163687 6.74692475,13.8725914 C9.99272797,14.5625082 13.1825087,12.4940847 13.8714994,9.25263838 C14.5604901,6.01119201 12.487784,2.82419248 9.24198077,2.13427571 C6.84769735,1.62535506 4.41388727,2.61616098 3.04701692,4.5932016 C3.03654506,4.60834809 3.02555742,4.62292691 3.01409384,4.63693081 L4.31054514,4.60732699 C4.68727645,4.59927064 4.99961831,4.89812116 5.00818022,5.27482831 C5.01674213,5.65153545 4.71828185,5.96344789 4.34155054,5.97150424 L4.34155054,5.97150424 L1.37471695,6.03494957 C0.990845128,6.04315862 0.675372526,5.73314232 0.676911212,5.34921284 L0.676911212,5.34921284 L0.688211115,2.52968775 C0.68972118,2.15289985 0.996422805,1.84908623 1.37324837,1.85110102 C1.75007393,1.85311582 2.05432726,2.16019608 2.05281719,2.53698397 L2.05281719,2.53698397 Z M8.003,3.336 C8.371,3.336 8.669,3.635 8.669,4.003 L8.669,7.591 L10.968,8.74 C11.297,8.904 11.431,9.305 11.267,9.634 C11.149,9.867 10.914,10.003 10.669,10.003 C10.569,10.003 10.468,9.981 10.372,9.933 L7.705,8.599 C7.479,8.486 7.336,8.255 7.336,8.003 L7.336,4.003 C7.336,3.635 7.635,3.336 8.003,3.336 Z" id="path-1"></path>
    </defs>
    <g id="Navigation" stroke="none" stroke-width="1" fill="none" fill-rule="evenodd">
        <g id="Update-couleur" transform="translate(-189.000000, -138.000000)">
            <g id="Icon-history" transform="translate(189.000000, 138.000000)">
                <mask id="mask-2" fill="white">
                    <use xlink:href="#path-1"></use>
                </mask>
                <use id="History" fill="#000000" fill-rule="nonzero" xlink:href="#path-1"></use>
                <g id="Group" mask="url(#mask-2)" fill="#60666E">
                    <g id="Fill">
                        <rect id="Gray-65" x="0" y="0" width="16" height="16"></rect>
                    </g>
                </g>
            </g>
        </g>
    </g>
</svg>