<svg xmlns="http://www.w3.org/2000/svg" width="16" height="16" viewBox="0 0 16 16" fill="none">
  <path fill-rule="evenodd" clip-rule="evenodd" d="M8 0.17009C6.42327 0.17009 4.90265 0.766152 3.77458 1.84049C2.64492 2.91634 2 4.38681 2 5.93192C2 6.40887 2.05019 6.96042 2.27605 7.55511C2.50229 8.15082 2.89366 8.76074 3.53866 9.37502C4.02411 9.83734 4.41383 10.3151 4.62952 10.85C4.73698 11.1165 5.0303 11.2412 5.28468 11.1287C5.53905 11.0161 5.65816 10.7088 5.5507 10.4423C5.2531 9.70427 4.7418 9.10506 4.21134 8.59986C3.66468 8.07924 3.36854 7.59789 3.2052 7.16783C3.04148 6.73673 3 6.32798 3 5.93192C3 4.69861 3.51401 3.50445 4.44725 2.61566C5.38208 1.72536 6.65935 1.2177 8 1.2177C9.34065 1.2177 10.6179 1.72536 11.5528 2.61566C12.486 3.50445 13 4.69861 13 5.93192C13 6.91973 12.6018 7.90198 11.8084 8.58204C11.8017 8.5878 11.7951 8.59374 11.7887 8.59986C11.1904 9.16966 10.7184 9.72926 10.4403 10.4498C10.3368 10.718 10.4605 11.0233 10.7165 11.1318C10.9725 11.2402 11.2639 11.1107 11.3674 10.8425C11.5611 10.3408 11.9005 9.91037 12.4521 9.38383C13.485 8.49282 14 7.20962 14 5.93192C14 4.38681 13.3551 2.91635 12.2254 1.84049C11.0974 0.766152 9.57673 0.17009 8 0.17009ZM5 12.6599C5 12.3838 5.22386 12.1599 5.5 12.1599H10.5C10.7761 12.1599 11 12.3838 11 12.6599C11 12.9361 10.7761 13.1599 10.5 13.1599H5.5C5.22386 13.1599 5 12.9361 5 12.6599ZM6.16675 15.3267C6.16675 15.0505 6.39061 14.8267 6.66675 14.8267H9.33342C9.60956 14.8267 9.83342 15.0505 9.83342 15.3267C9.83342 15.6028 9.60956 15.8267 9.33342 15.8267H6.66675C6.39061 15.8267 6.16675 15.6028 6.16675 15.3267Z" fill="#000000"/>
</svg>