<?xml version="1.0" encoding="UTF-8"?>
<svg width="52px" height="56px" viewBox="0 0 52 56" version="1.1" xmlns="http://www.w3.org/2000/svg" xmlns:xlink="http://www.w3.org/1999/xlink">
    <!-- Generator: Sketch 55.2 (78181) - https://sketchapp.com -->
    <title>Man</title>
    <desc>Created with Sketch.</desc>
    <g id="Man" stroke="none" stroke-width="1" fill="none" fill-rule="evenodd">
        <path d="M3.43831837,53.1301479 C4.95453279,49.2902858 9.3319169,40.6761378 18.1803068,40.3547144 C19.8095523,40.2961694 22.4275339,39.3043485 23.0497756,33.8125995 C23.9563074,34.19142 24.9165004,34.4187123 25.9394884,34.4187123 C26.9990118,34.4187123 27.9980235,34.153538 28.9410906,33.7196163 C29.5473481,39.2917212 32.1847391,40.2961694 33.8208349,40.3547144 C42.6680831,40.6761378 47.0454672,49.2902858 48.5616816,53.1301479 L3.43831837,53.1301479 Z M18.1506219,23.0506542 C18.1392046,23.0231036 18.1437715,22.9932572 18.1323542,22.9657066 C18.0901103,22.8727234 18.0627088,22.7889237 18.0227484,22.6959405 C17.4678687,21.0497933 17.0499963,19.3083671 16.7988162,17.5910476 C16.7782651,16.8207793 17.018028,13.3000448 18.7363282,11.6573414 C19.4293569,10.9915358 20.3050621,10.7217697 21.4148214,10.8342679 C23.6354819,11.0581163 25.4964981,10.8388596 26.9921614,10.6632247 C30.7164772,10.2258592 32.2897781,10.0410407 35.162365,16.9459049 C34.5264227,23.0231036 30.7141938,31.5488602 25.9394884,31.5488602 C22.5839506,31.5488602 19.8027019,27.7354008 18.1506219,23.0506542 L18.1506219,23.0506542 Z M16.7565723,7.0713178 C19.3197511,3.22915983 24.989571,2.79753407 28.1167632,2.88018581 C30.7027765,2.94906226 32.5660762,3.76639614 33.8139846,5.38040095 C35.1509477,7.11034779 35.573387,9.48428944 35.6350403,11.5896129 C32.9359959,7.38240977 30.2928963,7.38585359 26.6610604,7.81173964 C25.2293338,7.979339 23.6092221,8.17104512 21.6979699,7.979339 C18.9566816,7.70727702 16.7634227,8.91376284 15.4081919,11.3967589 C15.5246481,9.71502554 15.9619298,8.26173245 16.7565723,7.0713178 L16.7565723,7.0713178 Z M51.9491878,54.1851055 C51.9046604,54.02095 50.8188773,50.1122115 48.1106992,46.1070459 C44.4354776,40.6703981 39.5294736,37.6903437 33.9235904,37.4871582 C32.0100548,37.4171338 31.7143473,33.397045 31.6721034,31.8335495 C35.279963,28.3541409 37.5622767,22.0220992 38.0235347,16.9757513 C38.1925104,16.2043351 39.7726616,8.42474005 36.0734637,3.6274953 C34.2946519,1.32013422 31.6424184,0.102168995 28.1921172,0.0114816689 C21.73108,-0.168745042 16.850194,1.77816261 14.3852038,5.47223622 C11.6119472,9.6323738 11.939623,15.7704134 15.3453968,23.7095723 C16.476849,27.0408966 18.1563305,30.0622768 20.3210463,32.0424748 C20.2559678,33.7827531 19.9020322,37.4205776 18.0775513,37.4871582 C12.4716682,37.6903437 7.56452238,40.6703981 3.88930082,46.1070459 C1.18112265,50.1122115 0.0953395811,54.02095 0.0508121998,54.1851055 C-0.0667857562,54.6167313 0.0222690066,55.0793515 0.29171675,55.4352131 C0.562306222,55.7910748 0.981320298,56 1.42659411,56 L50.5734059,56 C51.017538,56 51.4388355,55.7910748 51.7082832,55.4352131 C51.977731,55.0793515 52.0667858,54.6167313 51.9491878,54.1851055 L51.9491878,54.1851055 Z" id="Fill-1" fill="currentColor"></path>
    </g>
</svg>
