<?xml version="1.0" encoding="UTF-8"?>
<svg width="168px" height="152px" viewBox="0 0 168 152" version="1.1" xmlns="http://www.w3.org/2000/svg" xmlns:xlink="http://www.w3.org/1999/xlink">
    <!-- Generator: Sketch 54.1 (76490) - https://sketchapp.com -->
    <title>Icon Aucun Contact trouvé</title>
    <desc>Created with Sketch.</desc>
    <g id="Page-1" stroke="none" stroke-width="1" fill="none" fill-rule="evenodd">
        <g id="6---Recherche-contact" transform="translate(-555.000000, -213.000000)">
            <g id="Icon-Aucun-Contact-trouvé" transform="translate(555.000000, 213.000000)">
                <g id="Group" transform="translate(9.000000, 131.000000)" fill="#D9DDE2">
                    <ellipse id="Oval" cx="75" cy="10.8251366" rx="75" ry="10.1748634"></ellipse>
                </g>
                <g id="Group-5-Copy-3">
                    <path d="M3,0 L165,0 C166.656854,-3.04359188e-16 168,1.34314575 168,3 L168,95 C168,96.6568542 166.656854,98 165,98 L3,98 C1.34314575,98 2.02906125e-16,96.6568542 0,95 L0,3 C-2.02906125e-16,1.34314575 1.34314575,3.04359188e-16 3,0 Z" id="Rectangle-Copy-2" fill="#D9DDE2"></path>
                    <path d="M17,14 L83,14 C84.1045695,14 85,14.8954305 85,16 L85,83 C85,84.1045695 84.1045695,85 83,85 L17,85 C15.8954305,85 15,84.1045695 15,83 L15,16 C15,14.8954305 15.8954305,14 17,14 Z" id="Rectangle-Copy-3" fill="#FFFFFF"></path>
                    <ellipse id="Oval-5" fill="#D9DDE2" cx="50.8679715" cy="36.9381443" rx="13.5821894" ry="13.742268"></ellipse>
                    <path d="M33.5646424,76.2474227 L68.3624256,76.2474257 C71.1238511,76.2474257 73.3624287,74.0088481 73.3624287,71.2474227 C73.3624287,70.7572143 73.2903395,70.2696704 73.1484748,69.8004384 C69.8100398,58.7582217 62.4958912,53.2371134 51.206029,53.2371134 C39.9663175,53.2371134 32.5061316,58.70928 28.8254713,69.6536133 L28.8254798,69.6536162 C27.9452398,72.2709834 29.3534597,75.1063543 31.9708269,75.9865943 C32.4844543,76.159331 33.0227466,76.2474227 33.5646424,76.2474227 Z" id="Path-2" fill="#D9DDE2"></path>
                    <path d="M99,22 L127,22 C128.656854,22 130,23.3431458 130,25 C130,26.6568542 128.656854,28 127,28 L99,28 C97.3431458,28 96,26.6568542 96,25 C96,23.3431458 97.3431458,22 99,22 Z M99.1481481,44 L149.851852,44 C151.590526,44 153,45.4094739 153,47.1481481 C153,48.8868224 151.590526,50.2962963 149.851852,50.2962963 L99.1481481,50.2962963 C97.4094739,50.2962963 96,48.8868224 96,47.1481481 C96,45.4094739 97.4094739,44 99.1481481,44 Z M99.1481481,57.8518519 L149.851852,57.8518519 C151.590526,57.8518519 153,59.2613258 153,61 C153,62.7386742 151.590526,64.1481481 149.851852,64.1481481 L99.1481481,64.1481481 C97.4094739,64.1481481 96,62.7386742 96,61 C96,59.2613258 97.4094739,57.8518519 99.1481481,57.8518519 Z M99.1481481,71.7037037 L149.851852,71.7037037 C151.590526,71.7037037 153,73.1131776 153,74.8518519 C153,76.5905261 151.590526,78 149.851852,78 L99.1481481,78 C97.4094739,78 96,76.5905261 96,74.8518519 C96,73.1131776 97.4094739,71.7037037 99.1481481,71.7037037 Z" id="Combined-Shape" fill="#FFFFFF"></path>
                </g>
            </g>
        </g>
    </g>
</svg>