<svg width="24px" height="24px" viewBox="0 0 24 24" version="1.1" xmlns="http://www.w3.org/2000/svg" xmlns:xlink="http://www.w3.org/1999/xlink">
    <defs>
        <path d="M7.66792318,2.25 C8.08283675,2.25 8.46213947,2.48183591 8.64769446,2.84885194 L8.64769446,2.84885194 L9.44034608,4.41666667 L18.6220991,4.41666667 C20.4370464,4.41666667 21.9083519,5.87174123 21.9083519,7.66666667 L21.9083519,7.66666667 L21.9083519,8.85594438 C21.9083519,8.89447951 21.9063175,8.9325447 21.902349,8.97004065 C23.1294412,9.43972045 24,10.6193168 24,12 C24,12.3259406 23.950422,12.650027 23.8529302,12.9613808 L23.8529302,12.9613808 L21.1522634,19.4196719 C20.7261525,20.7805168 19.4535715,21.7082911 18.0130804,21.7082911 L18.0130804,21.7082911 L17.3290775,21.7097886 C17.2347129,21.7359877 17.1351933,21.75 17.0323645,21.75 L17.0323645,21.75 L3.28625279,21.75 C1.47130549,21.75 0,20.2949254 0,18.5 L0,18.5 L0,5.5 C0,3.70507456 1.47130549,2.25 3.28625279,2.25 L3.28625279,2.25 Z M20.833105,10.9230235 L20.7137472,10.9166667 L7.08753077,10.9166667 C6.58899532,10.9166667 6.15333923,11.2495799 6.02755379,11.7266643 L6.02755379,11.7266643 L3.407,19.583 L16.512,19.583 L18.0130804,19.5416244 C18.4532305,19.5416244 18.8463502,19.2817617 19.0182181,18.8890522 L19.0594748,18.7787514 L21.7601415,12.3204603 C21.7926388,12.2166757 21.8091648,12.1086469 21.8091648,12 C21.8091648,11.4016915 21.3187296,10.9166667 20.7137472,10.9166667 Z M6.99091787,4.41666667 L3.28625279,4.41666667 C2.68127036,4.41666667 2.19083519,4.90169152 2.19083519,5.5 L2.19083519,5.5 L2.19,16.353 L3.90759983,11.1799928 C4.26923296,9.80837531 5.48462429,8.8339792 6.90161607,8.75516081 L7.08753077,8.75 L19.717,8.75 L19.7175167,7.66666667 C19.7175167,7.10824542 19.2902932,6.6485068 18.741457,6.58969019 L18.6220991,6.58333333 L8.76334077,6.58333333 C8.34842719,6.58333333 7.96912448,6.35149743 7.78356949,5.9844814 L7.78356949,5.9844814 L6.99091787,4.41666667 Z" id="path-1"></path>
    </defs>
    <g id="Icon/Open" stroke="none" stroke-width="1" fill="none" fill-rule="evenodd">
        <mask id="mask-2" fill="white">
            <use xlink:href="#path-1"></use>
        </mask>
        <use id="Open" fill="#000000" fill-rule="nonzero" xlink:href="#path-1"></use>
        <g id="Core/Grey/7(BLACK)" mask="url(#mask-2)" fill="#000000">
            <rect id="CRM/5" x="0" y="0" width="24" height="24"></rect>
        </g>
    </g>
</svg>
