<?xml version="1.0" encoding="UTF-8"?>
<svg viewBox="0 0 40 42" version="1.1" xmlns="http://www.w3.org/2000/svg" xmlns:xlink="http://www.w3.org/1999/xlink">
    <title>Icon/Organisation</title>
    <defs>
        <path d="M37.6802055,3.99 C39.7791192,3.99 41.480625,5.71016048 41.480625,7.83208598 L41.480625,7.83208598 L41.480625,40.137914 C41.480625,40.6104214 41.3962546,41.0630069 41.2419131,41.4811133 L42.3000663,41.480625 C43.2278681,41.480625 43.98,42.1521979 43.98,42.980625 C43.98,43.7337406 43.3584034,44.3572245 42.5483146,44.4643611 L42.3000663,44.480625 L5.66993367,44.480625 C4.74213192,44.480625 3.99,43.8090521 3.99,42.980625 C3.99,42.2275094 4.61159663,41.6040255 5.42168538,41.4968889 L5.66993367,41.480625 L6.72808687,41.4811133 C6.57374543,41.0630069 6.489375,40.6104214 6.489375,40.137914 L6.489375,40.137914 L6.489375,7.83208598 C6.489375,5.71016048 8.19088078,3.99 10.2897945,3.99 L10.2897945,3.99 Z M38.188236,6.489375 L9.78176401,6.489375 C9.34379447,6.489375 8.98875,6.84712203 8.98875,7.28842536 L8.98875,7.28842536 L8.98875,40.6815746 C8.98875,41.122878 9.34379447,41.480625 9.78176401,41.480625 L9.78176401,41.480625 L18.98625,41.480625 L18.98625,41.480625 L18.98625,33.9825 C18.98625,32.6021333 20.1052583,31.483125 21.485625,31.483125 L26.484375,31.483125 C27.8647417,31.483125 28.98375,32.6021333 28.98375,33.9825 L28.98375,41.480625 L38.188236,41.480625 C38.6262055,41.480625 38.98125,41.122878 38.98125,40.6815746 L38.98125,40.6815746 L38.98125,7.28842536 C38.98125,6.84712203 38.6262055,6.489375 38.188236,6.489375 L38.188236,6.489375 Z M26.484375,33.9825 L21.485625,33.9825 L21.485625,41.480625 L26.484375,41.480625 L26.484375,33.9825 Z M15.9449344,32.5176642 C16.5893316,32.5176642 17.1117187,33.189237 17.1117187,34.0176642 C17.1117187,34.7707797 16.6799938,35.3942637 16.1173532,35.5014003 L15.9449344,35.5176642 L13.2797531,35.5176642 C12.6353559,35.5176642 12.1129687,34.8460913 12.1129687,34.0176642 C12.1129687,33.2645486 12.5446937,32.6410646 13.1073343,32.533928 L13.2797531,32.5176642 L15.9449344,32.5176642 Z M34.6902469,32.5176642 C35.3346441,32.5176642 35.8570312,33.189237 35.8570312,34.0176642 C35.8570312,34.7707797 35.4253063,35.3942637 34.8626657,35.5014003 L34.6902469,35.5176642 L32.0250656,35.5176642 C31.3806684,35.5176642 30.8582812,34.8460913 30.8582812,34.0176642 C30.8582812,33.2645486 31.2900062,32.6410646 31.8526468,32.533928 L32.0250656,32.5176642 L34.6902469,32.5176642 Z M15.9449344,25.0195392 C16.5893316,25.0195392 17.1117187,25.691112 17.1117187,26.5195392 C17.1117187,27.2726547 16.6799938,27.8961387 16.1173532,28.0032753 L15.9449344,28.0195392 L13.2797531,28.0195392 C12.6353559,28.0195392 12.1129687,27.3479663 12.1129687,26.5195392 C12.1129687,25.7664236 12.5446937,25.1429396 13.1073343,25.035803 L13.2797531,25.0195392 L15.9449344,25.0195392 Z M28.4418094,25.0195392 C29.0862066,25.0195392 29.6085937,25.691112 29.6085937,26.5195392 C29.6085937,27.2726547 29.1768688,27.8961387 28.6142282,28.0032753 L28.4418094,28.0195392 L25.7766281,28.0195392 C25.1322309,28.0195392 24.6098437,27.3479663 24.6098437,26.5195392 C24.6098437,25.7664236 25.0415687,25.1429396 25.6042093,25.035803 L25.7766281,25.0195392 L28.4418094,25.0195392 Z M34.6902469,25.0195392 C35.3346441,25.0195392 35.8570312,25.691112 35.8570312,26.5195392 C35.8570312,27.2726547 35.4253063,27.8961387 34.8626657,28.0032753 L34.6902469,28.0195392 L32.0250656,28.0195392 C31.3806684,28.0195392 30.8582812,27.3479663 30.8582812,26.5195392 C30.8582812,25.7664236 31.2900062,25.1429396 31.8526468,25.035803 L32.0250656,25.0195392 L34.6902469,25.0195392 Z M22.1937812,25.0195392 C22.8379524,25.0195392 23.3601562,25.691112 23.3601562,26.5195392 C23.3601562,27.2726547 22.9285828,27.8961387 22.3661396,28.0032753 L22.1937812,28.0195392 L19.5277812,28.0195392 C18.8836101,28.0195392 18.3614062,27.3479663 18.3614062,26.5195392 C18.3614062,25.7664236 18.7929797,25.1429396 19.3554229,25.035803 L19.5277812,25.0195392 L22.1937812,25.0195392 Z M15.9449344,17.9610473 C16.5893316,17.9610473 17.1117187,18.6326202 17.1117187,19.4610473 C17.1117187,20.2141629 16.6799938,20.8376469 16.1173532,20.9447835 L15.9449344,20.9610473 L13.2797531,20.9610473 C12.6353559,20.9610473 12.1129687,20.2894745 12.1129687,19.4610473 C12.1129687,18.7079318 12.5446937,18.0844478 13.1073343,17.9773112 L13.2797531,17.9610473 L15.9449344,17.9610473 Z M28.4418094,17.9610473 C29.0862066,17.9610473 29.6085937,18.6326202 29.6085937,19.4610473 C29.6085937,20.2141629 29.1768688,20.8376469 28.6142282,20.9447835 L28.4418094,20.9610473 L25.7766281,20.9610473 C25.1322309,20.9610473 24.6098437,20.2894745 24.6098437,19.4610473 C24.6098437,18.7079318 25.0415687,18.0844478 25.6042093,17.9773112 L25.7766281,17.9610473 L28.4418094,17.9610473 Z M34.6902469,17.9610473 C35.3346441,17.9610473 35.8570312,18.6326202 35.8570312,19.4610473 C35.8570312,20.2141629 35.4253063,20.8376469 34.8626657,20.9447835 L34.6902469,20.9610473 L32.0250656,20.9610473 C31.3806684,20.9610473 30.8582812,20.2894745 30.8582812,19.4610473 C30.8582812,18.7079318 31.2900062,18.0844478 31.8526468,17.9773112 L32.0250656,17.9610473 L34.6902469,17.9610473 Z M22.1937812,17.9610473 C22.8379524,17.9610473 23.3601562,18.6326202 23.3601562,19.4610473 C23.3601562,20.2141629 22.9285828,20.8376469 22.3661396,20.9447835 L22.1937812,20.9610473 L19.5277812,20.9610473 C18.8836101,20.9610473 18.3614062,20.2894745 18.3614062,19.4610473 C18.3614062,18.7079318 18.7929797,18.0844478 19.3554229,17.9773112 L19.5277812,17.9610473 L22.1937812,17.9610473 Z M15.9449344,10.9014064 C16.5893316,10.9014064 17.1117187,11.5729793 17.1117187,12.4014064 C17.1117187,13.154522 16.6799938,13.7780059 16.1173532,13.8851425 L15.9449344,13.9014064 L13.2797531,13.9014064 C12.6353559,13.9014064 12.1129687,13.2298335 12.1129687,12.4014064 C12.1129687,11.6482908 12.5446937,11.0248069 13.1073343,10.9176702 L13.2797531,10.9014064 L15.9449344,10.9014064 Z M28.4418094,10.9014064 C29.0862066,10.9014064 29.6085937,11.5729793 29.6085937,12.4014064 C29.6085937,13.154522 29.1768688,13.7780059 28.6142282,13.8851425 L28.4418094,13.9014064 L25.7766281,13.9014064 C25.1322309,13.9014064 24.6098437,13.2298335 24.6098437,12.4014064 C24.6098437,11.6482908 25.0415687,11.0248069 25.6042093,10.9176702 L25.7766281,10.9014064 L28.4418094,10.9014064 Z M34.6902469,10.9014064 C35.3346441,10.9014064 35.8570312,11.5729793 35.8570312,12.4014064 C35.8570312,13.154522 35.4253063,13.7780059 34.8626657,13.8851425 L34.6902469,13.9014064 L32.0250656,13.9014064 C31.3806684,13.9014064 30.8582812,13.2298335 30.8582812,12.4014064 C30.8582812,11.6482908 31.2900062,11.0248069 31.8526468,10.9176702 L32.0250656,10.9014064 L34.6902469,10.9014064 Z M22.1937812,10.9014064 C22.8379524,10.9014064 23.3601562,11.5729793 23.3601562,12.4014064 C23.3601562,13.154522 22.9285828,13.7780059 22.3661396,13.8851425 L22.1937812,13.9014064 L19.5277812,13.9014064 C18.8836101,13.9014064 18.3614062,13.2298335 18.3614062,12.4014064 C18.3614062,11.6482908 18.7929797,11.0248069 19.3554229,10.9176702 L19.5277812,10.9014064 L22.1937812,10.9014064 Z" id="path-1"></path>
    </defs>
    <g id="Symbols" stroke="none" stroke-width="1" fill="none" fill-rule="evenodd">
        <g id="Avatar" transform="translate(-20.000000, -19.000000)">
            <g id="Icon/Organisation" transform="translate(16.000000, 16.000000)">
                <mask id="mask-2" fill="white">
                    <use xlink:href="#path-1"></use>
                </mask>
                <use id="Icon" fill="currentColor" fill-rule="nonzero" xlink:href="#path-1"></use>
                <g id="Group" mask="url(#mask-2)" fill="currentColor">
                    <g id="Fill">
                        <rect id="Primary-70" x="0" y="0" width="48" height="48"></rect>
                    </g>
                </g>
            </g>
        </g>
    </g>
</svg>
