<svg width="16px" height="16px" viewBox="0 0 16 16" version="1.1" xmlns="http://www.w3.org/2000/svg" xmlns:xlink="http://www.w3.org/1999/xlink" stroke="currentColor">
    <defs>
        <path d="M12.07925,9.92060046 C12.34025,10.1816005 12.34025,10.6026005 12.07925,10.8636005 L8.47125,14.4716005 C8.21125,14.7326005 7.78825,14.7326005 7.52825,14.4716005 L3.91925,10.8636005 C3.66025,10.6026005 3.66025,10.1816005 3.91925,9.92060046 C4.05025,9.79060046 4.22025,9.72560046 4.39125,9.72560046 C4.56225,9.72560046 4.73225,9.79060046 4.86325,9.92060046 L7.99925,13.0576005 L11.13725,9.92060046 C11.39625,9.66060046 11.81925,9.66060046 12.07925,9.92060046 Z M8.47175,1.52573254 L12.08075,5.13373254 C12.33975,5.39473254 12.33975,5.81573254 12.08075,6.07673254 C11.94975,6.20673254 11.77975,6.27173254 11.60875,6.27173254 C11.43775,6.27173254 11.26775,6.20673254 11.13675,6.07673254 L8.00075,2.93973254 L4.86275,6.07673254 C4.60375,6.33673254 4.18075,6.33673254 3.92075,6.07673254 C3.65975,5.81573254 3.65975,5.39473254 3.92075,5.13373254 L7.52875,1.52573254 C7.78875,1.26473254 8.21175,1.26473254 8.47175,1.52573254 Z" id="path-1"></path>
    </defs>
    <g id="Icon/Reorder" stroke="none" stroke-width="1" fill="currentColor" fill-rule="evenodd">
        <mask id="mask-2" fill="white">
            <use xlink:href="#path-1"></use>
        </mask>
        <use id="Combined-Shape" fill="#000000" xlink:href="#path-1"></use>
        <g id="Core/Grey/7(BLACK)" mask="url(#mask-2)">
            <g transform="translate(8.000000, 8.000000) rotate(-180.000000) translate(-8.000000, -8.000000) " id="CRM/5">
                <rect x="0" y="0" width="16" height="16"></rect>
            </g>
        </g>
    </g>
</svg>