<svg xmlns="http://www.w3.org/2000/svg" width="16" height="16" viewBox="0 0 16 16" fill="none">
<path fill-rule="evenodd" clip-rule="evenodd" d="M2.03697 2.03697C2.38079 1.69315 2.8471 1.5 3.33333 1.5H12.6667C13.1529 1.5 13.6192 1.69315 13.963 2.03697C14.3068 2.38079 14.5 2.8471 14.5 3.33333V12.6667C14.5 13.1529 14.3068 13.6192 13.963 13.963C13.6192 14.3068 13.1529 14.5 12.6667 14.5H3.33333C2.8471 14.5 2.38079 14.3068 2.03697 13.963C1.69315 13.6192 1.5 13.1529 1.5 12.6667V3.33333C1.5 2.8471 1.69315 2.38079 2.03697 2.03697ZM2.5 10.5V12.6667C2.5 12.8877 2.5878 13.0996 2.74408 13.2559C2.90036 13.4122 3.11232 13.5 3.33333 13.5H7.5V10.5H2.5ZM7.5 9.5H2.5V6.5H7.5V9.5ZM8.5 10.5V13.5H12.6667C12.8877 13.5 13.0996 13.4122 13.2559 13.2559C13.4122 13.0996 13.5 12.8877 13.5 12.6667V10.5H8.5ZM13.5 9.5H8.5V6.5H13.5V9.5ZM13.5 5.5V3.33333C13.5 3.11232 13.4122 2.90036 13.2559 2.74408C13.0996 2.5878 12.8877 2.5 12.6667 2.5H3.33333C3.11232 2.5 2.90036 2.5878 2.74408 2.74408C2.5878 2.90036 2.5 3.11232 2.5 3.33333V5.5H13.5Z" fill="currentColor"/>
</svg>