<svg width="16" height="16" viewBox="0 0 16 16" fill="none" xmlns="http://www.w3.org/2000/svg">
    <path d="M3.99992 7.33325 2.30656 8.97323c-.6072.62868-.94318 1.47067-.93558 2.34467.00759.874.35815 1.71.97618 2.3281.61803.618 1.45407.9686 2.32806.9761.87399.0076 1.71599-.3283 2.34467-.9355l1.6467-1.6867M12.0001 8.62231l1.6933-1.63998c.6072-.62867.9432-1.47068.9356-2.34467-.0076-.87399-.3581-1.71003-.9762-2.32806-.618-.61802-1.454-.96859-2.328-.97618-.874-.0076-1.71601.32839-2.34469.93558l-1.6467 1.68665" stroke-linejoin="round" stroke="currentColor" stroke-linecap="round"/>
    <path d="M4.33325 1v2M1 4.33325h2M11.6667 15v-2M15 11.6667h-2" stroke="currentColor" stroke-linecap="round"/>
</svg>
