<?xml version="1.0" encoding="UTF-8"?>
<svg viewBox="0 0 16 14" version="1.1" xmlns="http://www.w3.org/2000/svg" xmlns:xlink="http://www.w3.org/1999/xlink">
    <title>Icon/Warning-filled</title>
    <g id="Assets" stroke="none" stroke-width="1" fill="none" fill-rule="evenodd">
        <g transform="translate(-142.000000, -183.000000)" id="Group">
            <g transform="translate(142.000000, 182.000000)">
                <path d="M7.04335081,2.49348361 C7.70347048,1.91940875 8.00035957,1.96561244 8.27789285,2.03380689 C8.57997047,2.10757003 8.83601886,2.29587096 8.99719589,2.56156212 L8.99719589,2.56156212 L14.6847709,12.0546309 C14.8654662,12.9559784 14.6629355,13.183797 14.4674049,13.3824329 C14.2485922,13.6083041 13.9534597,13.7319768 13.6462847,13.7355353 L13.6462847,13.7355353 L2.27500888,13.7355353 C1.40118532,13.429803 1.3135258,13.1352525 1.24230876,12.8772695 C1.1620944,12.5866938 1.19440165,12.2685908 1.35634964,11.9876021 L1.35634964,11.9876021 Z" id="Path" stroke="#996500" fill="#F5A200"></path>
                <path d="M8.00008475,9.23503533 C7.63208475,9.23503533 7.33308475,8.93703533 7.33308475,8.56803533 L7.33308475,5.90203533 C7.33308475,5.53403533 7.63208475,5.23503533 8.00008475,5.23503533 C8.36808475,5.23503533 8.66708475,5.53403533 8.66708475,5.90203533 L8.66708475,8.56803533 C8.66708475,8.93703533 8.36808475,9.23503533 8.00008475,9.23503533" id="Fill-4" fill="#000000"></path>
                <path d="M8.00698475,11.9020353 C7.63898475,11.9020353 7.33698475,11.6030353 7.33698475,11.2350353 C7.33698475,10.8670353 7.63198475,10.5680353 7.99998475,10.5680353 L8.00698475,10.5680353 C8.37498475,10.5680353 8.67398475,10.8670353 8.67398475,11.2350353 C8.67398475,11.6030353 8.37498475,11.9020353 8.00698475,11.9020353" id="Fill-6" fill="#000000"></path>
            </g>
        </g>
    </g>
</svg>
