<?xml version="1.0" encoding="UTF-8"?>
<svg width="52px" height="56px" viewBox="0 0 52 56" version="1.1" xmlns="http://www.w3.org/2000/svg" xmlns:xlink="http://www.w3.org/1999/xlink">
    <!-- Generator: Sketch 55.2 (78181) - https://sketchapp.com -->
    <title>Woman</title>
    <desc>Created with Sketch.</desc>
    <g id="Woman" stroke="none" stroke-width="1" fill="none" fill-rule="evenodd">
        <path d="M3.43829125,53.2 C4.95449372,49.4536 9.3318433,41.04912 18.1801634,40.73664 C19.8105377,40.6784 22.4296405,39.7096 23.0495938,34.34368 C23.9504098,34.71664 24.9071701,34.944 25.9392839,34.944 C27.0090743,34.944 28.0069365,34.69648 28.9442875,34.29104 C29.555107,39.70288 32.1867687,40.6784 33.8205682,40.73664 C42.6688883,41.04912 47.0462379,49.4536 48.5612986,53.2 L3.43829125,53.2 Z M17.0224606,19.78704 C19.297906,19.20912 24.06344,17.6344 29.8862055,13.64608 C30.6545822,14.9408 32.1422417,16.81232 35.0947263,18.4688 C34.3092238,24.35776 30.8155645,32.144 25.9392839,32.144 C21.4009519,32.144 18.1504787,25.29744 17.0224606,19.78704 L17.0224606,19.78704 Z M10.9279262,17.60192 C10.9188323,13.64944 12.4807035,9.93104 15.3270083,7.1344 C18.1698879,4.34 21.9512603,2.8 25.9746771,2.8 C34.2532796,2.8 41.0031207,9.41136 41.0202465,17.53808 L41.0681987,39.8832 C38.8601146,38.70496 36.4682139,38.02848 33.9233229,37.93888 C32.0372036,37.87056 31.7220892,34.06032 31.674137,32.48784 C35.4098407,29.03264 37.6144995,22.6184 38.0392189,17.80464 C38.0894545,17.23568 37.7823322,16.6936 37.2628501,16.43488 C33.2782518,14.45472 32.2096031,12.05008 31.8579537,11.25936 C31.7426401,10.9984 31.6421689,10.77328 31.4206754,10.55712 C30.9194609,10.06544 30.1271081,10.0072 29.5585322,10.42496 C21.4911477,16.32736 15.2345291,17.31296 15.1763014,17.3208 C14.8018177,17.37456 14.463869,17.5728 14.2366669,17.87072 C14.0117483,18.16864 13.9147023,18.54272 13.9706465,18.91008 C14.6385519,23.37104 16.7552984,29.33392 20.3220277,32.58528 C20.2603749,34.2664 19.9155759,37.8728 18.0774087,37.93888 C15.54736,38.02736 13.1714434,38.69712 10.9747765,39.8608 L10.9279262,17.60192 Z M51.9499198,54.22928 C51.9042511,54.06912 50.8196183,50.25552 48.1103197,46.34784 C46.8452954,44.52112 45.4238556,43.00128 43.8882439,41.75584 C43.8973776,41.69312 43.9259206,41.63712 43.9259206,41.57216 L43.8745433,17.53248 C43.8539923,7.86464 35.8242846,0 25.9746771,0 C21.1874505,0 16.6890788,1.8312 13.3061662,5.15648 C9.92097016,8.484 8.0633938,12.90576 8.07366927,17.60864 L8.12504661,41.49264 C8.12504661,41.5688 8.15701473,41.63376 8.16843192,41.70656 C6.60998586,42.95984 5.17142027,44.49872 3.88927015,46.34784 C1.18111334,50.25552 0.0953388292,54.06912 0.050811799,54.22928 C-0.0667852295,54.6504 0.0222688309,55.10176 0.29171445,55.44896 C0.562301787,55.79616 0.981312559,56 1.42658286,56 L50.573007,56 C51.0182773,56 51.4384298,55.79616 51.7078754,55.44896 C51.9773211,55.10176 52.0663751,54.6504 51.9499198,54.22928 L51.9499198,54.22928 Z" id="Fill-1" fill="currentColor"></path>
    </g>
</svg>
