<?xml version="1.0" encoding="UTF-8"?>
<svg width="161px" height="40px" viewBox="0 0 161 40" version="1.1" xmlns="http://www.w3.org/2000/svg" xmlns:xlink="http://www.w3.org/1999/xlink">
    <!-- Generator: Sketch 55.2 (78181) - https://sketchapp.com -->
    <title>Equisoft logo_reversed</title>
    <desc>Created with Sketch.</desc>
    <g id="Symbols" stroke="none" stroke-width="1" fill="none" fill-rule="evenodd">
        <g id="Equisoft-logo_reversed">
            <path d="M43.0298859,22.1981528 C43.0670317,25.2311456 45.0654106,28.0758771 48.2477712,28.0758771 C50.7986541,28.0758771 52.1686767,26.7481223 53.4288229,24.6256997 L56.239726,26.2566577 C54.6121803,29.3283914 51.5768419,31.1111111 48.2109376,31.1111111 C42.9193851,31.1111111 39.6986301,27.0138653 39.6986301,21.7819287 C39.6986301,16.3191478 42.5485519,12.2222222 48.1375826,12.2222222 C53.6504488,12.2222222 56.239726,16.3959892 56.239726,21.6666667 L56.239726,22.1981528 L43.0298859,22.1981528 Z M52.9097188,19.6198047 C52.5008034,16.9626943 50.7986541,15.1818956 48.1375826,15.1818956 C45.5445595,15.1818956 43.6214086,17.0766756 43.2140539,19.6198047 L52.9097188,19.6198047 L52.9097188,19.6198047 Z" id="Fill-1" fill="#FFFFFF"></path>
            <path d="M76.0890411,40 L72.7452863,40 L72.7452863,27.8542393 L72.6691637,27.8542393 C71.3343559,29.881275 69.2173337,31.2553233 66.7651215,31.2553233 C61.4180585,31.2553233 58.4452055,26.7076397 58.4452055,21.5860111 C58.4452055,16.6957027 61.6028829,12.2222222 66.6150692,12.2222222 C69.2173337,12.2222222 71.2945716,13.5991741 72.6691637,15.7394503 L72.7452863,15.7394503 L72.7452863,12.7597109 L76.0890411,12.7597109 L76.0890411,40 Z M72.9297974,21.700542 C72.9297974,18.2223513 70.8876447,15.281004 67.2835695,15.281004 C63.8320527,15.281004 61.7892735,18.3755969 61.7892735,21.700542 C61.7892735,25.0654923 63.7578097,28.1971867 67.2835695,28.1971867 C70.9264892,28.1971867 72.9297974,25.21777 72.9297974,21.700542 L72.9297974,21.700542 Z" id="Fill-2" fill="#FFFFFF"></path>
            <path d="M84.0084333,12.2222222 L84.0084333,22.327926 C84.0084333,25.2576313 84.7484009,27.8338082 88.2200003,27.8338082 C91.6886397,27.8338082 92.4305806,25.2576313 92.4305806,22.327926 L92.4305806,12.2222222 L95.9383562,12.2222222 L95.9383562,22.7193441 C95.9383562,27.716185 93.6003873,31.1111111 88.2200003,31.1111111 C82.8392844,31.1111111 80.5,27.716185 80.5,22.7193441 L80.5,12.2222222 L84.0084333,12.2222222" id="Fill-3" fill="#FFFFFF"></path>
            <path d="M115.041423,16.8122133 C114.627359,15.9375024 113.763433,15.2577764 112.787357,15.2577764 C111.846447,15.2577764 110.945138,16.0149841 110.945138,17.0033562 C110.945138,18.5568325 112.974272,19.2391198 115.041423,20.1877905 C117.10699,21.1358209 119.09589,22.425155 119.09589,25.2311456 C119.09589,28.6086439 116.317513,31.1111111 113.048088,31.1111111 C110.495275,31.1111111 107.904763,29.6315946 106.965753,27.1297677 L109.858181,25.8020129 C110.570675,27.1297677 111.434601,28.0758771 113.048088,28.0758771 C114.475927,28.0758771 115.717168,27.0913471 115.717168,25.5743704 C115.717168,24.6256997 115.264771,24.1704146 114.475927,23.6389284 L111.17102,21.8574894 C109.217602,20.7938768 107.789763,19.8077459 107.789763,17.3814797 C107.789763,14.4983276 110.121129,12.2222222 112.974272,12.2222222 C115.114922,12.2222222 116.843092,13.3959741 117.782101,15.3320564 L115.041423,16.8122133" id="Fill-4" fill="#FFFFFF"></path>
            <path d="M140.047945,21.6682675 C140.047945,27.0124034 135.924034,31.1111111 130.674499,31.1111111 C125.424965,31.1111111 121.30137,27.0124034 121.30137,21.6682675 C121.30137,16.3206097 125.424965,12.2222222 130.674499,12.2222222 C135.924034,12.2222222 140.047945,16.3206097 140.047945,21.6682675 M124.676658,21.6682675 C124.676658,25.0030698 127.338746,27.8489855 130.674499,27.8489855 C134.013416,27.8489855 136.675187,25.0030698 136.675187,21.6682675 C136.675187,18.2912038 134.013416,15.4837075 130.674499,15.4837075 C127.338746,15.4837075 124.676658,18.2912038 124.676658,21.6682675" id="Fill-5" fill="#FFFFFF"></path>
            <path d="M157.627853,12.3860351 L157.627853,7.39127672 L154.178127,7.39127672 L154.178127,12.3860351 L147.27641,12.3860351 L147.27641,7.94180247 C147.27641,6.21017186 147.246671,3.14844817 149.700464,3.12748181 C150.562896,3.12144604 151.573699,3.27297563 152.025603,3.40099749 L152.025603,0.312907017 C151.507756,0.162330443 150.45493,0 149.61157,0 C145.166233,0 143.826037,3.0855491 143.826037,6.92556943 L143.826037,12.3860351 L142.253425,12.3860351 L142.253425,15.5478255 L143.826037,15.5478255 L143.826037,30 L147.27641,30 L147.27641,15.5478255 L154.178127,15.5478255 L154.178127,30 L157.627853,30 L157.627853,15.5478255 L161,15.5478255 L161,12.3860351 L157.627853,12.3860351" id="Fill-6" fill="#FFFFFF"></path>
            <polygon id="Fill-7" fill="#FFFFFF" points="99.2465753 30 102.554795 30 102.554795 12.2222222 99.2465753 12.2222222"></polygon>
            <path d="M103.657534,6.70199293 C103.657534,7.92008265 102.661821,8.88888889 101.45222,8.88888889 C100.24262,8.88888889 99.2465753,7.92008265 99.2465753,6.70199293 C99.2465753,5.44724388 100.24262,4.44444444 101.45222,4.44444444 C102.661821,4.44444444 103.657534,5.44724388 103.657534,6.70199293" id="Fill-8" fill="#FFFFFF"></path>
            <polyline id="Fill-9" fill="#FF4338" points="14.9209691 4.44444444 14.9209691 12.6663607 10.4534054 12.6663607 8.82191781 15.5555556 20.9520548 15.5555556 14.9209691 4.44444444"></polyline>
            <polyline id="Fill-10" fill="#FF4338" points="15.646015 25.5555556 15.646015 28.3338013 1.69699011 28.3338013 0 31.1111111 30.8767123 31.1111111 27.6080743 25.5555556 15.646015 25.5555556"></polyline>
            <polyline id="Fill-11" fill="#FF4338" points="22.1677938 17.7777778 15.0031761 17.7777778 15.0031761 20.5647612 6.06540084 20.5647612 4.4109589 23.3333333 25.3630137 23.3333333 22.1677938 17.7777778"></polyline>
        </g>
    </g>
</svg>