<svg version="1.1" xmlns="http://www.w3.org/2000/svg" width="17" height="20" viewBox="0 0 17 20">
<title>archive report</title>
<path d="M5 4h7v1h-7v-1zM5 7h7v1h-7v-1zM16.84 19.5h-16.68c-0.107 0-0.16-0.055-0.16-0.165v-9.060c0-0.11 0.053-0.165 0.16-0.165h1.487v-8.731c0-0.495 0.372-0.879 0.85-0.879h12.060c0.477 0 0.85 0.384 0.85 0.879v8.73h1.487c0.053 0 0.053 0 0.106 0.056v9.17c0 0.11-0.053 0.165-0.16 0.165zM10.838 13.954v-2.087h-4.622v2.087h4.622zM2.816 1.763v8.347h11.368v-8.347h-11.368z"></path>
</svg>
