<svg version="1.1" xmlns="http://www.w3.org/2000/svg" width="20" height="20" viewBox="0 0 20 20">
<title>arrow-up</title>
<path d="M19.996 14.291c0 0.164-0.081 0.351-0.2 0.474l-1.001 1.030c-0.121 0.125-0.281 0.206-0.46 0.206-0.159 0-0.341-0.083-0.46-0.206l-7.877-8.105-7.877 8.105c-0.121 0.125-0.301 0.206-0.46 0.206s-0.341-0.083-0.46-0.206l-1.001-1.030c-0.121-0.125-0.2-0.31-0.2-0.474s0.081-0.351 0.2-0.474l9.34-9.612c0.121-0.125 0.301-0.206 0.46-0.206s0.341 0.083 0.46 0.206l9.34 9.612c0.121 0.125 0.2 0.31 0.2 0.474h-0.004z"></path>
</svg>
