<svg version="1.1" xmlns="http://www.w3.org/2000/svg" width="15" height="20" viewBox="0 0 15 20">
<title>bin</title>
<path d="M1.25 6.25v11.719c0 0.645 0.519 1.172 1.154 1.172h10.385c0.635 0 1.154-0.527 1.154-1.172v-11.719h-12.692zM4.712 16.797h-1.154v-8.203h1.154v8.203zM7.019 16.797h-1.154v-8.203h1.154v8.203zM9.327 16.797h-1.154v-8.203h1.154v8.203zM11.635 16.797h-1.154v-8.203h1.154v8.203z"></path>
<path d="M14.135 2.344h-3.75v-1.465c0-0.483-0.389-0.879-0.865-0.879h-4.038c-0.476 0-0.865 0.396-0.865 0.879v1.465h-3.75c-0.476 0-0.865 0.396-0.865 0.879v1.465h15v-1.465c0-0.483-0.389-0.879-0.865-0.879v0zM9.231 2.344h-3.462v-1.157h3.462v1.157z"></path>
</svg>
