<svg version="1.1" xmlns="http://www.w3.org/2000/svg" width="19" height="20" viewBox="0 0 19 20">
<title>calendar</title>
<path d="M6.333 7.5h2.533v2.5h-2.533v-2.5zM10.133 7.5h2.533v2.5h-2.533v-2.5zM13.933 7.5h2.533v2.5h-2.533v-2.5zM2.533 15h2.533v2.5h-2.533v-2.5zM6.333 15h2.533v2.5h-2.533v-2.5zM10.133 15h2.533v2.5h-2.533v-2.5zM6.333 11.25h2.533v2.5h-2.533v-2.5zM10.133 11.25h2.533v2.5h-2.533v-2.5zM13.933 11.25h2.533v2.5h-2.533v-2.5zM2.533 11.25h2.533v2.5h-2.533v-2.5zM16.467 0v1.25h-2.533v-1.25h-8.867v1.25h-2.533v-1.25h-2.533v20h19v-20h-2.533zM17.733 18.75h-16.467v-13.75h16.467v13.75z"></path>
</svg>
