<svg version="1.1" xmlns="http://www.w3.org/2000/svg" width="20" height="20" viewBox="0 0 20 20">
<title>id-card</title>
<path d="M18.571 16.5h-2.143v-0.722c0.395 0 0.714-0.324 0.714-0.722s-0.319-0.722-0.714-0.722h-1.429c-0.395 0-0.714 0.323-0.714 0.722s0.319 0.722 0.714 0.722v0.722h-9.286v-0.722c0.395 0 0.714-0.324 0.714-0.722s-0.319-0.722-0.714-0.722h-1.429c-0.395 0-0.714 0.323-0.714 0.722s0.319 0.722 0.714 0.722v0.722h-2.857c-0.789 0-1.429-0.647-1.429-1.444v-10.111c0-0.797 0.64-1.444 1.429-1.444h17.143c0.789 0 1.429 0.647 1.429 1.444v10.111c0 0.797-0.64 1.444-1.429 1.444v0zM5.714 5.531c-0.863 0-1.563 0.929-1.563 2.076s0.7 2.076 1.563 2.076c0.863 0 1.563-0.929 1.563-2.076s-0.7-2.076-1.563-2.076v0zM8.207 10.497c-0.385-0.259-1.494-0.432-1.494-0.432s-0.719 0.776-1.024 0.776c-0.306 0-1.024-0.776-1.024-0.776s-1.109 0.172-1.493 0.432c-0.385 0.259-0.555 1.633-0.555 1.633h6.154c0.001-0.001-0.112-1.329-0.564-1.633v0zM17.143 6.389h-6.429v0.722h6.429v-0.722zM17.143 7.833h-6.429v0.722h6.429v-0.722zM17.143 9.278h-6.429v0.722h6.429v-0.722zM17.143 10.722h-6.429v0.722h6.429v-0.722z"></path>
</svg>
