<svg viewBox="0 0 21 14" xmlns="http://www.w3.org/2000/svg">
    <title>card</title>
    <path d="M19.571 13.5h-2.143v-.722a.718.718 0 0 0 .714-.722.718.718 0 0 0-.714-.722h-1.429a.717.717 0 0 0-.714.722c0 .399.319.722.714.722v.722H6.713v-.722a.718.718 0 0 0 .714-.722.718.718 0 0 0-.714-.722H5.284a.717.717 0 0 0-.714.722c0 .399.319.722.714.722v.722H2.427a1.437 1.437 0 0 1-1.429-1.444V1.945c0-.797.64-1.444 1.429-1.444H19.57c.789 0 1.429.647 1.429 1.444v10.111c0 .797-.64 1.444-1.429 1.444h.001zM6.714 2.531c-.863 0-1.563.929-1.563 2.076s.7 2.076 1.563 2.076 1.563-.929 1.563-2.076-.7-2.076-1.563-2.076zm2.493 4.966c-.385-.259-1.494-.432-1.494-.432s-.719.776-1.024.776c-.306 0-1.024-.776-1.024-.776s-1.109.172-1.493.432c-.385.259-.555 1.633-.555 1.633h6.154c.001-.001-.112-1.329-.564-1.633zm8.936-4.108h-6.429v.722h6.429v-.722zm0 1.444h-6.429v.722h6.429v-.722zm0 1.445h-6.429V7h6.429v-.722zm0 1.444h-6.429v.722h6.429v-.722z" />
</svg>
