<?xml version="1.0" encoding="UTF-8"?>
<svg width="20px" height="13px" viewBox="0 0 20 13" version="1.1" xmlns="http://www.w3.org/2000/svg" xmlns:xlink="http://www.w3.org/1999/xlink">
    <!-- Generator: Sketch 50.2 (55047) - http://www.bohemiancoding.com/sketch -->
    <title>id-card</title>
    <desc>Created with Sketch.</desc>
    <defs></defs>
    <g id="id-card" stroke="none" stroke-width="1" fill="none" fill-rule="evenodd">
        <path d="M18.5714286,13 L16.4285714,13 L16.4285714,12.2777778 C16.8235714,12.2777778 17.1428571,11.9542222 17.1428571,11.5555556 C17.1428571,11.1561667 16.8235714,10.8333333 16.4285714,10.8333333 L15,10.8333333 C14.605,10.8333333 14.2857143,11.1561667 14.2857143,11.5555556 C14.2857143,11.9542222 14.605,12.2777778 15,12.2777778 L15,13 L5.71428571,13 L5.71428571,12.2777778 C6.10928571,12.2777778 6.42857143,11.9542222 6.42857143,11.5555556 C6.42857143,11.1561667 6.10928571,10.8333333 5.71428571,10.8333333 L4.28571429,10.8333333 C3.89071429,10.8333333 3.57142857,11.1561667 3.57142857,11.5555556 C3.57142857,11.9542222 3.89071429,12.2777778 4.28571429,12.2777778 L4.28571429,13 L1.42857143,13 C0.64,13 0,12.3528889 0,11.5555556 L0,1.44444444 C0,0.647111111 0.64,0 1.42857143,0 L18.5714286,0 C19.36,0 20,0.647111111 20,1.44444444 L20,11.5555556 C20,12.3528889 19.36,13 18.5714286,13 L18.5714286,13 Z M5.71428571,2.03088889 C4.85142857,2.03088889 4.15142857,2.96038889 4.15142857,4.10727778 C4.15142857,5.25416667 4.85142857,6.18366667 5.71428571,6.18366667 C6.57714286,6.18366667 7.27714286,5.25416667 7.27714286,4.10727778 C7.27714286,2.96038889 6.57714286,2.03088889 5.71428571,2.03088889 L5.71428571,2.03088889 Z M8.20714286,6.99688889 C7.82214286,6.73761111 6.71357143,6.565 6.71357143,6.565 C6.71357143,6.565 5.995,7.34138889 5.69,7.34138889 C5.38428571,7.34138889 4.66571429,6.565 4.66571429,6.565 C4.66571429,6.565 3.55714286,6.73688889 3.17285714,6.99688889 C2.78785714,7.25544444 2.61785714,8.62983333 2.61785714,8.62983333 L8.77142857,8.62983333 C8.77214286,8.62911111 8.65928571,7.30094444 8.20714286,6.99688889 L8.20714286,6.99688889 Z M17.1428571,2.88888889 L10.7142857,2.88888889 L10.7142857,3.61111111 L17.1428571,3.61111111 L17.1428571,2.88888889 L17.1428571,2.88888889 Z M17.1428571,4.33333333 L10.7142857,4.33333333 L10.7142857,5.05555556 L17.1428571,5.05555556 L17.1428571,4.33333333 L17.1428571,4.33333333 Z M17.1428571,5.77777778 L10.7142857,5.77777778 L10.7142857,6.5 L17.1428571,6.5 L17.1428571,5.77777778 L17.1428571,5.77777778 Z M17.1428571,7.22222222 L10.7142857,7.22222222 L10.7142857,7.94444444 L17.1428571,7.94444444 L17.1428571,7.22222222 L17.1428571,7.22222222 Z" id="Shape" fill="#000000"></path>
    </g>
</svg>