<svg viewBox="0 0 20 16" xmlns="http://www.w3.org/2000/svg">
    <title>cash</title>
    <path d="M19.259 13.6h-9.071c.266-.495.47-1.032.604-1.6h8.467c.41 0 .741.358.741.8 0 .442-.331.8-.741.8zm0-2.4h-8.323c.03-.262.051-.529.051-.8s-.021-.538-.051-.8h8.323c.41 0 .741.358.741.8 0 .442-.331.8-.741.8zm0-2.4h-8.467a6.683 6.683 0 0 0-.604-1.6h9.071c.41 0 .741.358.741.8 0 .442-.331.8-.741.8zm0-2.4H9.683a6.065 6.065 0 0 0-1.755-1.6h11.331c.41 0 .741.358.741.8 0 .442-.331.8-.741.8zm0-2.4H7.407c-.41 0-.741-.358-.741-.8 0-.442.331-.8.741-.8h11.852c.41 0 .741.358.741.8 0 .442-.331.8-.741.8zm0-2.4H7.407c-.41 0-.741-.358-.741-.8 0-.442.331-.8.741-.8h11.852c.41 0 .741.358.741.8 0 .442-.331.8-.741.8zm-8.889 8.8c0 3.093-2.322 5.6-5.185 5.6C2.322 16 0 13.493 0 10.4c0-3.093 2.321-5.6 5.185-5.6 2.864 0 5.185 2.507 5.185 5.6zm-3.349.609a1.726 1.726 0 0 0-.292-.499 1.987 1.987 0 0 0-.412-.365 4.574 4.574 0 0 0-.472-.273 18.008 18.008 0 0 0-.472-.227 2.917 2.917 0 0 1-.414-.23 1.103 1.103 0 0 1-.292-.28.636.636 0 0 1-.109-.373c0-.096.016-.187.048-.274a.56.56 0 0 1 .148-.222.697.697 0 0 1 .247-.144c.098-.034.215-.052.347-.052.17 0 .325.022.467.066.142.044.267.094.375.15.108.054.199.105.273.151.074.046.128.069.162.069a.11.11 0 0 0 .081-.03.192.192 0 0 0 .046-.095.99.99 0 0 0 .023-.165 4.425 4.425 0 0 0 .003-.463 1.18 1.18 0 0 0-.016-.146.507.507 0 0 0-.027-.093.394.394 0 0 0-.063-.084.746.746 0 0 0-.19-.124 2.149 2.149 0 0 0-.328-.134 2.668 2.668 0 0 0-.398-.094c-.029-.005-.059-.003-.087-.007v-.827H4.94v.827a2.507 2.507 0 0 0-.39.087 1.797 1.797 0 0 0-.639.347c-.181.155-.324.35-.43.584a1.953 1.953 0 0 0-.159.817c0 .27.037.502.11.694.073.192.17.361.29.502.119.142.253.262.404.364.151.102.307.193.467.273.16.08.316.155.467.227.151.072.286.149.404.23.119.082.216.175.29.28a.64.64 0 0 1 .111.378.896.896 0 0 1-.064.346.684.684 0 0 1-.187.26.854.854 0 0 1-.298.162c-.117.038-.25.058-.399.058a1.95 1.95 0 0 1-.595-.082 2.83 2.83 0 0 1-.745-.365c-.079-.054-.139-.082-.183-.082a.132.132 0 0 0-.081.027.185.185 0 0 0-.056.093.783.783 0 0 0-.03.17 3.08 3.08 0 0 0-.01.26c0 .154.009.271.025.353a.37.37 0 0 0 .086.187c.04.042.105.092.196.149.091.057.204.11.34.161.136.051.293.094.47.131.177.036.37.054.576.054l.027-.002v.77h.728v-.874c.035-.01.072-.014.106-.025.268-.086.503-.216.704-.387a1.83 1.83 0 0 0 .477-.642c.117-.257.175-.554.175-.894a1.852 1.852 0 0 0-.11-.675l.004.002zM9.683 14.4h9.576c.41 0 .741.358.741.8 0 .442-.331.8-.741.8H7.928a6.078 6.078 0 0 0 1.755-1.6z" />
</svg>
