<?xml version="1.0" encoding="UTF-8"?>
<svg width="20px" height="16px" viewBox="0 0 20 16" version="1.1" xmlns="http://www.w3.org/2000/svg" xmlns:xlink="http://www.w3.org/1999/xlink">
    <!-- Generator: Sketch 50.2 (55047) - http://www.bohemiancoding.com/sketch -->
    <title>cash</title>
    <desc>Created with Sketch.</desc>
    <defs></defs>
    <g id="cash" stroke="none" stroke-width="1" fill="none" fill-rule="evenodd">
        <path d="M19.2592593,13.6 L10.1881481,13.6 C10.4540741,13.1048 10.6577778,12.568 10.7925926,12 L19.2592593,12 C19.6688889,12 20,12.3576 20,12.8 C20,13.2416 19.6688889,13.6 19.2592593,13.6 L19.2592593,13.6 Z M19.2592593,11.2 L10.9362963,11.2 C10.9666667,10.9376 10.9874074,10.6712 10.9874074,10.4 C10.9874074,10.128 10.9666667,9.8624 10.9362963,9.6 L19.2592593,9.6 C19.6688889,9.6 20,9.9576 20,10.4 C20,10.8416 19.6688889,11.2 19.2592593,11.2 L19.2592593,11.2 Z M19.2592593,8.8 L10.7925926,8.8 C10.657037,8.232 10.4540741,7.6952 10.1881481,7.2 L19.2592593,7.2 C19.6688889,7.2 20,7.5576 20,8 C20,8.4416 19.6688889,8.8 19.2592593,8.8 L19.2592593,8.8 Z M19.2592593,6.4 L9.68296296,6.4 C9.20148148,5.7512 8.60666667,5.2056 7.92814815,4.8 L19.2592593,4.8 C19.6688889,4.8 20,5.1576 20,5.6 C20,6.0416 19.6688889,6.4 19.2592593,6.4 L19.2592593,6.4 Z M19.2592593,4 L7.40740741,4 C6.99777778,4 6.66666667,3.6416 6.66666667,3.2 C6.66666667,2.7576 6.99777778,2.4 7.40740741,2.4 L19.2592593,2.4 C19.6688889,2.4 20,2.7576 20,3.2 C20,3.6416 19.6688889,4 19.2592593,4 L19.2592593,4 Z M19.2592593,1.6 L7.40740741,1.6 C6.99777778,1.6 6.66666667,1.2416 6.66666667,0.8 C6.66666667,0.3576 6.99777778,0 7.40740741,0 L19.2592593,0 C19.6688889,0 20,0.3576 20,0.8 C20,1.2416 19.6688889,1.6 19.2592593,1.6 L19.2592593,1.6 Z M10.3703704,10.4 C10.3703704,13.4928 8.04814815,16 5.18518519,16 C2.32222222,16 0,13.4928 0,10.4 C0,7.3072 2.32148148,4.8 5.18518519,4.8 C8.04814815,4.8 10.3703704,7.3072 10.3703704,10.4 L10.3703704,10.4 Z M7.02074074,11.0088 C6.94592593,10.8176 6.84962963,10.6512 6.72888889,10.5096 C6.60814815,10.368 6.47111111,10.2464 6.31703704,10.1448 C6.16296296,10.0432 6.00592593,9.9528 5.84518519,9.872 C5.68444444,9.792 5.52740741,9.7168 5.37333333,9.6448 C5.21925926,9.5736 5.08074074,9.4968 4.95925926,9.4152 C4.83777778,9.3336 4.74,9.24 4.66740741,9.1352 C4.59481481,9.0304 4.55851852,8.9064 4.55851852,8.7624 C4.55851852,8.6664 4.57481481,8.5752 4.60666667,8.4888 C4.63925926,8.4032 4.68814815,8.3288 4.75481481,8.2672 C4.82074074,8.2064 4.9037037,8.1576 5.00222222,8.1232 C5.10074074,8.088 5.21703704,8.0712 5.34962963,8.0712 C5.51925926,8.0712 5.67481481,8.0928 5.81703704,8.1376 C5.95851852,8.1832 6.0837037,8.232 6.19185185,8.2872 C6.3,8.3416 6.39111111,8.392 6.46518519,8.4384 C6.53925926,8.4848 6.59333333,8.5072 6.62740741,8.5072 C6.66148148,8.5072 6.68814815,8.4976 6.70814815,8.4776 C6.72740741,8.4576 6.7437037,8.4264 6.75407407,8.3824 C6.76518519,8.3392 6.77185185,8.284 6.77703704,8.2176 C6.78148148,8.1504 6.7837037,8.068 6.7837037,7.9712 C6.7837037,7.8848 6.78222222,7.812 6.77925926,7.7544 C6.7762963,7.6968 6.77037037,7.6472 6.7637037,7.6088 C6.75555556,7.5704 6.74666667,7.5392 6.7362963,7.516 C6.72444444,7.4928 6.70444444,7.4648 6.67333333,7.432 C6.64222222,7.3992 6.57925926,7.3568 6.4837037,7.308 C6.38814815,7.2584 6.27851852,7.2136 6.15555556,7.1744 C6.03185185,7.1344 5.89925926,7.1032 5.75777778,7.08 C5.72888889,7.0752 5.69925926,7.0768 5.67037037,7.0728 L5.67037037,6.2456 L4.94148148,6.2456 L4.94148148,7.0728 C4.80740741,7.092 4.67777778,7.1208 4.55185185,7.16 C4.30666667,7.2368 4.09407407,7.352 3.91333333,7.5072 C3.73259259,7.6624 3.58888889,7.8576 3.48296296,8.0912 C3.3762963,8.3264 3.3237037,8.5984 3.3237037,8.908 C3.3237037,9.1776 3.36074074,9.4096 3.43407407,9.6024 C3.50740741,9.7952 3.60444444,9.9632 3.7237037,10.1048 C3.84296296,10.2464 3.97703704,10.3672 4.12814815,10.4688 C4.27925926,10.5712 4.43555556,10.6616 4.59555556,10.7416 C4.75555556,10.8216 4.91185185,10.8968 5.06296296,10.9688 C5.21407407,11.0408 5.34888889,11.1176 5.46740741,11.1984 C5.58666667,11.2808 5.68296296,11.3736 5.75703704,11.4784 C5.83111111,11.584 5.86814815,11.7096 5.86814815,11.856 C5.86814815,11.9832 5.84666667,12.0984 5.8037037,12.2024 C5.76074074,12.3064 5.69777778,12.392 5.6162963,12.4624 C5.53481481,12.5328 5.43555556,12.5864 5.31851852,12.6248 C5.20074074,12.6632 5.06888889,12.6824 4.92,12.6824 C4.69481481,12.6824 4.4962963,12.6552 4.32518519,12.6 C4.15407407,12.5448 4.00666667,12.484 3.88296296,12.4168 C3.75925926,12.3504 3.65851852,12.2904 3.58,12.2344 C3.50148148,12.18 3.44074074,12.152 3.39703704,12.152 C3.36592593,12.152 3.33851852,12.1616 3.3162963,12.1792 C3.29259259,12.1976 3.27407407,12.2288 3.26074074,12.272 C3.24666667,12.316 3.23703704,12.372 3.23037037,12.4424 C3.2237037,12.5128 3.22074074,12.5992 3.22074074,12.7024 C3.22074074,12.856 3.22962963,12.9736 3.24592593,13.0552 C3.26296296,13.1376 3.29185185,13.2 3.33185185,13.2424 C3.37185185,13.2848 3.43703704,13.3344 3.52814815,13.3912 C3.61925926,13.448 3.73259259,13.5008 3.86814815,13.552 C4.0037037,13.6024 4.16074074,13.6464 4.33777778,13.6832 C4.51481481,13.7192 4.70740741,13.7368 4.91407407,13.7368 C4.92296296,13.7368 4.93111111,13.7352 4.94074074,13.7352 L4.94074074,14.5056 L5.66888889,14.5056 L5.66888889,13.632 C5.7037037,13.6224 5.74074074,13.6176 5.77481481,13.6072 C6.04296296,13.5208 6.27777778,13.3912 6.47851852,13.22 C6.67925926,13.0488 6.83777778,12.8352 6.95555556,12.5784 C7.07259259,12.3216 7.13037037,12.024 7.13037037,11.684 C7.13111111,11.4256 7.09407407,11.2008 7.02074074,11.0088 L7.02074074,11.0088 Z M9.68296296,14.4 L19.2592593,14.4 C19.6688889,14.4 20,14.7576 20,15.2 C20,15.6416 19.6688889,16 19.2592593,16 L7.92814815,16 C8.60666667,15.5944 9.20148148,15.0488 9.68296296,14.4 L9.68296296,14.4 Z" id="Shape" fill="#000000"></path>
    </g>
</svg>