<svg version="1.1" xmlns="http://www.w3.org/2000/svg" width="20" height="20" viewBox="0 0 20 20">
<title>cash</title>
<path d="M19.259 15.6h-9.071c0.266-0.495 0.47-1.032 0.604-1.6h8.467c0.41 0 0.741 0.358 0.741 0.8s-0.331 0.8-0.741 0.8v0zM19.259 13.2h-8.323c0.030-0.262 0.051-0.529 0.051-0.8s-0.021-0.538-0.051-0.8h8.323c0.41 0 0.741 0.358 0.741 0.8s-0.331 0.8-0.741 0.8v0zM19.259 10.8h-8.467c-0.136-0.568-0.339-1.105-0.604-1.6h9.071c0.41 0 0.741 0.358 0.741 0.8s-0.331 0.8-0.741 0.8v0zM19.259 8.4h-9.576c-0.481-0.649-1.076-1.194-1.755-1.6h11.331c0.41 0 0.741 0.358 0.741 0.8s-0.331 0.8-0.741 0.8v0zM19.259 6h-11.852c-0.41 0-0.741-0.358-0.741-0.8s0.331-0.8 0.741-0.8h11.852c0.41 0 0.741 0.358 0.741 0.8s-0.331 0.8-0.741 0.8v0zM19.259 3.6h-11.852c-0.41 0-0.741-0.358-0.741-0.8s0.331-0.8 0.741-0.8h11.852c0.41 0 0.741 0.358 0.741 0.8s-0.331 0.8-0.741 0.8v0zM10.37 12.4c0 3.093-2.322 5.6-5.185 5.6s-5.185-2.507-5.185-5.6c0-3.093 2.321-5.6 5.185-5.6s5.185 2.507 5.185 5.6v0zM7.021 13.009c-0.075-0.191-0.171-0.358-0.292-0.499s-0.258-0.263-0.412-0.365c-0.154-0.102-0.311-0.192-0.472-0.273s-0.318-0.155-0.472-0.227c-0.154-0.071-0.293-0.148-0.414-0.23s-0.219-0.175-0.292-0.28c-0.073-0.105-0.109-0.229-0.109-0.373 0-0.096 0.016-0.187 0.048-0.274s0.081-0.16 0.148-0.222c0.066-0.061 0.149-0.11 0.247-0.144s0.215-0.052 0.347-0.052c0.17 0 0.325 0.022 0.467 0.066s0.267 0.094 0.375 0.15c0.108 0.054 0.199 0.105 0.273 0.151s0.128 0.069 0.162 0.069c0.034 0 0.061-0.010 0.081-0.030s0.036-0.051 0.046-0.095c0.011-0.043 0.018-0.098 0.023-0.165s0.007-0.15 0.007-0.246c0-0.086-0.001-0.159-0.004-0.217s-0.009-0.107-0.016-0.146c-0.008-0.038-0.017-0.070-0.027-0.093-0.012-0.023-0.032-0.051-0.063-0.084s-0.094-0.075-0.19-0.124c-0.096-0.050-0.205-0.094-0.328-0.134s-0.256-0.071-0.398-0.094c-0.029-0.005-0.059-0.003-0.087-0.007v-0.827h-0.729v0.827c-0.134 0.019-0.264 0.048-0.39 0.087-0.245 0.077-0.458 0.192-0.639 0.347s-0.324 0.35-0.43 0.584c-0.107 0.235-0.159 0.507-0.159 0.817 0 0.27 0.037 0.502 0.11 0.694s0.17 0.361 0.29 0.502c0.119 0.142 0.253 0.262 0.404 0.364s0.307 0.193 0.467 0.273 0.316 0.155 0.467 0.227c0.151 0.072 0.286 0.149 0.404 0.23 0.119 0.082 0.216 0.175 0.29 0.28s0.111 0.231 0.111 0.378c0 0.127-0.021 0.242-0.064 0.346s-0.106 0.19-0.187 0.26c-0.081 0.070-0.181 0.124-0.298 0.162s-0.25 0.058-0.399 0.058c-0.225 0-0.424-0.027-0.595-0.082s-0.319-0.116-0.442-0.183c-0.124-0.066-0.224-0.126-0.303-0.182-0.079-0.054-0.139-0.082-0.183-0.082-0.031 0-0.059 0.010-0.081 0.027-0.024 0.018-0.042 0.050-0.056 0.093s-0.024 0.1-0.030 0.17-0.010 0.157-0.010 0.26c0 0.154 0.009 0.271 0.025 0.353s0.046 0.145 0.086 0.187 0.105 0.092 0.196 0.149c0.091 0.057 0.204 0.11 0.34 0.161s0.293 0.094 0.47 0.131c0.177 0.036 0.37 0.054 0.576 0.054 0.009 0 0.017-0.002 0.027-0.002v0.77h0.728v-0.874c0.035-0.010 0.072-0.014 0.106-0.025 0.268-0.086 0.503-0.216 0.704-0.387s0.359-0.385 0.477-0.642c0.117-0.257 0.175-0.554 0.175-0.894 0.001-0.258-0.036-0.483-0.11-0.675v0zM9.683 16.4h9.576c0.41 0 0.741 0.358 0.741 0.8s-0.331 0.8-0.741 0.8h-11.331c0.679-0.406 1.273-0.951 1.755-1.6v0z"></path>
</svg>
