<svg version="1.1" xmlns="http://www.w3.org/2000/svg" width="20" height="20" viewBox="0 0 20 20">
<title>cog</title>
<path d="M20 11.231c0 0 0-1.79 0-2.5v0l-2.988-1.245c-0.083-0.234-0.171-0.461-0.278-0.684l1.206-3.003-1.768-1.768-2.976 1.226c-0.227-0.11-0.459-0.203-0.698-0.288l-1.267-2.969h-2.5l-1.236 2.959c-0.249 0.088-0.488 0.181-0.725 0.293l-2.971-1.194-1.767 1.768 1.211 2.944c-0.117 0.242-0.212 0.488-0.303 0.743l-2.939 1.257v2.5l2.942 1.226c0.091 0.254 0.188 0.501 0.305 0.742l-1.189 2.964 1.768 1.767 2.952-1.216c0.237 0.113 0.479 0.203 0.728 0.288l1.264 2.959h2.5l1.237-2.974c0.237-0.088 0.471-0.181 0.696-0.288l2.998 1.201 1.768-1.767-1.231-2.983c0.105-0.224 0.191-0.452 0.274-0.684l2.989-1.274zM9.981 13.75c-2.070 0-3.75-1.68-3.75-3.75s1.68-3.75 3.75-3.75c2.070 0 3.75 1.68 3.75 3.75s-1.68 3.75-3.75 3.75v0z"></path>
</svg>
