<svg viewBox="0 0 20 20" xmlns="http://www.w3.org/2000/svg">
    <title>cog</title>
    <path d="M20 11.231v-2.5l-2.988-1.245a6.894 6.894 0 0 0-.278-.684l1.206-3.003-1.768-1.768-2.976 1.226a6.87 6.87 0 0 0-.698-.288L11.231 0h-2.5L7.495 2.959a7.625 7.625 0 0 0-.725.293L3.799 2.058 2.032 3.826 3.243 6.77a7.41 7.41 0 0 0-.303.743L.001 8.77v2.5l2.942 1.226c.091.254.188.501.305.742l-1.189 2.964 1.768 1.767 2.952-1.216c.237.113.479.203.728.288L8.771 20h2.5l1.237-2.974c.237-.088.471-.181.696-.288l2.998 1.201 1.768-1.767-1.231-2.983a7.74 7.74 0 0 0 .274-.684l2.989-1.274H20zM9.981 13.75c-2.07 0-3.75-1.68-3.75-3.75 0-2.07 1.68-3.75 3.75-3.75 2.07 0 3.75 1.68 3.75 3.75 0 2.07-1.68 3.75-3.75 3.75z" />
</svg>
