<svg viewBox="0 0 17 21" xmlns="http://www.w3.org/2000/svg">
    <title>critical illness needs</title>
    <path d="M16.77 13.848c0 .752-.595 1.362-1.33 1.362-.735 0-1.333-.612-1.333-1.362 0-.508.28-.969.71-1.202v-4.57-.01a.752.752 0 0 0-.742-.754.754.754 0 0 0-.743.754v8.613c0 2.257-1.794 4.095-3.998 4.095-2.205 0-3.997-1.836-3.997-4.095v-2.276C2.75 14.087.772 11.83.772 9.131V3.306C.772 1.909 1.879.774 3.245.774c.474.004.858.39.858.867V1.66a.865.865 0 0 1-.858.868.772.772 0 0 0-.756.773V9.133c0 1.962 1.559 3.561 3.47 3.561 1.913 0 3.472-1.599 3.472-3.561V3.307v-.005a.773.773 0 0 0-.756-.774h-.001a.866.866 0 0 1-.859-.867V1.65c0-.484.384-.876.859-.876 1.364 0 2.472 1.135 2.472 2.532V9.13c0 2.697-1.98 4.956-4.566 5.274v2.276c0 1.559 1.237 2.828 2.757 2.828s2.756-1.269 2.756-2.828V8.076c0-1.12.89-2.032 1.984-2.032 1.095 0 1.985.911 1.985 2.032v4.57c.431.233.71.694.71 1.202h-.001z" />
</svg>
