<svg version="1.1" xmlns="http://www.w3.org/2000/svg" width="16" height="20" viewBox="0 0 16 20">
<title>critical illness needs</title>
<path d="M15.591 12.837c0 0.694-0.552 1.256-1.233 1.256s-1.234-0.564-1.234-1.256c0-0.469 0.259-0.894 0.658-1.109v-4.217c0-0.003 0-0.006 0-0.009 0-0.382-0.307-0.692-0.688-0.696h-0c-0.381 0.005-0.688 0.315-0.688 0.696 0 0.003 0 0.006 0 0.010v-0 7.937c0 2.082-1.662 3.778-3.703 3.778-2.043 0-3.703-1.694-3.703-3.778v-2.1c-2.395-0.292-4.228-2.375-4.228-4.864v-5.375c0-1.289 1.025-2.336 2.291-2.336 0.439 0.004 0.794 0.36 0.794 0.8 0 0.003-0 0.006-0 0.010v-0c0 0.002 0 0.005 0 0.007 0 0.44-0.355 0.797-0.794 0.8h-0c-0.389 0.007-0.701 0.324-0.701 0.714 0 0.002 0 0.004 0 0.006v-0 5.375c0 1.811 1.444 3.286 3.215 3.286s3.215-1.475 3.215-3.286v-5.375c0-0.001 0-0.003 0-0.005 0-0.39-0.312-0.706-0.7-0.714h-0.001c-0.439-0.003-0.795-0.36-0.795-0.8 0-0.003 0-0.006 0-0.010v0c0-0.446 0.355-0.808 0.795-0.808 1.264 0 2.29 1.047 2.29 2.336v5.375c0 2.488-1.834 4.572-4.229 4.866v2.1c0 1.438 1.145 2.609 2.553 2.609s2.553-1.171 2.553-2.609v-7.94c0-1.034 0.824-1.875 1.838-1.875s1.838 0.841 1.838 1.875v4.216c0.4 0.216 0.658 0.641 0.658 1.11z"></path>
</svg>
