<svg version="1.1" xmlns="http://www.w3.org/2000/svg" width="22" height="20" viewBox="0 0 22 20">
<title>data collection</title>
<path d="M7.909 6.66h5.322v-0.768h-5.322zM7.909 4.332h5.322v-0.768h-5.322z"></path>
<path d="M17.412 16.073c-0.096 0.216-0.237 0.397-0.412 0.538l-0.003 0.002c-0.173 0.141-0.377 0.253-0.598 0.325l-0.013 0.004-0.094 0.024v0.736h-0.633v-0.649h-0.023c-0.18 0-0.344-0.016-0.5-0.047-0.164-0.034-0.3-0.072-0.434-0.118l0.026 0.008c-0.118-0.048-0.219-0.087-0.298-0.133-0.063-0.037-0.117-0.078-0.166-0.125l0 0c-0.035-0.044-0.060-0.097-0.070-0.156l-0-0.002c-0.015-0.076-0.023-0.164-0.023-0.253 0-0.015 0-0.031 0.001-0.046l-0 0.002c0-0.087 0.007-0.156 0.007-0.22 0.008-0.053 0.016-0.109 0.024-0.141 0.011-0.030 0.027-0.056 0.047-0.078l-0 0c0.014-0.016 0.038-0.022 0.070-0.022 0.040 0 0.096 0.022 0.156 0.069 0.064 0.048 0.159 0.102 0.269 0.149 0.109 0.056 0.233 0.111 0.382 0.157 0.148 0.047 0.32 0.071 0.518 0.071 0.124 0 0.242-0.017 0.344-0.048 0.099-0.029 0.185-0.075 0.259-0.133l-0.002 0.001c0.070-0.058 0.127-0.132 0.164-0.215l0.002-0.004c0.034-0.081 0.054-0.174 0.054-0.272 0-0.006-0-0.012-0-0.017l0 0.001c0-0.004 0-0.008 0-0.012 0-0.116-0.035-0.223-0.096-0.312l0.001 0.002c-0.068-0.094-0.15-0.172-0.245-0.233l-0.004-0.002c-0.101-0.068-0.216-0.133-0.337-0.189l-0.015-0.006c-0.134-0.063-0.267-0.124-0.408-0.196-0.157-0.072-0.29-0.148-0.416-0.234l0.010 0.006c-0.133-0.089-0.249-0.19-0.351-0.303l-0.001-0.002c-0.102-0.121-0.187-0.26-0.248-0.412l-0.004-0.010c-0.060-0.163-0.095-0.352-0.095-0.548 0-0.014 0-0.028 0.001-0.041l-0 0.002c-0.001-0.018-0.001-0.038-0.001-0.059 0-0.449 0.201-0.852 0.517-1.123l0.002-0.002c0.156-0.132 0.337-0.227 0.556-0.289 0.109-0.031 0.219-0.054 0.337-0.070v-0.698h0.633v0.698c0.023 0.008 0.047 0 0.070 0.008 0.127 0.022 0.236 0.047 0.344 0.078 0.111 0.031 0.206 0.071 0.283 0.111 0.078 0.038 0.133 0.078 0.162 0.101 0.033 0.031 0.048 0.047 0.056 0.070 0.009 0.022 0.016 0.047 0.024 0.078 0.009 0.036 0.014 0.078 0.014 0.121 0 0.002 0 0.003-0 0.005v-0c0.008 0.048 0.008 0.109 0.008 0.189 0 0.078 0 0.148-0.007 0.211-0.007 0.062-0.007 0.101-0.023 0.14-0.005 0.031-0.019 0.057-0.039 0.078l0-0c-0.016 0.017-0.039 0.024-0.071 0.024-0.030 0-0.078-0.024-0.141-0.056-0.061-0.030-0.141-0.078-0.236-0.124-0.087-0.043-0.193-0.085-0.302-0.121l-0.018-0.005c-0.112-0.035-0.242-0.055-0.376-0.055-0.011 0-0.022 0-0.033 0l0.002-0c-0.008-0-0.018-0-0.028-0-0.097 0-0.19 0.017-0.275 0.049l0.006-0.002c-0.221 0.071-0.377 0.274-0.377 0.514 0 0.009 0 0.018 0.001 0.027l-0-0.001c0 0.126 0.032 0.227 0.094 0.313 0.068 0.094 0.152 0.172 0.247 0.232l0.004 0.002c0.11 0.070 0.227 0.133 0.36 0.197 0.133 0.061 0.274 0.124 0.408 0.196 0.133 0.070 0.274 0.14 0.406 0.227 0.133 0.087 0.251 0.189 0.361 0.306 0.109 0.118 0.187 0.258 0.251 0.422 0.062 0.158 0.094 0.352 0.094 0.572-0.009 0.258-0.056 0.509-0.159 0.72zM15.88 8.909c-2.936 0-5.317 2.38-5.317 5.317s2.38 5.317 5.317 5.317v0c2.936 0 5.317-2.38 5.317-5.317s-2.38-5.317-5.317-5.317v0z"></path>
<path d="M13.161 8.221h-8.452v0.768h7.173c0.393-0.3 0.822-0.56 1.279-0.767zM10.403 10.55h-5.694v0.769h5.258c0.131-0.266 0.273-0.526 0.438-0.769zM3.16 13.647h6.151c0.022-0.26 0.057-0.517 0.109-0.768h-6.26v0.767zM3.16 15.976h6.364c-0.060-0.208-0.117-0.467-0.158-0.732l-0.005-0.036h-6.202v0.768z"></path>
<path d="M10.877 18.516h-8.843c-0.558 0-1.011-0.453-1.011-1.011v-15.469c0-0.558 0.454-1.011 1.011-1.011h12.322c0.556 0 1.010 0.453 1.010 1.011v5.618c0.169-0.012 0.34-0.024 0.511-0.024 0.173 0 0.344 0.011 0.513 0.024v-5.618c0-1.122-0.912-2.034-2.034-2.034h-12.322c-1.122-0.002-2.033 0.911-2.033 2.034v15.469c0 1.122 0.911 2.034 2.033 2.034h9.952c-0.416-0.306-0.779-0.642-1.102-1.015l-0.007-0.008z"></path>
<path d="M3.16 6.66h3.097v-3.097h-3.097zM3.16 8.954h0.734v-0.733h-0.734zM3.16 11.301h0.734v-0.734h-0.734z"></path>
</svg>
