<svg viewBox="0 0 22 20" xmlns="http://www.w3.org/2000/svg">
    <title>data collection</title>
        <path d="M7.909 6.66h5.322v-.768H7.909v.768zm0-2.328h5.322v-.768H7.909v.768zM17.412 16.073a1.433 1.433 0 0 1-.412.538l-.003.002a1.864 1.864 0 0 1-.598.325l-.013.004-.094.024v.736h-.633v-.649h-.023c-.18 0-.344-.016-.5-.047a3.464 3.464 0 0 1-.434-.118l.026.008c-.118-.048-.219-.087-.298-.133a.88.88 0 0 1-.166-.125.342.342 0 0 1-.07-.156v-.002a1.336 1.336 0 0 1-.023-.253l.001-.046v.002c0-.087.007-.156.007-.22.008-.053.016-.109.024-.141a.236.236 0 0 1 .047-.078c.014-.016.038-.022.07-.022.04 0 .096.022.156.069.064.048.159.102.269.149.109.056.233.111.382.157.148.047.32.071.518.071.124 0 .242-.017.344-.048a.766.766 0 0 0 .259-.133l-.002.001a.596.596 0 0 0 .164-.215l.002-.004a.706.706 0 0 0 .054-.272v-.017-.011a.548.548 0 0 0-.096-.312l.001.002a.904.904 0 0 0-.245-.233l-.004-.002a2.46 2.46 0 0 0-.337-.189l-.015-.006c-.134-.063-.267-.124-.408-.196a2.774 2.774 0 0 1-.416-.234l.01.006a1.872 1.872 0 0 1-.351-.303L14.604 14a1.518 1.518 0 0 1-.248-.412l-.004-.01a1.603 1.603 0 0 1-.095-.548l.001-.041v.002l-.001-.059c0-.449.201-.852.517-1.123l.002-.002c.156-.132.337-.227.556-.289.109-.031.219-.054.337-.07v-.698h.633v.698c.023.008.047 0 .07.008.127.022.236.047.344.078.111.031.206.071.283.111a.889.889 0 0 1 .162.101c.033.031.048.047.056.07a.613.613 0 0 1 .038.199v.005c.008.048.008.109.008.189 0 .078 0 .148-.007.211-.007.062-.007.101-.023.14a.145.145 0 0 1-.039.078c-.016.017-.039.024-.071.024a.421.421 0 0 1-.141-.056c-.061-.03-.141-.078-.236-.124a2.402 2.402 0 0 0-.302-.121l-.018-.005a1.279 1.279 0 0 0-.376-.055h-.033.002-.028a.78.78 0 0 0-.275.049l.006-.002a.54.54 0 0 0-.376.541v-.001c0 .126.032.227.094.313a.893.893 0 0 0 .247.232l.004.002c.11.07.227.133.36.197.133.061.274.124.408.196.133.07.274.14.406.227.133.087.251.189.361.306.109.118.187.258.251.422.062.158.094.352.094.572a1.796 1.796 0 0 1-.159.72v-.002zM15.88 8.909a5.317 5.317 0 1 0 0 10.634 5.317 5.317 0 0 0 0-10.634zM13.161 8.221H4.709v.768h7.173a6.6 6.6 0 0 1 1.279-.767v-.001zm-2.758 2.329H4.709v.769h5.258c.131-.266.273-.526.438-.769h-.002zM3.16 13.647h6.151c.022-.26.057-.517.109-.768H3.16v.768zm0 2.329h6.364a6.098 6.098 0 0 1-.158-.732l-.005-.036H3.159v.768h.001z" />
        <path d="M10.877 18.516H2.034a1.011 1.011 0 0 1-1.011-1.011V2.036c0-.558.454-1.011 1.011-1.011h12.322c.556 0 1.01.453 1.01 1.011v5.618c.169-.012.34-.024.511-.024.173 0 .344.011.513.024V2.036A2.036 2.036 0 0 0 14.356.002H2.034A2.033 2.033 0 0 0 .001 2.036v15.469c0 1.122.911 2.034 2.033 2.034h9.952a6.684 6.684 0 0 1-1.102-1.015l-.007-.008z"/>
        <path d="M3.16 6.66h3.097V3.563H3.16V6.66zm0 2.294h.734v-.733H3.16v.733zm0 2.347h.734v-.734H3.16v.734z" />
</svg>
