<svg version="1.1" xmlns="http://www.w3.org/2000/svg" width="21" height="20" viewBox="0 0 21 20">
<title>debt analysis</title>
<path d="M0.804 0l0.014 19.155 20.359 0.042v0.802h-21.176v-20h0.804zM21.176 10.833v3.216c0 0.002 0 0.004 0 0.006 0 0.358-0.289 0.649-0.647 0.651h-3.2c-0.576 0-0.868-0.711-0.452-1.127l0.809-0.815-3.44-3.456-3.841 3.849c-0.16 0.162-0.382 0.262-0.627 0.262s-0.467-0.1-0.627-0.262l-0-0-6.461-6.494c-0.208-0.208-0.337-0.495-0.337-0.812 0-0.316 0.127-0.601 0.334-0.809l-0 0c0.203-0.207 0.485-0.335 0.798-0.335s0.594 0.128 0.796 0.334l0 0 5.504 5.535 3.835-3.854c0.16-0.162 0.382-0.262 0.627-0.262s0.467 0.1 0.627 0.262l0 0 4.416 4.438 0.792-0.795c0.116-0.119 0.278-0.193 0.457-0.193 0.352 0 0.638 0.285 0.638 0.638 0 0.009-0 0.018-0.001 0.027l0-0.001z"></path>
</svg>
