<svg version="1.1" xmlns="http://www.w3.org/2000/svg" width="20" height="20" viewBox="0 0 20 20">
<title>delete</title>
<path d="M19.817 16.067v0l-6.067-6.067 6.067-6.067c0.065-0.065 0.113-0.141 0.143-0.223 0.082-0.222 0.035-0.482-0.143-0.661l-2.866-2.866c-0.179-0.179-0.439-0.226-0.661-0.143-0.081 0.030-0.157 0.077-0.223 0.143v0l-6.067 6.067-6.067-6.067c-0.065-0.065-0.141-0.112-0.223-0.143-0.222-0.083-0.482-0.036-0.661 0.143l-2.866 2.866c-0.179 0.179-0.226 0.439-0.143 0.661 0.030 0.081 0.077 0.158 0.143 0.223v0l6.067 6.067-6.067 6.067c-0.065 0.065-0.112 0.141-0.143 0.223-0.083 0.223-0.036 0.482 0.143 0.661l2.866 2.866c0.179 0.179 0.439 0.226 0.661 0.143 0.081-0.030 0.158-0.078 0.223-0.143v0l6.067-6.067 6.067 6.067c0.065 0.065 0.141 0.113 0.223 0.143 0.223 0.082 0.482 0.036 0.661-0.143l2.866-2.866c0.179-0.179 0.226-0.439 0.143-0.661-0.030-0.081-0.078-0.157-0.143-0.223v0z"></path>
</svg>
