<svg version="1.1" xmlns="http://www.w3.org/2000/svg" width="18" height="20" viewBox="0 0 18 20">
<title>disability needs</title>
<path d="M16.21 14.726c1.044 0.241 1.79 1.157 1.79 2.315 0 1.302-1.094 2.363-2.436 2.363-1.343 0-2.437-1.061-2.437-2.363 0-1.11 0.796-2.026 1.84-2.315v-2.17h-3.48c0.099 0.386 0.148 0.868 0.148 1.302 0 3.086-2.635 5.642-5.817 5.642-3.183 0-5.818-2.508-5.818-5.642 0-2.652 1.89-4.87 4.425-5.498v-5.93c0-0.434-0.348-0.772-0.795-0.772h-2.884c-0.298 0-0.597-0.289-0.597-0.578 0.001-0.291 0.249-0.58 0.597-0.58h2.884c1.143 0 2.039 0.868 2.039 1.977v2.749h7.558c1.64 0 2.983 1.302 2.983 2.893v6.607zM5.818 18.053c2.386 0 4.375-1.88 4.375-4.243s-1.939-4.244-4.375-4.244c-2.437 0-4.376 1.88-4.376 4.244s1.989 4.243 4.376 4.243zM15.564 18.198c0.646 0 1.193-0.53 1.193-1.157s-0.547-1.158-1.193-1.158c-0.647 0-1.194 0.53-1.194 1.158 0 0.627 0.547 1.157 1.194 1.157zM5.834 16.333c-1.383-0.008-2.502-1.127-2.51-2.509v-0.001c-0-0.004-0-0.009-0-0.014 0-1.367 1.109-2.476 2.476-2.476 0.005 0 0.010 0 0.015 0h-0.001c1.383 0.008 2.502 1.127 2.51 2.509v0.001c0 0.004 0 0.009 0 0.014 0 1.367-1.109 2.476-2.476 2.476-0.005 0-0.010-0-0.015-0h0.001z"></path>
</svg>
