<svg viewBox="0 0 18 20" xmlns="http://www.w3.org/2000/svg">
    <title>disability needs</title>
    <path d="M16.21 14.726c1.044.241 1.79 1.157 1.79 2.315 0 1.302-1.094 2.363-2.436 2.363-1.343 0-2.437-1.061-2.437-2.363 0-1.11.796-2.026 1.84-2.315v-2.17h-3.48c.099.386.148.868.148 1.302 0 3.086-2.635 5.642-5.817 5.642C2.635 19.5 0 16.992 0 13.858c0-2.652 1.89-4.87 4.425-5.498V2.43c0-.434-.348-.772-.795-.772H.746c-.298 0-.597-.289-.597-.578A.596.596 0 0 1 .746.5H3.63c1.143 0 2.039.868 2.039 1.977v2.749h7.558c1.64 0 2.983 1.302 2.983 2.893v6.607zM5.818 18.053c2.386 0 4.375-1.88 4.375-4.243 0-2.363-1.939-4.244-4.375-4.244-2.437 0-4.376 1.88-4.376 4.244s1.989 4.243 4.376 4.243zm9.746.145c.646 0 1.193-.53 1.193-1.157s-.547-1.158-1.193-1.158c-.647 0-1.194.53-1.194 1.158 0 .627.547 1.157 1.194 1.157zm-9.73-1.865a2.524 2.524 0 0 1-2.51-2.509v-.001-.014A2.477 2.477 0 0 1 5.8 11.333h.015-.001a2.524 2.524 0 0 1 2.51 2.509v.015a2.477 2.477 0 0 1-2.476 2.476h-.015.001z" />
</svg>
