<svg width="20" height="14" xmlns="http://www.w3.org/2000/svg"><path d="M18.948 10.775l.03-9.202-16.342.01V.528H20v10.247h-1.052zm-.53 1.619l-1.05-.001.03-9.202-16.343.01V2.147h17.364v10.248zm-1.548 1.078H0V3.764h16.87v9.708zM15.815 4.81H1.055v7.585h14.76V4.809zm-1.58 6.776c0 .095.022.184.052.27H8.435c1.456 0 2.636-1.45 2.636-3.237 0-1.788-1.18-3.236-2.636-3.236h5.852a.805.805 0 0 0-.053.27.8.8 0 0 0 .79.808c.094 0 .18-.023.264-.054v4.424a.769.769 0 0 0-.264-.055.8.8 0 0 0-.79.81zm-1.056-4.09c-.436 0-.79.482-.79 1.078 0 .596.354 1.079.79 1.079.437 0 .791-.483.791-1.079s-.354-1.078-.79-1.078zm-3.64-.821a.255.255 0 0 1 .019.062 2.29 2.29 0 0 1-.006.522.14.14 0 0 1-.033.064.081.081 0 0 1-.058.02.274.274 0 0 1-.115-.046 2.468 2.468 0 0 0-.194-.102 1.832 1.832 0 0 0-.267-.1 1.158 1.158 0 0 0-.333-.046.771.771 0 0 0-.247.035.505.505 0 0 0-.176.097.387.387 0 0 0-.105.15.496.496 0 0 0-.035.184c0 .097.026.18.077.252.052.07.12.133.208.188.087.056.185.107.295.155l.336.153c.114.055.226.115.336.184.11.069.208.15.293.246.086.096.155.208.208.337.053.13.08.281.08.457 0 .228-.043.43-.126.602a1.241 1.241 0 0 1-.34.434c-.143.115-.31.202-.5.26-.024.008-.05.01-.075.017v.589h-.519v-.52l-.02.002a2.178 2.178 0 0 1-.744-.125 1.452 1.452 0 0 1-.242-.109.686.686 0 0 1-.14-.1.255.255 0 0 1-.06-.126 1.805 1.805 0 0 1-.012-.413.507.507 0 0 1 .021-.115c.01-.03.023-.05.04-.063a.096.096 0 0 1 .057-.018c.031 0 .074.018.13.056a1.951 1.951 0 0 0 .53.246c.123.037.264.056.424.056.106 0 .2-.013.283-.04a.64.64 0 0 0 .213-.108.472.472 0 0 0 .133-.176.566.566 0 0 0 .047-.233c0-.1-.027-.184-.08-.255a.789.789 0 0 0-.205-.189 2.052 2.052 0 0 0-.288-.154l-.333-.154a3.004 3.004 0 0 1-.332-.183 1.338 1.338 0 0 1-.288-.247 1.171 1.171 0 0 1-.206-.338 1.25 1.25 0 0 1-.079-.468c0-.21.038-.393.114-.55.076-.159.178-.29.306-.395.128-.104.28-.182.454-.234.09-.026.182-.046.278-.059V5.82h.518v.557c.02.003.041.002.062.005.1.016.195.037.283.064.088.027.166.056.233.09.068.034.114.061.136.084.02.02.036.039.043.055zm-3.74 1.944c0 1.787 1.18 3.236 2.636 3.236H2.583a.818.818 0 0 0 .053-.269.8.8 0 0 0-.79-.81.77.77 0 0 0-.264.055V6.407c.083.03.17.054.263.054a.8.8 0 0 0 .79-.809.819.819 0 0 0-.052-.27h5.852c-1.456 0-2.636 1.449-2.636 3.236zM3.69 7.495c-.437 0-.79.482-.79 1.078 0 .596.354 1.079.79 1.079.437 0 .79-.483.79-1.079s-.353-1.078-.79-1.078z" fill="#000" fill-rule="nonzero"/></svg>
