<svg width="18" height="12" viewBox="0 0 18 12" xmlns="http://www.w3.org/2000/svg">
<title>education</title>
<path d="M9.00187 8.12738C8.86921 8.12738 8.73654 8.10843 8.60388 8.05157L3.42993 6.25111V9.52984C3.42993 9.64355 3.46784 9.75727 3.5626 9.81412C3.63841 9.88993 5.49572 11.5009 9.00187 11.5009C12.508 11.5009 14.3653 9.88993 14.4411 9.81412C14.517 9.73831 14.5738 9.6246 14.5738 9.52984V6.25111L9.39987 8.05157C9.2672 8.08948 9.13454 8.12738 9.00187 8.12738Z"/>
<path d="M17.7203 3.50305L9.1539 0.527559C9.05914 0.489654 8.96438 0.489654 8.86962 0.527559L0.284283 3.50305C-0.0947609 3.63572 -0.0947609 4.18533 0.284283 4.33695L8.85067 7.31244C8.94543 7.35034 9.04019 7.35034 9.13495 7.31244L16.2041 4.84866V6.72492L15.7493 7.02816C15.6545 7.10396 15.5787 7.21768 15.5787 7.35034V8.37376C15.5787 8.58223 15.7493 8.7528 15.9577 8.7528H17.2086C17.4171 8.7528 17.5876 8.58223 17.5876 8.37376V7.35034C17.5876 7.21768 17.5308 7.10396 17.4171 7.02816L16.9622 6.72492V4.58332L17.6824 4.33695C18.0993 4.18533 18.0993 3.63572 17.7203 3.50305Z"/>
</svg>
