<svg viewBox="0 0 28 20" xmlns="http://www.w3.org/2000/svg">
    <title>emergency-fund</title>
    <path d="M26.172 8.406C25.432 3.658 20.715 0 14.95 0h-.045c-2.27 0-4.4.597-6.242 1.642l.063-.033L6.815.226C6.473-.006 5.983.195 5.983.6v3.169c-.342.403-.682.808-.957 1.235a3.813 3.813 0 0 1-2.495 1.671l-1.608.288C.366 7.048 0 7.483 0 7.997v3.395c0 .489.4.923.923 1.034l1.606.288c1.08.2 1.971.808 2.495 1.669a8.791 8.791 0 0 0 2.829 2.713l.04.022v1.322c0 .826.722 1.498 1.606 1.498.883 0 1.605-.672 1.605-1.498v-.031c1.2.288 2.463.434 3.818.434 1.389 0 2.746-.2 3.977-.545v.203c0 .826.722 1.498 1.606 1.498.883 0 1.605-.672 1.605-1.498v-1.266c0-.117-.032-.234-.058-.343 2.188-1.383 3.702-3.426 4.068-5.898.892-.115 1.572-.635 1.572-1.266-.006-.631-.623-1.211-1.52-1.322zm-8.792 4.009c-.163.323-.38.594-.662.808a2.89 2.89 0 0 1-.955.484l-.021.005c-.046.012-.098.018-.145.031v1.095h-1.009v-.968h-.038c-.289 0-.551-.025-.8-.066a5.447 5.447 0 0 1-.688-.178l.04.011a2.683 2.683 0 0 1-.487-.209l.014.007a1.343 1.343 0 0 1-.27-.19l.001.001a.472.472 0 0 1-.116-.229v-.003a2.371 2.371 0 0 1-.033-.4v-.044.002c0-.128.006-.238.012-.323a.833.833 0 0 1 .042-.221l-.002.006a.23.23 0 0 1 .077-.115.171.171 0 0 1 .107-.037h.006c.058 0 .145.037.255.103.296.185.637.341.998.452l.031.008c.235.066.511.103.825.103.203 0 .388-.025.551-.072.158-.045.295-.115.416-.205l-.003.002a.867.867 0 0 0 .259-.318l.002-.005c.058-.126.092-.273.092-.428v-.008-.013a.79.79 0 0 0-.152-.466l.002.002a1.557 1.557 0 0 0-.393-.35l-.007-.004a4.308 4.308 0 0 0-.526-.276l-.029-.011c-.211-.092-.426-.185-.649-.288a5.45 5.45 0 0 1-.672-.356l.023.013a2.613 2.613 0 0 1-.555-.457l-.002-.002a2.126 2.126 0 0 1-.395-.617l-.005-.014a2.28 2.28 0 0 1-.15-.821l.001-.057V7.8c0-.391.072-.728.223-1.028a2.11 2.11 0 0 1 .595-.734c.249-.196.543-.343.885-.434.149-.044.331-.083.518-.108l.021-.002v-1.04h1.008v1.04c.038.006.078 0 .118.006.195.031.38.068.549.117.169.048.322.103.452.165.13.062.215.117.262.154a.337.337 0 0 1 .086.103.722.722 0 0 1 .037.111l.001.006c.008.048.02.109.02.183.006.074.006.165.006.275 0 .123 0 .226-.006.312a.833.833 0 0 1-.034.214l.001-.006a.282.282 0 0 1-.066.123.16.16 0 0 1-.101.036h-.011a.574.574 0 0 1-.223-.085 4.551 4.551 0 0 0-.864-.371l-.033-.009a2.33 2.33 0 0 0-.637-.086h-.013.001l-.045-.001c-.154 0-.303.025-.442.071l.01-.003a.927.927 0 0 0-.343.186l.001-.001a.75.75 0 0 0-.201.275l-.002.005a.863.863 0 0 0 .086.818l-.002-.003c.111.143.246.261.4.35l.007.004c.169.105.36.202.569.288.217.092.434.185.655.288.223.103.44.214.655.342.215.129.4.282.569.46.171.177.303.385.408.631.098.237.151.525.151.849a2.685 2.685 0 0 1-.269 1.13l.007-.016h.001z" />
</svg>
