<svg version="1.1" xmlns="http://www.w3.org/2000/svg" width="28" height="20" viewBox="0 0 28 20">
<title>emergency fund</title>
<path d="M26.172 8.406c-0.74-4.748-5.457-8.406-11.222-8.406-0.013-0-0.029-0-0.045-0-2.27 0-4.4 0.597-6.242 1.642l0.063-0.033-1.911-1.383c-0.342-0.232-0.832-0.031-0.832 0.374v3.169c-0.342 0.403-0.682 0.808-0.957 1.235-0.557 0.862-1.446 1.468-2.495 1.671l-1.608 0.288c-0.557 0.085-0.923 0.52-0.923 1.034v3.395c0 0.489 0.4 0.923 0.923 1.034l1.606 0.288c1.080 0.2 1.971 0.808 2.495 1.669 0.743 1.123 1.704 2.041 2.829 2.713l0.040 0.022v1.322c0 0.826 0.722 1.498 1.606 1.498 0.883 0 1.605-0.672 1.605-1.498v-0.031c1.2 0.288 2.463 0.434 3.818 0.434 1.389 0 2.746-0.2 3.977-0.545v0.203c0 0.826 0.722 1.498 1.606 1.498 0.883 0 1.605-0.672 1.605-1.498v-1.266c0-0.117-0.032-0.234-0.058-0.343 2.188-1.383 3.702-3.426 4.068-5.898 0.892-0.115 1.572-0.635 1.572-1.266-0.006-0.631-0.623-1.211-1.52-1.322zM17.38 12.415c-0.163 0.323-0.38 0.594-0.662 0.808-0.277 0.214-0.602 0.381-0.955 0.484l-0.021 0.005c-0.046 0.012-0.098 0.018-0.145 0.031v1.095h-1.009v-0.968h-0.038c-0.289 0-0.551-0.025-0.8-0.066-0.258-0.050-0.476-0.108-0.688-0.178l0.040 0.011c-0.183-0.059-0.339-0.127-0.487-0.209l0.014 0.007c-0.102-0.055-0.191-0.118-0.27-0.19l0.001 0.001c-0.058-0.063-0.099-0.142-0.116-0.229l-0-0.003c-0.021-0.12-0.033-0.259-0.033-0.4 0-0.015 0-0.029 0-0.044l-0 0.002c0-0.128 0.006-0.238 0.012-0.323 0.004-0.078 0.019-0.152 0.042-0.221l-0.002 0.006c0.014-0.047 0.041-0.086 0.077-0.115l0-0c0.029-0.023 0.066-0.037 0.107-0.037 0.002 0 0.004 0 0.006 0h-0c0.058 0 0.145 0.037 0.255 0.103 0.296 0.185 0.637 0.341 0.998 0.452l0.031 0.008c0.235 0.066 0.511 0.103 0.825 0.103 0.203 0 0.388-0.025 0.551-0.072 0.158-0.045 0.295-0.115 0.416-0.205l-0.003 0.002c0.111-0.085 0.2-0.193 0.259-0.318l0.002-0.005c0.058-0.126 0.092-0.273 0.092-0.428 0-0.003-0-0.005-0-0.008v0c0-0.004 0-0.008 0-0.013 0-0.174-0.057-0.336-0.152-0.466l0.002 0.002c-0.112-0.14-0.244-0.257-0.393-0.35l-0.007-0.004c-0.155-0.096-0.337-0.193-0.526-0.276l-0.029-0.011c-0.211-0.092-0.426-0.185-0.649-0.288-0.255-0.114-0.468-0.229-0.672-0.356l0.023 0.013c-0.212-0.131-0.395-0.283-0.555-0.457l-0.002-0.002c-0.164-0.179-0.299-0.387-0.395-0.617l-0.005-0.014c-0.095-0.244-0.15-0.526-0.15-0.821 0-0.019 0-0.038 0.001-0.057l-0 0.003c0-0.391 0.072-0.728 0.223-1.028 0.143-0.292 0.346-0.538 0.595-0.734s0.543-0.343 0.885-0.434c0.149-0.044 0.331-0.083 0.518-0.108l0.021-0.002v-1.040h1.008v1.040c0.038 0.006 0.078 0 0.118 0.006 0.195 0.031 0.38 0.068 0.549 0.117 0.169 0.048 0.322 0.103 0.452 0.165s0.215 0.117 0.262 0.154c0.046 0.042 0.072 0.072 0.086 0.103 0.014 0.032 0.027 0.071 0.037 0.111l0.001 0.006c0.008 0.048 0.020 0.109 0.020 0.183 0.006 0.074 0.006 0.165 0.006 0.275 0 0.123 0 0.226-0.006 0.312-0.002 0.075-0.014 0.146-0.034 0.214l0.001-0.006c-0.012 0.048-0.035 0.089-0.066 0.123l0-0c-0.027 0.022-0.062 0.036-0.101 0.036-0.004 0-0.007-0-0.011-0l0 0c-0.046 0-0.125-0.031-0.223-0.085-0.256-0.145-0.553-0.273-0.864-0.371l-0.033-0.009c-0.191-0.055-0.41-0.086-0.637-0.086-0.004 0-0.009 0-0.013 0h0.001c-0.013-0-0.029-0.001-0.045-0.001-0.154 0-0.303 0.025-0.442 0.071l0.010-0.003c-0.132 0.039-0.246 0.103-0.343 0.186l0.001-0.001c-0.087 0.075-0.156 0.169-0.201 0.275l-0.002 0.005c-0.041 0.097-0.065 0.21-0.065 0.329 0 0.182 0.056 0.35 0.151 0.489l-0.002-0.003c0.111 0.143 0.246 0.261 0.4 0.35l0.007 0.004c0.169 0.105 0.36 0.202 0.569 0.288 0.217 0.092 0.434 0.185 0.655 0.288 0.223 0.103 0.44 0.214 0.655 0.342 0.215 0.129 0.4 0.282 0.569 0.46 0.171 0.177 0.303 0.385 0.408 0.631 0.098 0.237 0.151 0.525 0.151 0.849-0.007 0.406-0.103 0.788-0.269 1.13l0.007-0.016z"></path>
</svg>
