<svg version="1.1" xmlns="http://www.w3.org/2000/svg" width="16" height="20" viewBox="0 0 16 20">
<title>generate report</title>
<path d="M2.64 4.367v1.247h9.278v-1.247c0-0.344-0.295-0.624-0.66-0.624h-1.98s0.023-0.712 0.023-1.804c0-1.013-0.93-1.939-2.043-1.939s-1.972 0.88-1.972 1.933c0 1.014-0.008 1.81-0.008 1.81h-1.978c-0.365 0-0.66 0.279-0.66 0.624zM7.258 1.872c0.364 0 0.66 0.28 0.66 0.623 0 0.345-0.296 0.624-0.66 0.624s-0.66-0.279-0.66-0.624c0-0.344 0.296-0.623 0.66-0.623zM13.238 3.742v6.198s0.57-0.594 1.319-0.879v-5.941c0-0.689-0.633-1.247-1.36-1.247h-3.26v1.247h2.64c0.365 0 0.66 0.28 0.66 0.624zM5.897 18.752h-3.918c-0.364 0-0.66-0.279-0.66-0.623v-14.386c0-0.344 0.296-0.624 0.66-0.624h2.68v-1.247h-3.339c-0.728 0-1.32 0.559-1.32 1.248v15.633c0 0.689 0.59 1.247 1.32 1.247h6.012c-0.258-0.412-0.72-0.888-1.435-1.248zM13.237 18.129c0 0.344-0.295 0.623-0.66 0.623h-1.806c-0.333 0.42-0.646 0.839-0.934 1.248h3.36c0.728 0 1.36-0.559 1.36-1.248v-3.836c-0.437 0.34-0.879 0.723-1.319 1.145v2.068zM16 13.069c-0.744-1.562-0.318-2.831-0.212-4.296-4.356 2.050-7.118 8.201-7.118 8.201l-1.7-3.026-3.505 1.952c1.487 0.487 3.612 2.050 5.418 4.1 1.274-2.148 5.205-6.54 7.117-6.931z"></path>
</svg>
