<svg version="1.1" xmlns="http://www.w3.org/2000/svg" width="20" height="20" viewBox="0 0 20 20">
<title>graph</title>
<path d="M0.759 0.5h-0.759v19h20v-0.762l-19.228-0.040-0.013-18.198zM10.769 1.292c0-0.438-0.345-0.792-0.769-0.792h-2.308c-0.425 0-0.769 0.354-0.769 0.792v15.833h3.846v-15.833zM6.154 6.042c0-0.437-0.345-0.792-0.769-0.792h-2.308c-0.425 0-0.769 0.355-0.769 0.792v11.083h3.846v-11.083zM15.385 10.792c0-0.438-0.345-0.792-0.769-0.792h-2.308c-0.425 0-0.769 0.354-0.769 0.792v6.333h3.846v-6.333zM19.231 14.75h-2.308c-0.425 0-0.769 0.354-0.769 0.792v1.583h3.846v-1.583c0-0.438-0.345-0.792-0.769-0.792v0z"></path>
</svg>
