<?xml version="1.0" encoding="UTF-8"?>
<svg width="20px" height="19px" viewBox="0 0 20 19" version="1.1" xmlns="http://www.w3.org/2000/svg" xmlns:xlink="http://www.w3.org/1999/xlink">
    <!-- Generator: Sketch 50.2 (55047) - http://www.bohemiancoding.com/sketch -->
    <title>graph</title>
    <desc>Created with Sketch.</desc>
    <defs></defs>
    <g id="graph" stroke="none" stroke-width="1" fill="none" fill-rule="evenodd">
        <path d="M0.759230769,0 L0,0 L0,19 L20,19 L20,18.237625 L0.772307692,18.1980417 L0.759230769,0 L0.759230769,0 Z M10.7692308,0.791666667 C10.7692308,0.353875 10.4246154,0 10,0 L7.69230769,0 C7.26692308,0 6.92307692,0.353875 6.92307692,0.791666667 L6.92307692,16.625 L10.7692308,16.625 L10.7692308,0.791666667 L10.7692308,0.791666667 Z M6.15384615,5.54166667 C6.15384615,5.10466667 5.80923077,4.75 5.38461538,4.75 L3.07692308,4.75 C2.65153846,4.75 2.30769231,5.10466667 2.30769231,5.54166667 L2.30769231,16.625 L6.15384615,16.625 L6.15384615,5.54166667 L6.15384615,5.54166667 Z M15.3846154,10.2916667 C15.3846154,9.853875 15.04,9.5 14.6153846,9.5 L12.3076923,9.5 C11.8823077,9.5 11.5384615,9.853875 11.5384615,10.2916667 L11.5384615,16.625 L15.3846154,16.625 L15.3846154,10.2916667 L15.3846154,10.2916667 Z M19.2307692,14.25 L16.9230769,14.25 C16.4976923,14.25 16.1538462,14.603875 16.1538462,15.0416667 L16.1538462,16.625 L20,16.625 L20,15.0416667 C20,14.603875 19.6553846,14.25 19.2307692,14.25 L19.2307692,14.25 Z" id="Shape" fill="#000000"></path>
    </g>
</svg>