<svg version="1.1" xmlns="http://www.w3.org/2000/svg" width="20" height="20" viewBox="0 0 20 20">
<title>history</title>
<path d="M11.515 1.5c4.686 0 8.485 3.806 8.485 8.5s-3.799 8.5-8.485 8.5v-1.821c1.781 0 3.455-0.695 4.714-1.956s1.953-2.939 1.953-4.722c0-1.784-0.693-3.461-1.953-4.722s-2.933-1.956-4.714-1.956c-1.781 0-3.455 0.695-4.714 1.956-0.968 0.97-1.602 2.186-1.843 3.508h3.527l-4.242 4.857-4.242-4.857h3.117c0.588-4.119 4.124-7.286 8.398-7.286v0zM15.152 8.786v2.429h-4.848v-6.071h2.424v3.643h2.424z"></path>
</svg>
