<?xml version="1.0" encoding="UTF-8"?>
<svg width="20px" height="17px" viewBox="0 0 20 17" version="1.1" xmlns="http://www.w3.org/2000/svg" xmlns:xlink="http://www.w3.org/1999/xlink">
    <!-- Generator: Sketch 50.2 (55047) - http://www.bohemiancoding.com/sketch -->
    <title>history</title>
    <desc>Created with Sketch.</desc>
    <defs></defs>
    <g id="history" stroke="none" stroke-width="1" fill="none" fill-rule="evenodd">
        <path d="M11.5151515,0 C16.2012121,0 20,3.80557143 20,8.5 C20,13.1944286 16.2012121,17 11.5151515,17 L11.5151515,15.1785714 C13.2957576,15.1785714 14.970303,14.484 16.2290909,13.2223571 C17.4878788,11.9607143 18.1818182,10.2837857 18.1818182,8.5 C18.1818182,6.71621429 17.4884848,5.03867857 16.2290909,3.77764286 C14.969697,2.51660714 13.2957576,1.82142857 11.5151515,1.82142857 C9.73454545,1.82142857 8.06,2.516 6.80121212,3.77764286 C5.83272727,4.74785714 5.19939394,5.96396429 4.95818182,7.28571429 L8.48484848,7.28571429 L4.24242424,12.1428571 L0,7.28571429 L3.1169697,7.28571429 C3.70545455,3.16685714 7.24060606,0 11.5151515,0 L11.5151515,0 Z M15.1515152,7.28571429 L15.1515152,9.71428571 L10.3030303,9.71428571 L10.3030303,3.64285714 L12.7272727,3.64285714 L12.7272727,7.28571429 L15.1515152,7.28571429 Z" id="Shape-7" fill="#000000"></path>
    </g>
</svg>