<svg viewBox="0 0 21 20" xmlns="http://www.w3.org/2000/svg">
    <title>human life value</title>
    <path d="M15.5 9c3.043 0 5.5 2.457 5.5 5.5S18.543 20 15.5 20h-.006A5.494 5.494 0 0 1 10 14.506V14.5c0-3.043 2.457-5.5 5.5-5.5zm1.58 7.372c.117-.234.175-.468.234-.936 0-.234-.059-.41-.117-.585-.059-.117-.117-.292-.234-.41-.117-.117-.234-.175-.351-.292-.117-.117-.293-.176-.41-.234-.117-.059-.292-.117-.41-.176l-.35-.175c-.059-.059-.176-.117-.235-.234s-.117-.234-.117-.351c0-.059 0-.176.059-.234 0-.059.058-.117.117-.176.059-.059.117-.058.234-.117.059-.058.176-.058.293-.058.117 0 .292 0 .41.058.116 0 .233.059.35.117.117.059.176.059.234.117.029.033.07.054.116.059h.06c.058 0 .058 0 .058-.059v-.702l-.058-.058c-.059-.059-.117-.059-.176-.117-.058-.059-.175-.059-.292-.118-.117 0-.234-.058-.351-.058h-.059v-.702h-.644v.878c-.117 0-.234 0-.35.058-.235.059-.41.176-.586.293-.175.175-.292.35-.41.526-.058.176-.116.41-.116.702 0 .234.058.41.117.585.058.117.117.293.234.41.117.117.234.176.35.293.118.117.293.175.41.234.117.059.293.117.41.175.117.059.293.117.351.176.059.058.176.117.234.234.058.117.117.234.117.35 0 .118 0 .176-.058.293-.058.117-.059.176-.176.234-.117.059-.175.059-.292.117-.117.059-.235.059-.352.059-.175 0-.35 0-.526-.059-.176-.059-.293-.117-.41-.175-.117-.059-.234-.117-.292-.176-.059-.058-.117-.058-.176-.058h-.058s-.059 0-.059.058v.644c0 .058 0 .117.059.175.058 0 .117.059.175.117.059 0 .176.059.293.117.117.059.234.059.41.118.176.059.35.058.526.058v.702h.644v-.76h.117c.234-.118.468-.235.643-.352a2.07 2.07 0 0 0 .41-.585zm-8.796-1.217a6.92 6.92 0 0 0 1.722 3.852L10 19H1.588c-.997 0-1.771-.99-1.55-2.039.277-1.107.609-2.33 1.162-2.738C2.252 13.524 5.185 13 5.185 13s1.937 2.272 2.767 2.272c.111 0 .222-.058.332-.117zm4.299-6.708c-1.55.699-2.742 1.922-3.338 3.436-.298.059-.536.117-.775.117C6.026 12 4 9.32 4 6s1.967-6 4.47-6C10.974 0 13 2.68 13 6c0 .874-.179 1.69-.417 2.447z" />
</svg>
