<svg version="1.1" xmlns="http://www.w3.org/2000/svg" width="21" height="20" viewBox="0 0 21 20">
<title>life insurance needs</title>
<path d="M13.202 9.489l-2.049 4.189c-0.106 0.223-0.33 0.374-0.589 0.374-0.269 0-0.5-0.163-0.599-0.397l-0.002-0.004-2.349-5.322-1.239 3.023h-3.878l7.526 7.862c0.133 0.142 0.321 0.23 0.53 0.23s0.397-0.088 0.53-0.23l0-0 7.524-7.862h-4.497l-0.91-1.864zM19.529 2.326l-0.1-0.107c-0.971-1.025-2.343-1.663-3.863-1.663s-2.891 0.638-3.861 1.661l-0.002 0.002-1.148 1.206-1.15-1.2c-2.122-2.222-5.601-2.222-7.724 0l-0.1 0.101c-2.009 2.1-2.094 5.446-0.3 7.678h4.222l1.479-3.632c0.099-0.245 0.335-0.414 0.61-0.414 0.27 0 0.502 0.163 0.603 0.395l0.002 0.004 2.399 5.45 2.019-4.128c0.108-0.222 0.331-0.372 0.589-0.372s0.482 0.15 0.588 0.368l0.002 0.004 1.139 2.324h4.902c1.794-2.232 1.704-5.578-0.304-7.678z"></path>
</svg>
