<svg viewBox="0 0 20 19" xmlns="http://www.w3.org/2000/svg">
    <title>life insurance needs</title>
    <path d="M12.507 9.069l-1.941 3.992a.617.617 0 0 1-1.126-.022l-.001-.004-2.226-5.071-1.174 2.88H2.366l7.13 7.493a.683.683 0 0 0 1.004 0l7.128-7.493h-4.26l-.863-1.776.002.001zm5.994-6.826l-.095-.102a5.012 5.012 0 0 0-3.66-1.585c-1.44 0-2.738.608-3.657 1.583l-.002.002-1.088 1.15L8.91 2.146a5.008 5.008 0 0 0-7.317 0l-.095.096C-.405 4.244-.486 7.433 1.214 9.56h4l1.4-3.461a.623.623 0 0 1 1.15-.019l.002.004 2.272 5.194 1.913-3.934a.62.62 0 0 1 .558-.354.62.62 0 0 1 .557.35l.002.004 1.079 2.215h4.644c1.7-2.127 1.614-5.316-.288-7.317H18.5z" />
</svg>
