<svg width="12" height="20" xmlns="http://www.w3.org/2000/svg"><path d="M6.097 0C2.099 0 0 2.896 0 5.532c0 2.956 2.996 4.815 2.996 9.65h3.033l2.935.013C9.051 10.325 12 8.408 12 5.508 12 3.034 10.095 0 6.097 0zm2.49 15.897H3.374c-.205 0-.372.154-.372.342 0 .189.167.342.372.342h5.211c.205 0 .372-.153.372-.342 0-.188-.167-.342-.372-.342zm0 1.368H3.374c-.205 0-.372.153-.372.342 0 .189.167.342.372.342h5.211c.205 0 .372-.153.372-.342 0-.189-.167-.342-.372-.342zm-4.84 1.367v.684c0 .378.333.684.745.684H7.48c.412 0 .744-.306.744-.684v-.684H3.747z" fill="#000" fill-rule="evenodd"/></svg>