<svg version="1.1" xmlns="http://www.w3.org/2000/svg" width="12" height="20" viewBox="0 0 12 20">
<title>lightbulb</title>
<path d="M6.097 0c-3.998 0-6.097 2.896-6.097 5.532 0 2.956 2.996 4.815 2.996 9.65h3.033l2.935 0.013c0.087-4.87 3.036-6.787 3.036-9.687 0-2.474-1.905-5.508-5.903-5.508zM8.587 15.897h-5.213c-0.205 0-0.372 0.154-0.372 0.342 0 0.189 0.167 0.342 0.372 0.342h5.211c0.205 0 0.372-0.153 0.372-0.342s-0.167-0.342-0.372-0.342zM8.587 17.265h-5.213c-0.205 0-0.372 0.153-0.372 0.342s0.167 0.342 0.372 0.342h5.211c0.205 0 0.372-0.153 0.372-0.342s-0.167-0.342-0.372-0.342zM3.747 18.632v0.684c0 0.378 0.333 0.684 0.745 0.684h2.988c0.412 0 0.744-0.306 0.744-0.684v-0.684h-4.477z"></path>
</svg>
