<?xml version="1.0" encoding="UTF-8"?>
<svg width="14px" height="20px" viewBox="0 0 14 20" version="1.1" xmlns="http://www.w3.org/2000/svg" xmlns:xlink="http://www.w3.org/1999/xlink">
    <!-- Generator: Sketch 50.2 (55047) - http://www.bohemiancoding.com/sketch -->
    <title>location</title>
    <desc>Created with Sketch.</desc>
    <defs></defs>
    <g id="location" stroke="none" stroke-width="1" fill="none" fill-rule="evenodd">
        <path d="M7,6.02295991e-15 C3.133375,6.02295991e-15 0,2.7984375 0,6.25 C0,12.2171875 7,20 7,20 C7,20 14,12.2171875 14,6.25 C14,2.7984375 10.866625,5.32907052e-15 7,5.32907052e-15 L7,6.02295991e-15 Z M7,9.7 C4.91225,9.7 3.22,8.1890625 3.22,6.325 C3.22,4.4609375 4.91225,2.95 7,2.95 C9.08775,2.95 10.78,4.4609375 10.78,6.325 C10.78,8.1890625 9.08775,9.7 7,9.7 L7,9.7 Z" id="Shape" fill="#000000"></path>
    </g>
</svg>