<svg version="1.1" xmlns="http://www.w3.org/2000/svg" width="15" height="20" viewBox="0 0 15 20">
<title>notepad</title>
<path d="M13.636 20h-12.273c-0.753 0-1.364-0.575-1.364-1.284v-15.505c0-0.709 0.61-1.284 1.364-1.284h3.409v1.338h-2.727c-0.376 0-0.682 0.287-0.682 0.642v14.167c0 0.356 0.305 0.642 0.682 0.642h10.909c0.377 0 0.682-0.286 0.682-0.642v-14.167c0-0.355-0.305-0.642-0.682-0.642h-2.727v-1.338h3.409c0.753 0 1.364 0.575 1.364 1.284v15.505c0 0.71-0.611 1.284-1.364 1.284v0zM4.773 7.117h7.5v0.642h-7.5v-0.642zM4.773 9.044h7.5v0.642h-7.5v-0.642zM4.773 10.971h7.5v0.642h-7.5v-0.642zM4.773 12.897h7.5v0.642h-7.5v-0.642zM12.273 17.391h-7.5v-0.641h7.5v0.641zM4.773 14.824h7.5v0.642h-7.5v-0.642zM2.727 7.104h0.682v0.642h-0.682v-0.642zM2.727 9.031h0.682v0.642h-0.682v-0.642zM2.727 10.956h0.682v0.642h-0.682v-0.642zM2.727 12.883h0.682v0.642h-0.682v-0.642zM3.409 17.379h-0.682v-0.642h0.682v0.642zM2.727 14.81h0.682v0.642h-0.682v-0.642zM11.591 3.946c0.377 0 0.682 0.288 0.682 0.643v1.244h-9.545v-1.244c0-0.355 0.305-0.643 0.682-0.643h2.045c0 0 0.008-0.913 0.008-1.957 0-1.084 0.886-1.99 2.037-1.99s2.068 0.952 2.068 1.996c0 1.124-0.022 1.95-0.022 1.95h2.045zM7.5 1.927c-0.377 0-0.682 0.287-0.682 0.642s0.305 0.642 0.682 0.642 0.682-0.287 0.682-0.642c0-0.355-0.305-0.642-0.682-0.642v0z"></path>
</svg>
