<svg viewBox="0 0 15 20" xmlns="http://www.w3.org/2000/svg">
    <title>notepad</title>
    <path d="M13.636 20H1.363c-.753 0-1.364-.575-1.364-1.284V3.211c0-.709.61-1.284 1.364-1.284h3.409v1.338H2.045c-.376 0-.682.287-.682.642v14.167c0 .356.305.642.682.642h10.909c.377 0 .682-.286.682-.642V3.907c0-.355-.305-.642-.682-.642h-2.727V1.927h3.409c.753 0 1.364.575 1.364 1.284v15.505c0 .71-.611 1.284-1.364 1.284zM4.773 7.117h7.5v.642h-7.5v-.642zm0 1.927h7.5v.642h-7.5v-.642zm0 1.927h7.5v.642h-7.5v-.642zm0 1.926h7.5v.642h-7.5v-.642zm7.5 4.494h-7.5v-.641h7.5v.641zm-7.5-2.567h7.5v.642h-7.5v-.642zm-2.046-7.72h.682v.642h-.682v-.642zm0 1.927h.682v.642h-.682v-.642zm0 1.925h.682v.642h-.682v-.642zm0 1.927h.682v.642h-.682v-.642zm.682 4.496h-.682v-.642h.682v.642zm-.682-2.569h.682v.642h-.682v-.642zm8.864-10.864c.377 0 .682.288.682.643v1.244H2.728V4.589c0-.355.305-.643.682-.643h2.045s.008-.913.008-1.957c0-1.084.886-1.99 2.037-1.99 1.151 0 2.068.952 2.068 1.996 0 1.124-.022 1.95-.022 1.95h2.045v.001zM7.5 1.927c-.377 0-.682.287-.682.642 0 .355.305.642.682.642.377 0 .682-.287.682-.642 0-.355-.305-.642-.682-.642z" />
</svg>
