<svg viewBox="0 0 16 20" xmlns="http://www.w3.org/2000/svg">
    <title>overview</title>
    <path d="M15.361 2.581H.638A.641.641 0 0 1 0 1.936c0-.356.285-.645.638-.645h6.743V.646c0-.356.286-.645.639-.645.353 0 .638.289.638.645v.645h6.703c.353 0 .639.289.639.645a.64.64 0 0 1-.639.645zm0 10.323H.638V3.226h14.723v9.678zM2.56 7.762c0 1.428 1.146 2.586 2.56 2.586 1.414 0 2.56-1.158 2.56-2.586H5.12V5.174c-1.414 0-2.56 1.159-2.56 2.588zm7.055-2.601h-.638v.645h.638v-.645zm0 1.291h-.638v.645h.638v-.645zm0 1.29h-.638v.645h.638v-.645zm0 1.29h-.638v.645h.638v-.645zm0 1.291h-.638v.645h.638v-.645zm3.831-5.162h-3.192v.645h3.192v-.645zm0 1.291h-3.192v.645h3.192v-.645zm0 1.29h-3.192v.645h3.192v-.645zm0 1.29h-3.192v.645h3.192v-.645zm0 1.291h-3.192v.645h3.192v-.645zM6.26 16.13h1.441v-3.226h.639v3.226h1.418L8.34 12.904h1.277l2.553 5.807h-1.276l-.851-1.936H8.341v3.226h-.639v-3.226H5.973l-.865 1.936H3.831l2.593-5.807h1.277L6.26 16.13z" />
</svg>
