<svg version="1.1" xmlns="http://www.w3.org/2000/svg" width="16" height="20" viewBox="0 0 16 20">
<title>overview</title>
<path d="M15.361 2.581h-14.723c-0.353 0-0.638-0.289-0.638-0.645s0.285-0.645 0.638-0.645h6.743v-0.645c0-0.356 0.286-0.645 0.639-0.645s0.638 0.289 0.638 0.645v0.645h6.703c0.353 0 0.639 0.289 0.639 0.645 0 0.357-0.285 0.645-0.639 0.645v0zM15.361 12.904h-14.723v-9.678h14.723v9.678zM2.56 7.762c0 1.428 1.146 2.586 2.56 2.586s2.56-1.158 2.56-2.586h-2.56v-2.588c-1.414 0-2.56 1.159-2.56 2.588v0zM9.615 5.161h-0.638v0.645h0.638v-0.645zM9.615 6.452h-0.638v0.645h0.638v-0.645zM9.615 7.742h-0.638v0.645h0.638v-0.645zM9.615 9.032h-0.638v0.645h0.638v-0.645zM9.615 10.323h-0.638v0.645h0.638v-0.645zM13.446 5.161h-3.192v0.645h3.192v-0.645zM13.446 6.452h-3.192v0.645h3.192v-0.645zM13.446 7.742h-3.192v0.645h3.192v-0.645zM13.446 9.032h-3.192v0.645h3.192v-0.645zM13.446 10.323h-3.192v0.645h3.192v-0.645zM6.26 16.13h1.441v-3.226h0.639v3.226h1.418l-1.418-3.226h1.277l2.553 5.807h-1.276l-0.851-1.936h-1.702v3.226h-0.639v-3.226h-1.729l-0.865 1.936h-1.277l2.593-5.807h1.277l-1.441 3.226z"></path>
</svg>
