<svg version="1.1" xmlns="http://www.w3.org/2000/svg" width="19" height="20" viewBox="0 0 19 20">
<title>pen</title>
<path d="M18.445 3.092l-1.699 1.794-2.427-2.561 1.699-1.794c0.67-0.707 1.757-0.707 2.427 0s0.67 1.854 0 2.561v0zM17.474 5.141c0.134-0.141 0.352-0.141 0.486 0s0.134 0.372 0 0.513l-6.31 6.661c-0.134 0.141-0.352 0.141-0.486 0s-0.134-0.371 0-0.512l4.126-4.355-3.399-3.587 1.456-1.536 3.398 3.587 0.728-0.769zM11.892 4.886l2.427 2.561-9.708 10.247-2.427-2.561 9.708-10.247zM0 20l1.699-4.354 2.427 2.561-4.125 1.793z"></path>
</svg>
