<?xml version="1.0" encoding="UTF-8"?>
<svg width="19px" height="20px" viewBox="0 0 19 20" version="1.1" xmlns="http://www.w3.org/2000/svg" xmlns:xlink="http://www.w3.org/1999/xlink">
    <!-- Generator: Sketch 50.2 (55047) - http://www.bohemiancoding.com/sketch -->
    <title>pen</title>
    <desc>Created with Sketch.</desc>
    <defs></defs>
    <g id="pen" stroke="none" stroke-width="1" fill="none" fill-rule="evenodd">
        <path d="M18.4449672,3.0920377 L16.7456718,4.88571403 L14.3189924,2.32425407 L16.0182879,0.530577746 C16.6885005,-0.176859249 17.7754434,-0.176859249 18.4449672,0.530577746 C19.114491,1.23801474 19.1151798,2.3846007 18.4449672,3.0920377 L18.4449672,3.0920377 Z M17.4737445,5.14091483 C17.6080625,4.99986367 17.8257266,4.99986367 17.9593558,5.14091483 C18.0936739,5.28269306 18.0936739,5.51244649 17.9593558,5.65349765 L11.6498518,12.314166 C11.5155337,12.4552172 11.2978696,12.4552172 11.1642404,12.314166 C11.0306111,12.1731148 11.0306111,11.9433614 11.1642404,11.8023103 L15.2902152,7.44717398 L11.8916243,3.85982132 L13.3477696,2.32352701 L16.7456718,5.91015259 L17.4737445,5.14091483 L17.4737445,5.14091483 Z M11.8923131,4.88571403 L14.3189924,7.44717398 L4.6108974,17.6944679 L2.18421806,15.133008 L11.8923131,4.88571403 L11.8923131,4.88571403 Z M3.05893305e-16,20 L1.69860666,15.6455908 L4.12528601,18.2070507 L0,20 L3.05893305e-16,20 Z" id="Shape" fill="#000000"></path>
    </g>
</svg>