<svg version="1.1" xmlns="http://www.w3.org/2000/svg" width="20" height="20" viewBox="0 0 20 20">
<title>print</title>
<path d="M18.75 4.571h-17.5c-0.688 0-1.25 0.611-1.25 1.357v6.786c0 0.746 0.563 1.357 1.25 1.357h3.75v5.429h10v-5.429h3.75c0.688 0 1.25-0.611 1.25-1.357v-6.786c0-0.746-0.563-1.357-1.25-1.357v0zM2.5 8.643c-0.691 0-1.25-0.607-1.25-1.357s0.559-1.357 1.25-1.357c0.691 0 1.25 0.607 1.25 1.357s-0.559 1.357-1.25 1.357v0zM13.75 18.143h-7.5v-6.786h7.5v6.786z"></path>
<path d="M4 0.5h10v2.714h-10z"></path>
</svg>
