<?xml version="1.0" encoding="UTF-8"?>
<svg width="20px" height="19px" viewBox="0 0 20 19" version="1.1" xmlns="http://www.w3.org/2000/svg" xmlns:xlink="http://www.w3.org/1999/xlink">
    <!-- Generator: Sketch 50.2 (55047) - http://www.bohemiancoding.com/sketch -->
    <title>print</title>
    <desc>Created with Sketch.</desc>
    <defs></defs>
    <g id="print" stroke="none" stroke-width="1" fill="none" fill-rule="evenodd">
        <g id="Group" fill="#000000">
            <path d="M18.75,4.07142857 L1.25,4.07142857 C0.5625,4.07142857 0,4.68214286 0,5.42857143 L0,12.2142857 C0,12.9607143 0.5625,13.5714286 1.25,13.5714286 L5,13.5714286 L5,19 L15,19 L15,13.5714286 L18.75,13.5714286 C19.4375,13.5714286 20,12.9607143 20,12.2142857 L20,5.42857143 C20,4.68214286 19.4375,4.07142857 18.75,4.07142857 L18.75,4.07142857 Z M2.5,8.14285714 C1.809375,8.14285714 1.25,7.53553571 1.25,6.78571429 C1.25,6.03589286 1.809375,5.42857143 2.5,5.42857143 C3.190625,5.42857143 3.75,6.03589286 3.75,6.78571429 C3.75,7.53553571 3.190625,8.14285714 2.5,8.14285714 L2.5,8.14285714 Z M13.75,17.6428571 L6.25,17.6428571 L6.25,10.8571429 L13.75,10.8571429 L13.75,17.6428571 L13.75,17.6428571 Z" id="Shape"></path>
            <polygon id="Shape" points="4 0 14 0 14 2.71428571 4 2.71428571"></polygon>
        </g>
    </g>
</svg>
