<svg viewBox="0 0 23 20" xmlns="http://www.w3.org/2000/svg">
    <title>reports</title>
    <path d="M12.5 18.477s5.156-1.731 9.166 1.523v-1.523c-4.688-2.625-9.166 0-9.166 0zM0 1.68v16.692s2.24-1.628 5.416-1.628c3.178 0 5.418 1.628 5.418 1.628V1.889s-2.24-1.89-5.418-1.89C2.24-.001 0 1.679 0 1.679v.001zm1.666 1.68H5v4.2H1.666v-4.2zm7.5 10.919h-7.5v-.84h7.5v.84zm0-1.68h-7.5v-.84h7.5v.84zm0-1.68h-7.5v-.84h7.5v.84zm0-1.68h-7.5V8.4h7.5v.84-.001zM5.834 3.36h3.332v.84H5.834v-.84zm0 1.68h3.332v.84H5.834v-.84zm0 1.679h3.332v.84H5.834v-.84zM17.084 0c-3.177 0-5.417 1.68-5.417 1.68v16.692s2.24-1.628 5.417-1.628c3.176 0 5.416 1.628 5.416 1.628V1.889s-2.24-1.89-5.416-1.89V0zm3.75 14.279h-7.5v-.84h7.5v.84zm0-1.68h-7.5v-.84h7.5v.84zm0-1.68h-7.5v-.84h7.5v.84zm0-1.68h-7.5V8.4h7.5v.84-.001zm0-1.68h-7.5v-.84h7.5v.84zm0-1.679h-7.5v-.84h7.5v.84zm0-1.68h-7.5v-.84h7.5v.84zm-20 14.277V20C4.844 16.746 10 18.477 10 18.477s-4.479-2.625-9.166 0z" />
</svg>
