<svg viewBox="0 0 20 18" xmlns="http://www.w3.org/2000/svg">
    <title>retirement analysis</title>
    <path d="M19.998 5.344c-.495-2.786-2.852-3.243-2.852-3.243.662-.749 1.488-.749 1.488-.749-1.901-1.164-3.76.125-3.76.125-1.281-1.539-3.842-.748-3.842-.748 1.321.208 2.066 1.33 2.066 1.33-2.48-.167-3.223 2.411-3.223 2.411 1.073-.666 2.562-.582 2.562-.582-1.405 1.164-1.405 3.868-1.405 3.868.866-1.123 2.562-2.287 3.263-2.745-.082 1.455-.578 6.238-3.263 8.482-.4-.045-.873-.075-1.353-.082h-.012c-.661 0-1.322.041-1.942.166C5.66 11.956 5.411 8.713 5.37 7.59c1.282.624 3.264 2.91 3.264 2.91.083-2.12-1.28-3.824-1.28-3.824 1.486-.291 2.808.956 2.808.956-.702-2.744-3.057-3.035-3.057-3.035.62-.831 1.446-.874 1.446-.874-1.983-.998-3.76.415-3.76.415C3.428 2.684.907 3.64.907 3.64c1.363.124 2.148 1.165 2.148 1.165-2.479 0-3.057 2.66-3.057 2.66 1.033-.749 2.52-.749 2.52-.749-1.322 1.246-1.157 3.95-1.157 3.95.702-1.04 2.025-2.162 2.81-2.744.041 1.33.413 4.116 2.148 6.028-1.281.416-2.273 1.04-2.768 1.83-.083.125-.083.25-.041.333.04.124.124.208.206.29.124.084 2.149 1.124 5.578 1.124 1.777 0 3.884-.29 6.363-1.081.124-.042.248-.125.29-.291.04-.125.04-.29-.04-.374-.54-.873-1.778-1.58-3.265-1.954 2.438-2.662 2.892-7.028 3.016-8.565 1.198.874 2.81 2.952 2.81 2.952.208-2.12-1.033-3.909-1.033-3.909 1.363-.248 2.562 1.04 2.562 1.04h.001z" />
</svg>
