<svg version="1.1" xmlns="http://www.w3.org/2000/svg" width="22" height="20" viewBox="0 0 22 20">
<title>retirement analysis</title>
<path d="M22.105 5.896c-0.547-3.105-3.152-3.615-3.152-3.615 0.731-0.834 1.644-0.834 1.644-0.834-2.101-1.298-4.156 0.139-4.156 0.139-1.416-1.715-4.247-0.834-4.247-0.834 1.461 0.232 2.284 1.482 2.284 1.482-2.741-0.185-3.563 2.688-3.563 2.688 1.187-0.742 2.832-0.649 2.832-0.649-1.553 1.298-1.553 4.311-1.553 4.311 0.958-1.252 2.832-2.549 3.607-3.059-0.091 1.621-0.639 6.952-3.607 9.453-0.442-0.050-0.965-0.083-1.495-0.091l-0.013-0c-0.731 0-1.462 0.046-2.147 0.185-2.283-1.807-2.558-5.421-2.603-6.674 1.417 0.695 3.608 3.244 3.608 3.244 0.092-2.363-1.416-4.263-1.416-4.263 1.644-0.324 3.105 1.066 3.105 1.066-0.776-3.059-3.379-3.383-3.379-3.383 0.684-0.926 1.598-0.974 1.598-0.974-2.192-1.112-4.156 0.463-4.156 0.463-1.507-1.62-4.293-0.555-4.293-0.555 1.506 0.138 2.374 1.298 2.374 1.298-2.74-0.001-3.379 2.964-3.379 2.964 1.142-0.834 2.786-0.834 2.786-0.834-1.462 1.389-1.279 4.402-1.279 4.402 0.776-1.158 2.238-2.409 3.105-3.058 0.046 1.482 0.457 4.587 2.375 6.719-1.416 0.463-2.512 1.158-3.060 2.039-0.091 0.139-0.091 0.278-0.045 0.371 0.045 0.139 0.137 0.232 0.228 0.324 0.137 0.093 2.375 1.252 6.165 1.252 1.964 0 4.294-0.324 7.034-1.205 0.137-0.046 0.274-0.139 0.32-0.324 0.045-0.139 0.045-0.324-0.045-0.417-0.595-0.973-1.964-1.761-3.608-2.178 2.695-2.966 3.197-7.832 3.334-9.546 1.324 0.974 3.105 3.291 3.105 3.291 0.231-2.363-1.141-4.357-1.141-4.357 1.507-0.277 2.832 1.158 2.832 1.158z"></path>
</svg>
