<svg version="1.1" xmlns="http://www.w3.org/2000/svg" width="19" height="20" viewBox="0 0 19 20">
<title>umbrella</title>
<path d="M18.989 10.692c0 0-0.98-1.539-2.069-1.539-1.087 0-2.23 1.591-2.23 1.591s-1.197-1.589-2.176-1.589c-0.829 0-1.805 1.093-2.088 1.43v6.077c0 0.609-0.065 1.123-0.195 1.548-0.13 0.423-0.322 0.767-0.577 1.032s-0.571 0.459-0.951 0.578c-0.379 0.12-0.819 0.179-1.318 0.179-0.454 0-0.861-0.065-1.22-0.196-0.36-0.133-0.663-0.32-0.91-0.564s-0.437-0.538-0.569-0.884c-0.131-0.344-0.199-0.729-0.199-1.154v-0.587h1.733c0 0.551-0.004 1.273 0.205 1.553 0.209 0.279 0.529 0.42 0.959 0.42 0.29 0 0.704-0.138 0.704-0.138s0.317-0.218 0.412-0.384c0.095-0.164 0.191-0.595 0.191-0.595s0.049-0.487 0.049-0.766v-6.216c-0.388-0.421-1.339-1.361-2.102-1.361-0.979 0-2.339 1.565-2.339 1.565s-1.305-1.565-2.176-1.565c-0.87 0-2.121 1.565-2.121 1.565s-0.382-8.189 8.269-9.023l1.252-1.669 1.198 1.669c8.92 0.521 8.269 9.023 8.269 9.023v0z"></path>
</svg>
