<svg viewBox="0 0 19 20" xmlns="http://www.w3.org/2000/svg">
    <title>umbrella</title>
    <path d="M18.989 10.692s-.98-1.539-2.069-1.539c-1.087 0-2.23 1.591-2.23 1.591s-1.197-1.589-2.176-1.589c-.829 0-1.805 1.093-2.088 1.43v6.077c0 .609-.065 1.123-.195 1.548-.13.423-.322.767-.577 1.032a2.211 2.211 0 0 1-.951.578c-.379.12-.819.179-1.318.179-.454 0-.861-.065-1.22-.196a2.51 2.51 0 0 1-.91-.564 2.453 2.453 0 0 1-.569-.884 3.222 3.222 0 0 1-.199-1.154v-.587H6.22c0 .551-.004 1.273.205 1.553.209.279.529.42.959.42.29 0 .704-.138.704-.138s.317-.218.412-.384c.095-.164.191-.595.191-.595s.049-.487.049-.766v-6.216c-.388-.421-1.339-1.361-2.102-1.361-.979 0-2.339 1.565-2.339 1.565S2.994 9.127 2.123 9.127c-.87 0-2.121 1.565-2.121 1.565S-.38 2.503 8.271 1.669L9.523 0l1.198 1.669c8.92.521 8.269 9.023 8.269 9.023h-.001z" />
</svg>
