<?xml version="1.0" encoding="UTF-8"?>
<svg width="20px" height="19px" viewBox="0 0 20 19" version="1.1" xmlns="http://www.w3.org/2000/svg" xmlns:xlink="http://www.w3.org/1999/xlink">
    <!-- Generator: Sketch 50.2 (55047) - http://www.bohemiancoding.com/sketch -->
    <title>wallet</title>
    <desc>Created with Sketch.</desc>
    <defs></defs>
    <g id="wallet" stroke="none" stroke-width="1" fill="none" fill-rule="evenodd">
        <path d="M11.7241379,13.3703704 C10.9627586,13.3703704 10.3448276,12.7398519 10.3448276,11.962963 L10.3448276,10.5555556 C10.3448276,9.77796296 10.9627586,9.14814815 11.7241379,9.14814815 L20,9.14814815 L20,13.3703704 L11.7241379,13.3703704 L11.7241379,13.3703704 Z M12.7586207,10.2621111 C12.1875862,10.2621111 11.7241379,10.735 11.7241379,11.3176667 C11.7241379,11.901037 12.1875862,12.3732222 12.7586207,12.3732222 C13.3303448,12.3732222 13.7931034,11.901037 13.7931034,11.3176667 C13.7931034,10.735 13.3303448,10.2621111 12.7586207,10.2621111 L12.7586207,10.2621111 Z M9.65517241,10.5555556 L9.65517241,11.962963 C9.65517241,13.1282963 10.582069,14.0740741 11.7241379,14.0740741 L18.6206897,14.0740741 L18.6206897,16.8888889 C18.6206897,18.0542222 17.6944828,19 16.5517241,19 L2.06896552,19 C0.926896552,19 0,18.0542222 0,16.8888889 L0,3.51851852 C0,2.35248148 0.926896552,1.40740741 2.06896552,1.40740741 L8.71172414,1.40740741 L7.09172414,2.09633333 L1.72482759,2.09633333 C1.1537931,2.09633333 0.690344828,2.56922222 0.690344828,3.15188889 C0.690344828,3.73455556 1.1537931,4.20744444 1.72482759,4.20744444 L18.6206897,4.20744444 L18.6206897,8.44444444 L11.7241379,8.44444444 C10.582069,8.44444444 9.65517241,9.38951852 9.65517241,10.5555556 L9.65517241,10.5555556 Z M2.75931034,5.62962963 L1.38,5.62962963 L1.38,7.03703704 L2.06965517,7.03703704 L2.06965517,6.33333333 L2.75931034,6.33333333 L2.75931034,5.62962963 L2.75931034,5.62962963 Z M2.75931034,7.74074074 L1.38,7.74074074 L1.38,9.14814815 L2.09793103,9.14814815 L2.06965517,8.44444444 L2.75931034,8.45922222 L2.75931034,7.74074074 L2.75931034,7.74074074 Z M2.75931034,9.85185185 L1.38,9.85185185 L1.38,11.2592593 L2.08413793,11.2592593 L2.06965517,10.5555556 L2.75931034,10.5555556 L2.75931034,9.85185185 L2.75931034,9.85185185 Z M2.75931034,11.962963 L1.38,11.962963 L1.38,13.3703704 L2.08413793,13.3703704 L2.06965517,12.6666667 L2.75931034,12.6814444 L2.75931034,11.962963 L2.75931034,11.962963 Z M2.75931034,14.0740741 L1.38,14.0740741 L1.38,15.4814815 L2.06965517,15.4814815 L2.06965517,14.7777778 L2.75931034,14.7777778 L2.75931034,14.0740741 L2.75931034,14.0740741 Z M2.75931034,16.1851852 L1.38,16.1851852 L1.38,17.5925926 L2.08413793,17.5925926 L2.06965517,16.9036667 L2.75931034,16.9036667 L2.75931034,16.1851852 L2.75931034,16.1851852 Z M5.51793103,3.47488889 L13.6213793,0 L15.1731034,3.47488889 L5.51793103,3.47488889 L5.51793103,3.47488889 Z M14.9282759,1.40740741 L16.5517241,1.40740741 C17.1558621,1.40740741 17.6937931,1.67551852 18.0724138,2.09633333 L15.257931,2.09633333 L14.9282759,1.40740741 L14.9282759,1.40740741 Z" id="Shape" fill="#000000"></path>
    </g>
</svg>