<svg version="1.1" xmlns="http://www.w3.org/2000/svg" width="20" height="20" viewBox="0 0 20 20">
<title>wallet</title>
<path d="M11.724 13.87c-0.761 0-1.379-0.631-1.379-1.407v-1.407c0-0.778 0.618-1.407 1.379-1.407h8.276v4.222h-8.276zM12.759 10.762c-0.571 0-1.034 0.473-1.034 1.056s0.463 1.056 1.034 1.056c0.572 0 1.034-0.472 1.034-1.056s-0.463-1.056-1.034-1.056v0zM9.655 11.056v1.407c0 1.165 0.927 2.111 2.069 2.111h6.897v2.815c0 1.165-0.926 2.111-2.069 2.111h-14.483c-1.142 0-2.069-0.946-2.069-2.111v-13.37c0-1.166 0.927-2.111 2.069-2.111h6.643l-1.62 0.689h-5.367c-0.571 0-1.034 0.473-1.034 1.056s0.463 1.056 1.034 1.056h16.896v4.237h-6.897c-1.142 0-2.069 0.945-2.069 2.111v0zM2.759 6.13h-1.379v1.407h0.69v-0.704h0.69v-0.704zM2.759 8.241h-1.379v1.407h0.718l-0.028-0.704 0.69 0.015v-0.718zM2.759 10.352h-1.379v1.407h0.704l-0.014-0.704h0.69v-0.704zM2.759 12.463h-1.379v1.407h0.704l-0.014-0.704 0.69 0.015v-0.718zM2.759 14.574h-1.379v1.407h0.69v-0.704h0.69v-0.704zM2.759 16.685h-1.379v1.407h0.704l-0.014-0.689h0.69v-0.718zM5.518 3.975l8.103-3.475 1.552 3.475h-9.655zM14.928 1.907h1.623c0.604 0 1.142 0.268 1.521 0.689h-2.814l-0.33-0.689z"></path>
</svg>
