<svg viewBox="0 0 20 20" xmlns="http://www.w3.org/2000/svg">
    <title>Wallet</title>
    <path d="M11.724 13.87c-.761 0-1.379-.631-1.379-1.407v-1.407c0-.778.618-1.407 1.379-1.407H20v4.222h-8.276v-.001zm1.035-3.108c-.571 0-1.034.473-1.034 1.056 0 .583.463 1.056 1.034 1.056.572 0 1.034-.472 1.034-1.056 0-.584-.463-1.056-1.034-1.056zm-3.104.294v1.407c0 1.165.927 2.111 2.069 2.111h6.897v2.815c0 1.165-.926 2.111-2.069 2.111H2.069C.927 19.5 0 18.554 0 17.389V4.019c0-1.166.927-2.111 2.069-2.111h6.643l-1.62.689H1.725c-.571 0-1.034.473-1.034 1.056 0 .583.463 1.056 1.034 1.056h16.896v4.237h-6.897c-1.142 0-2.069.945-2.069 2.111v-.001zM2.759 6.13H1.38v1.407h.69v-.704h.69v-.704l-.001.001zm0 2.111H1.38v1.407h.718l-.028-.704.69.015v-.718h-.001zm0 2.111H1.38v1.407h.704l-.014-.704h.69v-.704l-.001.001zm0 2.111H1.38v1.407h.704l-.014-.704.69.015v-.718h-.001zm0 2.111H1.38v1.407h.69v-.704h.69v-.704l-.001.001zm0 2.111H1.38v1.407h.704l-.014-.689h.69v-.718h-.001zm2.759-12.71L13.621.5l1.552 3.475H5.518zm9.41-2.068h1.623a2.04 2.04 0 0 1 1.521.689h-2.814l-.33-.689z" />
</svg>
