<?xml version="1.0" encoding="UTF-8"?>
<svg width="20px" height="18px" viewBox="0 0 20 18" version="1.1" xmlns="http://www.w3.org/2000/svg" xmlns:xlink="http://www.w3.org/1999/xlink">
    <!-- Generator: Sketch 53.1 (72631) - https://sketchapp.com -->
    <title>warning</title>
    <desc>Created with Sketch.</desc>
    <g id="warning" stroke="none" stroke-width="1" fill="none" fill-rule="evenodd">
        <path d="M19.4736753,17.6355431 L0.526713171,17.6355431 C0.339348767,17.6355431 0.16672089,17.5380347 0.0719860794,17.3782868 C-0.0227487313,17.2185389 -0.0238013403,17.0224847 0.0677756434,16.8616995 L9.54125671,0.264517587 C9.63493892,0.101657739 9.80967201,1.81188398e-13 10.0001942,1.81188398e-13 C10.1907165,1.81188398e-13 10.3654496,0.100620415 10.4591318,0.264517587 L19.9326128,16.8616995 C20.0241898,17.0224847 20.0220846,17.2185389 19.9284024,17.3782868 C19.8347202,17.5380347 19.6610397,17.6355431 19.4736753,17.6355431 Z M1.42669387,16.5982192 L18.5736946,16.5982192 L10.0001942,1.57776961 L1.42669387,16.5982192 Z M10.0001942,12.4489238 C9.70967416,12.4489238 9.47388974,12.2165632 9.47388974,11.9302618 L9.47388974,6.74364247 C9.47388974,6.45734109 9.70967416,6.22498054 10.0001942,6.22498054 C10.2907143,6.22498054 10.5264987,6.45734109 10.5264987,6.74364247 L10.5264987,11.9302618 C10.5264987,12.2165632 10.2907143,12.4489238 10.0001942,12.4489238 Z M10.0001942,15.5608954 C9.70967416,15.5608954 9.47388974,15.3285348 9.47388974,15.0422334 L9.47388974,14.0049096 C9.47388974,13.7186082 9.70967416,13.4862476 10.0001942,13.4862476 C10.2907143,13.4862476 10.5264987,13.7186082 10.5264987,14.0049096 L10.5264987,15.0422334 C10.5264987,15.3285348 10.2907143,15.5608954 10.0001942,15.5608954 Z" id="Combined-Shape" fill="#000000"></path>
    </g>
</svg>