<svg viewBox="0 0 130 41" fill="none" xmlns="http://www.w3.org/2000/svg">
    <path fill-rule="evenodd" clip-rule="evenodd" d="M11.9767 3.70575V9.98353H8.43113L7.13635 12.1896H16.7631L11.9767 3.70575Z" fill="#FF4338"/>
    <path fill-rule="evenodd" clip-rule="evenodd" d="M11.9767 19.7014V21.9151H1.29907L6.10352e-05 24.1279H23.6355L21.1334 19.7014H11.9767Z" fill="#FF4338"/>
    <path fill-rule="evenodd" clip-rule="evenodd" d="M17.617 13.7261H11.9765V15.946H4.94012L3.63763 18.1513H20.1325L17.617 13.7261Z" fill="#FF4338"/>
    <path fill-rule="evenodd" clip-rule="evenodd" d="M98.6286 37.5309H97.05L101.065 30.8599H102.616L98.6286 37.5309Z" fill="#FF4338"/>
    <path fill-rule="evenodd" clip-rule="evenodd" d="M33.2617 17.2028C33.2913 19.5575 34.8826 21.7658 37.4167 21.7658C39.448 21.7658 40.539 20.7352 41.5424 19.0875L43.7808 20.3536C42.4847 22.7384 40.0677 24.1224 37.3874 24.1224C33.1737 24.1224 30.609 20.9415 30.609 16.8794C30.609 12.6384 32.8784 9.45801 37.329 9.45801C41.7189 9.45801 43.7808 12.6983 43.7808 16.7902V17.2028H33.2617ZM41.1291 15.2009C40.8034 13.138 39.448 11.7558 37.329 11.7558C35.2642 11.7558 33.7327 13.2268 33.4084 15.2009H41.1291Z" fill="white"/>
    <path fill-rule="evenodd" clip-rule="evenodd" d="M59.3807 30.8594H56.7275V21.5019H56.6671C55.6079 23.0636 53.9281 24.1223 51.9823 24.1223C47.7396 24.1223 45.3809 20.6183 45.3809 16.6723C45.3809 12.9045 47.8862 9.45764 51.8633 9.45764C53.9281 9.45764 55.5764 10.5188 56.6671 12.168H56.7275V9.87175H59.3807V30.8594ZM56.8739 16.7605C56.8739 14.0807 55.2535 11.8145 52.3937 11.8145C49.655 11.8145 48.0341 14.1988 48.0341 16.7605C48.0341 19.3531 49.5964 21.7659 52.3937 21.7659C55.2843 21.7659 56.8739 19.4706 56.8739 16.7605Z" fill="white"/>
    <path fill-rule="evenodd" clip-rule="evenodd" d="M64.9309 9.87207V17.4961C64.9309 19.7061 65.4902 21.6499 68.1141 21.6499C70.7359 21.6499 71.2965 19.7061 71.2965 17.4961V9.87207H73.9477V17.7911C73.9477 21.5609 72.1806 24.1224 68.1141 24.1224C64.0473 24.1224 62.2795 21.5609 62.2795 17.7911V9.87207H64.9309Z" fill="white"/>
    <path fill-rule="evenodd" clip-rule="evenodd" d="M88.9479 13.0214C88.623 12.3423 87.9452 11.8146 87.1793 11.8146C86.4411 11.8146 85.7339 12.4025 85.7339 13.1698C85.7339 14.3758 87.326 14.9055 88.9479 15.642C90.5688 16.378 92.129 17.379 92.129 19.5574C92.129 22.1796 89.9491 24.1223 87.3839 24.1223C85.381 24.1223 83.3484 22.9737 82.6117 21.0314L84.8811 20.0006C85.4401 21.0314 86.118 21.7659 87.3839 21.7659C88.5042 21.7659 89.4781 21.0014 89.4781 19.8239C89.4781 19.0874 89.1231 18.7339 88.5042 18.3213L85.9112 16.9383C84.3785 16.1126 83.2582 15.3467 83.2582 13.4631C83.2582 11.2248 85.0874 9.45795 87.326 9.45795C89.0056 9.45795 90.3615 10.3692 91.0982 11.8723L88.9479 13.0214Z" fill="white"/>
    <path fill-rule="evenodd" clip-rule="evenodd" d="M108.369 16.8616C108.369 21.0104 105.128 24.1928 101.002 24.1928C96.8769 24.1928 93.636 21.0104 93.636 16.8616C93.636 12.7098 96.8769 9.52789 101.002 9.52789C105.128 9.52789 108.369 12.7098 108.369 16.8616ZM96.2885 16.8616C96.2885 19.4506 98.3807 21.6601 101.002 21.6601C103.626 21.6601 105.718 19.4506 105.718 16.8616C105.718 14.2397 103.626 12.06 101.002 12.06C98.3807 12.06 96.2885 14.2397 96.2885 16.8616Z" fill="white"/>
    <path fill-rule="evenodd" clip-rule="evenodd" d="M121.939 9.94006V6.03186H119.286V9.94006H117.631H113.979V6.46262C113.979 5.10769 113.956 2.71226 115.843 2.69536C116.506 2.69113 117.283 2.80945 117.631 2.90987V0.493312C117.233 0.375491 116.423 0.248474 115.775 0.248474C112.356 0.248474 111.326 2.6628 111.326 5.66746V9.94006H110.116V12.414H111.326V23.7223H113.979V12.414H117.631H119.286V23.7223H121.939V12.414H124.532V9.94006H121.939Z" fill="white"/>
    <path fill-rule="evenodd" clip-rule="evenodd" d="M77.1989 23.6796H79.8516V9.87079H77.1989V23.6796Z" fill="white"/>
    <path fill-rule="evenodd" clip-rule="evenodd" d="M80.1835 5.40638C80.1835 6.31464 79.4348 7.03747 78.5253 7.03747C77.6158 7.03747 76.8669 6.31464 76.8669 5.40638C76.8669 4.47028 77.6158 3.7226 78.5253 3.7226C79.4348 3.7226 80.1835 4.47028 80.1835 5.40638Z" fill="white"/>
    <path fill-rule="evenodd" clip-rule="evenodd" d="M107.398 32.5479C107.081 32.7286 106.834 32.9883 106.657 33.3276C106.48 33.6669 106.392 34.0577 106.392 34.5001C106.392 34.9426 106.48 35.3316 106.657 35.6671C106.834 36.0024 107.081 36.2624 107.398 36.4469C107.715 36.6313 108.069 36.7235 108.46 36.7235C109.087 36.7235 109.587 36.5262 109.959 36.1317C110.331 35.7372 110.518 35.1934 110.518 34.5001C110.518 33.8069 110.331 33.2633 109.959 32.8685C109.587 32.4741 109.087 32.2767 108.46 32.2767C108.069 32.2767 107.715 32.3672 107.398 32.5479ZM110.186 31.7569C110.606 32.0077 110.936 32.3689 111.176 32.8409C111.415 33.313 111.535 33.866 111.535 34.5001C111.535 35.1342 111.415 35.6855 111.176 36.1538C110.936 36.6221 110.606 36.9815 110.186 37.2324C109.765 37.4829 109.286 37.6082 108.748 37.6082C108.158 37.6082 107.658 37.459 107.249 37.1603C106.84 36.8615 106.558 36.4688 106.403 35.9821V40.4068H105.396V31.4582H106.403V33.007C106.558 32.5203 106.84 32.1276 107.249 31.8288C107.658 31.53 108.158 31.3809 108.748 31.3809C109.286 31.3809 109.765 31.5064 110.186 31.7569Z" fill="white"/>
    <path fill-rule="evenodd" clip-rule="evenodd" d="M113.327 37.531H114.334V29.3457H113.327V37.531Z" fill="white"/>
    <path fill-rule="evenodd" clip-rule="evenodd" d="M117.713 32.8686C117.34 33.2633 117.154 33.8069 117.154 34.4999C117.154 35.1934 117.34 35.7373 117.713 36.1318C118.085 36.5262 118.581 36.7236 119.201 36.7236C119.599 36.7236 119.955 36.6314 120.268 36.4469C120.581 36.2625 120.827 36.0025 121.004 35.6672C121.181 35.3316 121.269 34.9426 121.269 34.4999C121.269 34.0577 121.181 33.667 121.004 33.3277C120.827 32.9884 120.581 32.7286 120.268 32.5479C119.955 32.3672 119.599 32.2768 119.201 32.2768C118.581 32.2768 118.085 32.4741 117.713 32.8686ZM120.412 31.8234C120.821 32.1182 121.107 32.5129 121.269 33.007V31.4582H122.276V37.5309H121.269V35.9821C121.107 36.4765 120.821 36.8712 120.412 37.1658C120.003 37.4611 119.503 37.6082 118.913 37.6082C118.375 37.6082 117.895 37.483 117.475 37.2324C117.055 36.9816 116.725 36.6222 116.485 36.1539C116.246 35.6856 116.125 35.1343 116.125 34.4999C116.125 33.8661 116.246 33.313 116.485 32.841C116.725 32.369 117.055 32.0078 117.475 31.757C117.895 31.5064 118.375 31.3809 118.913 31.3809C119.503 31.3809 120.003 31.5283 120.412 31.8234Z" fill="white"/>
    <path fill-rule="evenodd" clip-rule="evenodd" d="M129.259 32.0389C129.694 32.4925 129.911 33.147 129.911 34.0023V37.531H128.904V34.0908C128.904 33.4863 128.75 33.0217 128.44 32.6971C128.13 32.3727 127.71 32.2104 127.179 32.2104C126.626 32.2104 126.184 32.3894 125.852 32.7471C125.52 33.1048 125.354 33.6262 125.354 34.3123V37.531H124.347V31.4583H125.354V32.8962C125.509 32.4023 125.783 32.0225 126.178 31.757C126.572 31.4916 127.028 31.3588 127.544 31.3588C128.252 31.3588 128.823 31.5855 129.259 32.0389Z" fill="white"/>
</svg>
