<?xml version="1.0" encoding="utf-8"?>
<!-- Generator: Adobe Illustrator 24.0.3, SVG Export Plug-In . SVG Version: 6.00 Build 0)  -->
<svg version="1.1" id="Calque_1" xmlns="http://www.w3.org/2000/svg" xmlns:xlink="http://www.w3.org/1999/xlink" x="0px" y="0px"
	 viewBox="0 0 522.9 161.6" style="enable-background:new 0 0 522.9 161.6;" xml:space="preserve">
<style type="text/css">
	.st0{fill:#FF4338;}
	.st1{fill:#FFFFFF;}
	.st2{display:none;}
	.st3{display:inline;fill:#B1B3B5;}
</style>
<title>Equisoft Plan Logo</title>
<g id="Layer_1">
	<g>
		<g>
			<polygon class="st0" points="48.5,13.9 48.5,39.2 34.2,39.2 29,48 67.7,48 			"/>
			<polygon class="st0" points="48.5,78.2 48.5,87.2 5.5,87.2 0.3,96.1 95.4,96.1 85.3,78.2 			"/>
			<polygon class="st0" points="71.2,54.2 48.5,54.2 48.5,63.1 20.2,63.1 14.9,72 81.3,72 			"/>
		</g>
		<g>
			<polygon class="st0" points="397.1,150 390.7,150 406.9,123.1 413.1,123.1 			"/>
		</g>
	</g>
	<g>
		<g>
			<path class="st1" d="M165.8,60.1c-1.3-8.3-6.8-13.9-15.3-13.9c-8.3,0-14.5,5.9-15.8,13.9H165.8z M134.1,68.2
				c0.1,9.5,6.5,18.4,16.7,18.4c8.2,0,12.6-4.1,16.6-10.8l9,5.1c-5.2,9.6-14.9,15.2-25.7,15.2c-17,0-27.3-12.8-27.3-29.1
				c0-17.1,9.1-29.9,27-29.9c17.7,0,26,13,26,29.5v1.7L134.1,68.2L134.1,68.2z"/>
			<path class="st1" d="M229.1,66.4c0-10.8-6.5-19.9-18-19.9c-11,0-17.5,9.6-17.5,19.9c0,10.4,6.3,20.1,17.5,20.1
				C222.7,86.6,229.1,77.3,229.1,66.4 M239.2,123.1h-10.7V85.5h-0.2c-4.3,6.3-11,10.5-18.8,10.5c-17.1,0-26.6-14.1-26.6-30
				c0-15.2,10.1-29,26.1-29c8.3,0,14.9,4.3,19.3,10.9h0.2v-9.2h10.7V123.1z"/>
			<path class="st1" d="M261.5,38.7v30.7c0,8.9,2.2,16.7,12.8,16.7c10.5,0,12.8-7.8,12.8-16.7V38.7h10.7v31.9
				c0,15.2-7.1,25.5-23.5,25.5s-23.5-10.3-23.5-25.5V38.7H261.5z"/>
			<path class="st1" d="M358.1,51.4c-1.3-2.7-4-4.9-7.1-4.9c-3,0-5.8,2.4-5.8,5.5c0,4.9,6.4,7,12.9,9.9c6.5,3,12.8,7,12.8,15.8
				c0,10.5-8.8,18.4-19.1,18.4c-8.1,0-16.2-4.6-19.2-12.4l9.1-4.1c2.2,4.1,5,7.1,10.1,7.1c4.5,0,8.4-3.1,8.4-7.8c0-3-1.4-4.4-3.9-6
				l-10.4-5.6c-6.2-3.3-10.7-6.4-10.7-14c0-9,7.4-16.1,16.4-16.1c6.8,0,12.2,3.7,15.2,9.7L358.1,51.4z"/>
			<path class="st1" d="M387.7,66.8c0,10.4,8.4,19.3,19,19.3c10.6,0,19-8.9,19-19.3c0-10.5-8.4-19.3-19-19.3
				C396.1,47.5,387.7,56.3,387.7,66.8 M436.3,66.8c0,16.7-13,29.5-29.6,29.5s-29.6-12.8-29.6-29.5s13-29.5,29.6-29.5
				C423.2,37.3,436.3,50.1,436.3,66.8"/>
			<path class="st1" d="M490.9,39V23.3h-10.7V39h-6.7h-14.7V25c0-5.5-0.1-15.1,7.5-15.2c2.7,0,5.8,0.5,7.2,0.9V1
				c-1.6-0.5-4.9-1-7.5-1c-13.8,0-17.9,9.7-17.9,21.8V39h-4.9v10h4.9v45.5h10.7V48.9h14.7h6.7v45.5h10.7V48.9h10.4v-10h-10.4V39z"/>
			<rect x="310.9" y="38.7" class="st1" width="10.7" height="55.6"/>
			<path class="st1" d="M322.9,20.7c0,3.7-3,6.6-6.7,6.6s-6.7-2.9-6.7-6.6c0-3.8,3-6.8,6.7-6.8C319.9,14,322.9,17,322.9,20.7"/>
		</g>
		<g>
			<g>
				<path class="st1" d="M443.6,126.7c1.7,1,3,2.5,4,4.4s1.4,4.1,1.4,6.7s-0.5,4.8-1.4,6.7s-2.3,3.3-4,4.3s-3.6,1.5-5.8,1.5
					c-2.4,0-4.4-0.6-6-1.8c-1.6-1.2-2.8-2.8-3.4-4.7v17.8h-4v-36h4v6.2c0.6-2,1.8-3.5,3.4-4.7c1.6-1.2,3.7-1.8,6-1.8
					C440,125.2,441.9,125.7,443.6,126.7z M432.4,129.9c-1.3,0.7-2.3,1.8-3,3.1c-0.7,1.4-1.1,2.9-1.1,4.7c0,1.8,0.4,3.3,1.1,4.7
					s1.7,2.4,3,3.1c1.3,0.7,2.7,1.1,4.3,1.1c2.5,0,4.5-0.8,6-2.4c1.5-1.6,2.2-3.8,2.2-6.6c0-2.8-0.7-5-2.2-6.6s-3.5-2.4-6-2.4
					C435.1,128.8,433.6,129.2,432.4,129.9z"/>
				<path class="st1" d="M460.3,117v32.9h-4V117H460.3z"/>
				<path class="st1" d="M484.7,127c1.6,1.2,2.8,2.8,3.4,4.8v-6.2h4V150h-4v-6.2c-0.7,2-1.8,3.6-3.4,4.8c-1.6,1.2-3.7,1.8-6,1.8
					c-2.2,0-4.1-0.5-5.8-1.5s-3-2.5-4-4.3c-1-1.8-1.4-4.1-1.4-6.7s0.5-4.8,1.4-6.7c1-1.9,2.3-3.4,4-4.4s3.6-1.5,5.8-1.5
					C481.1,125.2,483.1,125.8,484.7,127z M473.9,131.2c-1.5,1.6-2.2,3.8-2.2,6.6c0,2.8,0.7,5,2.2,6.6s3.5,2.4,6,2.4
					c1.6,0,3-0.4,4.3-1.1c1.3-0.7,2.2-1.8,3-3.1c0.8-1.3,1.1-2.9,1.1-4.7c0-1.8-0.4-3.4-1.1-4.7c-0.7-1.4-1.7-2.4-3-3.1
					s-2.7-1.1-4.3-1.1C477.3,128.8,475.4,129.6,473.9,131.2z"/>
				<path class="st1" d="M520.3,127.9c1.8,1.8,2.6,4.5,2.6,7.9V150h-4v-13.8c0-2.4-0.6-4.3-1.9-5.6c-1.3-1.3-2.9-2-5.1-2
					c-2.2,0-4,0.7-5.3,2.2c-1.3,1.4-2,3.5-2,6.3V150h-4v-24.4h4v5.8c0.6-2,1.7-3.5,3.3-4.6s3.4-1.6,5.5-1.6
					C516.3,125.1,518.6,126.1,520.3,127.9z"/>
			</g>
		</g>
	</g>
</g>
<g id="Zone_Protection" class="st2">
	<path class="st3" d="M0-529.4v95.1h95.1v-95.1H0z M46.8-481.9L1-436v-91.7L46.8-481.9z M1.7-528.4h91.7l-45.8,45.8L1.7-528.4z
		 M47.5-481.2l45.8,45.8H1.7L47.5-481.2z M48.3-481.9l45.8-45.8v91.7L48.3-481.9z"/>
	<path class="st3" d="M596.1-529.4v95.1h95.1v-95.1H596.1z M642.9-481.9L597.1-436v-91.7L642.9-481.9z M597.8-528.4h91.7l-45.8,45.8
		L597.8-528.4z M643.6-481.2l45.8,45.8h-91.7L643.6-481.2z M644.3-481.9l45.8-45.8v91.7L644.3-481.9z"/>
	<path class="st3" d="M596.1-774.5v95.1h95.1v-95.1H596.1z M642.9-726.9l-45.8,45.8v-91.7L642.9-726.9z M597.8-773.5h91.7
		l-45.8,45.8L597.8-773.5z M643.6-726.2l45.8,45.8h-91.7L643.6-726.2z M644.3-726.9l45.8-45.8v91.7L644.3-726.9z"/>
	<path class="st3" d="M0-774.5v95.1h95.1v-95.1H0z M46.8-726.9L1-681.1v-91.7L46.8-726.9z M1.7-773.5h91.7l-45.8,45.8L1.7-773.5z
		 M47.5-726.2l45.8,45.8H1.7L47.5-726.2z M48.3-726.9l45.8-45.8v91.7L48.3-726.9z"/>
</g>
</svg>
