<?xml version="1.0" encoding="UTF-8"?>
<svg id="Layer_1" data-name="Layer 1" xmlns="http://www.w3.org/2000/svg" viewBox="0 0 796.32 123.15">
  <defs>
    <style>
      .cls-1 {
        fill: #ff4338;
      }

      .cls-2 {
        fill: #fff;
      }
    </style>
  </defs>
  <g>
    <polygon class="cls-1" points="48.18 13.91 48.18 39.16 33.92 39.16 28.71 48.04 67.44 48.04 48.18 13.91"/>
    <polygon class="cls-1" points="48.18 78.26 48.18 87.16 5.22 87.16 0 96.07 95.08 96.07 85.02 78.26 48.18 78.26"/>
    <polygon class="cls-1" points="70.87 54.22 48.18 54.22 48.18 63.15 19.87 63.15 14.63 72.02 80.99 72.02 70.87 54.22"/>
  </g>
  <g>
    <path class="cls-2" d="M165.46,60.15c-1.31-8.3-6.76-13.86-15.29-13.86s-14.47,5.92-15.77,13.86h31.06ZM133.81,68.21c.12,9.47,6.52,18.36,16.72,18.36,8.17,0,12.56-4.15,16.6-10.78l9,5.09c-5.21,9.59-14.94,15.16-25.72,15.16-16.95,0-27.27-12.8-27.27-29.14s9.13-29.86,27.03-29.86,25.96,13.04,25.96,29.5v1.66h-42.32Z"/>
    <path class="cls-2" d="M228.81,66.43c0-10.78-6.52-19.9-18.02-19.9s-17.54,9.59-17.54,19.9,6.28,20.14,17.54,20.14,18.02-9.23,18.02-20.14M238.89,123.15h-10.67v-37.65h-.24c-4.26,6.28-11.02,10.54-18.85,10.54-17.07,0-26.56-14.1-26.56-29.97s10.08-29.02,26.08-29.02c8.31,0,14.94,4.27,19.33,10.9h.24v-9.24h10.67v84.43h0Z"/>
    <path class="cls-2" d="M261.22,38.71v30.67c0,8.89,2.25,16.71,12.81,16.71s12.8-7.82,12.8-16.71v-30.67h10.67v31.86c0,15.17-7.11,25.47-23.47,25.47s-23.47-10.3-23.47-25.47v-31.86h10.67-.01Z"/>
    <path class="cls-2" d="M357.84,51.38c-1.31-2.73-4.03-4.85-7.12-4.85s-5.81,2.37-5.81,5.45c0,4.85,6.4,6.98,12.93,9.95,6.52,2.96,12.8,6.99,12.8,15.75,0,10.55-8.77,18.37-19.09,18.37-8.06,0-16.24-4.62-19.2-12.44l9.13-4.15c2.25,4.15,4.98,7.1,10.07,7.1,4.51,0,8.42-3.08,8.42-7.81,0-2.96-1.43-4.38-3.92-6.04l-10.43-5.56c-6.17-3.32-10.67-6.4-10.67-13.98,0-9,7.36-16.11,16.36-16.11,6.76,0,12.21,3.67,15.18,9.71l-8.65,4.62h0Z"/>
    <path class="cls-2" d="M387.37,66.83c0,10.42,8.42,19.3,18.96,19.3s18.97-8.89,18.97-19.3-8.42-19.32-18.97-19.32-18.96,8.77-18.96,19.32M435.97,66.83c0,16.69-13.04,29.49-29.64,29.49s-29.64-12.8-29.64-29.49,13.04-29.5,29.64-29.5,29.64,12.8,29.64,29.5"/>
    <path class="cls-2" d="M490.57,38.99v-15.72h-10.67v15.72h-21.35v-13.99c0-5.45-.09-15.09,7.5-15.16,2.67-.02,5.79.46,7.19.86V.98C471.64.51,468.38,0,465.77,0,452.02,0,447.87,9.71,447.87,21.8v17.19h-4.87v9.95h4.87v45.49h10.67v-45.49h21.35v45.49h10.67v-45.49h10.43v-9.95h-10.43.01Z"/>
    <rect class="cls-2" x="310.57" y="38.71" width="10.67" height="55.55"/>
    <path class="cls-2" d="M322.58,20.75c0,3.65-3.01,6.56-6.67,6.56s-6.67-2.91-6.67-6.56,3.01-6.77,6.67-6.77,6.67,3.01,6.67,6.77"/>
  </g>
  <polygon class="cls-1" points="530.76 98.04 515.86 98.04 553.76 35.05 568.41 35.05 530.76 98.04"/>
  <g>
    <path class="cls-2" d="M603.09,41.23c3.95-2.55,8.65-3.83,14.1-3.83,5.17,0,9.83,1.21,13.99,3.62,4.16,2.41,7.41,5.83,9.75,10.27,2.34,4.44,3.51,9.59,3.51,15.46s-1.17,11.04-3.51,15.51c-2.34,4.47-5.59,7.93-9.75,10.38-4.16,2.45-8.82,3.67-13.99,3.67s-10.06-1.27-14.04-3.83c-3.98-2.55-6.88-5.75-8.7-9.59v39.62h-7.23V38.24h7.23v12.58c1.82-3.84,4.7-7.04,8.65-9.59ZM634.21,54.43c-1.85-3.46-4.39-6.09-7.6-7.91-3.21-1.82-6.85-2.72-10.9-2.72s-7.49.94-10.74,2.83c-3.25,1.89-5.82,4.58-7.7,8.07-1.89,3.5-2.83,7.55-2.83,12.16s.94,8.66,2.83,12.16c1.89,3.49,4.45,6.18,7.7,8.07,3.25,1.89,6.83,2.83,10.74,2.83s7.69-.92,10.9-2.78c3.21-1.85,5.75-4.54,7.6-8.07,1.85-3.53,2.78-7.63,2.78-12.31s-.93-8.86-2.78-12.31Z"/>
    <path class="cls-2" d="M663.16,17.91v77.56h-7.34V17.91h7.34Z"/>
    <path class="cls-2" d="M678.08,51.29c2.34-4.44,5.59-7.86,9.75-10.27,4.16-2.41,8.86-3.62,14.1-3.62s10.15,1.26,14.1,3.77c3.95,2.52,6.79,5.73,8.54,9.64v-12.58h7.34v57.22h-7.34v-12.68c-1.82,3.91-4.7,7.14-8.65,9.69-3.95,2.55-8.65,3.83-14.1,3.83s-9.84-1.22-13.99-3.67c-4.16-2.44-7.41-5.9-9.75-10.38-2.34-4.47-3.51-9.64-3.51-15.51s1.17-11.02,3.51-15.46ZM721.73,54.69c-1.89-3.49-4.45-6.18-7.7-8.07-3.25-1.89-6.83-2.83-10.74-2.83s-7.69.91-10.9,2.72c-3.21,1.82-5.75,4.46-7.6,7.91-1.85,3.46-2.78,7.56-2.78,12.31s.93,8.79,2.78,12.31c1.85,3.53,4.38,6.22,7.6,8.07,3.21,1.85,6.85,2.78,10.9,2.78s7.49-.94,10.74-2.83c3.25-1.89,5.82-4.58,7.7-8.07,1.89-3.49,2.83-7.55,2.83-12.16s-.94-8.66-2.83-12.16Z"/>
    <path class="cls-2" d="M789.82,43.53c4.33,4.23,6.5,10.36,6.5,18.39v33.54h-7.23v-32.7c0-6.22-1.56-10.97-4.66-14.25-3.11-3.28-7.35-4.93-12.73-4.93s-9.92,1.75-13.21,5.24c-3.28,3.5-4.93,8.63-4.93,15.41v31.23h-7.34v-57.22h7.34v9.75c1.82-3.49,4.44-6.17,7.86-8.02,3.42-1.85,7.3-2.78,11.63-2.78,6.85,0,12.44,2.11,16.77,6.34Z"/>
  </g>
</svg>