<?xml version="1.0" encoding="utf-8"?>
<!-- Generator: Adobe Illustrator 24.0.1, SVG Export Plug-In . SVG Version: 6.00 Build 0)  -->
<svg version="1.1" id="Calque_1" xmlns="http://www.w3.org/2000/svg" xmlns:xlink="http://www.w3.org/1999/xlink" x="0px" y="0px"
	 viewBox="0 0 532.7 85.2" style="enable-background:new 0 0 532.7 85.2;" xml:space="preserve">
<style type="text/css">
	.st0{fill-rule:evenodd;clip-rule:evenodd;fill:#FFFFFF;}
	.st1{filter:url(#Adobe_OpacityMaskFilter);}
	.st2{mask:url(#mask-2_1_);fill-rule:evenodd;clip-rule:evenodd;fill:#FFFFFF;}
	.st3{filter:url(#Adobe_OpacityMaskFilter_1_);}
	.st4{mask:url(#mask-2_2_);fill-rule:evenodd;clip-rule:evenodd;fill:#FFFFFF;}
	.st5{filter:url(#Adobe_OpacityMaskFilter_2_);}
	.st6{mask:url(#mask-2_3_);fill-rule:evenodd;clip-rule:evenodd;fill:#FFFFFF;}
	.st7{filter:url(#Adobe_OpacityMaskFilter_3_);}
	.st8{mask:url(#mask-2_4_);fill-rule:evenodd;clip-rule:evenodd;fill:#FFFFFF;}
	.st9{filter:url(#Adobe_OpacityMaskFilter_4_);}
	.st10{mask:url(#mask-2_5_);fill-rule:evenodd;clip-rule:evenodd;fill:#FFFFFF;}
	.st11{filter:url(#Adobe_OpacityMaskFilter_5_);}
	.st12{mask:url(#mask-2_6_);fill-rule:evenodd;clip-rule:evenodd;fill:#FFFFFF;}
	.st13{filter:url(#Adobe_OpacityMaskFilter_6_);}
	.st14{mask:url(#mask-2_7_);fill-rule:evenodd;clip-rule:evenodd;fill:#FFFFFF;}
	.st15{filter:url(#Adobe_OpacityMaskFilter_7_);}
	.st16{mask:url(#mask-2_8_);fill-rule:evenodd;clip-rule:evenodd;fill:#FFFFFF;}
	.st17{filter:url(#Adobe_OpacityMaskFilter_8_);}
	.st18{mask:url(#mask-2_9_);fill-rule:evenodd;clip-rule:evenodd;fill:#FFFFFF;}
	.st19{filter:url(#Adobe_OpacityMaskFilter_9_);}
	.st20{mask:url(#mask-2_10_);fill-rule:evenodd;clip-rule:evenodd;fill:#FFFFFF;}
	.st21{filter:url(#Adobe_OpacityMaskFilter_10_);}
	.st22{mask:url(#mask-2_11_);fill-rule:evenodd;clip-rule:evenodd;fill:#EF473D;}
	.st23{filter:url(#Adobe_OpacityMaskFilter_11_);}
	.st24{mask:url(#mask-2_12_);fill-rule:evenodd;clip-rule:evenodd;fill:#EF473D;}
	.st25{filter:url(#Adobe_OpacityMaskFilter_12_);}
	.st26{mask:url(#mask-2_13_);fill-rule:evenodd;clip-rule:evenodd;fill:#EF473D;}
</style>
<title>Mobile/Plan/Reverse</title>
<desc>Created with Sketch.</desc>
<g>
	<g id="Logo">
		<polygon id="Fill-1" class="st0" points="130.7,37.3 130.7,49 145,49 145,53.8 130.7,53.8 130.7,65.8 146.6,65.8 146.6,70.9 
			124.4,70.9 124.4,32.3 146.6,32.3 146.6,37.3 		"/>
		<g id="Group-20" transform="translate(0.000000, 0.374253)">
			<path id="Fill-2" class="st0" d="M163.8,48.2c-1.7,1.8-2.6,4.2-2.6,7.3c0,3.1,0.8,5.6,2.6,7.3c1.7,1.7,3.9,2.6,6.6,2.6
				c1.7,0,3.2-0.4,4.6-1.2c1.4-0.8,2.5-1.9,3.3-3.4c0.8-1.5,1.3-3.3,1.3-5.3c0-2-0.4-3.8-1.3-5.3c-0.8-1.5-2-2.6-3.3-3.4
				c-1.4-0.8-2.9-1.2-4.6-1.2C167.7,45.5,165.5,46.4,163.8,48.2 M175.5,41.8c1.8,1.2,3.2,2.8,4.1,4.9v-6.3h6.3v44.4h-6.3V63.9
				c-1,2.2-2.3,3.9-4.2,5.1c-1.8,1.2-4,1.9-6.5,1.9c-2.6,0-5-0.6-7.2-1.9c-2.2-1.3-3.9-3.1-5.1-5.4c-1.2-2.3-1.8-5-1.8-8.1
				c0-3.1,0.6-5.8,1.8-8.1c1.2-2.3,2.9-4.1,5.1-5.4c2.2-1.3,4.6-1.9,7.2-1.9C171.5,40.1,173.7,40.7,175.5,41.8"/>
			<path id="Fill-4" class="st0" d="M225.8,40.4v30.1h-6.3v-6.6c-0.8,2.2-2.1,3.9-4,5.2c-1.9,1.2-4.1,1.8-6.6,1.8
				c-3.5,0-6.3-1.1-8.5-3.4c-2.1-2.3-3.2-5.5-3.2-9.7V40.4h6.3v16.8c0,2.7,0.7,4.8,2.1,6.3c1.4,1.5,3.3,2.2,5.7,2.2
				c2.5,0,4.5-0.8,6-2.4c1.5-1.6,2.3-3.9,2.3-7V40.4H225.8z"/>
			<g id="Clip-7">
			</g>
			<defs>
				<filter id="Adobe_OpacityMaskFilter" filterUnits="userSpaceOnUse" x="236.8" y="28" width="8.1" height="42.5">
					<feColorMatrix  type="matrix" values="1 0 0 0 0  0 1 0 0 0  0 0 1 0 0  0 0 0 1 0"/>
				</filter>
			</defs>
			<mask maskUnits="userSpaceOnUse" x="236.8" y="28" width="8.1" height="42.5" id="mask-2_1_">
				<g class="st1">
					<polygon id="path-1_1_" class="st0" points="1.5,84.8 530.7,84.8 530.7,0 1.5,0 					"/>
				</g>
			</mask>
			<path id="Fill-6" class="st2" d="M237.7,70.5h6.3V40.4h-6.3V70.5z M237.9,29c0.7-0.7,1.7-1,2.9-1c1.2,0,2.2,0.4,2.9,1
				c0.7,0.7,1.1,1.6,1.1,2.6s-0.4,1.9-1.1,2.6c-0.8,0.6-1.7,1-2.9,1c-1.2,0-2.2-0.3-2.9-1c-0.7-0.7-1.1-1.5-1.1-2.6
				S237.2,29.7,237.9,29L237.9,29z"/>
			<defs>
				<filter id="Adobe_OpacityMaskFilter_1_" filterUnits="userSpaceOnUse" x="254.4" y="40" width="24" height="30.9">
					<feColorMatrix  type="matrix" values="1 0 0 0 0  0 1 0 0 0  0 0 1 0 0  0 0 0 1 0"/>
				</filter>
			</defs>
			<mask maskUnits="userSpaceOnUse" x="254.4" y="40" width="24" height="30.9" id="mask-2_2_">
				<g class="st3">
					<polygon id="path-1_2_" class="st0" points="1.5,84.8 530.7,84.8 530.7,0 1.5,0 					"/>
				</g>
			</mask>
			<path id="Fill-8" class="st4" d="M274.1,42.7c2.1,1.8,3.5,4.2,3.9,7.2h-5.9c-0.3-1.6-1-3-2.1-4c-1.2-1-2.7-1.5-4.6-1.5
				c-1.6,0-2.8,0.4-3.7,1.1c-0.9,0.8-1.3,1.8-1.3,3c0,0.9,0.3,1.7,0.9,2.3c0.6,0.6,1.4,1,2.3,1.4c0.9,0.3,2.3,0.7,4,1.1
				c2.3,0.5,4.1,1,5.5,1.6c1.4,0.5,2.6,1.4,3.6,2.6c1,1.2,1.5,2.8,1.5,4.8c0,2.5-1,4.5-2.9,6.1c-1.9,1.6-4.5,2.4-7.8,2.4
				c-3.8,0-6.8-0.9-9.1-2.6c-2.3-1.8-3.7-4.2-4.2-7.3h6.1c0.2,1.6,0.9,3,2.2,4c1.3,1,3,1.5,5,1.5c1.5,0,2.7-0.4,3.5-1.2
				c0.9-0.8,1.3-1.8,1.3-3c0-1.1-0.3-1.9-1-2.5c-0.7-0.6-1.5-1.1-2.5-1.4c-1-0.4-2.3-0.7-4.1-1.1c-2.2-0.5-4-1-5.4-1.5
				c-1.4-0.5-2.5-1.3-3.5-2.5c-1-1.1-1.5-2.7-1.5-4.7c0-2.5,1-4.6,2.9-6.2c1.9-1.6,4.6-2.4,8-2.4C269.2,40,272,40.9,274.1,42.7"/>
			<defs>
				<filter id="Adobe_OpacityMaskFilter_2_" filterUnits="userSpaceOnUse" x="287.1" y="40" width="30.8" height="30.9">
					<feColorMatrix  type="matrix" values="1 0 0 0 0  0 1 0 0 0  0 0 1 0 0  0 0 0 1 0"/>
				</filter>
			</defs>
			<mask maskUnits="userSpaceOnUse" x="287.1" y="40" width="30.8" height="30.9" id="mask-2_3_">
				<g class="st5">
					<polygon id="path-1_3_" class="st0" points="1.5,84.8 530.7,84.8 530.7,0 1.5,0 					"/>
				</g>
			</mask>
			<path id="Fill-9" class="st6" d="M298.1,46.5c-1.4,0.7-2.5,1.9-3.3,3.4c-0.8,1.5-1.2,3.4-1.2,5.5c0,2.2,0.4,4.1,1.2,5.6
				s1.9,2.6,3.3,3.3c1.4,0.7,2.8,1.1,4.5,1.1c1.6,0,3.1-0.4,4.4-1.1c1.4-0.7,2.4-1.8,3.3-3.3c0.8-1.5,1.2-3.4,1.2-5.6
				c0-2.2-0.4-4-1.2-5.5c-0.8-1.5-1.9-2.6-3.3-3.4c-1.4-0.7-2.8-1.1-4.4-1.1C300.9,45.4,299.4,45.8,298.1,46.5 M310.4,41.9
				c2.3,1.2,4.2,3,5.5,5.4c1.3,2.3,2,5.1,2,8.2c0,3.2-0.7,5.9-2,8.3c-1.3,2.3-3.2,4.1-5.5,5.4c-2.3,1.2-5,1.9-7.9,1.9
				c-2.9,0-5.6-0.6-7.9-1.9c-2.3-1.2-4.2-3-5.5-5.4c-1.3-2.4-2-5.1-2-8.2c0-3.1,0.7-5.9,2-8.2c1.3-2.3,3.2-4.1,5.5-5.4
				c2.3-1.2,5-1.9,7.9-1.9C305.4,40,308.1,40.6,310.4,41.9"/>
			<defs>
				<filter id="Adobe_OpacityMaskFilter_3_" filterUnits="userSpaceOnUse" x="324.9" y="28.7" width="17.1" height="41.8">
					<feColorMatrix  type="matrix" values="1 0 0 0 0  0 1 0 0 0  0 0 1 0 0  0 0 0 1 0"/>
				</filter>
			</defs>
			<mask maskUnits="userSpaceOnUse" x="324.9" y="28.7" width="17.1" height="41.8" id="mask-2_4_">
				<g class="st7">
					<polygon id="path-1_4_" class="st0" points="1.5,84.8 530.7,84.8 530.7,0 1.5,0 					"/>
				</g>
			</mask>
			<path id="Fill-10" class="st8" d="M336.8,35.4c-1,0.9-1.5,2.4-1.5,4.6v0.5h6.6v5.4h-6.6v24.7H329V45.8h-4.1v-5.4h4.1v-1
				c0-3.7,1.1-6.4,3.2-8.3c2.2-1.8,5.4-2.6,9.7-2.4v5.5C339.5,34.1,337.8,34.5,336.8,35.4"/>
			<defs>
				<filter id="Adobe_OpacityMaskFilter_4_" filterUnits="userSpaceOnUse" x="349.4" y="32.9" width="18" height="37.6">
					<feColorMatrix  type="matrix" values="1 0 0 0 0  0 1 0 0 0  0 0 1 0 0  0 0 0 1 0"/>
				</filter>
			</defs>
			<mask maskUnits="userSpaceOnUse" x="349.4" y="32.9" width="18" height="37.6" id="mask-2_5_">
				<g class="st9">
					<polygon id="path-1_5_" class="st0" points="1.5,84.8 530.7,84.8 530.7,0 1.5,0 					"/>
				</g>
			</mask>
			<path id="Fill-11" class="st10" d="M367.4,65.1v5.4h-3.8c-3.2,0-5.7-0.8-7.3-2.3c-1.7-1.5-2.5-4.1-2.5-7.7V45.7h-4.3v-5.3h4.3
				v-7.5h6.3v7.5h7.3v5.3h-7.3v14.9c0,1.7,0.3,2.9,1,3.5c0.6,0.7,1.8,1,3.4,1H367.4z"/>
			<defs>
				<filter id="Adobe_OpacityMaskFilter_5_" filterUnits="userSpaceOnUse" x="374" y="18.9" width="21" height="61.2">
					<feColorMatrix  type="matrix" values="1 0 0 0 0  0 1 0 0 0  0 0 1 0 0  0 0 0 1 0"/>
				</filter>
			</defs>
			<mask maskUnits="userSpaceOnUse" x="374" y="18.9" width="21" height="61.2" id="mask-2_6_">
				<g class="st11">
					<polygon id="path-1_6_" class="st0" points="1.5,84.8 530.7,84.8 530.7,0 1.5,0 					"/>
				</g>
			</mask>
			<polygon id="Fill-12" class="st12" points="395,18.9 380.1,80.1 374,80.1 388.9,18.9 			"/>
			<defs>
				<filter id="Adobe_OpacityMaskFilter_6_" filterUnits="userSpaceOnUse" x="401.1" y="40" width="31" height="44.8">
					<feColorMatrix  type="matrix" values="1 0 0 0 0  0 1 0 0 0  0 0 1 0 0  0 0 0 1 0"/>
				</filter>
			</defs>
			<mask maskUnits="userSpaceOnUse" x="401.1" y="40" width="31" height="44.8" id="mask-2_7_">
				<g class="st13">
					<polygon id="path-1_7_" class="st0" points="1.5,84.8 530.7,84.8 530.7,0 1.5,0 					"/>
				</g>
			</mask>
			<path id="Fill-13" class="st14" d="M411.8,46.7c-1.4,0.8-2.5,2-3.3,3.5c-0.8,1.5-1.2,3.3-1.2,5.2c0,2,0.4,3.8,1.2,5.2
				c0.8,1.5,1.9,2.6,3.3,3.5c1.4,0.8,3,1.2,4.7,1.2c2.8,0,5-0.9,6.7-2.6c1.7-1.8,2.5-4.2,2.5-7.3c0-3.1-0.8-5.5-2.5-7.3
				c-1.7-1.8-3.9-2.7-6.7-2.7C414.8,45.5,413.2,45.9,411.8,46.7 M425.5,41.9c2.1,1.2,3.7,3,4.9,5.3c1.2,2.3,1.8,5.1,1.8,8.2
				c0,3.2-0.6,5.9-1.8,8.2c-1.2,2.3-2.8,4.1-4.9,5.4c-2.1,1.2-4.4,1.9-7.1,1.9c-2.7,0-5.1-0.7-7-2c-1.9-1.4-3.3-3.1-4.1-5.4v21.3
				h-6.3V40.4h6.3v7c0.8-2.2,2.1-4,4.1-5.4c1.9-1.3,4.3-2,7-2C421.1,40,423.4,40.6,425.5,41.9"/>
			<defs>
				<filter id="Adobe_OpacityMaskFilter_7_" filterUnits="userSpaceOnUse" x="442.5" y="30.1" width="6.3" height="40.4">
					<feColorMatrix  type="matrix" values="1 0 0 0 0  0 1 0 0 0  0 0 1 0 0  0 0 0 1 0"/>
				</filter>
			</defs>
			<mask maskUnits="userSpaceOnUse" x="442.5" y="30.1" width="6.3" height="40.4" id="mask-2_8_">
				<g class="st15">
					<polygon id="path-1_8_" class="st0" points="1.5,84.8 530.7,84.8 530.7,0 1.5,0 					"/>
				</g>
			</mask>
			<polygon id="Fill-14" class="st16" points="442.5,70.5 448.8,70.5 448.8,30.1 442.5,30.1 			"/>
			<defs>
				<filter id="Adobe_OpacityMaskFilter_8_" filterUnits="userSpaceOnUse" x="459.2" y="40" width="31.1" height="30.9">
					<feColorMatrix  type="matrix" values="1 0 0 0 0  0 1 0 0 0  0 0 1 0 0  0 0 0 1 0"/>
				</filter>
			</defs>
			<mask maskUnits="userSpaceOnUse" x="459.2" y="40" width="31.1" height="30.9" id="mask-2_9_">
				<g class="st17">
					<polygon id="path-1_9_" class="st0" points="1.5,84.8 530.7,84.8 530.7,0 1.5,0 					"/>
				</g>
			</mask>
			<path id="Fill-15" class="st18" d="M468.1,48.1c-1.7,1.8-2.5,4.2-2.5,7.3c0,3.1,0.8,5.5,2.5,7.3c1.7,1.8,3.9,2.6,6.7,2.6
				c1.8,0,3.3-0.4,4.7-1.2c1.4-0.8,2.5-2,3.3-3.5c0.8-1.5,1.2-3.2,1.2-5.2c0-2-0.4-3.7-1.2-5.2c-0.8-1.5-1.9-2.7-3.3-3.5
				c-1.4-0.8-3-1.2-4.7-1.2C472,45.5,469.8,46.4,468.1,48.1 M479.9,42c1.9,1.3,3.3,3.1,4.1,5.3v-7h6.3v30.1H484v-7
				c-0.8,2.2-2.2,4-4.1,5.4c-1.9,1.4-4.3,2-7,2c-2.6,0-5-0.6-7.1-1.9c-2.1-1.2-3.7-3-4.9-5.4c-1.2-2.3-1.8-5.1-1.8-8.2
				c0-3.1,0.6-5.9,1.8-8.2c1.2-2.3,2.8-4.1,4.9-5.4c2.1-1.2,4.4-1.9,7.1-1.9C475.6,40,477.9,40.7,479.9,42"/>
			<defs>
				<filter id="Adobe_OpacityMaskFilter_9_" filterUnits="userSpaceOnUse" x="502.1" y="39.9" width="28.6" height="30.6">
					<feColorMatrix  type="matrix" values="1 0 0 0 0  0 1 0 0 0  0 0 1 0 0  0 0 0 1 0"/>
				</filter>
			</defs>
			<mask maskUnits="userSpaceOnUse" x="502.1" y="39.9" width="28.6" height="30.6" id="mask-2_10_">
				<g class="st19">
					<polygon id="path-1_10_" class="st0" points="1.5,84.8 530.7,84.8 530.7,0 1.5,0 					"/>
				</g>
			</mask>
			<path id="Fill-16" class="st20" d="M527.5,43.3c2.1,2.3,3.2,5.5,3.2,9.7v17.5h-6.3V53.6c0-2.7-0.7-4.8-2.1-6.3
				c-1.4-1.5-3.3-2.2-5.7-2.2c-2.5,0-4.5,0.8-6,2.4c-1.5,1.6-2.2,3.9-2.2,7v16h-6.3V40.4h6.3V47c0.8-2.3,2.2-4,4.1-5.3
				c1.9-1.2,4.1-1.9,6.6-1.9C522.5,39.9,525.4,41,527.5,43.3"/>
			<defs>
				<filter id="Adobe_OpacityMaskFilter_10_" filterUnits="userSpaceOnUse" x="28.6" y="0" width="36.5" height="32">
					<feColorMatrix  type="matrix" values="1 0 0 0 0  0 1 0 0 0  0 0 1 0 0  0 0 0 1 0"/>
				</filter>
			</defs>
			<mask maskUnits="userSpaceOnUse" x="28.6" y="0" width="36.5" height="32" id="mask-2_11_">
				<g class="st21">
					<polygon id="path-1_11_" class="st0" points="1.5,84.8 530.7,84.8 530.7,0 1.5,0 					"/>
				</g>
			</mask>
			<polygon id="Fill-17" class="st22" points="46.9,0 46.9,23.7 33.5,23.7 28.6,32 65.1,32 			"/>
			<defs>
				<filter id="Adobe_OpacityMaskFilter_11_" filterUnits="userSpaceOnUse" x="1.5" y="60.3" width="89.6" height="16.7">
					<feColorMatrix  type="matrix" values="1 0 0 0 0  0 1 0 0 0  0 0 1 0 0  0 0 0 1 0"/>
				</filter>
			</defs>
			<mask maskUnits="userSpaceOnUse" x="1.5" y="60.3" width="89.6" height="16.7" id="mask-2_12_">
				<g class="st23">
					<polygon id="path-1_12_" class="st0" points="1.5,84.8 530.7,84.8 530.7,0 1.5,0 					"/>
				</g>
			</mask>
			<polygon id="Fill-18" class="st24" points="46.9,60.3 46.9,68.6 6.4,68.6 1.5,77 91.2,77 81.7,60.3 			"/>
			<defs>
				<filter id="Adobe_OpacityMaskFilter_12_" filterUnits="userSpaceOnUse" x="15.3" y="37.8" width="62.6" height="16.7">
					<feColorMatrix  type="matrix" values="1 0 0 0 0  0 1 0 0 0  0 0 1 0 0  0 0 0 1 0"/>
				</filter>
			</defs>
			<mask maskUnits="userSpaceOnUse" x="15.3" y="37.8" width="62.6" height="16.7" id="mask-2_13_">
				<g class="st25">
					<polygon id="path-1_13_" class="st0" points="1.5,84.8 530.7,84.8 530.7,0 1.5,0 					"/>
				</g>
			</mask>
			<polygon id="Fill-19" class="st26" points="68.3,37.8 46.9,37.8 46.9,46.1 20.2,46.1 15.3,54.5 77.9,54.5 			"/>
		</g>
	</g>
</g>
</svg>
