<svg width="158" height="100" viewBox="0 0 158 100" fill="none" xmlns="http://www.w3.org/2000/svg">
<g clip-path="url(#clip0_1223_1071)">
<mask id="mask0_1223_1071" style="mask-type:alpha" maskUnits="userSpaceOnUse" x="38" y="13" width="82" height="87">
<path fill-rule="evenodd" clip-rule="evenodd" d="M119.83 13.4222H38.49V63.0273H42.1873C42.1873 83.4468 58.7405 100 79.16 100C99.5794 100 116.133 83.4468 116.133 63.0273H119.83V13.4222Z" fill="#C4C4C4"/>
</mask>
<g mask="url(#mask0_1223_1071)">
<circle cx="79.49" cy="63.2006" r="36.9727" fill="#84C6EA"/>
<mask id="mask1_1223_1071" style="mask-type:alpha" maskUnits="userSpaceOnUse" x="48" y="24" width="63" height="77">
<path d="M79.49 24.9954C89.0191 24.9954 96.744 32.7203 96.744 42.2494L96.7442 44.1492C98.4927 44.4426 99.825 45.9634 99.825 47.7953V52.1088C99.825 53.9735 98.4445 55.5159 96.6497 55.7695C96.0131 61.8716 92.1957 67.0278 86.8849 69.5508L86.8846 75.2167H88.117C100.369 75.2167 110.301 85.1487 110.301 97.4003V100.173H48.6794V97.4003C48.6794 85.1487 58.6114 75.2167 70.8631 75.2167H72.0955L72.0955 69.5509C66.7845 67.028 62.967 61.8717 62.3301 55.7694C60.5356 55.5159 59.155 53.9735 59.155 52.1088V47.7953C59.155 45.9633 60.4875 44.4425 62.2362 44.1491L62.2361 42.2494C62.2361 32.7203 69.961 24.9954 79.49 24.9954Z" fill="#D08B5B"/>
</mask>
<g mask="url(#mask1_1223_1071)">
<path d="M79.49 24.9954C89.0191 24.9954 96.744 32.7203 96.744 42.2494L96.7442 44.1492C98.4927 44.4426 99.825 45.9634 99.825 47.7953V52.1088C99.825 53.9735 98.4445 55.5159 96.6497 55.7695C96.0131 61.8716 92.1957 67.0278 86.8849 69.5508L86.8846 75.2167H88.117C100.369 75.2167 110.301 85.1487 110.301 97.4003V100.173H48.6794V97.4003C48.6794 85.1487 58.6114 75.2167 70.8631 75.2167H72.0955L72.0955 69.5509C66.7845 67.028 62.967 61.8717 62.3301 55.7694C60.5356 55.5159 59.155 53.9735 59.155 52.1088V47.7953C59.155 45.9633 60.4875 44.4425 62.2362 44.1491L62.2361 42.2494C62.2361 32.7203 69.961 24.9954 79.49 24.9954Z" fill="#EDB98A"/>
<path fill-rule="evenodd" clip-rule="evenodd" d="M62.2361 53.9574C62.2361 63.4865 69.9609 71.2113 79.49 71.2113C89.0191 71.2113 96.7439 63.4865 96.7439 53.9574V56.4222C96.7439 65.9513 89.0191 73.6762 79.49 73.6762C69.9609 73.6762 62.2361 65.9513 62.2361 56.4222V53.9574Z" fill="black" fill-opacity="0.1"/>
</g>
<mask id="mask2_1223_1071" style="mask-type:alpha" maskUnits="userSpaceOnUse" x="48" y="75" width="63" height="26">
<path d="M69.3225 75.5643C69.3225 79.2194 73.9437 82.1824 79.6441 82.1824C85.3445 82.1824 89.9656 79.2194 89.9656 75.5643C89.9656 75.4556 89.9615 75.3475 89.9535 75.24C101.346 76.1735 110.301 85.7153 110.301 97.3487V100.106H48.6794V97.3487C48.6794 85.61 57.7971 76.0008 69.3369 75.2167C69.3272 75.3323 69.3225 75.448 69.3225 75.5643Z" fill="#E6E6E6"/>
</mask>
<g mask="url(#mask2_1223_1071)">
<path d="M69.3225 75.5643C69.3225 79.2194 73.9437 82.1824 79.6441 82.1824C85.3445 82.1824 89.9656 79.2194 89.9656 75.5643C89.9656 75.4556 89.9615 75.3475 89.9535 75.24C101.346 76.1735 110.301 85.7153 110.301 97.3487V100.106H48.6794V97.3487C48.6794 85.61 57.7971 76.0008 69.3369 75.2167C69.3272 75.3323 69.3225 75.448 69.3225 75.5643Z" fill="#25557C"/>
<path opacity="0.6" d="M79.336 84.3864C86.0804 84.3864 91.5478 80.6738 91.5478 76.0941C91.5478 71.5144 86.0804 67.8018 79.336 67.8018C72.5916 67.8018 67.1241 71.5144 67.1241 76.0941C67.1241 80.6738 72.5916 84.3864 79.336 84.3864Z" fill="black" fill-opacity="0.16"/>
</g>
<path d="M82.2629 60.7357H76.717C76.2066 60.7357 75.7927 61.1496 75.7927 61.66C75.7927 62.1705 76.2066 62.5844 76.717 62.5844H82.2629C82.7734 62.5844 83.1873 62.1705 83.1873 61.66C83.1873 61.1496 82.7734 60.7357 82.2629 60.7357Z" fill="black" fill-opacity="0.7"/>
<path fill-rule="evenodd" clip-rule="evenodd" d="M75.7927 53.9574C75.7927 55.3187 77.448 56.4222 79.49 56.4222C81.5319 56.4222 83.1873 55.3187 83.1873 53.9574" fill="black" fill-opacity="0.16"/>
<path fill-rule="evenodd" clip-rule="evenodd" d="M70.5542 46.5629C71.634 46.5629 72.6781 46.9678 73.3334 47.6544C73.5634 47.8621 73.7412 48.1269 73.8442 48.4265C73.8595 48.4627 73.8738 48.4996 73.8872 48.5369C73.9162 48.6178 73.9278 48.6951 73.9255 48.7634C73.9377 48.8495 73.9441 48.9379 73.9441 49.0277C73.9441 50.0487 73.1164 50.8763 72.0955 50.8763C71.0745 50.8763 70.2468 50.0487 70.2468 49.0277C70.2468 48.604 70.3894 48.2136 70.6291 47.9019C70.6043 47.9014 70.5792 47.9012 70.5542 47.9012C69.4018 47.9012 68.3593 48.2817 67.6087 48.8957C67.3342 49.1202 67.0487 48.8916 67.2151 48.5493C67.784 47.3789 69.0651 46.5629 70.5542 46.5629Z" fill="black" fill-opacity="0.6"/>
<path fill-rule="evenodd" clip-rule="evenodd" d="M88.4243 46.5629C89.5041 46.5629 90.5482 46.9678 91.2035 47.6544C91.4335 47.8621 91.6113 48.1269 91.7143 48.4265C91.7297 48.4627 91.744 48.4996 91.7573 48.5369C91.7863 48.6178 91.7979 48.6951 91.7956 48.7634C91.8078 48.8495 91.8142 48.9379 91.8142 49.0277C91.8142 50.0487 90.9866 50.8763 89.9656 50.8763C88.9446 50.8763 88.1169 50.0487 88.1169 49.0277C88.1169 48.604 88.2595 48.2136 88.4992 47.9019C88.4744 47.9014 88.4494 47.9012 88.4243 47.9012C87.2719 47.9012 86.2294 48.2817 85.4788 48.8957C85.2044 49.1202 84.9188 48.8916 85.0852 48.5493C85.6542 47.3789 86.9352 46.5629 88.4243 46.5629Z" fill="black" fill-opacity="0.6"/>
<path d="M67.0518 44.455C68.258 42.7577 71.5648 41.806 74.4133 42.5055C74.7438 42.5866 75.0775 42.3845 75.1587 42.054C75.2398 41.7235 75.0377 41.3898 74.7072 41.3086C71.3992 40.4962 67.57 41.5983 66.0472 43.741C65.8501 44.0184 65.9151 44.4031 66.1925 44.6003C66.4699 44.7974 66.8546 44.7324 67.0518 44.455Z" fill="black" fill-opacity="0.6"/>
<path d="M91.9282 44.455C90.722 42.7577 87.4152 41.806 84.5667 42.5055C84.2362 42.5866 83.9025 42.3845 83.8213 42.054C83.7401 41.7235 83.9423 41.3898 84.2728 41.3086C87.5808 40.4962 91.41 41.5983 92.9328 43.741C93.1299 44.0184 93.0649 44.4031 92.7875 44.6003C92.5101 44.7974 92.1253 44.7324 91.9282 44.455Z" fill="black" fill-opacity="0.6"/>
<path d="M61.6199 44.098C61.7267 44.5566 62.1353 44.4747 62.2361 44.098C62.0935 43.6191 63.2516 35.2394 66.2415 33.0062C67.3563 32.2308 73.3304 31.5371 79.2782 31.5413C85.1618 31.5455 91.0196 32.2392 92.1224 33.0062C95.1122 35.2394 96.2703 43.6191 96.1277 44.098C96.2286 44.4747 96.6371 44.5566 96.744 44.098C96.9655 40.9251 96.744 24.4638 79.1819 24.6873C61.6199 24.9109 61.3983 40.9251 61.6199 44.098Z" fill="#2C1B18"/>
<g clip-path="url(#clip1_1223_1071)">
<g filter="url(#filter0_d_1223_1071)">
<path d="M70.3917 42.2494C77.0815 42.2494 77.6414 45.3696 77.6414 48.5655C77.6414 52.284 74.4744 54.8817 69.9387 54.8817H69.089C64.7979 54.8817 62.2361 52.5204 62.2361 48.5655C62.2361 45.3696 62.7959 42.2494 69.4858 42.2494H70.3917ZM70.4362 44.098H69.4413C64.0658 44.098 63.5282 45.8053 63.4745 48.092L63.4716 48.2453C63.4697 48.3737 63.4689 48.5039 63.4687 48.6355L63.4685 48.7942C63.4685 48.8208 63.4685 48.8474 63.4685 48.8741C63.4685 51.0526 64.4286 53.6493 69.0055 53.6493H69.9387C73.7484 53.6493 76.409 51.6857 76.409 48.8741L76.4088 48.6355C76.4085 48.5039 76.4078 48.3737 76.4059 48.2453L76.403 48.092C76.3492 45.8053 75.8117 44.098 70.4362 44.098Z" fill="#252C2F"/>
<path d="M89.4942 42.2494C96.1841 42.2494 96.7439 45.3696 96.7439 48.5655C96.7439 52.284 93.577 54.8817 89.0413 54.8817H88.1916C83.9004 54.8817 81.3386 52.5204 81.3386 48.5655C81.3386 45.3696 81.8985 42.2494 88.5883 42.2494H89.4942ZM89.5388 44.098H88.5438C83.1683 44.098 82.6308 45.8053 82.577 48.092L82.5741 48.2453C82.5722 48.3737 82.5715 48.5039 82.5712 48.6355L82.571 48.8741C82.571 51.0526 83.5322 53.6493 88.108 53.6493H89.0413C92.851 53.6493 95.5115 51.6857 95.5115 48.8741L95.5115 48.7942L95.5113 48.6355C95.5111 48.5039 95.5103 48.3737 95.5084 48.2453L95.5055 48.092C95.4518 45.8053 94.9142 44.098 89.5388 44.098Z" fill="#252C2F"/>
<path d="M60.3734 44.0276C60.5865 43.8196 62.9169 42.2494 69.4766 42.2494C74.9767 42.2494 76.141 42.8202 77.9033 43.6826L78.0323 43.7463C78.1549 43.7896 78.7815 44.0024 79.5144 44.0258C80.1821 43.9972 80.7533 43.8162 80.9202 43.7582C82.9317 42.78 84.9007 42.2494 89.5035 42.2494C96.0632 42.2494 98.3936 43.8196 98.6066 44.0276C99.11 44.0276 99.5169 44.4251 99.5169 44.9167V45.8059C99.5169 46.2976 99.11 46.695 98.6066 46.695C98.6066 46.695 96.4802 46.695 96.4802 47.5841C96.4802 48.4733 95.8757 46.2976 95.8757 45.8059V44.9399C94.7655 44.515 92.7781 43.724 89.5035 43.724C85.855 43.724 84.038 44.371 82.4794 45.0134L82.4968 45.0555L82.496 45.6674L81.8129 47.3157L80.9691 46.9821C80.8937 46.9523 80.7311 46.8988 80.5056 46.8432C79.8771 46.6882 79.2309 46.641 78.6594 46.7583C78.4497 46.8013 78.2552 46.8659 78.0767 46.9531L77.2626 47.3509L76.448 45.7606L76.4842 45.0537L76.509 44.9936C75.1648 44.3672 73.9254 43.724 69.4766 43.724C66.2021 43.724 64.2148 44.5147 63.1044 44.9396V45.8059C63.1044 46.2976 62.1941 48.4733 62.1941 47.5841C62.1941 46.695 60.3734 46.695 60.3734 46.695C59.871 46.695 59.4631 46.2976 59.4631 45.8059V44.9167C59.4631 44.4251 59.871 44.0276 60.3734 44.0276Z" fill="#252C2F"/>
</g>
</g>
</g>
</g>
<defs>
<filter id="filter0_d_1223_1071" x="58.2307" y="41.6332" width="42.5186" height="15.0972" filterUnits="userSpaceOnUse" color-interpolation-filters="sRGB">
<feFlood flood-opacity="0" result="BackgroundImageFix"/>
<feColorMatrix in="SourceAlpha" type="matrix" values="0 0 0 0 0 0 0 0 0 0 0 0 0 0 0 0 0 0 127 0" result="hardAlpha"/>
<feOffset dy="0.616212"/>
<feGaussianBlur stdDeviation="0.616212"/>
<feColorMatrix type="matrix" values="0 0 0 0 0 0 0 0 0 0 0 0 0 0 0 0 0 0 0.2 0"/>
<feBlend mode="normal" in2="BackgroundImageFix" result="effect1_dropShadow_1223_1071"/>
<feBlend mode="normal" in="SourceGraphic" in2="effect1_dropShadow_1223_1071" result="shape"/>
</filter>
<clipPath id="clip0_1223_1071">
<rect width="81.34" height="86.2697" fill="white" transform="translate(38.49 13.7303)"/>
</clipPath>
<clipPath id="clip1_1223_1071">
<rect width="43.751" height="16.6377" fill="white" transform="translate(57.6145 40.0926)"/>
</clipPath>
</defs>
</svg>
